<svg xmlns="http://www.w3.org/2000/svg" height="24" viewBox="0 -960 960 960" width="24"><path d="M297.35-287.92q-37.54 31.42-77.95 28.27-40.4-3.16-70.13-27.66-29.73-24.5-39.73-64.27-10-39.77 14.81-81.34l76.23-125.89q-24-19.46-38.25-48.02-14.25-28.55-14.25-62.21 0-59.69 41.59-101.29 41.6-41.59 101.29-41.59 59.69 0 101.29 41.59 41.6 41.6 41.6 101.29 0 59.69-41.6 101.29-41.6 41.6-101.29 41.6-10.84 0-21.25-1.64-10.4-1.63-19.86-4.79L172.5-403.73q-12.73 21-7.71 41 5.02 20 20.44 32.54 15.23 12.73 35.67 14.42 20.45 1.69 39.95-14.42l402.38-342.19q36.96-31.43 77.13-28.16 40.18 3.27 69.79 27.77 29.62 24.69 40.1 64.31 10.48 39.61-14.52 81.69l-76.12 125.96q23.81 19.77 38.06 48.23 14.25 28.46 14.25 61.93 0 59.38-41.79 100.98-41.78 41.59-101.48 41.59-59.3 0-100.9-41.79-41.6-41.78-41.6-100.78 0-59.31 41.6-101.25 41.6-41.95 100.9-41.95 10.85 0 21.14 1.83 10.29 1.83 19.94 4.79l77.46-129.04q12.54-21 7.71-41-4.82-20-20.05-32.73-15.23-12.54-35.77-14.33-20.54-1.79-39.85 14.33L297.35-287.92Z"/></svg>