<svg xmlns="http://www.w3.org/2000/svg" height="24" viewBox="0 -960 960 960" width="24"><path d="M306.5-252q-48 41.5-101.75 37.25T111.5-251Q72-283 57.75-336.5T77-445l68.5-113q-22-24-35.75-56.05T96-682q0-76.5 52.75-129.25T278-864q76.5 0 129.25 52.75T460-682q0 76.5-52.75 129.25T278-500q-6.76 0-13.52-.75-6.77-.75-12.98-1.75l-71 119.5q-7 11.5-4.37 22.58 2.64 11.09 11.2 18.05 8.56 6.97 19.44 7.92 10.89.95 20.73-8.05l427-365q50-43.5 104-38.75T851-708.5q38.5 33 51.25 85.75T882.5-514.5l-67 113.5q22 24.5 35.25 55.82T864-277.49q0 75.99-52.75 128.74Q758.5-96 682-96t-129.25-52.75Q500-201.5 500-277.75T552.75-407Q605.5-460 682-460q6.96 0 13.54.75 6.58.75 12.96 1.75L780-576q7-11.5 3.32-22.5-3.67-11-12.25-18-8.57-7-19.4-7.5-10.83-.5-19.67 7.5L306.5-252ZM268-631q26 0 43.5-17.35Q329-665.71 329-691.5q0-26.5-17.5-44T268-753q-26 0-43.5 17.5T207-691.75q0 26.25 17.5 43.5T268-631Zm424 424q26 0 43.5-17.5T753-268q0-26-17.5-43.5T692-329q-26 0-43.5 17.5T631-268q0 26 17.5 43.5T692-207ZM268-692Zm424 424Z"/></svg>