<svg xmlns="http://www.w3.org/2000/svg" height="20" viewBox="0 -960 960 960" width="20"><path d="M355-325q-36.21 43-82.11 42.5Q227-283 194-308t-44-67q-11-42 17-87l68-110q-18-15-28.5-36.19Q196-629.39 196-654q0-47 31.5-78.5T306-764q47 0 78.5 31.5T416-654q0 47-31.5 78.5T306-544q-14.67 0-28.33-3-13.67-3-27.67-9l-67 105q-23 37-12.5 71t37.53 54.96q27.03 20.96 62.5 21.5Q306-303 336-334l270-300q35-43 79-44t78.24 23.95q34.24 24.95 47 67Q823-545 794-498l-69 111q18 15 28.5 35.49Q764-331.02 764-306q0 47-32.23 78.5-32.22 31.5-78.5 31.5-46.27 0-77.77-32.02-31.5-32.02-31.5-78T575.72-384q31.72-32 77.28-32 15.23 0 29.62 3.5Q697-409 711-403l66-106q23-37 12.97-71.45-10.03-34.44-37-55.5Q726-657 690-657.5T625-626L355-325Zm298.1 109q37.67 0 64.28-26.21 26.62-26.21 26.62-64T717.17-370q-26.82-26-64.5-26-37.67 0-63.17 26.21t-25.5 64Q564-268 589.71-242t63.39 26ZM306.21-564Q344-564 370-590.21t26-64Q396-692 369.79-718t-64-26Q268-744 242-717.79t-26 64Q216-616 242.21-590t64 26ZM654-306ZM306-654Z"/></svg>