<svg xmlns="http://www.w3.org/2000/svg" height="40" viewBox="0 -960 960 960" width="40"><path d="M293.33-250.67q-47 40.34-99.66 36.84-52.67-3.5-90-36.5-38-32.34-52.17-82.67-14.17-50.33 19.17-106.33l75-124q-26-24.67-40.17-57.76-14.17-33.09-14.17-70.24 0-74.02 52.33-126.68 52.32-52.66 126.34-52.66 73.35 0 126.51 52.66 53.16 52.66 53.16 126.68 0 73.35-53.16 126.5-53.16 53.16-126.51 53.16-7.53 0-16.07-.83-8.53-.83-14.93-3.83l-76.67 131.66q-10.33 16-6.71 31.57 3.61 15.57 15.5 23.5 10.21 8.6 25.21 10.6t28.34-10.67l443-380.33Q715-750.33 768.5-747.67q53.5 2.67 90.5 36 37.33 34 50 84.84Q921.67-576 890-522l-72.67 125q25.34 24 39.34 57.26 14 33.25 14 70.41 0 74.01-52.87 126.34-52.86 52.32-127.16 52.32-73.64 0-126.31-52.32-52.66-52.33-52.66-126.34 0-73.35 52.66-126.51Q617-449 690.67-449q7.15 0 15.41.5 8.25.5 15.59 2.17l77.66-129.34q9.34-15.33 5.39-31.07-3.95-15.73-15.84-23.66-11.88-8.27-26.05-10.1-14.16-1.83-26.83 10.17L293.33-250.67Z"/></svg>