<svg xmlns="http://www.w3.org/2000/svg" height="40" viewBox="0 -960 960 960" width="40"><path d="M289.57-253.71q-45.99 39.61-97.21 35.96-51.21-3.64-87.39-35.63-36.84-31.32-49.85-80.34-13-49.03 18.88-102.71l76.88-127.77q-26.58-24.29-41.32-57.58-14.75-33.29-14.75-70.03 0-72.52 51.15-123.8 51.14-51.29 123.46-51.29 71.9 0 123.54 51.36 51.63 51.35 51.63 123.44t-51.63 123.72q-51.64 51.64-123.54 51.64-8.46 0-17.48-.83-9.02-.84-16.17-3.98l-78.94 134.56q-11.35 17.98-7.03 35.22 4.31 17.24 16.59 26.64 12.27 9.4 28.98 11.45 16.72 2.04 31.91-11.78L671-706.96q46.17-39.46 97.84-36.37 51.67 3.09 88.19 34.71 35.96 32.55 48.34 82.23 12.38 49.68-18.7 101.93l-74.99 128.33q25.91 23.85 40.57 56.72 14.65 32.87 14.65 70.48 0 72.39-51.56 123.59-51.56 51.19-123.93 51.19-72.38 0-123.53-51.14-51.14-51.14-51.14-123.46 0-71.9 51.14-123.54 51.15-51.64 123.55-51.64 7.24 0 16.2.5 8.96.5 16.79 2.6l79.55-132.66q10.35-17.37 6.33-34.48-4.03-17.11-16.92-26.73-12.9-9.62-29.24-11.38-16.34-1.76-31.04 11.4L289.57-253.71Zm206.55-132.07q32.1 0 55.62-23.08 23.53-23.09 23.53-55.18t-23.42-55.18q-23.41-23.09-55.69-23.09-32.29 0-55.05 23.07-22.76 23.08-22.76 55.38 0 31.9 22.64 54.99 22.63 23.09 55.13 23.09Zm-31.41-32.57q32.08 0 55.18-23.08 23.09-23.07 23.09-55.37 0-31.9-23.08-55.19-23.07-23.28-55.37-23.28-31.9 0-54.99 23.28-23.1 23.27-23.1 55.36t23.09 55.18q23.09 23.1 55.18 23.1Zm32.38-45.22Zm-32.85-33.52Z"/></svg>