<svg xmlns="http://www.w3.org/2000/svg" height="40" viewBox="0 -960 960 960" width="40"><path d="M291.33-304.67q-32.21 27-66.44 24-34.22-3-58.89-24t-32.83-54q-8.17-33 12.83-68l80.33-133.66q-24.66-17-39.5-43.96Q172-631.25 172-663.57q0-51.78 36.3-88.11Q244.61-788 297.33-788q52.02 0 88.34 36.32Q422-715.35 422-663.33q0 52.01-36.33 88.34-36.32 36.32-88.34 36.32-13.53 0-26.06-2.33-12.54-2.33-23.94-7.33L166-413.67q-15.67 25.67-9.22 50.74 6.46 25.07 25.04 40.63 18.58 15.55 44.21 17.59 25.64 2.04 49.97-17.62l393.67-333q30.33-27 64.21-24.77 33.89 2.23 59.69 23.05 24.91 20.95 34.17 54.34 9.26 33.38-12.07 69.38l-81.34 134q24.67 17.66 39.17 44.16 14.5 26.5 14.5 58.5 0 52.02-36.84 88.35Q714.31-172 662.58-172q-52.29 0-88.1-36.84-35.81-36.85-35.81-88.15 0-51.31 36.03-87.83 36.03-36.51 87.63-36.51 12.98 0 25.82 2.5 12.85 2.5 24.52 7.5l81.33-135q15.67-26.34 9.69-51.02-5.98-24.69-24.5-40.33-18.52-15.65-44.19-18.15-25.67-2.5-50 18.16l-393.67 333ZM662.31-196q41.95 0 71.82-29.61 29.87-29.6 29.87-71.5 0-41.89-29.95-71.06-29.94-29.16-72-29.16-42.05 0-70.72 29.31-28.66 29.32-28.66 71.46 0 41.56 28.57 71.06t71.07 29.5ZM297.44-562.67q41.56 0 71.06-29.6 29.5-29.61 29.5-71.5 0-41.9-29.61-71.06-29.6-29.17-71.5-29.17-41.89 0-71.39 29.31-29.5 29.32-29.5 71.46 0 41.56 29.51 71.06t71.93 29.5Zm365.89 266Zm-366-366.66Z"/></svg>