<svg xmlns="http://www.w3.org/2000/svg" height="40" viewBox="0 -960 960 960" width="40"><path d="M286.74-255.99q-45.23 39.06-95.36 35.31-50.13-3.76-85.43-34.98-35.97-30.56-48.11-78.61t18.66-99.99l78.3-130.6q-27.02-23.96-42.2-57.11-15.18-33.16-15.18-70.33 0-71.08 50.29-121.43 50.28-50.34 121.28-50.34 70.81 0 121.3 50.37 50.5 50.38 50.5 121.27 0 70.9-50.5 121.39-50.49 50.5-121.3 50.5-9.08 0-18.4-.84-9.32-.83-17.24-4.08L152.7-388.72q-12.11 19.28-7.24 37.79 4.88 18.52 18.08 28.8 13.2 10.28 31.2 12.4 18 2.11 34.49-12.58L673.5-704.67q45.3-38.82 95.56-35.51 50.26 3.31 86.07 33.84 35.25 31.46 47.47 80.17 12.22 48.71-18.43 99.86l-76.73 130.83q26.35 23.75 41.49 56.51t15.14 70.58q0 71.02-50.58 121.33T691.73-96.75q-71.18 0-121.18-50.29-50.01-50.29-50.01-121.28 0-70.81 50.01-121.31 50-50.49 121.21-50.49 8.12 0 17.27.5 9.14.5 17.46 2.92l80.96-135.16q11.11-18.89 7.03-37.03-4.08-18.15-17.74-28.91-13.65-10.76-31.62-12.46-17.98-1.71-34.19 12.32L286.74-255.99Zm322.38-12.61q33.99 0 58.55-24.22 24.56-24.23 24.56-58.11 0-33.89-24.45-58.12-24.44-24.23-58.52-24.23t-57.98 24.22q-23.9 24.22-23.9 58.19 0 33.81 23.79 58.04 23.78 24.23 57.95 24.23ZM351.6-527.38q33.88 0 58.12-24.23 24.23-24.22 24.23-58.19 0-33.8-24.22-58.12-24.22-24.31-58.2-24.31-33.8 0-58.03 24.31-24.24 24.31-24.24 58.19 0 33.88 24.23 58.11 24.23 24.24 58.11 24.24Zm258.33 176.64ZM351.41-609.93Z"/></svg>