<svg xmlns="http://www.w3.org/2000/svg" height="24" viewBox="0 -960 960 960" width="24"><path d="M291.23-262.08q-44.15 38.92-93.11 34.42-48.97-4.5-83.5-33.8-34.54-29.31-45.5-76.89-10.96-47.57 17.96-96.57l75.54-126.7Q137-584.69 122.5-616.65 108-648.61 108-685.08q0-70 48.46-118.46Q204.92-852 274.92-852t118.46 48.46q48.47 48.46 48.47 118.46t-48.47 118.46q-48.46 48.47-118.46 48.47-9.53 0-18.19-.89-8.65-.88-17.81-4.04l-79.15 131.77q-11.54 18.69-6.27 36.69 5.27 18 18.19 28.54 12.93 10.54 30.62 12.23 17.69 1.7 34-12.23l432.84-371.46q43.77-37.92 91.66-34.3 47.88 3.61 82.8 32.92 34.93 29.31 47.47 76.88 12.53 47.58-17.77 97.96L797.38-397q25.62 23.08 40.12 54.35 14.5 31.26 14.5 67.73 0 70-48.66 118.46Q754.69-108 684.69-108q-69.61 0-118.07-48.66-48.47-48.65-48.47-118.26 0-69.62 48.47-118.27 48.46-48.66 118.07-48.66 9.54 0 18.08 1.08t17.69 4.23l78.77-132.15q10.54-18.69 6.96-35.69-3.57-17-16.5-28.54-12.92-11.54-31.11-12.93-18.2-1.38-34.5 12.93L291.23-262.08Z"/></svg>