<svg xmlns="http://www.w3.org/2000/svg" height="24" viewBox="0 -960 960 960" width="24"><path d="M292-249q-48 42-101 37.5T100-248q-38-32-50.5-84T69-438l74-124q-26-25-40.5-58.5T88-692q0-75 52.5-127.5T268-872q75 0 127.5 52.5T448-692q0 75-52.5 127.5T268-512q-8 0-15.5-.5T237-515l-78 131q-10 16-5.5 31.5T169-328q11 9 26 10.5t29-10.5l444-383q48-41 100.5-37t90.5 36q38 32 51.5 84T891-521l-74 124q26 25 40.5 58t14.5 71q0 75-52.5 127.5T692-88q-75 0-127.5-52.5T512-268q0-75 52.5-127.5T692-448q8 0 15 .5t15 2.5l78-131q9-16 6-30.5T792-631q-11-10-26.5-11T736-631L292-249Z"/></svg>