<svg xmlns="http://www.w3.org/2000/svg" height="24" viewBox="0 -960 960 960" width="24"><path d="M294-304q-32 27-67 24t-60-24q-25-21-33.5-55t12.5-69l79-131q-24-17-38.5-44T172-662q0-53 36.5-89.5T298-788q53 0 89.5 36.5T424-662q0 53-36.5 89.5T298-536q-13 0-25-2t-23-7l-80 132q-15 25-9 49t24 39q18 15 43 17t48-17l391-331q31-27 65-24.5t60 23.5q26 21 35.5 55T815-532l-80 132q24 17 38.5 43.5T788-298q0 53-37 89.5T661-172q-52 0-88.5-37T536-298q0-52 36.5-89t88.5-37q13 0 25.5 2.5T710-414l80-133q15-25 9.5-49T776-635q-18-15-43-17.5T685-635L294-304Z"/></svg>