<svg xmlns="http://www.w3.org/2000/svg" height="40" viewBox="0 -960 960 960" width="40"><path d="M290.76-270.55q-41.85 35.19-86.97 31.61-45.12-3.57-78.48-31.28-33.11-27.7-44.17-71.99-11.05-44.3 17.06-90.96l78.22-129.92q-25.68-21.39-40.73-52.54-15.05-31.16-15.05-67.06 0-65.57 46.21-111.87 46.22-46.3 111.79-46.3 65.42 0 111.72 46.3 46.29 46.3 46.29 111.87 0 65.42-46.29 111.71-46.3 46.3-111.72 46.3-10.14 0-19.98-1.3-9.85-1.3-18.6-4.22l-79.97 134.24q-12.2 20.64-7.44 39.9 4.75 19.25 19.43 30.89 14.35 12.13 33.83 13.76 19.48 1.63 37.62-13.83l426.28-364.8q41.84-35.51 87.38-32.18 45.53 3.33 78.15 31.27 32.62 28.28 43.73 72.61 11.1 44.34-16.77 91.01l-76.81 130q25.34 21.72 40.35 52.84 15.02 31.11 15.02 66.68 0 65.41-46.51 111.62-46.5 46.22-112.36 46.22-65.7 0-111.5-46.22-45.81-46.21-45.81-111.62 0-65.42 45.81-111.8 45.8-46.38 111.53-46.38 9.84 0 19.25.97 9.4.96 18.91 3.39l79.8-133q12.2-20.48 7.21-39.81-5-19.34-19.68-31.31-14.68-11.64-34.16-13.23-19.48-1.59-36.89 13.3l-425.7 365.13Z"/></svg>