<svg xmlns="http://www.w3.org/2000/svg" height="24" viewBox="0 -960 960 960" width="24"><path d="M290-283q-38.21 34-80.61 29.5Q167-258 138-283t-37.5-65.5Q92-389 116-430l78-131q-25-20-39.5-49.7Q140-640.41 140-674q0-62 42-104t104-42q62 0 104 42t42 104q0 62-42 104t-104 42q-11.67 0-22.33-1.5Q253-531 241.91-536L161-403q-14 23-7.5 45t22.53 34.96q16.03 12.96 37.95 15Q235.89-306 256-323l415-353q37-33 77.5-30t70.8 27.95q30.31 24.95 41 65.5Q871-572 845-529l-79 132q25 20 39.5 48.4T820-286q0 62-42.73 104-42.72 42-104 42Q612-140 570-182.52q-42-42.52-42-103.5t42.22-103.48Q612.44-432 673-432q11.77 0 22.88 2 11.12 2 22.12 7l80-134q13-23 8.47-43.95-4.53-20.94-20.5-35Q770-650 747.5-652T705-636L290-283Zm382.88 89q38.41 0 65.77-26.74Q766-247.48 766-286q0-38.52-27.35-65.26Q711.29-378 672.88-378t-64.64 26.74Q582-324.52 582-286q0 38.52 26.24 65.26Q634.47-194 672.88-194ZM286-582q38.52 0 65.26-26.74Q378-635.47 378-674t-26.74-65.26Q324.52-766 286-766q-38.52 0-65.26 26.74Q194-712.53 194-674t26.74 65.26Q247.48-582 286-582Zm388 296ZM286-674Z"/></svg>