<svg xmlns="http://www.w3.org/2000/svg" height="40" viewBox="0 -960 960 960" width="40"><path d="M289.17-275.33q-40.34 33.83-83.59 30.41-43.25-3.41-75.25-30.08-32-26.67-42.41-69.17-10.42-42.5 16.41-87.16l79.5-132q-26-20.67-41.25-51.43-15.25-30.75-15.25-66.57 0-63.19 44.74-107.93Q216.82-834 280-834q63.18 0 107.92 44.74 44.75 44.74 44.75 107.93 0 63.18-44.75 107.92-44.74 44.74-107.92 44.74-10.7 0-20.98-1.41-10.29-1.42-19.52-4.42l-81 135.83q-13 21.84-7.97 42.41 5.04 20.57 20.75 33.16 15.39 12.93 36.3 14.6 20.92 1.67 40.25-14.67L671.17-685.5q40-33.83 83.66-30.58 43.67 3.25 75.17 29.91 31.5 27 42.25 69.59Q883-574 856.17-529.17l-78.34 131.84q25.67 21.16 40.92 51.92Q834-314.66 834-279.17q0 63.02-44.95 107.76-44.94 44.74-108.41 44.74t-107.72-44.74q-44.25-44.74-44.25-107.76 0-63.18 44.25-108Q617.17-432 680.67-432q10.32 0 20.16 1.08 9.84 1.09 19.67 3.75L801.33-562q13-21.83 7.97-42.4t-20.75-33.5q-15.72-12.6-36.63-14.27Q731-653.83 712-637.83l-422.83 362.5Z"/></svg>