<svg xmlns="http://www.w3.org/2000/svg" height="20" viewBox="0 -960 960 960" width="20"><path d="M367.5-273q-52 57.5-116.75 55.75T138.5-255Q91-291 74.25-352.5T98-479l57.5-92q-16-22-25.75-48.04T120-674q0-70.5 47.75-118.25T286-840q70.5 0 118.25 47.75T452-674q0 70.5-47.75 118.25T286-508q-8.43 0-16.86-1.75t-17.64-3.75l-58 92.5q-15 23.5-7.87 44.58 7.14 21.09 24.7 34.05 17.56 12.97 38.94 12.42 21.39-.55 38.23-21.55l306-334q54-59.5 118-58.25T822-705.5q46.5 37 62.75 97.75T861.5-480.5l-56 92.5q16 22.5 25.25 47.81 9.25 25.31 9.25 54.7 0 69.99-47.75 117.74T674-120q-70.5 0-118.25-47.75t-47.75-118Q508-356 555.75-404T674-452q9.04 0 17.58 1.75t17.92 3.75L767-538q15-23.5 6.82-45-8.17-21.5-25.75-34.5-17.57-13-39.4-11.5T672-607.5L367.5-273ZM260.21-647Q283-647 298-662.07q15-15.06 15-37.64Q313-723 297.79-738t-38-15Q237-753 222-737.79t-15 38.25q0 23.04 15.21 37.79t38 14.75Zm440 440Q723-207 738-222.21t15-38Q753-283 737.79-298t-38-15Q677-313 662-297.79t-15 38Q647-237 662.21-222t38 15ZM260-700Zm440 440Z"/></svg>