<svg xmlns="http://www.w3.org/2000/svg" height="20" viewBox="0 -960 960 960" width="20"><path d="M361.41-291.26q-46.67 52.17-104.19 51.18-57.52-.99-100.08-33.18-42.55-32.2-57.02-86.47Q85.65-414 121.59-472.15l62.06-99.61Q166.13-591.48 156-616q-10.13-24.52-10.13-52.67 0-61.37 42.04-103.42 42.05-42.04 103.42-42.04 61.37 0 103.41 42.04 42.04 42.05 42.04 103.42 0 61.37-42.04 103.41t-103.41 42.04q-10.39 0-20.77-2.13-10.39-2.13-21.34-4.89l-61.81 98.59q-18.04 28.82-9.73 54.79 8.3 25.97 29.68 42 21.37 16.04 48.04 15.9 26.67-.13 48.84-24.93L598.83-668q47.15-52.65 103.92-52.16 56.77.49 98.71 32.92 41.93 32.44 57.04 86.34 15.11 53.9-20.59 113.55L776.59-388q17.52 20.22 27.53 44.56 10.01 24.35 10.01 52.63 0 60.85-42.04 102.9-42.05 42.04-103.42 42.04-61.37 0-103.41-42.04-42.04-42.05-42.04-103.17 0-61.12 42.04-103.41t103.41-42.29q10.86 0 21.11 2.13t21.24 4.89l61.31-98.35q18.04-28.82 9.48-55.27-8.55-26.45-29.93-42.49-21.38-16.04-48.54-15.3-27.15.74-48.08 25.3L361.41-291.26Zm208.47-31.61q28.12 0 47.68-19.63 19.57-19.63 19.57-47.54 0-28.61-19.78-48.18-19.78-19.56-47.89-19.56t-47.68 19.77q-19.56 19.78-19.56 48.14 0 28.37 19.77 47.68 19.78 19.32 47.89 19.32ZM390.54-502.22q28.11 0 47.68-19.77 19.56-19.78 19.56-47.89 0-28.12-19.77-47.68-19.78-19.57-47.89-19.57-28.12 0-47.68 19.78-19.57 19.78-19.57 47.89t19.78 47.68q19.78 19.56 47.89 19.56Zm179.13 111.89ZM390.33-569.67Z"/></svg>