<svg xmlns="http://www.w3.org/2000/svg" height="20" viewBox="0 -960 960 960" width="20"><path d="M351-304q-42 50-95.5 48T165-287q-37-29-48-77.5t20-99.5l67-110q-19-18-29.5-41.5T164-666q0-56 37-93t93-37q56 0 93 37t37 93q0 56-37 93t-93 37q-14 0-26-2.5t-26-8.5l-68 106q-22 35-11 67t36 51q25 19 57.5 19.5T316-332l294-322q41-49 91.5-49.5T790-675q38 29 52.5 77.5T824-495l-68 111q19 18 29.5 40.5T796-294q0 56-37.5 93T665-164q-55 0-92-37.5T536-294q0-55 37-92.5t92-37.5q14 0 27 3t27 9l66-107q21-35 12-66.5T763-637q-25-20-58.5-20T645-627L351-304Z"/></svg>