<svg xmlns="http://www.w3.org/2000/svg" height="40" viewBox="0 -960 960 960" width="40"><path d="M292.17-305.67q-32.88 26.5-66.69 23.67-33.81-2.83-58.31-23.67-24.5-20.83-32.67-53.33-8.17-32.5 13-67.67l80.67-133.5q-25.34-17.33-39.92-43.94-14.58-26.61-14.58-58.52 0-51.22 36.22-87.46 36.22-36.24 88.28-36.24 51.35 0 87.59 36.24T422-662.5q0 51.35-36.24 87.59t-87.55 36.24q-13.41 0-26.11-2.41-12.7-2.42-23.77-7.75l-81.12 134.54q-16.21 25.79-9.58 50.86 6.62 25.07 25.45 40.29 17.98 16.06 43.62 18.27 25.63 2.2 50.63-18.3l392.34-331.5q30.16-26.5 63.8-24.43 33.63 2.07 58.77 23.14 24.24 21.2 33.75 54.08 9.51 32.88-11.27 68.13L733.33-399.5q24.5 18 38.75 44.19 14.25 26.18 14.25 57.81 0 51.35-36.76 87.59t-87.83 36.24q-51.61 0-87.34-36.56-35.73-36.56-35.73-88.18 0-50.39 35.94-86.66 35.95-36.26 86.89-36.26 12.49 0 25.66 2.54t25.34 7.12l80.63-134.08q15.7-26.42 9.61-51.1-6.09-24.69-24.48-40.58Q760-653 734.09-655.42q-25.92-2.41-50.19 17.87L292.17-305.67Zm369.3 108.84q41.95 0 71.82-29.61 29.88-29.61 29.88-71.83 0-41.56-29.95-70.73t-72-29.17q-42.05 0-70.72 29.32-28.67 29.31-28.67 71.12 0 41.9 28.57 71.4 28.58 29.5 71.07 29.5Zm-363.2-365q41.56 0 71.06-29.61t29.5-71.5q0-41.89-29.6-71.06-29.61-29.17-71.5-29.17-41.9 0-71.4 29.32-29.5 29.31-29.5 71.46 0 41.56 29.51 71.06t71.93 29.5ZM662.5-297.5Zm-364.33-365Z"/></svg>