<svg xmlns="http://www.w3.org/2000/svg" height="24" viewBox="0 -960 960 960" width="24"><path d="M294.39-246.37q-48.72 42.72-102.91 38.22-54.2-4.5-93.15-37.22-38.96-32.72-52.18-85.91-13.22-53.2 19.74-108.63l72.81-121.61q-25.53-25.24-39.79-58.92Q84.65-654.11 84.65-692q0-76.43 53.46-129.89 53.46-53.46 129.89-53.46 76.43 0 130.01 53.46 53.58 53.46 53.58 129.89 0 76.43-53.58 130.01-53.58 53.58-130.01 53.58-7.05 0-14.34-.5t-14.82-2.26l-76.49 129.08q-9.28 14.57-5.27 28.89 4.01 14.33 14.17 22.6 10.16 8.28 23.92 9.64 13.76 1.37 26.44-9.67l444.24-383q48.95-41.96 102.89-37.96 53.93 4 92.84 36.96 38.9 32.96 52.45 86.03 13.56 53.08-19.92 109.27l-72.57 121.85q25.53 25.24 39.67 58.21 14.14 32.98 14.14 71.27 0 76.43-53.46 129.89Q768.43-84.65 692-84.65q-76.43 0-130.01-53.46-53.58-53.46-53.58-129.89 0-76.43 53.58-130.01 53.58-53.58 130.01-53.58 7.05 0 13.94.5t14.39 2.26l76.8-128.84q8.28-14.57 5.4-27.99-2.88-13.43-13.16-22.59-10.28-9.16-24.35-10.04-14.06-.88-26.63 10.16l-444 381.76Zm298.49-50.46q28.97 0 49.63-20.66 20.66-20.66 20.66-49.63 0-28.97-20.66-49.63-20.66-20.67-49.63-20.67-28.97 0-49.63 20.67-20.67 20.66-20.67 49.63 0 28.97 20.67 49.63 20.66 20.66 49.63 20.66ZM367.12-522.58q28.97 0 49.63-20.67 20.67-20.66 20.67-49.63 0-28.97-20.67-49.63-20.66-20.66-49.63-20.66-28.97 0-49.63 20.66-20.66 20.66-20.66 49.63 0 28.97 20.66 49.63 20.66 20.67 49.63 20.67ZM593-367ZM367-593Z"/></svg>