<svg xmlns="http://www.w3.org/2000/svg" height="24" viewBox="0 -960 960 960" width="24"><path d="M300.41-270.26q-42.67 36.17-89.19 32.68-46.52-3.49-81.2-31.68-34.43-28.2-46.4-74.47-11.97-46.27 16.97-94.42l73.06-120.61q-23.52-21.72-37.65-52.2-14.13-30.47-14.13-65.71 0-67.37 47.04-114.42 47.05-47.04 114.42-47.04t114.41 47.04q47.04 47.05 47.04 114.42t-47.04 114.41q-47.04 47.04-114.41 47.04-8.79 0-17.44-1.13-8.65-1.13-16.67-2.89l-74.81 125.59q-10.04 16.82-6.15 32.77 3.89 15.95 16.2 25.99 12.3 10.04 28.38 11.42 16.07 1.38 31.4-11.42L659.83-690q43.15-36.65 89.92-32.66 46.77 3.99 80.71 32.42Q864.39-661.8 876-615.9q11.61 45.9-17.09 94.55L786.59-401q23.52 22.22 37.53 52.58 14.01 30.35 14.01 65.59 0 66.87-47.04 113.92-47.05 47.04-114.42 47.04t-114.41-47.04q-47.04-47.05-47.04-113.92 0-67.37 47.04-114.66 47.04-47.29 114.41-47.29 9.03 0 17.18 1.13t16.17 2.89l75.31-125.35q10.04-16.82 5.91-32.77-4.13-15.95-16.44-25.99-12.3-10.04-28.38-11.3-16.07-1.26-31.16 11.3L300.41-270.26Z"/></svg>