<svg xmlns="http://www.w3.org/2000/svg" height="48" viewBox="0 -960 960 960" width="48"><path d="M285.93-270.7q-41.43 34.7-85.85 31.08-44.43-3.62-77-31.08-32.58-27.45-43.18-70.76-10.6-43.3 17.1-89.21l80.8-134.59q-26.76-21.22-42.27-52.74-15.51-31.51-15.51-67.63 0-64.83 45.79-110.71 45.79-45.88 110.49-45.88 64.44 0 110.36 45.92 45.93 45.93 45.93 110.48 0 64.56-45.93 110.48-45.92 45.93-110.3 45.93-10.81 0-21.32-1.38t-19.56-4.88L153-397.29q-13.35 22.72-8.24 43.65 5.1 20.93 21.04 33.48 15.43 13.05 36.71 14.79 21.28 1.74 40.66-15.04L674.8-690.07Q715.98-725 760.9-722q44.93 3 76.88 30.95 31.96 27.94 42.82 71.55 10.86 43.6-16.6 89.17L784.93-395.5q26.27 21.48 41.78 52.85 15.51 31.36 15.51 67.44 0 64.54-46.23 110.37-46.23 45.82-111.22 45.82-64.99 0-110.17-45.67-45.19-45.67-45.19-110.86 0-64.19 45.19-110.11 45.18-45.93 110.21-45.93 9.89 0 20.06 1.01 10.17 1 20.39 3.51l81.98-136.7q13.35-22.43 8.09-43.45-5.26-21.03-21.39-33.97-15.94-12.44-37.2-14.19-21.27-1.75-39.83 14.46L285.93-270.7Zm324.77 11.68q37.69 0 64.6-26.44 26.92-26.44 26.92-64.26 0-37.52-26.92-63.94-26.91-26.43-64.72-26.43-37.82 0-63.74 26.58-25.93 26.57-25.93 63.98 0 38.16 25.92 64.33 25.91 26.18 63.87 26.18ZM350.72-520.91q37.52 0 63.94-26.58 26.43-26.57 26.43-64.23 0-37.41-26.58-63.95-26.57-26.55-64.23-26.55-37.41 0-63.83 26.71-26.43 26.7-26.43 64.23 0 37.52 26.59 63.94 26.58 26.43 64.11 26.43Zm260.84 171.47ZM350.44-611.56Z"/></svg>