<svg xmlns="http://www.w3.org/2000/svg" height="40" viewBox="0 -960 960 960" width="40"><path d="M292.93-264.03q-43.91 37.04-91.59 33.24-47.67-3.79-82.59-32.91-34.92-29.11-46.85-75.85-11.92-46.74 17.93-96.12l76.48-127.1q-25.25-22.36-40.02-54.09-14.78-31.73-14.78-67.57 0-69.08 48.2-117.43 48.21-48.34 117.09-48.34 68.46 0 116.87 48.41 48.42 48.42 48.42 117.07 0 68.64-48.42 117.06-48.41 48.41-116.83 48.41-9.5 0-18.79-1.13t-17.23-3.95l-78.51 131.95q-11.16 19.13-6.88 36.64 4.28 17.5 17.61 28.01 13 10.84 30.63 12.38 17.64 1.55 33.99-12.72l430.3-368.17q44.34-37.79 92.43-34.35 48.1 3.44 82.23 33.29 34.14 29.84 45.74 76.65 11.6 46.81-17.69 95.82l-74.75 127.5q24.91 22.48 39.6 53.93 14.68 31.44 14.68 67.4 0 68.64-48.62 116.9-48.62 48.26-117.55 48.26-68.94 0-116.86-48.13-47.92-48.12-47.92-117.24 0-68.21 47.92-116.71t116.88-48.5q8.64 0 17.67.88 9.03.89 18.03 2.82l78.34-130.42q11.16-18.71 6.35-36.36-4.8-17.65-18.27-28.32-13.34-10.33-30.94-11.81-17.61-1.48-32.78 12l-429.52 368.6Zm196.21-126.82q33.51 0 57.28-23.3 23.77-23.3 23.77-56.93 0-33.67-23.77-57.01-23.77-23.34-57.47-23.34t-56.7 23.44q-23.01 23.43-23.01 57.06 0 33.9 22.99 56.99 23 23.09 56.91 23.09Zm-17.23-18.39q33.5 0 56.84-23.43 23.35-23.44 23.35-57.15 0-33.32-23.44-56.85-23.43-23.52-57.15-23.52-33.31 0-56.65 23.63-23.34 23.64-23.34 57.14t23.44 56.84q23.45 23.34 56.95 23.34Zm17.81-61.71Zm-18.1-18.77Z"/></svg>