<svg xmlns="http://www.w3.org/2000/svg" height="24" viewBox="0 -960 960 960" width="24"><path d="M290.46-275.15q-40.31 35.84-85.23 31.34-44.92-4.5-76-31.11-31.08-26.62-40.5-69.77-9.42-43.16 16.42-87.16l77.08-129.38Q157-582.38 142.5-612.81 128-643.23 128-678.15q0-65 44.42-109.43Q216.85-832 281.85-832t109.42 44.42q44.42 44.43 44.42 109.43t-44.42 109.42q-44.42 44.42-109.42 44.42-11.08 0-20.89-1.27t-20.11-5.57l-80.31 132.53q-13.08 21.39-7.04 41.89t20.88 32.58q14.85 12.07 35.24 13.96 20.38 1.88 39-13.96l421.69-359.93q39.54-34.84 82.81-31.61 43.26 3.23 75.11 29.84 31.85 26.62 43.42 69.77 11.58 43.16-16.03 88.93L777.77-397q25.23 21.15 39.73 50.69 14.5 29.54 14.5 64.46 0 65-44.81 109.43Q742.38-128 677.38-128q-64.23 0-108.65-44.81t-44.42-109.04q0-64.23 44.42-109.03 44.42-44.81 108.65-44.81 11.08 0 21.16 1.65 10.08 1.66 20.38 5.96l79.54-133.3q12.08-21.39 7.92-40.89-4.15-19.5-19-32.58-14.84-13.07-35.73-14.84-20.88-1.77-39.5 14.84l-421.69 359.7Z"/></svg>