<svg xmlns="http://www.w3.org/2000/svg" height="48" viewBox="0 -960 960 960" width="48"><path d="M290.5-305q-33 26.5-66.75 23.75T166-305q-25-21-33.25-53.25T146-426l81.5-135q-26-17.5-40.75-43.88Q172-631.27 172-664q0-51.03 36.49-87.51Q244.98-788 297-788q51.02 0 87.51 36.49Q421-715.03 421-664q0 51.03-36.49 87.51Q348.02-540 297-540q-13.8 0-26.6-2.5t-23.9-8l-82 136.5q-16.5 26-9.57 51.61 6.92 25.6 25.75 41Q198.5-305 224.5-302.75t52-18.75l395-334q30-26.5 64-24.75T794-657.5q23.5 22 33.5 54.75t-11 68.25l-82 135.5q25 18.5 39.25 45.13Q788-327.23 788-296.5q0 51.52-36.79 88.01Q714.41-172 662.96-172q-51.46 0-87.21-36.99Q540-245.98 540-296.5q0-51.02 35.75-87.26T663-420q12.23 0 25.62 2.5 13.38 2.5 25.88 7L796-546q16-27 9.57-52.11-6.42-25.1-24.75-41.5Q762.5-655 736.25-657.5t-51.25 18L290.5-305Z"/></svg>