<svg xmlns="http://www.w3.org/2000/svg" height="48" viewBox="0 -960 960 960" width="48"><path d="M289-257q-45 38-95 35t-85-35q-36-31-49.5-78T78-436l78-129q-27-24.08-41.5-57.16-14.5-33.07-14.5-68.55 0-71.17 50.18-121.73T271-863q69.52 0 120.76 50.74Q443-761.53 443-691.5t-51.24 121.26Q340.52-519 271-519q-8.9 0-18.79-1-9.9-1-16.21-5l-79 136q-12 19.36-7.87 37.37 4.14 18.01 16.95 27.37 12.81 9.36 30.31 11.81Q213.89-310 230-325l442-379q45-38 96.08-35.8 51.08 2.2 86.49 33.8 34.56 33 46.5 81.21Q913-576.58 883-526l-75 130q26 23 40.5 55.9t14.5 69.63q0 70.83-51.04 121.15Q760.91-99 690.46-99 620-99 569.5-149.18T519-270q0-69.52 50.5-120.76Q620-442 690.48-442q6.48 0 16.58.5 10.1.5 17.94 2.5l80-133q11-18 6.32-36.61-4.67-18.6-18.5-27.5Q779-645 762.5-647.5T731-636L289-257Zm90.46-244q32.33 0 56.94-23.73 24.6-23.73 24.6-56.26 0-32.54-24.44-56.27Q412.13-661 379.3-661t-56.06 23.7Q300-613.61 300-580.51q0 32.04 23.04 55.77Q346.08-501 379.46-501Zm202.53 201q32.54 0 56.27-23.7Q662-347.39 662-380.49q0-32.04-23.7-56.27Q614.61-461 581.51-461q-32.04 0-55.77 24.23Q502-412.54 502-380.01q0 32.54 23.73 56.27Q549.46-300 581.99-300ZM381-580Zm200 199Z"/></svg>