<svg xmlns="http://www.w3.org/2000/svg" height="24" viewBox="0 -960 960 960" width="24"><path d="M298.5-276q-41 34.5-85.25 31.25T136-275q-33-27-44.25-71T108-436l74.5-123q-24-21-38.25-51.05Q130-640.1 130-675q0-64.5 45.25-109.75T285-830q64.5 0 109.75 45.25T440-675q0 64.5-45.25 109.75T285-520q-9.33 0-18.67-1.25-9.33-1.25-17.83-3.25l-76 127.5q-11 18.5-6.82 36 4.17 17.5 17.75 28.5 13.57 11 31.4 12.5t34.67-12.5l412-352q41-34.5 85.5-30.75t77 30.75q32.5 27 43.75 70.75T851.5-523.5l-74 122.5q24 21.5 38.25 51.55Q830-319.39 830-284.49q0 63.99-45.25 109.24Q739.5-130 675-130t-109.75-45.25Q520-220.5 520-284.75t45.25-109.75Q610.5-440 675-440q9.35 0 18.17 1.25 8.83 1.25 17.33 3.25L787-563q11-18.5 6.82-36-4.17-17.5-17.75-28.5-13.57-11-31.4-12.5T710-627.5L298.5-276ZM675-205q33 0 56.5-23.35Q755-251.71 755-284.5q0-33.5-23.5-57T675-365q-33 0-56.5 23.5T595-284.75q0 33.25 23.5 56.5T675-205ZM285-595q33 0 56.5-23.5T365-675q0-33-23.5-56.5T285-755q-33 0-56.5 23.5T205-675q0 33 23.5 56.5T285-595Zm390 310ZM285-675Z"/></svg>