<svg xmlns="http://www.w3.org/2000/svg" height="48" viewBox="0 -960 960 960" width="48"><path d="M286.81-286.54q-37.39 30.81-76.64 27.6-39.25-3.21-68.05-27.6-28.81-24.38-38.14-62.48-9.32-38.1 15.25-78.83l81.81-135.92q-26.62-19.35-41.98-48.77-15.37-29.42-15.37-64.17 0-58.01 41.4-99.42 41.4-41.41 99.91-41.41 58.1 0 99.51 41.41 41.41 41.41 41.41 99.52 0 58.1-41.41 99.51-41.41 41.41-99.45 41.41-12.15 0-23.81-1.89-11.65-1.88-21.83-6.15l-82.86 138.47q-15.02 24.64-9.09 48.1 5.93 23.45 23.61 37.6 16.98 14.84 40.9 16.79 23.91 1.96 46.37-16.88l415.92-354.62q35.84-30.81 75.47-28.25 39.62 2.56 68.35 27.19 28.21 24.72 38.42 63.18 10.22 38.46-14.08 79.16l-81.16 136.14q25.92 20.04 41.09 49.28 15.18 29.24 15.18 63.66 0 58.01-41.76 99.42-41.76 41.41-100.1 41.41-58.67 0-99.33-41.44-40.66-41.45-40.66-100.11 0-57.63 40.75-98.96 40.74-41.33 99.17-41.33 11.22 0 22.8 1.65 11.59 1.65 22.86 5.08l82.36-137.23q14.83-24.96 9.18-48.2-5.66-23.24-23.31-38.02-17.46-14.28-41.48-16.32-24.03-2.04-45.95 16.47L286.81-286.54Zm388.89 99.62q40.42 0 69.21-28.53 28.78-28.53 28.78-69.09 0-40-28.83-68.27-28.82-28.27-69.3-28.27t-68.25 28.45q-27.77 28.46-27.77 68.44 0 40.65 27.71 68.96 27.72 28.31 68.45 28.31ZM285.16-579.54q39.99 0 68.46-28.62 28.46-28.62 28.46-68.81 0-40.18-28.62-68.45-28.62-28.27-68.81-28.27T216-745.24q-28.46 28.45-28.46 68.78 0 40 28.56 68.46 28.57 28.46 69.06 28.46ZM676.61-284ZM285-676.61Z"/></svg>