<svg xmlns="http://www.w3.org/2000/svg" height="40" viewBox="0 -960 960 960" width="40"><path d="M289.17-275.33q-40.34 33.83-83.59 30.41-43.25-3.41-75.25-30.08-32-26.67-42.41-69.17-10.42-42.5 16.41-87.16l79.5-132q-26-20.67-41.25-51.46t-15.25-66.54q0-63.19 44.74-107.93Q216.82-834 280-834q63.18 0 107.92 44.74 44.75 44.74 44.75 107.93 0 63.18-44.75 107.92-44.74 44.74-107.88 44.74-10.57 0-20.94-1.41-10.37-1.42-19.6-4.42l-80.96 135.71q-13.04 21.96-8.08 42.53 4.96 20.57 20.75 33.16 15.46 12.93 36.45 14.6 21 1.67 40.17-14.67L671.17-685.5q40-33.83 83.66-30.58Q798.5-712.83 830-686t42.25 69.42Q883-574 856.17-529.17l-78.34 131.84q25.67 21.16 40.92 51.89T834-279.02q0 62.87-44.95 107.61-44.94 44.74-108.41 44.74t-107.72-44.66q-44.25-44.66-44.25-108.09 0-62.93 44.25-107.75Q617.17-432 680.67-432q10.16 0 20.08 1.17 9.92 1.16 19.75 3.66l80.79-134.75q13.04-21.91 8.15-42.48-4.9-20.57-20.82-33.5-15.79-12.6-36.78-14.27-21-1.66-39.94 14.45L289.17-275.33ZM680.76-190q37.08 0 63.5-26.13 26.41-26.12 26.41-63.14 0-37.06-26.41-63.23-26.42-26.17-63.5-26.17-37.09 0-62.93 26.28Q592-316.12 592-279.31q0 37.48 25.83 63.39Q643.67-190 680.76-190ZM280.11-592q36.89 0 63.06-26.27 26.16-26.28 26.16-63.17t-26.27-63.06q-26.27-26.17-63.17-26.17-36.89 0-63.06 26.28-26.16 26.27-26.16 63.16 0 36.9 26.27 63.06Q243.21-592 280.11-592Zm401.22 312.67ZM280-681.33Z"/></svg>