<svg xmlns="http://www.w3.org/2000/svg" height="24" viewBox="0 -960 960 960" width="24"><path d="M295.5-307q-32.21 26.5-66.36 23.5-34.14-3-58.64-23.5T138-360.5q-8-33 12.5-67.5l79-130.5q-24-17-38.25-43.54T177-659.4q0-52.1 35.75-87.85Q248.5-783 300.5-783t87.75 35.75Q424-711.5 424-659.5t-35.75 87.75Q352.5-536 300.5-536q-12.83 0-25.17-2.25Q263-540.5 252-545.5l-79.5 131q-15.5 25-9.32 49 6.17 24 24.78 38.96 18.1 15.46 42.9 17.5Q255.66-307 279-326.5L666-653q30.5-26.5 63.75-24t58.49 23.2q25.24 20.7 34.25 53.75 9.01 33.05-11.77 67.97L731-400.5q23.5 17 37.75 42.93Q783-331.63 783-300.29q0 51.79-36.48 87.54Q710.05-177 658.77-177q-51.27 0-87.02-36.15Q536-249.3 536-300.77q0-50.73 35.97-86.98Q607.94-424 658.5-424q13 0 25.75 2.62Q697-418.75 708.5-414l79-131.5q15-25 9.29-48.95-5.7-23.94-23.75-39.25Q755-649 729.92-651.25T682-634L295.5-307Zm362.88 104.5q40.89 0 70-28.5 29.12-28.5 29.12-69.5T728.38-370q-29.11-28.5-70-28.5-40.88 0-68.88 28.5-28 28.5-28 69.5t28 69.5q28 28.5 68.88 28.5Zm-357.88-359q41 0 69.5-28.5t28.5-69.5q0-41-28.5-69.5t-69.5-28.5q-41 0-69.5 28.5t-28.5 69.5q0 41 28.5 69.5t69.5 28.5Zm359 261Zm-359-359Z"/></svg>