<svg xmlns="http://www.w3.org/2000/svg" height="24" viewBox="0 -960 960 960" width="24"><path d="M295.5-307q-32 26.5-66.25 23.5T170.5-307Q146-327.5 138-360.5t12.5-67.5l79-130.5q-24-17-38.25-43.25T177-659.5q0-52 35.75-87.75T300.5-783q52 0 87.75 35.75T424-659.5q0 52-35.75 87.75T300.5-536q-13 0-25.25-2.25T252-545.5l-79.5 131q-15.5 25-9.25 49t24.75 39q18 15.5 42.75 17.5T279-326.5L666-653q30.5-26.5 63.75-24T788-654q25 21 34.25 54t-11.75 68L731-400.5q23.5 17 37.75 43t14.25 57q0 52-36.25 87.75T658.5-177q-51 0-86.75-36.25T536-300.5q0-51 35.75-87.25T658.5-424q13 0 25.75 2.75T708.5-414l79-131.5q15-25 9.25-49T773-634q-18-15-43-17.25T682-634L295.5-307Z"/></svg>