<svg xmlns="http://www.w3.org/2000/svg" height="48" viewBox="0 -960 960 960" width="48"><path d="M283.69-274.69q-40 34.3-83.81 31-43.8-3.31-73.92-31-31.11-26.7-41.15-67.85-10.04-41.15 16.65-86.31l81.62-136.23q-27.23-21.54-42.85-52.54-15.61-30.99-15.61-66.67 0-62.77 44.76-107.55 44.76-44.77 108.08-44.77 62.91 0 107.69 44.77 44.77 44.78 44.77 107.69t-44.77 107.68q-44.78 44.78-107.69 44.78-11.62 0-22.85-1.39-11.24-1.38-20.7-6.15l-83.14 140.08q-14.77 23.51-8.52 46.28 6.26 22.77 22.36 35.42 16.11 12.65 38.38 15.36 22.28 2.71 43.32-15.45l430.38-368.38q39.16-34.31 82.82-31.46 43.67 2.86 75.11 29.05 30.08 27.68 41.04 69.85 10.95 42.17-15.74 86.71l-80.38 136.23q26.23 21.85 41.65 52.45 15.42 30.61 15.42 66.63 0 62.91-45.12 107.68Q746.37-124 683.21-124q-63.47 0-107.49-44.98-44.03-44.97-44.03-107.67 0-62.69 44.11-107.48 44.11-44.79 107.35-44.79 10.18 0 21.63 1.07 11.45 1.08 21.22 4.85l83.23-138.46q13.77-23.54 8.7-45.78-5.08-22.24-21.66-35.42-16.58-13.19-38.92-15.57-22.35-2.39-43.27 15.15L283.69-274.69Zm399.38 92.3q39.12 0 67.14-27.69 28.02-27.69 28.02-66.57 0-38.88-27.9-66.38-27.89-27.51-67.07-27.51-39.17 0-66.18 27.52-27 27.52-27 66.55 0 38.69 26.78 66.39 26.78 27.69 66.21 27.69ZM277.45-590.08q38.69 0 66.39-27.69 27.7-27.69 27.7-66.57 0-38.88-27.69-66.38-27.69-27.51-66.57-27.51-38.88 0-66.58 27.52-27.7 27.52-27.7 66.55 0 38.69 27.64 66.38 27.63 27.7 66.81 27.7Zm406.7 313.62ZM277.46-684.15Z"/></svg>