<svg xmlns="http://www.w3.org/2000/svg" height="20" viewBox="0 -960 960 960" width="20"><path d="M352.23-283.08Q304-228.16 244.08-230.16q-59.93-2-102.46-35.3-42.54-33.31-56-88.89-13.46-55.57 22.46-114.57l64.54-105.7q-19.62-21.07-30.12-47.1T132-677.08q0-64 43.46-107.46Q218.92-828 282.92-828q64 0 107.46 43.46 43.47 43.46 43.47 107.46 0 64-43.47 107.46-43.46 43.47-107.46 43.47-10.87 0-21.36-1.89-10.48-1.88-22.73-6.04l-66.06 104.77q-19.54 30.69-9.77 58.69 9.77 28 31.7 44.53 21.94 16.52 50.06 16.73 28.13.21 51.55-25.72l311.84-340.46q47.77-53.92 105.66-53.8 57.88.11 100.96 33.4 43.08 33.29 58.96 88.88 15.88 55.6-21.42 116.98L787.38-384q19.62 21.08 30.12 46.23 10.5 25.16 10.5 54.85 0 64-43.74 107.46Q740.52-132 676.8-132q-63.72 0-107.18-43.66-43.47-43.66-43.47-107.27t43.55-107.26q43.55-43.66 106.99-43.66 11.29 0 21.95 2.08 10.67 2.08 22.82 6.23l64.77-105.15q18.54-30.69 10.45-58.17t-30-45.04q-21.91-17.56-51.1-16.95-29.2.62-51.5 26.93L352.23-283.08ZM676.86-210q30.35 0 51.74-21.37 21.4-21.38 21.4-51.77 0-30.39-21.61-51.55-21.61-21.16-51.95-21.16-30.35 0-51.32 21.38-20.97 21.37-20.97 51.76 0 30.39 21.18 51.55Q646.51-210 676.86-210ZM283.14-604.15q30.39 0 51.55-21.38 21.16-21.37 21.16-51.76 0-30.39-21.38-51.55Q313.1-750 282.71-750q-30.39 0-51.55 21.37Q210-707.25 210-676.86q0 30.39 21.37 51.55 21.38 21.16 51.77 21.16Zm393.94 321.23ZM282.92-677.08Z"/></svg>