<svg xmlns="http://www.w3.org/2000/svg" height="40" viewBox="0 -960 960 960" width="40"><path d="M286.21-270.49q-41.34 35.85-86.89 32.14-45.55-3.7-77.01-31.93-32.39-27.57-42.73-70.86-10.35-43.3 17.09-89.73l79.59-133.05q-26.69-22-41.94-53.13-15.24-31.13-15.24-67.41 0-65.27 46-111.28 46.01-46 111.54-46 65.27 0 111.27 46 46.01 46.01 46.01 111.28 0 65.27-46.01 111.28-46 46-111.27 46-11.15 0-21.42-1.22-10.26-1.22-19.56-5.45l-81.87 137.31q-13.69 21.67-7.77 42.97 5.93 21.3 21.3 33.26Q182-308.36 202.8-306q20.79 2.36 40.18-14.38l431.2-369.41q40.69-35.52 85.76-32.57 45.06 2.95 77.57 30.52 31.59 28.23 43.18 72.19 11.59 43.96-16.31 90.44l-78.89 133.18q26.02 22.26 41.14 53.16 15.11 30.89 15.11 66.92 0 65.27-46.27 111.28-46.27 46-111.83 46-65.44 0-110.95-46.19-45.51-46.2-45.51-111.09 0-65.14 45.51-111.21 45.51-46.07 110.98-46.07 10.18 0 20.55 1.08 10.37 1.07 19.93 4.64l81.75-136.36q12.69-21.92 8.12-42.43-4.56-20.51-19.93-33.46-15.37-12.29-36.33-14.34-20.97-2.05-40.35 14.41l-431.2 369.2Z"/></svg>