<svg xmlns="http://www.w3.org/2000/svg" height="40" viewBox="0 -960 960 960" width="40"><path d="M290.32-287q-37.38 31.01-77.04 27.82-39.66-3.19-68.65-27.62-29.24-24.42-38.8-63.07-9.55-38.66 15.11-79.67l79.95-132.58q-25.75-19.38-40.74-48.44-14.99-29.05-14.99-63.53 0-58.63 41.47-100.1 41.47-41.48 100.36-41.48 58.63 0 100.1 41.48 41.47 41.47 41.47 100.1 0 58.63-41.47 100.1-41.47 41.48-100.1 41.48-11.79 0-22.97-1.8-11.18-1.81-21.12-5.7l-81.07 135.38q-14.21 23.31-8.54 45.61 5.68 22.3 22.55 35.92 16.34 14.15 39.05 16.01 22.71 1.86 44.29-16.08l411.41-350.47q36.22-31.01 76.07-28.24 39.85 2.77 68.72 27.19 28.62 24.95 38.98 63.78 10.37 38.83-14.22 80.01l-79.42 132.73q25.21 19.95 40.08 49.04 14.87 29.09 14.87 62.78 0 58.66-41.75 100.13-41.74 41.48-100.65 41.48-58.8 0-99.78-41.67-40.98-41.66-40.98-99.94 0-58.5 40.98-100.02 40.98-41.53 99.8-41.53 11.16 0 22.28 1.66 11.12 1.66 21.85 5.04l80.77-134.58q14.03-23.57 8.55-45.74-5.49-22.17-22.17-36.32-16.67-13.62-39.48-15.58-22.81-1.95-43.86 15.65L290.32-287Z"/></svg>