<svg xmlns="http://www.w3.org/2000/svg" height="24" viewBox="0 -960 960 960" width="24"><path d="M302-238q-51 45-109 40.5T93-237q-42-35-57.5-92T56-446l69-114q-24-26-37.5-60.23Q74-654.47 74-692q0-81 56.5-137.5T268-886q81 0 138 56.5T463-692q0 81-57 138t-138 57q-5.1 0-11.19-.5-6.1-.5-11.81-1.5l-72 123q-7 10-4.54 20.58 2.45 10.59 9.94 16.55 7.49 5.97 17.49 6.92 10 .95 18.11-7.05l445-383q52-45 110.5-41t100.07 40q41.56 36 55.5 92.5Q939-574 904-514l-68 115q24 26 37 59.21 13 33.22 13 71.79 0 81-56.5 137.5T692-74q-81 0-138-56.5T497-268q0-81 57-138t138-57q5.23 0 11.18.5 5.94.5 11.82 1.5l73-122q6-10 3.5-20T781-619.5q-8-6.5-17.5-7T746-619L302-238Zm-24.5-386q24.03 0 41.26-17.24Q336-658.47 336-682.5q0-24.03-17.24-41.26Q301.53-741 277.5-741q-24.03 0-41.26 17.24Q219-706.53 219-682.5q0 24.03 17.24 41.26Q253.47-624 277.5-624Zm405 405q24.03 0 41.26-17.24Q741-253.47 741-277.5q0-24.03-17.24-41.26Q706.53-336 682.5-336q-24.03 0-41.26 17.24Q624-301.53 624-277.5q0 24.03 17.24 41.26Q658.47-219 682.5-219ZM278-682Zm404 404Z"/></svg>