<svg xmlns="http://www.w3.org/2000/svg" height="48" viewBox="0 -960 960 960" width="48"><path d="M282.91-260.8q-43.48 37.23-91.57 33.85-48.1-3.38-81.58-33.85-34.48-29.48-46.08-74.96-11.59-45.48 18.12-95.67l81.05-135.09q-27.76-23.24-43.4-55.87-15.65-32.64-15.65-70.13 0-68.24 48.72-117.08 48.72-48.83 116.96-48.83 68 0 116.96 48.83 48.95 48.84 48.95 117.08 0 68-48.95 116.96-48.96 48.95-116.96 48.95-10.32 0-20.5-1t-18.31-5l-82.8 140.57q-13.52 21.28-8.2 42.05 5.31 20.77 20.66 31.94 14.1 11.42 34.27 13.92 20.16 2.5 38.44-14.02L677.33-700.2q43.47-37.23 91.81-34.47 48.34 2.76 82.58 32.47 33.48 30.72 45.1 77.2 11.61 46.48-17.62 95.2l-78.81 135.32q26.76 23 42.4 55.75 15.64 32.76 15.64 70.25 0 68.24-49.14 116.96T691.48-102.8q-68.44 0-116.65-48.72-48.22-48.72-48.22-116.96 0-68 48.22-116.96 48.21-48.95 116.69-48.95 9.25 0 19.27.5 10.01.5 18.78 3.26l83.04-138.33q12.52-21.04 7.84-41.55-4.67-20.5-20.02-32.44-15.34-11.18-35.27-13.3-19.92-2.12-37.96 13.4L282.91-260.8Z"/></svg>