<svg xmlns="http://www.w3.org/2000/svg" height="24" viewBox="0 -960 960 960" width="24"><path d="M304-246q-49 42-104 38t-95.5-37q-40.5-33-56-88T68-445l69-114q-23-25-37-58t-14-70q0-78 54.5-132.5T273-874q78 0 132.5 54.5T460-687q0 78-54.5 132.5T273-500q-6.43 0-12.86-.5T248-502l-72 122q-7 11-4.54 22.08 2.45 11.09 10.44 18.05 7.99 6.97 19.04 7.92Q212-331 222-340l435-374q51-44 106.5-39.5T859-715q40 34 53.5 88.5T892-515l-68 115q23 25 36.5 57.27Q874-310.47 874-273q0 78-54.5 132.5T687-86q-78 0-132.5-54.5T500-273q0-78 54.5-132.5T687-460q6.62 0 12.87.5 6.25.5 12.13 1.5l73-121q7-11 3.5-22T777-619q-8-7-19-7.5t-20 7.5L304-246Zm-31-380q26 0 43.5-17.5T334-687q0-26-17.5-43.5T273-748q-26 0-43.5 17.5T212-687q0 26 17.5 43.5T273-626Zm414 414q26 0 43.5-17.5T748-273q0-26-17.5-43.5T687-334q-26 0-43.5 17.5T626-273q0 26 17.5 43.5T687-212ZM273-687Zm414 414Z"/></svg>