<svg xmlns="http://www.w3.org/2000/svg" height="20" viewBox="0 -960 960 960" width="20"><path d="M352.23-283.08q-48.15 54.92-108.11 52.92-59.97-2-102.5-35.3-42.54-33.31-56-88.89-13.46-55.57 22.46-114.57l64.54-105.7Q153-595.69 142.5-621.65T132-677.08q0-64 43.46-107.46Q218.92-828 282.92-828q64 0 107.46 43.46 43.47 43.46 43.47 107.46 0 64-43.47 107.46-43.46 43.47-107.46 43.47-11.53 0-21.69-1.89-10.15-1.88-22.31-6.04l-66.15 104.77q-19.54 30.69-9.77 58.69 9.77 28 31.69 44.54 21.93 16.54 50.12 16.73 28.19.2 51.5-25.73l311.84-340.46q47.77-53.92 105.66-53.8 57.88.11 100.8 33.42 42.93 33.31 58.97 88.88 16.03 55.58-21.27 116.96L787.38-384q19.62 21.08 30.12 46.35 10.5 25.26 10.5 54.73 0 64-43.66 107.46Q740.69-132 676.69-132q-63.61 0-107.07-43.66-43.47-43.65-43.47-107.26 0-63.62 43.47-107.27 43.46-43.66 107.07-43.66 11.54 0 22.08 2.08t22.69 6.23l64.77-105.15q18.54-30.69 10.46-58.19-8.07-27.5-30-45.04-21.92-17.54-51.11-16.93-29.2.62-51.5 26.93L352.23-283.08Z"/></svg>