<svg xmlns="http://www.w3.org/2000/svg" height="20" viewBox="0 -960 960 960" width="20"><path d="M363-259q-55 61-124 59t-119-41q-50-39-68-104t25-135l58-93q-18-24-27.5-52T98-684q0-75 51.5-126.5T276-862q75 0 127 51.5T455-684q0 75-52 127t-127 52q-7 0-14.5-1.5T245-510l-59 96q-15 22-8 42.5t24 32.5q16 12 36.5 11.5T274-348l324-352q56-61 124.5-60.5T840-720q50 40 67.5 104.5T883-480l-57 94q18 24 27 51.5t9 58.5q0 75-51.5 126.5T684-98q-75 0-127-51.5T505-276q0-75 52-127t127-52q8 0 15.5 1.5T716-450l59-95q14-22 7-42.5T758-620q-17-13-37.5-11.5T686-610L363-259Z"/></svg>