<svg xmlns="http://www.w3.org/2000/svg" height="24" viewBox="0 -960 960 960" width="24"><path d="M303.02-262.43q-44.95 38.45-94.57 34.64-49.62-3.82-86.58-33.64-36.39-29.83-49.34-79.2Q59.59-390 90.48-441.09l71.11-117.34q-22.87-22.7-36.84-53.83-13.97-31.13-13.97-66.7 0-71.28 49.49-120.77 49.49-49.49 120.77-49.49 71.29 0 120.78 49.49 49.48 49.49 49.48 120.77 0 71.29-49.48 120.78-49.49 49.48-120.78 49.48-7.8 0-15.64-.96-7.83-.97-15.2-2.4l-73.18 122.97q-8.74 14.55-5.33 28.37 3.4 13.83 14.07 22.57t24.47 9.95q13.79 1.22 26.83-9.95L657.54-697.5q46.09-39.59 95.96-35.27 49.87 4.31 85.76 34.7 35.89 30.4 47.99 79.23 12.1 48.84-18.23 100.43L798.98-401q22.87 23.2 36.55 54.04 13.69 30.85 13.69 66.42 0 70.78-49.49 120.27-49.49 49.49-120.77 49.49-71.29 0-120.78-49.49-49.48-49.49-49.48-120.27 0-71.29 49.48-121.03 49.49-49.73 120.78-49.73 8.37 0 15.7.96 7.34.97 14.71 2.4l73.67-122.41q8.74-14.54 4.77-28.37-3.96-13.82-14.64-22.56-10.67-8.74-24.46-9.68-13.8-.93-26.27 9.68L303.02-262.43Z"/></svg>