<svg xmlns="http://www.w3.org/2000/svg" height="40" viewBox="0 -960 960 960" width="40"><path d="M291.47-298.67q-34.43 28.2-70.5 25.23-36.07-2.97-62.05-25.15-26.48-22.18-35.17-56.99-8.69-34.8 13.79-72.16l80.4-133.16q-25.49-18.1-40.23-45.46-14.74-27.36-14.74-60.49 0-54.08 38.21-92.28 38.2-38.2 92.79-38.2 54.08 0 92.29 38.2 38.2 38.2 38.2 92.28t-38.2 92.29q-38.21 38.2-92.29 38.2-12.88 0-24.95-2.18-12.08-2.19-22.73-6.99l-81.12 134.94q-15.44 24.78-9.12 48.81 6.31 24.04 24.34 38.68 17.3 15.37 41.81 17.42 24.5 2.05 48.33-17.49l399.48-338.61q32.44-28.19 68.48-25.91 36.04 2.29 62.28 24.47 25.73 22.9 35.71 57.98 9.98 35.09-12.36 72.61L743.6-399q24.77 18.73 39.25 46.15 14.48 27.42 14.48 59.32 0 54.3-38.53 92.51-38.54 38.2-92.91 38.2-54.11 0-91.82-38.59-37.71-38.59-37.71-92.12 0-53.82 37.71-92.04 37.71-38.22 91.85-38.22 11.99 0 24.39 2.23 12.41 2.24 24.04 6.32l80.7-134.32q15.05-25.3 9.12-49.07-5.93-23.78-23.57-39.15-17.64-14.64-42.34-16.89-24.7-2.24-47.8 16.96L291.47-298.67Z"/></svg>