<svg xmlns="http://www.w3.org/2000/svg" height="40" viewBox="0 -960 960 960" width="40"><path d="M287.74-283.31q-38.16 33.03-79.85 29.45-41.68-3.58-70.2-29.37-29.18-25.13-38.37-64.39-9.19-39.25 15.68-81.46l79.85-133.43q-26.06-20.39-41.04-50.02-14.99-29.63-14.99-63.91 0-60.35 42.34-102.7 42.33-42.35 103.4-42.35 60.53 0 102.88 42.35 42.35 42.35 42.35 102.88 0 60.53-42.35 102.88-42.35 42.35-102.88 42.35-12.09 0-23.42-1.6-11.33-1.6-21.62-6.73l-81.65 136.28q-14.72 23.58-8.15 46.49 6.57 22.91 22.78 35.86 16.22 12.95 38.72 15.53 22.51 2.58 44.06-15.57l417.75-355.82q36.71-32.69 77.64-29.94 40.92 2.75 70.94 27.47 28.76 25.76 39.52 65.72 10.77 39.96-14.69 82.6l-79.8 133.69q25.39 20.84 40.12 49.75 14.73 28.9 14.73 63.4 0 60.53-42.8 102.88-42.79 42.35-103.18 42.35-60.8 0-102.64-42.75-41.84-42.74-41.84-102.73 0-59.98 42.01-102.48 42.01-42.5 102.29-42.5 10.94 0 22.73 1.66 11.79 1.65 22.25 6.11l81.49-135.72q13.71-23.84 8.68-45.91-5.04-22.07-21.54-35.76-16.5-13.69-39.26-16.12-22.76-2.44-44.19 15.82L287.74-283.31Zm387.48 93.46q39.13 0 67.11-27.63 27.98-27.62 27.98-66.67 0-39.04-27.93-66.42-27.92-27.38-67.13-27.38-39.21 0-66.13 27.41-26.91 27.4-26.91 66.64 0 38.78 26.73 66.42 26.73 27.63 66.28 27.63ZM284.56-582.21q38.79 0 66.42-27.62 27.64-27.63 27.64-66.68 0-39.04-27.63-66.42-27.63-27.38-66.68-27.38-39.04 0-66.68 27.41Q190-715.5 190-676.26q0 38.79 27.56 66.42 27.55 27.63 67 27.63Zm391.7 298.31Zm-391.7-392.36Z"/></svg>