<svg xmlns="http://www.w3.org/2000/svg" height="24" viewBox="0 -960 960 960" width="24"><path d="M304-246q-49 42-104 38t-96-37q-40-33-55.5-88T68-445l69-114q-23-25-37-58t-14-70q0-78 54.5-132.5T273-874q78 0 132.5 54.5T460-687q0 78-54.5 132.5T273-500q-6 0-12.5-.5T248-502l-72 122q-7 11-4.5 22t10.5 18q8 7 19 8t21-8l435-374q51-44 106.5-39.5T859-715q40 34 53.5 88.5T892-515l-68 115q23 25 36.5 57.5T874-273q0 78-54.5 132.5T687-86q-78 0-132.5-54.5T500-273q0-78 54.5-132.5T687-460q7 0 13 .5t12 1.5l73-121q7-11 3.5-22T777-619q-8-7-19-7.5t-20 7.5L304-246Z"/></svg>