<svg xmlns="http://www.w3.org/2000/svg" height="48" viewBox="0 -960 960 960" width="48"><path d="M285.52-259.17q-44.13 37.56-93.04 34.34-48.91-3.21-83.05-34.34-35.13-30.13-47.54-76.26-12.41-46.14 18.28-97.96l79.74-132.48q-27.43-23.56-42.58-56.2-15.16-32.63-15.16-69.8 0-69.22 49.37-118.87 49.37-49.65 118.59-49.65 68.66 0 118.59 49.65 49.93 49.65 49.93 118.87 0 68.66-49.93 118.59-49.93 49.93-118.59 49.93-9.67 0-19.69-1-10.01-1-17.48-5l-81.18 138.61q-12.87 20.31-8.04 39.93 4.83 19.63 19.52 29.83 13.13 10.76 32.15 13.26 19.02 2.5 36.33-13.37l443.3-380.74q44.13-37.56 93.61-35.13 49.48 2.44 84.05 33.13 34.13 31.7 45.91 78.83 11.78 47.13-17.78 96.83l-77.18 133.04q26.44 23 41.59 55.91 15.15 32.92 15.15 70.09 0 69.22-49.96 118.59-49.95 49.37-119.6 49.37-69.09 0-118.29-49.37-49.19-49.37-49.19-118.59 0-68.66 49.19-118.59 49.2-49.93 118.33-49.93 8.6 0 18.45.5t18.29 2.93l81.74-136.04q11.87-19.74 7.19-39.43-4.68-19.69-19.37-30.33-14.69-10.2-33.15-12.48-18.45-2.28-35.19 12.59L285.52-259.17Z"/></svg>