<svg xmlns="http://www.w3.org/2000/svg" height="40" viewBox="0 -960 960 960" width="40"><path d="M290.41-296.97q-34 28.69-70.6 25.61-36.61-3.08-62.86-25.54-26.77-22.46-35.63-57.88-8.86-35.43 13.68-72.96l80.18-133.44q-25.05-18-40.04-45.83-14.99-27.83-14.99-61.25 0-54.86 38.52-93.38 38.52-38.51 93.89-38.51 54.87 0 93.38 38.51 38.52 38.52 38.52 93.38 0 54.87-38.52 93.38-38.51 38.52-93.38 38.52-12.76 0-24.76-2.1-11.99-2.1-22.85-6.57l-81.41 135.29q-15.05 24.66-8.99 48.69 6.07 24.04 23.93 39.02 17.85 14.98 42.44 16.86 24.59 1.89 47.7-16.93l401.74-341.16q32.72-28.69 69.18-26.29 36.46 2.4 63.49 24.86 26.51 22.46 36.35 58.22 9.85 35.75-12.94 74.06l-80.8 133.69q25.05 18.51 39.78 46.22 14.73 27.7 14.73 60.6 0 54.87-38.85 93.38-38.85 38.52-94 38.52-54.89 0-92.92-38.9-38.02-38.9-38.02-93 0-54.6 38.02-93.25 38.03-38.64 92.95-38.64 12.21 0 24.36 2.15 12.16 2.15 23.28 6.61l81.49-135.38q15.05-25.18 9.37-48.96-5.68-23.77-23.54-38.75-17.85-14.98-42.44-17.25-24.59-2.27-47.7 17.32L290.41-296.97Z"/></svg>