<svg xmlns="http://www.w3.org/2000/svg" height="24" viewBox="0 -960 960 960" width="24"><path d="M302-238q-51 45-109 40.5T93-237q-42-35-57.5-92T56-446l69-114q-24-26-37.5-60T74-692q0-81 56.5-137.5T268-886q81 0 138 56.5T463-692q0 81-57 138t-138 57q-5 0-11-.5t-12-1.5l-72 123q-7 10-4.5 20.5T179-339q7 6 17 7t18-7l445-383q52-45 110.5-41t99.5 40q42 36 56 92.5T904-514l-68 115q24 26 37 59.5t13 71.5q0 81-56.5 137.5T692-74q-81 0-138-56.5T497-268q0-81 57-138t138-57q6 0 11.5.5T715-461l73-122q6-10 3.5-20T781-619q-8-7-17.5-7.5T746-619L302-238Z"/></svg>