<svg xmlns="http://www.w3.org/2000/svg" height="40" viewBox="0 -960 960 960" width="40"><path d="M288.93-266.55q-42.18 35.69-88.22 32.19-46.04-3.49-80.07-31.86-33.78-28.37-45.58-73.66-11.81-45.29 17.14-93.29l78.39-130.59q-26.02-22.05-41.32-53.87-15.3-31.82-15.3-68.39 0-66.74 47.3-114.12 47.3-47.38 114.04-47.38 66.58 0 113.96 47.38 47.38 47.38 47.38 114.12 0 66.58-47.38 113.96-47.38 47.38-113.96 47.38-9.64 0-19.4-1.22-9.76-1.21-18.35-3.8l-80.63 135.74q-12.21 20.14-7.7 39.4 4.5 19.25 19.02 31.22 14.51 12.14 34.08 13.6 19.56 1.46 37.37-13.67l431.61-370.8q42.5-36.01 89.04-32.76 46.54 3.25 80.32 31.85 33.79 28.61 45.15 74.2 11.35 45.59-17.35 93.42l-77.48 130.83q26.01 21.89 41.27 53.68 15.26 31.78 15.26 68.35 0 66.74-47.58 114.04-47.59 47.3-114.61 47.3-66.87 0-113.76-47.3t-46.89-114.04q0-66.59 46.89-113.97 46.89-47.38 113.79-47.38 9.67 0 18.82.89 9.15.88 18.17 3.3l80.96-134.83q12.2-19.98 7.46-39.31-4.74-19.34-19.26-31.31-14.51-11.97-34.08-13.4-19.56-1.42-36.97 13.47L288.93-266.55Z"/></svg>