<svg xmlns="http://www.w3.org/2000/svg" height="20" viewBox="0 -960 960 960" width="20"><path d="M355-325q-36 43-82 42.5T194-308q-33-25-44-67t17-87l68-110q-18-15-28.5-36T196-654q0-47 31.5-78.5T306-764q47 0 78.5 31.5T416-654q0 47-31.5 78.5T306-544q-15 0-28.5-3t-27.5-9l-67 105q-23 37-12.5 71t37.5 55q27 21 62.5 21.5T336-334l270-300q35-43 79-44t78 24q34 25 47 67t-16 89l-69 111q18 15 28.5 35.5T764-306q0 47-32 78.5T653-196q-46 0-77.5-32T544-306q0-46 31.5-78t77.5-32q15 0 29.5 3.5T711-403l66-106q23-37 13-71.5T753-636q-27-21-63-21.5T625-626L355-325Z"/></svg>