<svg xmlns="http://www.w3.org/2000/svg" height="20" viewBox="0 -960 960 960" width="20"><path d="M367.5-273q-52 57.5-116.75 55.75T138-255q-47-36-63.75-97.5T98-479l57.5-92q-16-22-25.75-48T120-674q0-70.5 47.75-118.25T286-840q70.5 0 118.25 47.75T452-674q0 70.5-47.75 118.25T286-508q-8.5 0-16.75-1.75t-17.75-3.75l-58 92.5q-15 23.5-7.75 44.5t24.75 34q17.5 13 38.75 12.5t38.25-21.5l306-334q54-59.5 118-58.25T822-705.5q46.5 37 62.75 97.75T861.5-480.5l-56 92.5q16 22.5 25.25 48t9.25 54.5q0 70-47.75 117.75T674-120q-70.5 0-118.25-47.75T508-285.5q0-70.5 47.75-118.5T674-452q9.5 0 17.75 1.75t17.75 3.75L767-538q15-23.5 6.75-45T748-617.5q-17.5-13-39.25-11.5T672-607.5L367.5-273Z"/></svg>