<svg xmlns="http://www.w3.org/2000/svg" height="40" viewBox="0 -960 960 960" width="40"><path d="M290.32-287q-37.46 31.01-77.08 27.82-39.62-3.19-68.74-27.62-29.11-24.42-38.67-63.07-9.55-38.66 15.11-79.67l79.95-132.58q-25.75-19.38-40.74-48.56-14.99-29.18-14.99-63.46 0-58.58 41.46-100.05 41.46-41.48 100.37-41.48 58.63 0 100.1 41.48 41.47 41.47 41.47 100.1 0 58.63-41.47 100.1-41.47 41.48-100.06 41.48-11.67 0-22.93-1.8-11.26-1.81-21.2-5.7l-81.03 135.26q-14.25 23.43-8.65 45.73 5.6 22.3 22.55 35.91 16.43 14.13 39.21 16.01 22.78 1.87 44.2-16.07l411.41-350.47q36.22-31.01 76.03-28.22 39.8 2.8 68.86 27.41 28.7 24.67 38.98 63.52 10.27 38.85-14.23 80l-79.51 132.76q25.21 19.95 40.08 48.93 14.87 28.98 14.87 63.11 0 58.44-41.8 99.91-41.8 41.48-100.5 41.48-58.91 0-99.88-41.55-40.98-41.55-40.98-100.43 0-58.11 41.06-99.64 41.06-41.54 99.72-41.54 11.06 0 22.23 1.7 11.17 1.69 21.9 5l80.73-134.5q14.07-23.65 8.71-45.8-5.36-22.15-22.22-36.22-16.74-13.74-39.63-15.7-22.89-1.95-43.88 15.76L290.32-287Zm383.02 94.37q38.96 0 66.7-27.46 27.74-27.47 27.74-66.49 0-38.79-27.77-66.11t-66.77-27.32q-39 0-65.92 27.44t-26.92 66.18q0 39.17 26.88 66.47 26.89 27.29 66.06 27.29ZM287.09-580.4q38.69 0 66.14-27.55 27.45-27.56 27.45-66.37 0-38.82-27.55-66.14-27.56-27.32-66.38-27.32-38.81 0-66.26 27.44-27.45 27.44-27.45 66.36 0 38.69 27.52 66.13 27.51 27.45 66.53 27.45Zm387 294.08Zm-387.1-387.77Z"/></svg>