<svg xmlns="http://www.w3.org/2000/svg" height="48" viewBox="0 -960 960 960" width="48"><path d="M289.12-298.08q-34.62 28.12-70.45 25.2-35.82-2.93-61.55-25.2-26.5-22.27-35.16-56.71-8.65-34.44 14-71.9l81.62-135.35q-26.23-18.19-41.21-45.67-14.99-27.48-14.99-61.02 0-53.68 38.34-92.01 38.33-38.34 92.78-38.34 53.68 0 92.01 38.34 38.34 38.33 38.34 92.01 0 53.68-38.34 92.01-38.33 38.34-92.01 38.34-13.22 0-25.56-2.27-12.34-2.27-23.09-7.31L161.5-410.65q-15.92 25.42-9.34 50.22 6.58 24.79 24.94 39.73 17.48 15.82 42.67 17.95 25.19 2.13 49.92-18.06l402.85-341.73q32.19-28.11 68.33-26.08Q777-686.58 803-664.31q25.23 23.16 35.35 58.04 10.11 34.89-12.16 72.35l-81.65 135.73q25.34 19.07 39.94 46.75 14.6 27.67 14.6 59.56 0 54.06-38.64 92.39-38.64 38.34-92.75 38.34t-91.71-38.72q-37.6-38.72-37.6-92.01 0-53.68 37.6-91.82 37.6-38.15 91.75-38.15 11.89 0 24.58 2.16 12.69 2.15 24.73 6.31l81.84-136.2q15.54-26.19 9.35-50.6-6.2-24.42-24.18-40.23-17.97-14.94-43.36-17.26-25.38-2.33-49.23 17.36L289.12-298.08Z"/></svg>