<svg xmlns="http://www.w3.org/2000/svg" height="24" viewBox="0 -960 960 960" width="24"><path d="M306.5-252q-48 41.5-101.75 37.25T111-251q-39-32-53.25-85.5T77-445l68.5-113q-22-24-35.75-56T96-682q0-76.5 52.75-129.25T278-864q76.5 0 129.25 52.75T460-682q0 76.5-52.75 129.25T278-500q-6.5 0-13.25-.75t-13.25-1.75l-71 119.5q-7 11.5-4.25 22.5t11.25 18q8.5 7 19.25 8t20.75-8l427-365q50-43.5 104-38.75T851-708.5q38.5 33 51.25 85.75T882.5-514.5l-67 113.5q22 24.5 35.25 56T864-277.5q0 76-52.75 128.75T682-96q-76.5 0-129.25-52.75T500-277.5q0-76.5 52.75-129.5T682-460q7.5 0 13.75.75t12.75 1.75L780-576q7-11.5 3.25-22.5t-12.25-18q-8.5-7-19.25-7.5T732-616.5L306.5-252Z"/></svg>