<svg xmlns="http://www.w3.org/2000/svg" height="48" viewBox="0 -960 960 960" width="48"><path d="M286.38-287.38q-36.84 31.61-77.03 28.5-40.2-3.12-67.04-28.5-28.62-24.39-37.69-61.7-9.08-37.3 15.3-78.61l81.23-135.46q-26.46-19.93-41.69-48.71-15.23-28.79-15.23-63.45 0-58.29 41.31-99.61 41.32-41.31 100.38-41.31 58.3 0 99.61 41.31 41.32 41.32 41.32 99.61 0 58.3-41.32 99.61-41.31 41.32-99.61 41.32-13.1 0-24.94-1.77-11.84-1.77-21.98-7.31l-82.46 138.15Q141-381 147.83-356.7q6.83 24.3 24.19 37.73 16.36 13.43 40.06 16.32 23.69 2.88 46.54-16.43l415.76-353.77q35.31-31.61 75.12-29.38 39.81 2.23 68.42 26.61 26.85 25.39 37.58 63.7 10.73 38.3-13.65 79.38l-80.77 135.46q25.46 20.7 40.3 49.48 14.85 28.79 14.85 62.68 0 58.29-41.62 99.61Q732.99-144 674.26-144q-58.72 0-99.3-41.7t-40.58-99.22q0-58.3 40.58-99.61 40.58-41.32 99.35-41.32 11.27 0 23.71 1.66 12.44 1.65 22.98 6.19l82.46-136.92Q818-580 812.55-603.41q-5.44-23.42-22.8-37.85-17.37-13.43-41.06-16.2-23.69-2.77-46.54 16.31L286.38-287.38Z"/></svg>