<svg xmlns="http://www.w3.org/2000/svg" height="20" viewBox="0 -960 960 960" width="20"><path d="M356.5-328q-36.21 42.5-81.36 42-45.14-.5-77.64-25t-43-65.5q-10.5-41 17-85.5l68-109.5q-18-15-28.25-35.53T201-651.4q0-46.1 30.75-76.85Q262.5-759 308.5-759t76.75 30.75Q416-697.5 416-651.5t-30.75 76.75Q354.5-544 308.5-544q-14.5 0-28.5-3.25t-28-9.25l-66.5 104q-23.5 37-12.82 71 10.67 34 38.28 54.96 27.1 21.46 62.4 22 35.3.54 65.64-30.96L605-631q34.5-42.5 77.75-43.5t76.49 23.7q33.24 24.7 45.75 65.75 12.51 41.05-15.27 86.97L721-387.5q17.5 15 27.75 34.92Q759-332.65 759-308.29q0 45.79-31.48 76.54Q696.05-201 650.77-201q-45.27 0-76.02-31.15Q544-263.3 544-308.77q0-44.73 30.97-75.98Q605.94-416 650.5-416q15.08 0 29.79 3.62Q695-408.75 709.5-403l65-104.5q23-37 12.79-71.45-10.2-34.44-37.25-55.75Q723-656 686.92-656.25T622-625L356.5-328Zm294.1 109.5q37.67 0 64.28-26.21 26.62-26.21 26.62-64t-26.83-63.79q-26.82-26-64.5-26-37.67 0-63.17 26.21t-25.5 64q0 37.79 25.71 63.79t63.39 26Zm-341.89-343q37.79 0 63.79-26.21t26-64q0-37.79-26.21-63.79t-64-26q-37.79 0-63.79 26.21t-26 64q0 37.79 26.21 63.79t64 26Zm342.79 253Zm-343-343Z"/></svg>