<svg xmlns="http://www.w3.org/2000/svg" height="24" viewBox="0 -960 960 960" width="24"><path d="M297.35-287.92q-37.62 31.42-77.99 28.27-40.36-3.16-70.09-27.66-29.73-24.5-39.73-64.27-10-39.77 14.81-81.34l76.23-125.89q-24-19.46-38.25-48.16-14.25-28.7-14.25-62.03 0-59.73 41.59-101.33 41.6-41.59 101.29-41.59 59.69 0 101.29 41.59 41.6 41.6 41.6 101.29 0 59.69-41.6 101.29-41.6 41.6-101.29 41.6-10.68 0-21.16-1.64-10.49-1.63-19.95-4.79L172.5-403.73q-12.73 21-7.79 41 4.95 20 20.46 32.52 15.32 12.72 35.83 14.43 20.51 1.7 39.85-14.41l402.38-342.19q36.96-31.43 77.13-28.16 40.18 3.27 69.88 27.85 29.71 24.58 40.1 64.21 10.39 39.63-14.53 81.68l-76.2 125.99q23.81 19.77 38.06 48.24 14.25 28.47 14.25 62 0 59.3-41.87 100.9-41.88 41.59-101.29 41.59-59.41 0-101.01-41.75-41.6-41.75-41.6-101.08 0-59.05 41.68-100.99 41.68-41.95 100.82-41.95 10.75 0 21.09 1.78t19.99 4.84l77.46-129.04q12.54-21 7.78-40.98-4.77-19.98-20.06-32.63-15.29-12.66-35.91-14.45-20.62-1.79-39.77 14.33L297.35-287.92Zm371.26 83.88q36.03 0 61.69-25.33 25.66-25.33 25.66-61.28 0-36.39-25.66-61.81-25.66-25.43-61.69-25.43t-61.26 25.43q-25.24 25.42-25.24 61.65t25.24 61.5q25.23 25.27 61.26 25.27ZM290.96-582.11q36.08 0 61.5-25.43 25.43-25.42 25.43-61.5t-25.43-61.5q-25.42-25.42-61.5-25.42t-61.5 25.42q-25.42 25.42-25.42 61.5t25.42 61.5q25.42 25.43 61.5 25.43Zm378.08 291.15ZM290.96-669.04Z"/></svg>