<svg xmlns="http://www.w3.org/2000/svg" height="48" viewBox="0 -960 960 960" width="48"><path d="M289-257q-45 38-95 35t-85-35q-36-31-49.5-78T78-436l78-129q-27-24-41.5-56.63Q100-654.27 100-691q0-70.53 50.24-121.26Q200.48-863 271-863q69.52 0 120.76 50.74Q443-761.53 443-691q0 69.53-51.24 120.76Q340.52-519 271-519q-8.8 0-18.6-1t-16.4-5l-79 136q-12 19-7.82 37.11 4.17 18.1 18 27Q179-315 196.5-312.5T230-325l442-379q45-38 96-36t86 34q35 33 47 81t-18 99l-75 130q26 23 40.5 56.13Q863-306.73 863-270q0 70.52-51.04 120.76Q760.91-99 689.96-99 620-99 569.5-149.24T519-270q0-69.52 50.5-120.76Q620-442 690-442q7.73 0 17.37.5Q717-441 725-439l80-133q11-18 6.32-36.61-4.67-18.6-18.5-27.5Q779-645 762.5-647.5T731-636L289-257Z"/></svg>