<svg xmlns="http://www.w3.org/2000/svg" height="40" viewBox="0 -960 960 960" width="40"><path d="M293.33-250.67q-47 40.34-99.66 36.84-52.67-3.5-90-36.5-38-32.34-52.17-82.67-14.17-50.33 19.17-106.33l75-124q-26-24.73-40.17-58.19-14.17-33.46-14.17-69.62 0-74.45 52.29-126.99 52.29-52.54 126.38-52.54 73.35 0 126.51 52.66 53.16 52.66 53.16 126.34 0 73.69-53.16 126.84-53.16 53.16-126.51 53.16-7.63 0-16.26-.83-8.63-.83-14.74-3.83l-76.67 131.66q-10.33 16.24-6.76 31.78 3.58 15.53 14.61 23.76 11.04 8.23 26.04 10.18 15 1.95 28.45-10.72l443-380.33q47.33-40.33 100.88-37.53 53.56 2.8 91.01 35.86 36.9 34 49.5 84.98Q921.67-575.72 890-522l-72.67 125q25.34 24 39.34 57 14 33.01 14 70.35 0 74.22-52.87 126.6-52.86 52.38-126.83 52.38t-126.64-52.28q-52.66-52.29-52.66-126.38 0-73.35 52.66-126.51Q617-449 690.99-449q6.06 0 14.78.5 8.71.5 15.9 2.17l77.66-129.34q9.34-15.33 5.39-31.07-3.95-15.73-15.84-23.83-11.88-8.1-26.05-9.93-14.16-1.83-26.83 10.17L293.33-250.67ZM345.48-542q29.56 0 51.71-21.56 22.15-21.57 22.15-51.27 0-29.69-22.04-51.26-22.04-21.58-51.93-21.58t-51.13 21.55Q273-644.58 273-614.5q0 29.36 21.11 50.93Q315.21-542 345.48-542Zm270.01 269q29.7 0 51.27-21.55 21.57-21.54 21.57-51.61 0-29.37-21.54-51.27-21.55-21.91-51.62-21.91-29.36 0-50.93 21.9-21.58 21.9-21.58 51.6 0 29.7 21.57 51.27Q585.79-273 615.49-273ZM346.67-614Zm267.99 267.33Z"/></svg>