<svg xmlns="http://www.w3.org/2000/svg" height="20" viewBox="0 -960 960 960" width="20"><path d="M351-304q-42.21 50-95.61 48Q202-258 165-287t-48-77.5Q106-413 137-464l67-110q-19-18-29.5-41.69Q164-639.39 164-666q0-56 37-93t93-37q56 0 93 37t37 93q0 56-37 93t-93 37q-13.33 0-25.67-2.5Q256-541 241.91-547L174-441q-22 35-11 67t36.03 50.96q25.03 18.96 57.45 19.5Q288.89-303 316-332l294-322q41-49 91.5-49.5t88.8 28.45q38.31 28.95 52.5 77.5Q857-549 824-495l-68 111q19 18 29.5 40.39T796-294q0 56-37.73 93-37.72 37-93 37Q610-164 573-201.52q-37-37.52-37-92.5t37.22-92.48Q610.44-424 665-424q13.85 0 26.92 3 13.08 3 27.08 9l66-107q21-35 11.97-66.45-9.03-31.44-34-51.5Q738-657 704.5-657T645-627L351-304Zm314.1 94q35.19 0 60.05-24.45Q750-258.9 750-294.21t-25.06-59.55Q699.87-378 664.67-378t-58.93 24.45Q582-329.1 582-293.79t23.95 59.55Q629.9-210 665.1-210ZM294.21-582q35.31 0 59.55-24.45Q378-630.9 378-666.21q0-35.32-24.45-59.55Q329.1-750 293.79-750t-59.55 24.45Q210-701.1 210-665.79q0 35.32 24.45 59.55Q258.9-582 294.21-582ZM666-294ZM294-666Z"/></svg>