<svg xmlns="http://www.w3.org/2000/svg" height="20" viewBox="0 -960 960 960" width="20"><path d="M358.35-308.92q-41.54 47.42-92.95 46.77-51.4-.66-89.13-29.16t-50.23-76.27q-12.5-47.77 19.31-99.34l65.23-104.89q-18-17.46-28.25-40.02-10.25-22.55-10.25-49.21 0-53.69 36.59-90.29 36.6-36.59 90.29-36.59 53.69 0 90.29 36.59 36.6 36.6 36.6 90.29 0 53.69-36.6 90.29-36.6 36.6-90.29 36.6-12.84 0-24.75-2.64-11.9-2.63-24.36-6.79L185.5-441.73q-20.73 33-11.21 63t33.94 48.54q24.23 18.73 55.17 18.92 30.95.19 57.45-27.92l281.38-311.19q40.96-47.43 91.13-47.66 50.18-.23 87.79 28.27 37.62 28.69 51.6 76.31 13.98 47.61-18.02 100.69l-65.12 104.96q17.81 17.77 28.06 40.23 10.25 22.46 10.25 48.93 0 53.38-36.79 89.98-36.78 36.59-90.48 36.59-53.3 0-89.9-36.79-36.6-36.78-36.6-89.78 0-53.31 36.6-90.25 36.6-36.95 89.9-36.95 12.85 0 25.14 2.83 12.29 2.83 24.94 6.79l63.46-102.04q20.54-33 11.21-63.5-9.32-30.5-33.55-49.23-24.23-18.54-55.77-18.33-31.54.21-56.85 28.33L358.35-308.92Z"/></svg>