<svg xmlns="http://www.w3.org/2000/svg" height="20" viewBox="0 -960 960 960" width="20"><path d="M357.19-320.85q-38.07 44.35-85.63 43.79-47.56-.56-82.02-26.56-34.46-26-45.71-69.53-11.25-43.54 17.86-90.7l66.96-107.77q-18-15.92-28.25-37.03-10.25-21.12-10.25-46.43 0-48.88 32.95-81.82 32.94-32.95 81.82-32.95 48.89 0 81.83 32.95 32.94 32.94 32.94 81.82 0 48.89-32.94 81.83t-81.83 32.94q-14.19 0-27.25-3.02-13.05-3.02-26.48-8.32L185.5-448.46q-22.46 35.5-12.17 68 10.29 32.5 36.63 52.58 25.96 20.46 59.6 20.84 33.63.39 62.63-29.84l271.77-301.39q36.92-44.35 82.77-45.06 45.85-.71 80.58 25.29 34.73 26.39 47.94 69.87 13.21 43.48-16.29 92.13l-67.23 108.42q17.62 16.04 27.87 36.97 10.25 20.92 10.25 45.84 0 48.77-33.33 81.71-33.33 32.95-82.21 32.95-48.12 0-81.06-33.33-32.94-33.33-32.94-81.33 0-48.11 32.94-81.5 32.94-33.38 81.06-33.38 14.19 0 28.02 3.4 13.82 3.41 27.63 8.33l64.42-103.58q22.08-35.5 12.18-68.5-9.91-33-35.87-53.46-25.96-20.08-60.29-20.15-34.32-.08-61.94 30.15L357.19-320.85Z"/></svg>