<svg xmlns="http://www.w3.org/2000/svg" height="24" viewBox="0 -960 960 960" width="24"><path d="M297.65-242.78q-49.69 43.69-105.52 39.19t-96.09-38.19q-40.26-33.7-54.45-88.52-14.2-54.83 20.06-112.22l71.18-118.35q-24.87-25.56-38.81-59.48Q80.09-654.27 80.09-692q0-78.39 54.76-133.15 54.76-54.76 133.15-54.76 78.39 0 133.44 54.76 55.04 54.76 55.04 133.15 0 78.39-55.04 133.44-55.05 55.04-133.44 55.04-6.21 0-12.99-.5t-13.53-1.94l-74.57 126.48q-8.3 12.61-4.96 25.33 3.35 12.72 12.36 20.01 9.02 7.28 21.17 8.47 12.15 1.19 22.87-8.55l444.56-383q50.26-43.26 106.16-39.26 55.89 4 95.93 38.26 40.04 34.26 53.76 88.81 13.72 54.54-20.41 112.37l-70.61 118.91q24.87 25.56 38.52 58.64 13.65 33.08 13.65 71.49 0 78.39-54.76 133.15Q770.39-80.09 692-80.09q-78.39 0-133.44-54.76-55.04-54.76-55.04-133.15 0-78.39 55.04-133.44 55.05-55.04 133.44-55.04 6.27 0 12.75.5 6.49.5 13.29 1.94l75.18-125.92q7.3-12.61 4.58-24.56-2.71-11.96-12.02-19.98-9.3-8.02-21.41-8.74-12.11-.72-22.72 9.02l-444 381.44Zm160.06-194.28q26.85 0 46.04-19.19 19.19-19.19 19.19-46.04 0-26.86-19.19-46.05-19.19-19.19-46.04-19.19-26.86 0-46.05 19.19-19.19 19.19-19.19 46.05 0 26.85 19.19 46.04 19.19 19.19 46.05 19.19Zm44.58 44.59q26.86 0 46.05-19.19 19.19-19.19 19.19-46.05 0-26.85-19.19-46.04-19.19-19.19-46.05-19.19-26.85 0-46.04 19.19-19.19 19.19-19.19 46.04 0 26.86 19.19 46.05 19.19 19.19 46.04 19.19Zm-44.3-109.54Zm44.02 44.02Z"/></svg>