<svg xmlns="http://www.w3.org/2000/svg" height="48" viewBox="0 -960 960 960" width="48"><path d="M290.5-257q-46 38.5-95.75 34.5T108.5-257q-35.5-30.5-48-78.75T79.5-436l77-128.5q-26-23.5-40.75-56.13Q101-653.27 101-689.5q0-71.53 49.99-122.01Q200.98-862 272.5-862q70.52 0 121.01 50.49Q444-761.03 444-689.5q0 70.53-50.49 121.01Q343.02-518 272.5-518q-9.3 0-18.6-1t-16.9-4.5l-79.5 134q-11 19.5-6.57 36.61 4.42 17.1 17.25 26.5 12.32 10.89 29.32 12.64T231-326.5L671-703q46.5-39.5 96.75-36.5T853-705q35 32 47 80.5T881.5-525L807-395.5q25.5 23 40.25 55.63Q862-307.23 862-271.5q0 71.52-50.79 121.51Q760.41-100 688.46-100q-70.96 0-120.71-49.99T518-271.5q0-70.52 49.75-121.01Q617.5-443 688.5-443q8.73 0 17.62.5 8.88.5 18.38 2.5l79-131.5q11-18.5 5.57-36.11-5.42-17.6-18.25-27.5Q778-644.5 761-646.25T730-635L290.5-257Z"/></svg>