<svg xmlns="http://www.w3.org/2000/svg" height="24" viewBox="0 -960 960 960" width="24"><path d="M290-283q-38 34-80.5 29.5T138-283q-29-25-37.5-65.5T116-430l78-131q-25-20-39.5-49.5T140-674q0-62 42-104t104-42q62 0 104 42t42 104q0 62-42 104t-104 42q-12 0-22.5-1.5T242-536l-81 133q-14 23-7.5 45t22.5 35q16 13 38 15t42-15l415-353q37-33 77.5-30t70.5 28q30 25 41 65.5T845-529l-79 132q25 20 39.5 48.5T820-286q0 62-42.5 104T673-140q-61 0-103-42.5T528-286q0-61 42-103.5T673-432q12 0 23 2t22 7l80-134q13-23 8.5-44T786-636q-16-14-38.5-16T705-636L290-283Z"/></svg>