<svg xmlns="http://www.w3.org/2000/svg" height="48" viewBox="0 -960 960 960" width="48"><path d="M285.93-270.7q-41.43 34.7-85.85 31.08-44.43-3.62-77.12-31.08-32.46-27.45-43.06-70.76-10.6-43.3 17.1-89.21l80.8-134.59q-26.76-21.22-42.27-52.71-15.51-31.49-15.51-67.73 0-64.67 45.8-110.6 45.81-45.92 110.48-45.92 64.44 0 110.36 45.92 45.93 45.93 45.93 110.6 0 64.44-45.93 110.36-45.92 45.93-110.36 45.93-10.82 0-21.26-1.38-10.44-1.38-19.56-4.88l-82.55 138.56q-13.28 22.54-8.09 43.45 5.19 20.91 21.05 33.35 15.37 13.18 36.56 14.93 21.18 1.75 40.72-15.03L674.8-690.07Q715.98-725 760.9-722q44.93 3 76.88 30.7 31.96 28.19 42.82 71.75Q891.46-576 864-530.33L784.93-395.5q26.27 21.48 41.78 52.97 15.51 31.49 15.51 67.23 0 64.67-46.23 110.48-46.23 45.8-111.34 45.8-64.87 0-110.05-45.8-45.19-45.81-45.19-110.48 0-64.44 45.19-110.36 45.18-45.93 110.1-45.93 10.25 0 20.27.88 10.03.88 20.29 3.64l82.04-136.82q13.29-22.31 7.86-43.33-5.43-21.03-21.29-33.97-15.87-12.44-37.05-14.19-21.19-1.75-39.75 14.29L285.93-270.7Z"/></svg>