<svg xmlns="http://www.w3.org/2000/svg" height="24" viewBox="0 -960 960 960" width="24"><path d="M296.19-299.85q-34.24 28.35-70.71 25.29-36.48-3.06-62.94-25.06t-35.21-57.53q-8.75-35.54 13.36-72.7l77.96-128.77q-24-17.92-38.25-45.27T166.15-663q0-54.96 37.95-92.9 37.94-37.95 92.82-37.95 54.89 0 92.83 37.95 37.94 37.94 37.94 92.82 0 54.89-37.94 92.83t-92.83 37.94q-12.02 0-23.66-2.02t-22.07-6.32L172.5-410.46q-14.46 23.5-8.75 46 5.72 22.5 23.16 36.54 17.06 14.44 40.25 16.35 23.19 1.92 45.03-16.31l392.77-332.39q32.92-28.35 68.77-25.56 35.85 2.79 62.76 24.95 26.92 22.15 36.44 57.67 9.53 35.52-12.8 73.11l-78.4 129.48q23.62 18.04 37.87 44.93 14.25 26.88 14.25 59.04 0 54.61-38.5 92.55-38.5 37.95-92.83 37.95t-92.27-38.25q-37.94-38.25-37.94-92.67 0-53.85 38.11-92.24 38.11-38.38 91.89-38.38 12.15 0 24 2.31 11.84 2.3 22.65 6.42l78.42-130.58q14.08-23.5 8.73-45.96t-22.37-36.77q-17.01-14.31-40.42-16.38-23.4-2.08-44.86 16.15L296.19-299.85Zm366.03 96.77q39.06 0 66.88-27.31 27.82-27.31 27.82-66.42 0-39.27-27.82-66.61-27.82-27.35-66.88-27.35-39.07 0-66.03 27.35-26.96 27.34-26.96 66.55 0 39.22 26.96 66.5 26.96 27.29 66.03 27.29Zm-365.3-366.15q39.16 0 66.5-27.35 27.35-27.34 27.35-66.5 0-39.15-27.35-66.5-27.34-27.34-66.5-27.34-39.15 0-66.5 27.34-27.34 27.35-27.34 66.5 0 39.16 27.34 66.5 27.35 27.35 66.5 27.35Zm366.16 272.31ZM296.92-663.08Z"/></svg>