<svg xmlns="http://www.w3.org/2000/svg" height="48" viewBox="0 -960 960 960" width="48"><path d="M286.81-286.54q-37.31 30.81-76.6 27.6-39.29-3.21-67.9-27.6-29-24.38-38.33-62.48-9.32-38.1 15.25-78.83l81.81-135.92q-26.62-19.35-41.98-48.65-15.37-29.31-15.37-64.19 0-58.11 41.41-99.52t99.9-41.41q58.1 0 99.51 41.41 41.41 41.41 41.41 99.52 0 58.1-41.41 99.51-41.41 41.41-99.51 41.41-12.26 0-23.83-1.89-11.57-1.88-21.75-6.15L156.5-405.08q-14.96 24.46-8.96 47.92 6.01 23.45 23.6 37.61 16.9 14.86 40.75 16.8 23.84 1.94 46.46-16.9l415.92-354.62q35.84-30.81 75.54-28.29 39.69 2.52 68.19 26.91 28.11 25.07 38.42 63.52 10.31 38.44-14.08 79.17l-81.07 136.11q25.92 20.04 41.09 49.44 15.18 29.41 15.18 63.22 0 58.29-41.72 99.7-41.72 41.41-100.25 41.41t-99.2-41.6q-40.68-41.6-40.68-99.51 0-58.1 40.68-99.42 40.67-41.31 99.24-41.31 11.31 0 22.85 1.57 11.54 1.58 22.81 5.16l82.42-137.35q14.77-24.84 8.96-48.1-5.81-23.26-23.21-38.12-17.4-14.16-41.34-16.2-23.95-2.04-45.87 16.31L286.81-286.54Z"/></svg>