<svg xmlns="http://www.w3.org/2000/svg" height="40" viewBox="0 -960 960 960" width="40"><path d="M294-251.33q-47 40-99 36T105.17-251q-37.84-31.67-51.67-82.67-13.83-51 19.17-105.33L147-563q-25-24.33-39.67-57.42-14.66-33.09-14.66-69.72 0-74.78 51.95-126.99 51.96-52.2 126.38-52.2 73.68 0 126.01 52.32 52.32 52.33 52.32 126.34 0 74.02-52.32 126.34Q344.68-512 271-512q-8.3 0-16.59-.83-8.3-.84-15.08-3.17L162-385.33q-9.67 16.33-6.09 31.48 3.57 15.16 14.77 24.39 11.21 9.23 26.26 10.51Q212-317.67 226-330l441-378.67Q715.33-750 767.83-746.5t89.84 36.17q37.33 32.66 49.83 83.97 12.5 51.3-19.5 104.69l-72.67 125q25 23.67 39.5 56.36 14.5 32.68 14.5 69.66 0 74.56-52.53 126.6Q764.27-92 689.97-92t-126.14-51.95Q512-195.91 512-270.33q0-73.69 51.83-126.01 51.84-52.33 126.16-52.33 7.45 0 15.47.5t15.87 2.17L799-575q9.67-15.67 5.05-31.07t-15.83-24.33Q777-639.33 762-640.5q-15-1.17-27.33 10.17L294-251.33ZM345.09-542q30.76 0 52.5-21.27 21.75-21.27 21.75-52.17 0-30.89-21.75-52.06-21.74-21.16-52.83-21.16t-51.92 21.25Q272-646.16 272-614.89q0 30.56 20.81 51.73Q313.63-542 345.09-542ZM616.1-272q30.9 0 52.06-21.25 21.17-21.26 21.17-52.53 0-30.56-21.25-52.06-21.25-21.5-52.52-21.5-30.56 0-51.73 21.61-21.17 21.61-21.17 52.5t21.28 52.06Q585.21-272 616.1-272ZM345.67-615Zm269.99 269.33Z"/></svg>