<svg xmlns="http://www.w3.org/2000/svg" height="40" viewBox="0 -960 960 960" width="40"><path d="M287.74-283.31q-38 33.03-79.77 29.45-41.76-3.58-70.02-29.37-29.44-25.13-38.63-64.39-9.19-39.25 15.68-81.46l79.85-133.43q-26.06-20.34-41.04-49.67-14.99-29.33-14.99-64.08 0-60.53 42.35-102.88 42.35-42.35 103.39-42.35 60.53 0 102.88 42.35 42.35 42.35 42.35 102.88 0 60.53-42.35 102.88-42.35 42.35-102.88 42.35-12.43 0-23.59-1.6t-21.35-6.73l-81.75 136.28q-14.72 23.34-8.15 46.37 6.57 23.03 23.09 36.01 15.86 12.98 38.45 15.53 22.59 2.55 44.02-15.6l417.75-355.82q36.71-32.69 77.68-30.13 40.96 2.57 70.65 27.69 28.51 25.8 39.52 65.72 11.02 39.93-14.44 82.57l-79.8 133.69q25.39 20.84 40.12 49.88 14.73 29.04 14.73 63.27 0 60.53-42.69 102.88-42.68 42.35-103.5 42.35-60.56 0-102.42-42.73-41.85-42.74-41.85-102.5 0-60.27 41.85-102.75 41.86-42.48 102.45-42.48 11.21 0 22.86 1.66 11.66 1.65 22.12 6.11l81.49-135.72q13.71-23.84 8.7-45.95-5.02-22.11-21.54-36.09-16.52-13.32-39.28-15.75-22.76-2.44-44.19 15.82L287.74-283.31Z"/></svg>