<svg xmlns="http://www.w3.org/2000/svg" height="20" viewBox="0 -960 960 960" width="20"><path d="M358.65-263.78q-53.69 59.69-120.52 57.69t-115.09-39.69q-48.26-37.7-64.95-100.52-16.7-62.83 24.56-130.22l60.18-97.35q-18.87-23.56-28.81-51.47-9.93-27.9-9.93-58.66 0-72.39 49.76-122.15 49.76-49.76 122.15-49.76 72.39 0 122.44 49.76 50.04 49.76 50.04 122.15 0 72.39-50.04 122.44-50.05 50.04-122.44 50.04-7.88 0-16.32-1.5-8.45-1.5-18.2-3.94l-61.57 99.48q-16.3 24.61-8.46 47.33 7.85 22.72 25.86 36.01 18.02 13.28 40.67 12.97 22.65-.31 40.37-22.05l323.56-352q54.26-59.26 120.16-58.76 65.89.5 113.93 38.76 48.04 38.26 65.26 100.81 17.22 62.54-23.91 131.37l-59.61 97.91q18.87 23.56 28.52 50.63 9.65 27.07 9.65 58.5 0 72.39-49.76 122.15-49.76 49.76-122.15 49.76-72.39 0-122.44-49.76-50.04-49.76-50.04-122.15 0-72.39 50.04-122.44 50.05-50.04 122.44-50.04 8.35 0 16.79 1.5 8.45 1.5 18.25 3.94l61.18-98.92q15.3-24.61 8.08-47.06-7.21-22.46-25.52-36.48-18.3-14.02-41.41-12.74-23.11 1.28-39.72 23.02l-323 351.44Zm91.27-189.28q23.64 0 40.33-16.9 16.69-16.91 16.69-40.55 0-23.64-16.9-40.33-16.91-16.69-40.55-16.69-23.64 0-40.33 16.9-16.69 16.91-16.69 40.55 0 23.64 16.9 40.33 16.91 16.69 40.55 16.69Zm60.59 60.59q23.64 0 40.33-16.9 16.69-16.91 16.69-40.55 0-23.64-16.9-40.33-16.91-16.69-40.55-16.69-23.64 0-40.33 16.9-16.69 16.91-16.69 40.55 0 23.64 16.9 40.33 16.91 16.69 40.55 16.69Zm-60.52-117.54Zm60.02 60.02Z"/></svg>