<svg xmlns="http://www.w3.org/2000/svg" height="48" viewBox="0 -960 960 960" width="48"><path d="M287.89-264.83q-43.39 36.33-90.1 32.55-46.7-3.78-81.03-32.55Q83-293.59 71.59-339.01q-11.42-45.42 17.91-93.95l79.17-131.97q-26.43-22.2-41.62-54.18-15.18-31.98-15.18-68.22 0-67.61 47.6-115.49 47.59-47.88 115.2-47.88 67.05 0 114.93 47.88 47.88 47.88 47.88 115.49 0 67.05-47.88 114.93-47.88 47.88-114.93 47.88-10.17 0-20.12-1.22-9.95-1.22-18.42-4.72l-81.24 136.61q-12.3 21.24-7.44 40.52 4.86 19.28 19.42 30.41 14.06 12.2 33.46 13.95 19.39 1.75 37.63-14.05l435.21-372.59q43.46-36.89 90.67-33.89 47.2 3 80.46 32.33 33.27 29.82 44.61 75.5 11.35 45.67-17.41 93.63L794.39-395.5q25.94 22.13 41.12 54.11 15.19 31.98 15.19 67.72 0 67.61-48.19 115.2-48.19 47.6-116.23 47.6-67.48 0-114.62-47.6-47.14-47.59-47.14-115.2 0-67.05 47.14-114.93 47.14-47.88 114.67-47.88 9.6 0 19.13.72 9.54.72 19.47 3.15l80.74-134.54q12.31-20.68 6.88-40.24-5.42-19.56-19.99-31.19-14.56-11.14-33.95-12.89t-36 12.99L287.89-264.83Z"/></svg>