<svg xmlns="http://www.w3.org/2000/svg" height="48" viewBox="0 -960 960 960" width="48"><path d="M283.69-274.69q-39.92 34.3-83.77 31-43.84-3.31-73.76-31-31.31-26.7-41.35-67.85-10.04-41.15 16.65-86.31l81.62-136.23q-27.23-21.46-42.85-52.17-15.61-30.71-15.61-66.9 0-62.91 44.77-107.69 44.78-44.77 108.07-44.77 62.91 0 107.69 44.77 44.77 44.78 44.77 107.69t-44.77 107.68q-44.78 44.78-107.69 44.78-11.95 0-23.02-1.39-11.07-1.38-20.44-6.15l-83.23 140.08Q136-376 142.25-353.05q6.26 22.95 22.85 35.62 15.59 12.66 37.94 15.35 22.35 2.7 43.27-15.46l430.38-368.38q39.16-34.31 82.81-31.69 43.65 2.61 74.96 29.3 29.92 27.7 41.04 69.85 11.11 42.15-15.58 86.69l-80.38 136.23q26.23 21.85 41.65 52.56 15.42 30.71 15.42 66.52 0 62.91-45.08 107.68Q746.45-124 683.11-124t-107.38-44.97q-44.04-44.97-44.04-107.49 0-62.91 44.04-107.69 44.04-44.77 107.42-44.77 10.5 0 21.79 1.07 11.29 1.08 21.06 4.85l83.23-138.46q13.77-23.54 8.71-45.8-5.06-22.26-21.66-35.92-16.59-12.67-38.93-15.05-22.35-2.39-43.27 15.15L283.69-274.69Z"/></svg>