<svg xmlns="http://www.w3.org/2000/svg" height="48" viewBox="0 -960 960 960" width="48"><path d="M285.52-259.17q-44.13 37.56-93.04 34.34-48.91-3.21-83.05-34.34-35.13-30.13-47.54-76.26-12.41-46.14 18.28-97.96l79.74-132.48q-27.43-23.65-42.58-56.62-15.16-32.98-15.16-69.22 0-69.58 49.34-119.13t118.62-49.55q68.66 0 118.59 49.65 49.93 49.65 49.93 118.59t-49.93 118.87q-49.93 49.93-118.59 49.93-9.58 0-19.72-1-10.15-1-17.49-5l-81.14 138.61q-12.87 20.66-8.06 40.16 4.8 19.49 18.7 29.96 13.91 10.46 32.9 12.93 19 2.47 36.42-13.4l443.3-380.74q44.13-37.56 93.69-34.93 49.56 2.64 84.31 32.93 33.92 31.7 45.63 78.95 11.72 47.25-17.84 96.71l-77.18 133.04q26.44 23 41.59 55.76 15.15 32.76 15.15 69.97 0 69.4-49.96 118.81-49.95 49.42-119.32 49.42-69.37 0-118.57-49.34-49.19-49.34-49.19-118.62 0-68.66 49.19-118.59 49.2-49.93 118.6-49.93 7.73 0 17.93.5 10.19.5 18.54 2.93l81.74-136.04q11.87-19.74 7.19-39.43-4.68-19.69-19.37-30.11-14.69-10.42-33.15-12.7-18.45-2.28-35.19 12.59L285.52-259.17Zm229.81-100.97q34.71 0 60.4-25.03 25.7-25.04 25.7-59.74 0-34.71-25.53-59.75-25.52-25.04-60.52-25.04t-59.54 25.01q-24.54 25.02-24.54 60.04 0 34.43 24.35 59.47 24.36 25.04 59.68 25.04Zm-69.42-71.16q34.71 0 59.75-25.01 25.04-25.02 25.04-60.04 0-34.43-25.01-59.75-25.02-25.33-60.04-25.33-34.43 0-59.47 25.32t-25.04 60.02q0 34.71 25.03 59.75 25.04 25.04 59.74 25.04Zm70.73-13.06Zm-71.28-72.28Z"/></svg>