<svg xmlns="http://www.w3.org/2000/svg" height="48" viewBox="0 -960 960 960" width="48"><path d="M290.5-305q-33.21 26.5-66.86 23.75Q190-284 165.5-305t-32.75-53.25Q124.5-390.5 146-426l81.5-135q-26-17.5-40.75-44.15Q172-631.79 172-664.25q0-50.78 36.46-87.26Q244.91-788 297-788q51.02 0 87.51 36.49Q421-715.03 421-664q0 51.03-36.49 87.51Q348.02-540 297.06-540q-13.69 0-26.58-2.5-12.88-2.5-23.98-8l-81.94 136.32Q148-388 154.85-362.39q6.86 25.6 25.79 40.96 17.92 16.35 43.97 18.64 26.05 2.29 51.89-18.71l395-334q30-26.5 63.83-24.65 33.82 1.85 58.91 23.1 23.74 21.45 33.5 54.25 9.76 32.8-11.02 68.22L734.5-399q25 18.5 39.25 44.81Q788-327.88 788-296.1q0 51.12-36.9 87.61T663.23-172q-51.79 0-87.51-36.77Q540-245.54 540-297.23q0-50.22 35.94-86.49Q611.88-420 663-420q12.23 0 25.62 2.5 13.38 2.5 25.88 7l81.44-135.38Q812-573 805.71-598.05q-6.28-25.06-24.84-41.25-18.37-15.7-44.7-18.2-26.33-2.5-51.33 18.17L290.5-305Zm372.52 111q42.48 0 72.73-30.16 30.25-30.16 30.25-73 0-41.84-30.36-71.34-30.37-29.5-73-29.5Q620-398 591-368.28t-29 71.94Q562-254 590.86-224q28.85 30 72.16 30ZM297.16-562Q339-562 369-592.16t30-72.5q0-42.34-30.16-71.84t-72.5-29.5Q254-766 224-736.28t-30 72.44Q194-622 224.02-592q30.01 30 73.14 30ZM664-296ZM297-664Z"/></svg>