<svg xmlns="http://www.w3.org/2000/svg" height="20" viewBox="0 -960 960 960" width="20"><path d="M364.02-283.43q-48.95 54.45-109.57 53.14-60.62-1.32-105.3-35.14-44.67-33.83-60.12-91.2Q73.59-414 111.48-475.09l60.11-96.34q-16.87-20.7-26.84-45.87-9.97-25.17-9.97-53.66 0-65.28 44.49-109.77 44.49-44.49 109.77-44.49 65.29 0 109.78 44.49 44.48 44.49 44.48 109.77 0 65.29-44.48 109.78-44.49 44.48-109.78 44.48-9.54 0-19.09-1.96-9.55-1.97-19.75-4.4l-60.18 95.97q-16.74 26.55-8.93 50.42 7.8 23.87 27.54 38.59 19.74 14.72 44.15 14.41 24.4-.31 44.28-23.48L596.54-675.5q50.09-55.59 109.96-54.77 59.87.81 103.76 35.2 43.89 34.4 59.49 91.23 15.6 56.84-21.73 119.43L788.98-388q16.87 21.2 26.55 45.96 9.69 24.76 9.69 53.51 0 64.77-44.49 109.26-44.49 44.49-109.77 44.49-65.29 0-109.78-44.49-44.48-44.49-44.48-109.52 0-65.04 44.48-109.78 44.49-44.73 109.78-44.73 10.07 0 19.59 1.96 9.52 1.97 19.82 4.4l59.67-95.41q16.74-26.54 8.35-50.87-8.4-24.32-28.14-39.06-19.75-14.74-44.62-13.68-24.88 1.07-43.19 23.68L364.02-283.43Zm73.14-178.37q25.83 0 43.44-17.67 17.6-17.67 17.6-43.3 0-26.33-17.82-43.94t-43.65-17.61q-25.83 0-43.44 17.83-17.61 17.82-17.61 43.9t17.83 43.44q17.82 17.35 43.65 17.35Zm86.11 86.12q25.83 0 43.44-17.83 17.61-17.82 17.61-43.65t-17.83-43.44q-17.82-17.6-43.65-17.6t-43.44 17.82q-17.6 17.82-17.6 43.65t17.82 43.44q17.82 17.61 43.65 17.61Zm-86.33-147.38Zm86.12 86.12Z"/></svg>