<svg xmlns="http://www.w3.org/2000/svg" height="20" viewBox="0 -960 960 960" width="20"><path d="M351.46-296.15q-44.31 51.84-100.23 49.84t-95-32.61q-39.08-30.62-51-81.77-11.92-51.16 20.92-105.16l66.08-108.38Q173-593.38 162.5-617.81 152-642.23 152-670.15q0-59 39.42-98.43Q230.85-808 289.85-808q59 0 98.42 39.42 39.42 39.43 39.42 98.43 0 59-39.42 98.42t-98.42 39.42q-13.08 0-24.39-2.27t-24.61-7.57l-67.31 105.53q-21.08 33.39-10.54 63.89t34.38 48.58q23.85 18.07 54.74 18.46 30.88.38 56.5-27.46l300.69-328.93q43.54-50.84 96.81-51.11 53.26-.27 93.11 30.34 39.85 30.62 54.92 81.77 15.08 51.16-19.53 107.93L767.77-384q19.23 19.15 29.73 42.69t10.5 51.46q0 59-39.81 98.43Q728.38-152 669.38-152q-58.23 0-97.65-39.81-39.42-39.81-39.42-98.04 0-58.23 39.42-98.03 39.42-39.81 97.65-39.81 13.08 0 25.16 2.65 12.08 2.66 25.38 7.96l65.54-106.3q20.08-33.39 11.42-63.39-8.65-30-32.5-49.08-23.84-19.07-55.73-18.84-31.88.23-56.5 28.84l-300.69 329.7Z"/></svg>