<svg xmlns="http://www.w3.org/2000/svg" height="20" viewBox="0 -960 960 960" width="20"><path d="M365-267q-53 58-119 56.5T131-249q-48-37-66-100t24-130l58-93q-17-23-27-50t-10-57q0-72 49.5-121.5T281-850q72 0 121.5 49.5T452-679q0 72-49.5 121.5T281-508q-8 0-16-1.5t-17-3.5l-59 95q-15 23-8 44t24 34q17 13 38.5 12.5T282-349l314-343q55-60 120.5-59T830-712q48 38 65 100.5T871-481l-57 94q17 23 26.5 49.5T850-281q0 72-49.5 121.5T679-110q-72 0-121.5-49.5T508-281q0-72 49.5-121.5T679-452q9 0 17 1.5t17 3.5l59-94q15-23 7-44.5T754-620q-17-13-39-11.5T678-610L365-267Z"/></svg>