<svg xmlns="http://www.w3.org/2000/svg" height="40" viewBox="0 -960 960 960" width="40"><path d="M290.76-270.55q-41.85 35.19-86.97 31.61-45.12-3.57-78.36-31.28-33.23-27.7-44.29-71.99-11.05-44.3 17.06-90.96l78.22-129.92q-25.68-21.39-40.73-52.58-15.05-31.18-15.05-66.97 0-65.68 46.2-111.95 46.21-46.27 111.8-46.27 65.42 0 111.72 46.3 46.29 46.3 46.29 111.79 0 65.5-46.29 111.79-46.3 46.3-111.68 46.3-10.11 0-20.02-1.3-9.92-1.3-18.6-4.22l-79.92 134.12q-12.25 20.76-7.58 40.04 4.67 19.27 19.42 30.98 14.42 12.05 34 13.66 19.57 1.62 37.55-13.84l426.28-364.8q41.84-35.51 87.38-32.18 45.53 3.33 78.15 31.44 32.62 28.11 43.73 72.48 11.1 44.37-16.77 90.97l-76.81 130q25.34 21.72 40.35 52.75 15.02 31.03 15.02 66.84 0 65.31-46.51 111.54-46.5 46.23-112.28 46.23T570.49-166.1q-45.81-46.13-45.81-111.96 0-65.17 45.81-111.55 45.8-46.38 111.61-46.38 9.52 0 19.06 1.05t19.02 3.31l79.76-132.92q12.24-20.56 7.38-39.89-4.85-19.34-19.73-31.31-14.76-11.64-34.32-13.23-19.56-1.59-36.91 13.41l-425.6 365.02Zm308.93-4.42q35.57 0 60.87-24.93 25.29-24.93 25.29-60.52 0-35.63-25.29-60.6-25.3-24.97-60.95-24.97-35.66 0-60.29 25.07-24.64 25.08-24.64 60.54 0 35.97 24.63 60.69t60.38 24.72ZM361.25-514.68q35.46 0 60.43-25.07t24.97-60.62q0-35.38-25.07-60.43-25.07-25.05-60.62-25.05-35.38 0-60.35 25.15-24.97 25.16-24.97 60.62 0 35.46 25.08 60.43 25.07 24.97 60.53 24.97ZM600.27-360.4Zm-239.2-239.87Z"/></svg>