<svg xmlns="http://www.w3.org/2000/svg" height="20" viewBox="0 -960 960 960" width="20"><path d="M355.39-267.37q-52.72 58.72-117.91 56.72-65.2-2-112.15-38.72-46.96-36.72-62.68-97.91-15.72-61.2 24.24-126.63l61.81-100.61q-19.53-23.24-29.79-50.86Q108.65-653 108.65-684q0-70.43 48.46-118.89 48.46-48.46 118.89-48.46t119.01 48.46q48.58 48.46 48.58 118.89t-48.58 119.01Q346.43-516.41 276-516.41q-9.28 0-17.92-1.5-8.65-1.5-19.17-4.26l-63.56 102.08q-17.28 26.57-8.76 50.87 8.52 24.31 27.8 38.59 19.04 14.28 43.35 14.16 24.3-.12 43.87-23.16l323.24-352q52.95-57.96 116.89-57.46 63.93.5 110.65 37.46 46.96 36.96 64.08 98.03 17.12 61.08-23.36 128.27l-61.57 100.85q19.53 23.24 29.67 50.36T851.35-276q0 70.43-48.46 118.89-48.46 48.46-118.89 48.46t-119.01-48.46Q516.41-205.57 516.41-276t48.58-119.01q48.58-48.58 119.01-48.58 9.52 0 18.16 1.5t19.17 4.26l62.8-101.84q16.28-26.57 8.9-50.49-7.38-23.93-26.66-38.97-19.28-15.28-44.35-14.16-25.06 1.12-43.63 24.16l-323 351.76Z"/></svg>