<svg xmlns="http://www.w3.org/2000/svg" height="48" viewBox="0 -960 960 960" width="48"><path d="M288-295q-35.21 30-73.11 27-37.89-3-63.39-27-26.5-23-35-58t14.5-74l81-135q-26-19.08-41-47.13-15-28.04-15-61.22 0-55.18 39.21-94.41Q234.41-804 291-804q55.52 0 94.76 39.24Q425-725.53 425-670q0 55.53-39.24 94.76Q346.52-536 291-536q-13.47 0-25.93-2-12.47-2-23.16-8L160-409q-16 25.36-8.82 50.28 7.17 24.93 24.53 38.79 17.35 13.85 41.77 16.89Q241.89-300 266-320l407-345q33-30 70.4-27.7 37.41 2.3 64.9 24.65 25.31 23.95 35.5 60Q854-572 831-533l-81 135q25 20 39.5 47.45Q804-323.1 804-290q0 55.52-39.65 94.76T669.23-156q-56.29 0-94.76-39.76Q536-235.51 536-290.48t38.69-94.24Q613.38-424 669-424q11.5 0 24.75 2t24.25 7l82-136q15-26 9.29-50.05-5.7-24.06-23.5-38.5Q768-654 743.5-657T695-640L288-295Zm380.85 104q41.17 0 70.66-29.23Q769-249.46 769-290.49t-29.43-69.77Q710.14-389 668.81-389q-41.34 0-69.57 28.79Q571-331.42 571-290.01q0 40.53 27.93 69.77Q626.85-191 668.85-191ZM290.99-571q40.53 0 69.77-29.23Q390-629.46 390-670.49q0-41.04-29.23-69.77Q331.54-769 290.51-769t-70.27 28.79Q191-711.42 191-670.01q0 40.54 29.08 69.77Q249.17-571 290.99-571ZM670-290ZM291-670Z"/></svg>