<svg xmlns="http://www.w3.org/2000/svg" height="48" viewBox="0 -960 960 960" width="48"><path d="M284.5-275q-40 33.5-82.75 30t-74.25-30Q96-301.5 86-343.25T102.5-429l82-136.5q-27-20.5-42.75-51.63Q126-648.27 126-684.5q0-62.53 44.49-107.01Q214.98-836 277.5-836t107.01 44.49Q429-747.03 429-684.5q0 62.53-44.49 107.01Q340.02-533 277.5-533q-11.3 0-22.1-1.5t-20.4-5l-83.5 140q-14 23.5-8.57 45.61 5.42 22.1 22.25 35.5Q181.5-304.5 204-302.75t43-15.75L676-686q39.5-33.5 82.75-30.5T833-687q31 27 41.5 69t-16 86L778-395.5q26.5 21 42.25 52.13Q836-312.23 836-276.5q0 62.52-44.79 107.01Q746.41-125 683.46-125q-62.96 0-106.71-44.49Q533-213.98 533-276.5t43.75-107.01Q620.5-428 683.5-428q10.73 0 21.12 1 10.38 1 20.88 4l83-138.5q14-23.5 8.57-45.61-5.42-22.1-22.25-36Q778-656.5 755.5-658.25T713-643L284.5-275Z"/></svg>