<svg xmlns="http://www.w3.org/2000/svg" height="48" viewBox="0 -960 960 960" width="48"><path d="M287.89-264.83q-43.39 36.33-90.1 32.55-46.7-3.78-80.75-32.55Q83-293.59 71.59-339.01q-11.42-45.42 17.91-93.95l79.17-131.97q-26.43-22.2-41.62-54.21-15.18-32-15.18-68.02 0-67.98 47.56-115.76Q207-850.7 274.67-850.7q67.05 0 114.93 47.88 47.88 47.88 47.88 115.21 0 67.33-47.88 115.21-47.88 47.88-114.87 47.88-10.3 0-20.3-1.22-9.99-1.22-18.3-4.72l-81.18 136.43q-12.36 21.42-7.6 40.75 4.76 19.32 19.39 30.72 14.13 11.9 33.63 13.62 19.51 1.72 37.59-14.08l435.21-372.59q43.46-36.89 90.67-33.89 47.2 3 80.46 32.58 33.27 29.57 44.61 75.36 11.35 45.8-17.41 93.52L794.39-395.5q25.94 22.13 41.12 53.91 15.19 31.78 15.19 67.86 0 67.58-48.19 115.22t-115.95 47.64q-67.76 0-114.9-47.44-47.14-47.45-47.14-115.61 0-66.8 47.14-114.68 47.14-47.88 114.94-47.88 8.96 0 18.72.84 9.77.85 19.61 3.03l80.68-134.42q12.37-20.8 7.11-40.36-5.26-19.56-20.08-31.19-14.64-11.14-34.11-12.89t-36.08 13.16L287.89-264.83Zm223.34-98.55q35.74 0 61.35-24.97t25.61-60.99q0-35.73-25.61-60.69t-61.63-24.96q-36.02 0-60.48 25.1-24.46 25.1-24.46 60.9 0 36.2 24.44 60.9 24.44 24.71 60.78 24.71Zm-60.89-62.63q35.73 0 60.69-25.1t24.96-61.15q0-35.45-25.1-60.69-25.1-25.24-61.15-25.24-35.45 0-60.4 25.4-24.96 25.4-24.96 61.13 0 35.73 25.11 60.69 25.12 24.96 60.85 24.96Zm61.76-22.89Zm-62.2-63.2Z"/></svg>