<svg xmlns="http://www.w3.org/2000/svg" height="40" viewBox="0 -960 960 960" width="40"><path d="M291.1-260.03q-44.25 37.54-92.84 33.83-48.59-3.71-84.18-33.5-35.59-29.78-48.26-77.52-12.68-47.74 18.01-98.45l76.65-127.76q-25.58-23.03-40.61-55.4-15.03-32.36-15.03-68.93 0-70.25 49.29-119.68 49.29-49.43 119.33-49.43 69.63 0 119.13 49.5t49.5 119.31q0 69.82-49.5 119.31-49.5 49.5-119.13 49.5-9.12 0-18.24-1.05-9.13-1.05-16.9-3.53L159.1-390.26q-11.11 18.51-7.01 36.02 4.1 17.5 17.19 28.34 13.09 10.84 30.73 12.22 17.64 1.38 33.82-12.55l435.63-374.18q45-38.29 94.1-34.93 49.09 3.35 84.4 33.7 35.3 30.35 47.15 78.41 11.85 48.05-18.27 98.23l-75.42 128.33q25.58 22.66 40.52 54.79 14.93 32.14 14.93 68.91 0 70.11-49.7 119.46-49.71 49.34-119.81 49.34t-119.11-49.29q-49-49.29-49-119.34 0-69.62 49-119.12 49.01-49.5 119.13-49.5 8.63 0 17.33.72 8.71.71 17.2 2.82l79.55-132.34q11.12-18.13 6.43-35.78-4.69-17.65-17.79-28.32-13.1-10.67-30.71-11.98-17.61-1.31-32.84 12.05L291.1-260.03Zm201.37-127.49q33.51 0 57.28-23.44 23.78-23.45 23.78-56.95t-23.78-56.84q-23.77-23.35-57.47-23.35-33.69 0-56.7 23.44-23.01 23.43-23.01 57.15 0 33.31 23 56.65 22.99 23.34 56.9 23.34Zm-23.89-25.05q33.5 0 56.84-23.44 23.34-23.43 23.34-57.15 0-33.31-23.43-56.84-23.44-23.53-57.15-23.53-33.32 0-56.66 23.64-23.34 23.63-23.34 57.13 0 33.51 23.45 56.85 23.45 23.34 56.95 23.34Zm24.47-55.05Zm-24.77-25.43Z"/></svg>