<svg xmlns="http://www.w3.org/2000/svg" version="1.1" width="3300" height="2000"><g id="Notes"><style>
    text {
      font-family: monospace;
      text-anchor: middle;
    }
    text.emphasis {
      font-weight:bold;
    }
    text.lanchor {
      text-anchor: start;
    }
  </style><rect height="2200" id="artboard" fill="white" width="3300" x="0" y="0"/><line id="" style="fill:none;stroke:black;stroke-width:0.5;" x1="263" x2="3036" y1="292" y2="292"/><text class="lanchor emphasis" transform="matrix(1 0 0 1 263 322)">Weight/Scale Variations</text><text transform="matrix(1 0 0 1 559.711 322)">Ultralight</text><text transform="matrix(1 0 0 1 856.422 322)">Thin</text><text transform="matrix(1 0 0 1 1153.13 322)">Light</text><text transform="matrix(1 0 0 1 1449.84 322)">Regular</text><text transform="matrix(1 0 0 1 1746.56 322)">Medium</text><text transform="matrix(1 0 0 1 2043.27 322)">Semibold</text><text transform="matrix(1 0 0 1 2339.98 322)">Bold</text><text transform="matrix(1 0 0 1 2636.69 322)">Heavy</text><text transform="matrix(1 0 0 1 2933.4 322)">Black</text><text id="template-version" style="text-anchor: end;" transform="matrix(1 0 0 1 3036 1933)">Template v.1.0</text><text class="lanchor" transform="matrix(1 0 0 1 263 726)">Small</text><text class="lanchor" transform="matrix(1 0 0 1 263 1156)">Medium</text><text class="lanchor" transform="matrix(1 0 0 1 263 1586)">Large</text></g><g id="Guides"><g id="H-reference" style="fill:#27AAE1;stroke:none;" transform="matrix(1 0 0 1 339 696)"><path d="M 54.9316 0 L 57.666 0 L 30.5664 -70.459 L 28.0762 -70.459 L 0.976562 0 L 3.66211 0 L 12.9395 -24.4629 L 45.7031 -24.4629 Z M 29.1992 -67.0898 L 29.4434 -67.0898 L 44.8242 -26.709 L 13.8184 -26.709 Z"/></g><line id="Baseline-S" style="fill:none;stroke:#27AAE1;opacity:1;stroke-width:0.577;" x1="263" x2="3036" y1="696" y2="696"/><line id="Capline-S" style="fill:none;stroke:#27AAE1;opacity:1;stroke-width:0.577;" x1="263" x2="3036" y1="625.541" y2="625.541"/><g id="H-reference" style="fill:#27AAE1;stroke:none;" transform="matrix(1 0 0 1 339 1126)"><path d="M 54.9316 0 L 57.666 0 L 30.5664 -70.459 L 28.0762 -70.459 L 0.976562 0 L 3.66211 0 L 12.9395 -24.4629 L 45.7031 -24.4629 Z M 29.1992 -67.0898 L 29.4434 -67.0898 L 44.8242 -26.709 L 13.8184 -26.709 Z"/></g><line id="Baseline-M" style="fill:none;stroke:#27AAE1;opacity:1;stroke-width:0.577;" x1="263" x2="3036" y1="1126" y2="1126"/><line id="Capline-M" style="fill:none;stroke:#27AAE1;opacity:1;stroke-width:0.577;" x1="263" x2="3036" y1="1055.54" y2="1055.54"/><g id="H-reference" style="fill:#27AAE1;stroke:none;" transform="matrix(1 0 0 1 339 1556)"><path d="M 54.9316 0 L 57.666 0 L 30.5664 -70.459 L 28.0762 -70.459 L 0.976562 0 L 3.66211 0 L 12.9395 -24.4629 L 45.7031 -24.4629 Z M 29.1992 -67.0898 L 29.4434 -67.0898 L 44.8242 -26.709 L 13.8184 -26.709 Z"/></g><line id="Baseline-L" style="fill:none;stroke:#27AAE1;opacity:1;stroke-width:0.577;" x1="263" x2="3036" y1="1556" y2="1556"/><line id="Capline-L" style="fill:none;stroke:#27AAE1;opacity:1;stroke-width:0.577;" x1="263" x2="3036" y1="1485.54" y2="1485.54"/><rect height="119.336" id="left-margin" style="fill:darkred;stroke:none;opacity:0.4;" width="12.4512" x="1394.06" y="1030.79"/><rect height="119.336" id="right-margin" style="fill:darkgreen;stroke:none;opacity:0.4;" width="12.4512" x="1502.5112" y="1030.79"/><rect x="1406.5112" y="1045" width="96" height="96" fill="none" stroke="blue" stroke-dasharray="5"/><rect x="1394.06" y="1030.79" width="120.9024" height="119.336" fill="none" stroke="blue"/></g><g id="Symbols"><g id="Bold-L" transform="matrix(1 0 0 1 2266 1556)"><path d="M15.964 26.206 V-96.827 H138.998 V26.206 H15.964 Z M30.637 11.533 H124.163 V-81.992 H30.637 V11.533 Z M77.415 -11.849 Q67.483 -11.849 60.751 -18.528 Q54.019 -25.205 54.019 -35.136 Q54.019 -45.066 60.698 -51.919 Q67.375 -58.772 77.306 -58.772 Q87.236 -58.772 94.089 -51.974 Q100.943 -45.174 100.943 -35.245 Q100.943 -25.313 94.144 -18.581 Q87.344 -11.849 77.415 -11.849 Z"/></g><g id="Semibold-L" transform="matrix(1 0 0 1 1970.27 1556)"><path d="M16.314 25.856 V-96.407 H138.577 V25.856 H16.314 Z M29.726 12.444 H125.074 V-82.904 H29.726 V12.444 Z M77.385 -10.938 Q67.133 -10.938 60.12 -17.925 Q53.108 -24.913 53.108 -35.165 Q53.108 -45.416 60.095 -52.55 Q67.083 -59.684 77.336 -59.684 Q87.586 -59.684 94.72 -52.576 Q101.854 -45.466 101.854 -35.215 Q101.854 -24.963 94.746 -17.95 Q87.636 -10.938 77.385 -10.938 Z"/></g><g id="Medium-L" transform="matrix(1 0 0 1 1674.31 1556)"><path d="M16.576 25.594 V-96.091 H138.261 V25.594 H16.576 Z M29.043 13.127 H125.757 V-83.587 H29.043 V13.127 Z M77.363 -10.254 Q66.87 -10.254 59.646 -17.473 Q52.424 -24.694 52.424 -35.186 Q52.424 -45.679 59.643 -53.024 Q66.864 -60.367 77.356 -60.367 Q87.849 -60.367 95.194 -53.027 Q102.537 -45.685 102.537 -35.193 Q102.537 -24.7 95.197 -17.476 Q87.855 -10.254 77.363 -10.254 Z"/></g><g id="Regular-L" transform="matrix(1 0 0 1 1378.56 1556)"><path d="M16.77 25.4 V-95.86 H138.03 V25.4 H16.77 Z M28.541 13.629 H126.259 V-84.089 H28.541 V13.629 Z M77.347 -9.752 Q66.677 -9.752 59.3 -17.143 Q51.922 -24.533 51.922 -35.203 Q51.922 -45.872 59.313 -53.371 Q66.703 -60.869 77.373 -60.869 Q88.043 -60.869 95.541 -53.358 Q103.039 -45.847 103.039 -35.177 Q103.039 -24.507 95.528 -17.13 Q88.017 -9.752 77.347 -9.752 Z"/></g><g id="Light-L" transform="matrix(1 0 0 1 1082.77 1556)"><path d="M19.995 22.175 V-92.635 H134.805 V22.175 H19.995 Z M29.41 12.76 H125.39 V-83.22 H29.41 V12.76 Z M77.347 -11.986 Q67.607 -11.986 60.882 -18.724 Q54.156 -25.463 54.156 -35.203 Q54.156 -44.942 60.894 -51.819 Q67.633 -58.698 77.373 -58.698 Q87.112 -58.698 93.989 -51.806 Q100.868 -44.916 100.868 -35.177 Q100.868 -25.437 93.977 -18.712 Q87.086 -11.986 77.347 -11.986 Z"/></g><g id="Thin-L" transform="matrix(1 0 0 1 787.282 1556)"><path d="M23.22 18.95 V-89.41 H131.58 V18.95 H23.22 Z M30.278 11.892 H124.522 V-82.352 H30.278 V11.892 Z M77.347 -14.218 Q68.538 -14.218 62.463 -20.306 Q56.388 -26.393 56.388 -35.203 Q56.388 -44.012 62.476 -50.27 Q68.564 -56.528 77.373 -56.528 Q86.182 -56.528 92.44 -50.257 Q98.698 -43.986 98.698 -35.177 Q98.698 -26.368 92.427 -20.293 Q86.156 -14.218 77.347 -14.218 Z"/></g><g id="Ultralight-L" transform="matrix(1 0 0 1 491.205 1556)"><path d="M25.155 17.015 V-87.475 H129.645 V17.015 H25.155 Z M30.799 11.371 H124.001 V-81.831 H30.799 V11.371 Z M77.347 -15.557 Q69.096 -15.557 63.412 -21.254 Q57.727 -26.951 57.727 -35.203 Q57.727 -43.454 63.424 -49.339 Q69.121 -55.225 77.373 -55.225 Q85.624 -55.225 91.509 -49.326 Q97.395 -43.428 97.395 -35.177 Q97.395 -26.926 91.496 -21.242 Q85.598 -15.557 77.347 -15.557 Z"/></g><g id="Bold-M" transform="matrix(1 0 0 1 2281.8 1126)"><path d="M9.25 15.52 V-85.98 H110.75 V15.52 H9.25 Z M26.25 -1.48 H93.75 V-68.98 H26.25 V-1.48 Z M60.021 -16.355 Q52.125 -16.355 46.625 -21.834 Q41.125 -27.312 41.125 -35.209 Q41.125 -43.105 46.604 -48.605 Q52.083 -54.105 59.979 -54.105 Q67.875 -54.105 73.375 -48.626 Q78.875 -43.147 78.875 -35.251 Q78.875 -27.355 73.396 -21.855 Q67.918 -16.355 60.021 -16.355 Z"/></g><g id="Semibold-M" transform="matrix(1 0 0 1 1985.97 1126)"><path d="M10.011 14.759 V-85.219 H109.989 V14.759 H10.011 Z M25.38 -0.61 H94.62 V-69.85 H25.38 V-0.61 Z M60.008 -15.485 Q51.799 -15.485 46.028 -21.25 Q40.255 -27.014 40.255 -35.222 Q40.255 -43.431 46.02 -49.202 Q51.784 -54.975 59.992 -54.975 Q68.201 -54.975 73.972 -49.21 Q79.745 -43.446 79.745 -35.237 Q79.745 -27.029 73.98 -21.257 Q68.216 -15.485 60.008 -15.485 Z"/></g><g id="Medium-M" transform="matrix(1 0 0 1 1689.91 1126)"><path d="M10.581 14.189 V-84.649 H109.419 V14.189 H10.581 Z M24.729 0.041 H95.271 V-70.501 H24.729 V0.041 Z M59.998 -14.834 Q51.554 -14.834 45.579 -20.811 Q39.604 -26.79 39.604 -35.232 Q39.604 -43.676 45.581 -49.651 Q51.56 -55.626 60.002 -55.626 Q68.446 -55.626 74.421 -49.649 Q80.396 -43.67 80.396 -35.227 Q80.396 -26.784 74.419 -20.809 Q68.44 -14.834 59.998 -14.834 Z"/></g><g id="Regular-M" transform="matrix(1 0 0 1 1394.06 1126)"><path d="M11 13.77 V-84.23 H109 V13.77 H11 Z M24.25 0.52 H95.75 V-70.98 H24.25 V0.52 Z M59.99 -14.355 Q51.375 -14.355 45.25 -20.49 Q39.125 -26.625 39.125 -35.24 Q39.125 -43.855 45.26 -49.98 Q51.395 -56.105 60.01 -56.105 Q68.625 -56.105 74.75 -49.97 Q80.875 -43.835 80.875 -35.22 Q80.875 -26.605 74.74 -20.48 Q68.605 -14.355 59.99 -14.355 Z"/></g><g id="Light-M" transform="matrix(1 0 0 1 1098.18 1126)"><path d="M13.5 11.27 V-81.73 H106.5 V11.27 H13.5 Z M24.25 0.52 H95.75 V-70.98 H24.25 V0.52 Z M59.99 -16.23 Q52.096 -16.23 46.549 -21.789 Q41 -27.346 41 -35.24 Q41 -43.134 46.559 -48.681 Q52.116 -54.23 60.01 -54.23 Q67.904 -54.23 73.451 -48.671 Q79 -43.114 79 -35.22 Q79 -27.326 73.441 -21.779 Q67.884 -16.23 59.99 -16.23 Z"/></g><g id="Thin-M" transform="matrix(1 0 0 1 802.565 1126)"><path d="M16 8.77 V-79.23 H104 V8.77 H16 Z M24.25 0.52 H95.75 V-70.98 H24.25 V0.52 Z M59.99 -18.105 Q52.818 -18.105 47.846 -23.086 Q42.875 -28.067 42.875 -35.24 Q42.875 -42.412 47.856 -47.384 Q52.837 -52.355 60.01 -52.355 Q67.183 -52.355 72.154 -47.374 Q77.125 -42.392 77.125 -35.22 Q77.125 -28.047 72.144 -23.076 Q67.162 -18.105 59.99 -18.105 Z"/></g><g id="Ultralight-M" transform="matrix(1 0 0 1 506.415 1126)"><path d="M17.5 7.27 V-77.73 H102.5 V7.27 H17.5 Z M24.25 0.52 H95.75 V-70.98 H24.25 V0.52 Z M59.99 -19.23 Q53.25 -19.23 48.625 -23.865 Q44 -28.5 44 -35.24 Q44 -41.98 48.635 -46.605 Q53.27 -51.23 60.01 -51.23 Q66.75 -51.23 71.375 -46.595 Q76 -41.96 76 -35.22 Q76 -28.48 71.365 -23.855 Q66.73 -19.23 59.99 -19.23 Z"/></g><g id="Bold-S" transform="matrix(1 0 0 1 2294.23 696)"><path d="M9.665 2.445 V-72.905 H85.015 V2.445 H9.665 Z M22.289 -10.179 H72.391 V-60.281 H22.289 V-10.179 Z M47.357 -21.916 Q41.718 -21.916 37.872 -25.745 Q34.026 -29.575 34.026 -35.213 Q34.026 -40.852 37.855 -44.698 Q41.685 -48.544 47.323 -48.544 Q52.962 -48.544 56.808 -44.715 Q60.654 -40.885 60.654 -35.247 Q60.654 -29.608 56.825 -25.762 Q52.995 -21.916 47.357 -21.916 Z"/></g><g id="Semibold-S" transform="matrix(1 0 0 1 1998.1 696)"><path d="M10.266 1.844 V-72.304 H84.414 V1.844 H10.266 Z M21.603 -9.493 H73.077 V-60.967 H21.603 V-9.493 Z M47.346 -21.229 Q41.461 -21.229 37.401 -25.285 Q33.339 -29.339 33.339 -35.224 Q33.339 -41.109 37.395 -45.169 Q41.449 -49.231 47.334 -49.231 Q53.219 -49.231 57.279 -45.175 Q61.341 -41.121 61.341 -35.236 Q61.341 -29.351 57.285 -25.291 Q53.231 -21.229 47.346 -21.229 Z"/></g><g id="Medium-S" transform="matrix(1 0 0 1 1701.85 696)"><path d="M10.716 1.394 V-71.854 H83.964 V1.394 H10.716 Z M21.089 -8.979 H73.591 V-61.481 H21.089 V-8.979 Z M47.338 -20.715 Q41.268 -20.715 37.047 -24.938 Q32.825 -29.163 32.825 -35.232 Q32.825 -41.302 37.048 -45.523 Q41.273 -49.745 47.342 -49.745 Q53.412 -49.745 57.633 -45.522 Q61.855 -41.297 61.855 -35.228 Q61.855 -29.158 57.632 -24.937 Q53.407 -20.715 47.338 -20.715 Z"/></g><g id="Regular-S" transform="matrix(1 0 0 1 1405.73 696)"><path d="M11.046 1.064 V-71.524 H83.634 V1.064 H11.046 Z M20.711 -8.601 H73.969 V-61.859 H20.711 V-8.601 Z M47.332 -20.338 Q41.127 -20.338 36.787 -24.685 Q32.448 -29.032 32.448 -35.238 Q32.448 -41.443 36.795 -45.783 Q41.142 -50.122 47.348 -50.122 Q53.553 -50.122 57.893 -45.775 Q62.232 -41.428 62.232 -35.222 Q62.232 -29.017 57.885 -24.677 Q53.538 -20.338 47.332 -20.338 Z"/></g><g id="Light-S" transform="matrix(1 0 0 1 1109.75 696)"><path d="M13.019 -0.908 V-69.551 H81.662 V-0.908 H13.019 Z M20.711 -8.601 H73.969 V-61.859 H20.711 V-8.601 Z M47.332 -21.817 Q41.696 -21.817 37.812 -25.71 Q33.927 -29.601 33.927 -35.238 Q33.927 -40.874 37.82 -44.758 Q41.711 -48.643 47.348 -48.643 Q52.984 -48.643 56.868 -44.75 Q60.753 -40.859 60.753 -35.222 Q60.753 -29.586 56.86 -25.702 Q52.969 -21.817 47.332 -21.817 Z"/></g><g id="Thin-S" transform="matrix(1 0 0 1 814.015 696)"><path d="M14.991 -2.881 V-67.579 H79.689 V-2.881 H14.991 Z M20.711 -8.601 H73.969 V-61.859 H20.711 V-8.601 Z M47.332 -23.296 Q42.265 -23.296 38.836 -26.733 Q35.406 -30.171 35.406 -35.238 Q35.406 -40.305 38.843 -43.734 Q42.281 -47.164 47.348 -47.164 Q52.415 -47.164 55.844 -43.727 Q59.274 -40.289 59.274 -35.222 Q59.274 -30.155 55.837 -26.726 Q52.399 -23.296 47.332 -23.296 Z"/></g><g id="Ultralight-S" transform="matrix(1 0 0 1 517.792 696)"><path d="M16.175 -4.064 V-66.395 H78.505 V-4.064 H16.175 Z M20.711 -8.601 H73.969 V-61.859 H20.711 V-8.601 Z M47.332 -24.184 Q42.606 -24.184 39.45 -27.348 Q36.294 -30.512 36.294 -35.238 Q36.294 -39.964 39.458 -43.12 Q42.622 -46.276 47.348 -46.276 Q52.074 -46.276 55.23 -43.112 Q58.386 -39.948 58.386 -35.222 Q58.386 -30.496 55.222 -27.34 Q52.058 -24.184 47.332 -24.184 Z"/></g></g></svg>