<svg xmlns="http://www.w3.org/2000/svg" height="20" viewBox="0 -960 960 960" width="20"><path d="M213.83-108.65q-44.57 0-74.88-30.3-30.3-30.31-30.3-74.88v-532.34q0-44.57 30.3-74.88 30.31-30.3 74.88-30.3h532.34q44.57 0 74.88 30.3 30.3 30.31 30.3 74.88v532.34q0 44.57-30.3 74.88-30.31 30.3-74.88 30.3H213.83Zm0-105.18h532.34v-532.34H213.83v532.34Zm266.15-119q-61.55 0-104.35-42.82-42.8-42.83-42.8-104.37 0-61.55 42.82-104.35 42.83-42.8 104.37-42.8 61.55 0 104.35 42.82 42.8 42.83 42.8 104.37 0 61.55-42.82 104.35-42.83 42.8-104.37 42.8Z"/></svg>