<svg xmlns="http://www.w3.org/2000/svg" height="48" viewBox="0 -960 960 960" width="48"><path d="M187.59-110.87q-32.23 0-54.47-22.25-22.25-22.24-22.25-54.47v-584.82q0-32.46 22.25-54.87 22.24-22.42 54.47-22.42h584.82q32.46 0 54.87 22.42 22.42 22.41 22.42 54.87v584.82q0 32.23-22.42 54.47-22.41 22.25-54.87 22.25H187.59Zm0-76.72h584.82v-584.82H187.59v584.82Zm292.51-145.5q-62.4 0-104.71-42.09-42.3-42.09-42.3-104.47 0-62.15 42.09-104.71 42.09-42.55 104.47-42.55 62.15 0 104.71 42.55 42.55 42.55 42.55 104.26 0 62.4-42.55 104.71-42.55 42.3-104.26 42.3Z"/></svg>