<svg xmlns="http://www.w3.org/2000/svg" height="24" viewBox="0 -960 960 960" width="24"><path d="M234.5-177q-23.97 0-40.73-16.77Q177-210.53 177-234.5v-491q0-23.97 16.77-40.73Q210.53-783 234.5-783h491q23.97 0 40.73 16.77Q783-749.47 783-725.5v491q0 23.97-16.77 40.73Q749.47-177 725.5-177h-491Zm0-25.5h491q14 0 23-9t9-23v-491q0-14-9-23t-23-9h-491q-14 0-23 9t-9 23v491q0 14 9 23t23 9ZM480.25-362q-49.75 0-84-34.25T362-480q0-49.5 34.25-83.75T480-598q49.5 0 83.75 34.34T598-480.25q0 49.75-34.34 84T480.25-362Z"/></svg>