<svg xmlns="http://www.w3.org/2000/svg" height="20" viewBox="0 -960 960 960" width="20"><path d="M243.69-190.15q-22.27 0-37.91-15.63-15.63-15.64-15.63-37.91v-472.62q0-22.27 15.63-37.91 15.64-15.63 37.91-15.63h472.62q22.27 0 37.91 15.63 15.63 15.64 15.63 37.91v472.62q0 22.27-15.63 37.91-15.64 15.63-37.91 15.63H243.69Zm0-28.93h472.62q10.77 0 17.69-6.92 6.92-6.92 6.92-17.69v-472.62q0-10.77-6.92-17.69-6.92-6.92-17.69-6.92H243.69q-10.77 0-17.69 6.92-6.92 6.92-6.92 17.69v472.62q0 10.77 6.92 17.69 6.92 6.92 17.69 6.92Zm236.5-150.61q-47.04 0-78.77-31.73-31.73-31.73-31.73-78.52 0-46.79 31.73-78.52 31.73-31.73 78.52-31.73 46.79 0 78.52 31.82 31.73 31.82 31.73 78.18 0 47.04-31.82 78.77-31.82 31.73-78.18 31.73Z"/></svg>