<svg xmlns="http://www.w3.org/2000/svg" height="48" viewBox="0 -960 960 960" width="48"><path d="M223-156q-27.75 0-47.37-19.63Q156-195.25 156-223v-514q0-27.75 19.63-47.38Q195.25-804 223-804h514q27.75 0 47.38 19.62Q804-764.75 804-737v514q0 27.75-19.62 47.37Q764.75-156 737-156H223Zm0-35h514q14 0 23-9t9-23v-514q0-14-9-23t-23-9H223q-14 0-23 9t-9 23v514q0 14 9 23t23 9Zm256.67-167q-51.17 0-86.42-35.33T358-479.83q0-51.17 35.33-87.67t86.5-36.5q51.17 0 87.67 36.58t36.5 87.75q0 51.17-36.58 86.42T479.67-358Z"/></svg>