<svg xmlns="http://www.w3.org/2000/svg" height="48" viewBox="0 -960 960 960" width="48"><path d="M184.35-101.17q-34.74 0-58.96-24.22t-24.22-58.96v-591.3q0-34.97 24.22-59.36 24.22-24.38 58.96-24.38h591.3q34.97 0 59.36 24.38 24.38 24.39 24.38 59.36v591.3q0 34.74-24.38 58.96-24.39 24.22-59.36 24.22h-591.3Zm0-83.18h591.3v-591.3h-591.3v591.3Zm295.56-145q-63.58 0-107.07-43.33-43.49-43.34-43.49-106.92 0-63.57 43.33-107.81 43.34-44.24 106.92-44.24 63.57 0 107.81 44.08 44.24 44.09 44.24 107.66 0 63.58-44.08 107.07-44.09 43.49-107.66 43.49Z"/></svg>