<svg xmlns="http://www.w3.org/2000/svg" height="48" viewBox="0 -960 960 960" width="48"><path d="M180.11-102.8q-32.44 0-54.87-22.44-22.44-22.43-22.44-54.87v-599.78q0-32.54 22.44-55.04 22.43-22.5 54.87-22.5h599.78q32.54 0 55.04 22.5t22.5 55.04v599.78q0 32.44-22.5 54.87-22.5 22.44-55.04 22.44H180.11Zm0-77.31h599.78v-599.78H180.11v599.78Zm299.66-145q-65.07 0-109.87-44.77-44.79-44.78-44.79-109.85t44.77-110.62q44.78-45.54 109.85-45.54t110.62 45.52q45.54 45.53 45.54 110.6T590.37-369.9q-45.53 44.79-110.6 44.79Z"/></svg>