<svg xmlns="http://www.w3.org/2000/svg" height="48" viewBox="0 -960 960 960" width="48"><path d="M212.38-144q-28.44 0-48.41-19.97Q144-183.94 144-212.38v-535.24q0-28.44 19.97-48.41Q183.94-816 212.38-816h535.24q28.44 0 48.41 19.97Q816-776.06 816-747.62v535.24q0 28.44-19.97 48.41Q776.06-144 747.62-144H212.38Zm0-43.77h535.24q10.76 0 17.69-6.92 6.92-6.93 6.92-17.69v-535.24q0-10.76-6.92-17.69-6.93-6.92-17.69-6.92H212.38q-10.76 0-17.69 6.92-6.92 6.93-6.92 17.69v535.24q0 10.76 6.92 17.69 6.93 6.92 17.69 6.92Zm267.29-161.92q-54.63 0-92.3-37.76-37.68-37.75-37.68-92.38 0-54.63 37.76-93.44 37.75-38.81 92.38-38.81 54.63 0 93.44 38.89 38.81 38.89 38.81 93.52 0 54.63-38.89 92.3-38.89 37.68-93.52 37.68Z"/></svg>