<svg xmlns="http://www.w3.org/2000/svg" height="40" viewBox="0 -960 960 960" width="40"><path d="M228.83-173.67q-22.49 0-38.82-16.34-16.34-16.33-16.34-38.82v-502.34q0-22.49 16.34-38.82 16.33-16.34 38.82-16.34h502.34q22.49 0 38.82 16.34 16.34 16.33 16.34 38.82v502.34q0 22.49-16.34 38.82-16.33 16.34-38.82 16.34H228.83Zm0-23.16h502.34q14 0 23-9t9-23v-502.34q0-14-9-23t-23-9H228.83q-14 0-23 9t-9 23v502.34q0 14 9 23t23 9Zm251.42-164.5q-49.75 0-84.33-34.51-34.59-34.5-34.59-84.16 0-49.5 34.51-84.58 34.5-35.09 84.16-35.09 49.5 0 84.58 35.18 35.09 35.17 35.09 84.24 0 49.75-35.18 84.33-35.17 34.59-84.24 34.59Z"/></svg>