<svg xmlns="http://www.w3.org/2000/svg" height="48" viewBox="0 -960 960 960" width="48"><path d="M215.96-161.15q-22.2 0-38.5-16.31-16.31-16.3-16.31-38.5v-528.08q0-22.2 16.31-38.5 16.3-16.31 38.5-16.31h528.08q22.2 0 38.5 16.31 16.31 16.3 16.31 38.5v528.08q0 22.2-16.31 38.5-16.3 16.31-38.5 16.31H215.96Zm0-30.2h528.08q10.77 0 17.69-6.92 6.92-6.92 6.92-17.69v-528.08q0-10.77-6.92-17.69-6.92-6.92-17.69-6.92H215.96q-10.77 0-17.69 6.92-6.92 6.92-6.92 17.69v528.08q0 10.77 6.92 17.69 6.92 6.92 17.69 6.92Zm264.23-162.03q-53.04 0-89.92-36.77-36.89-36.77-36.89-89.79 0-52.79 36.77-90.31t89.79-37.52q52.79 0 90.31 37.61t37.52 89.97q0 53.04-37.61 89.92-37.61 36.89-89.97 36.89Z"/></svg>