<svg xmlns="http://www.w3.org/2000/svg" height="40" viewBox="0 -960 960 960" width="40"><path d="M192.32-104.17q-36.94 0-62.54-25.61-25.61-25.6-25.61-62.54v-575.36q0-37.1 25.61-62.81 25.6-25.71 62.54-25.71h575.36q37.1 0 62.81 25.71t25.71 62.81v575.36q0 36.94-25.71 62.54-25.71 25.61-62.81 25.61H192.32Zm0-88.15h575.36v-575.36H192.32v575.36Zm287.74-136.67q-63.51 0-107.29-43.71-43.78-43.72-43.78-107.24 0-63.51 43.71-107.29 43.72-43.78 107.24-43.78 63.51 0 107.29 43.71 43.78 43.72 43.78 107.24 0 63.51-43.71 107.29-43.72 43.78-107.24 43.78Z"/></svg>