<svg xmlns="http://www.w3.org/2000/svg" height="40" viewBox="0 -960 960 960" width="40"><path d="M192.39-119.97q-30.12 0-51.27-21.15-21.15-21.15-21.15-51.27v-575.22q0-30.18 21.15-51.38 21.15-21.2 51.27-21.2h575.22q30.18 0 51.38 21.2 21.2 21.2 21.2 51.38v575.22q0 30.12-21.2 51.27-21.2 21.15-51.38 21.15H192.39Zm0-72.42h575.22v-575.22H192.39v575.22Zm287.64-137.33q-63.23 0-106.77-43.43-43.54-43.44-43.54-106.57 0-62.98 43.43-106.69 43.44-43.7 106.57-43.7 62.98 0 106.69 43.77 43.7 43.76 43.7 106.31 0 63.23-43.77 106.77-43.76 43.54-106.31 43.54Z"/></svg>