<svg xmlns="http://www.w3.org/2000/svg" height="40" viewBox="0 -960 960 960" width="40"><path d="M218.46-160q-23.91 0-41.18-17.28Q160-194.55 160-218.46v-523.08q0-23.91 17.28-41.18Q194.55-800 218.46-800h523.08q23.91 0 41.18 17.28Q800-765.45 800-741.54v523.08q0 23.91-17.28 41.18Q765.45-160 741.54-160H218.46Zm0-33.85h523.08q10.77 0 17.69-6.92 6.92-6.92 6.92-17.69v-523.08q0-10.77-6.92-17.69-6.92-6.92-17.69-6.92H218.46q-10.77 0-17.69 6.92-6.92 6.92-6.92 17.69v523.08q0 10.77 6.92 17.69 6.92 6.92 17.69 6.92ZM480-351.79q-53.79 0-91-37.21t-37.21-91q0-53.79 37.21-91.26 37.21-37.46 91-37.46t91.26 37.46q37.46 37.47 37.46 91.26 0 53.79-37.46 91-37.47 37.21-91.26 37.21Z"/></svg>