<svg xmlns="http://www.w3.org/2000/svg" height="24" viewBox="0 -960 960 960" width="24"><path d="M203.04-80.09q-51.78 0-87.37-35.58-35.58-35.59-35.58-87.37v-553.92q0-51.78 35.58-87.37 35.59-35.58 87.37-35.58h553.92q51.78 0 87.37 35.58 35.58 35.59 35.58 87.37v553.92q0 51.78-35.58 87.37-35.59 35.58-87.37 35.58H203.04Zm0-122.95h553.92v-553.92H203.04v553.92Zm277.02-119q-65.67 0-111.84-46.12-46.18-46.11-46.18-111.78t46.12-111.84q46.11-46.18 111.78-46.18t111.84 46.12q46.18 46.11 46.18 111.78t-46.12 111.84q-46.11 46.18-111.78 46.18Z"/></svg>