<svg xmlns="http://www.w3.org/2000/svg" height="48" viewBox="0 -960 960 960" width="48"><path d="M184.65-119.02q-27.32 0-46.47-19.16-19.16-19.15-19.16-46.47v-590.7q0-27.41 19.16-46.64 19.15-19.23 46.47-19.23h590.7q27.41 0 46.64 19.23t19.23 46.64v590.7q0 27.32-19.23 46.47-19.23 19.16-46.64 19.16h-590.7Zm0-65.63h590.7v-590.7h-590.7v590.7Zm295.39-145.5q-63.32 0-106.61-43.13-43.28-43.12-43.28-106.43 0-63.07 43.13-106.61 43.12-43.53 106.43-43.53 63.07 0 106.61 43.59 43.53 43.58 43.53 106.22 0 63.32-43.59 106.61-43.58 43.28-106.22 43.28Z"/></svg>