<svg xmlns="http://www.w3.org/2000/svg" height="40" viewBox="0 -960 960 960" width="40"><path d="M190.58-94.15q-40.42 0-68.43-28-28-28.01-28-68.43v-578.84q0-40.57 28-68.69 28.01-28.12 68.43-28.12h578.84q40.57 0 68.69 28.12 28.12 28.12 28.12 68.69v578.84q0 40.42-28.12 68.43-28.12 28-68.69 28H190.58Zm0-96.43h578.84v-578.84H190.58v578.84Zm289.38-136.33q-64.28 0-108.66-44.27-44.39-44.26-44.39-108.53 0-64.28 44.27-109.16 44.26-44.88 108.53-44.88 64.28 0 109.16 44.76 44.88 44.76 44.88 109.03 0 64.28-44.76 108.66-44.76 44.39-109.03 44.39Z"/></svg>