<svg xmlns="http://www.w3.org/2000/svg" height="40" viewBox="0 -960 960 960" width="40"><path d="M204.94-144.74q-24.73 0-42.46-17.74-17.74-17.73-17.74-42.46v-550.12q0-24.73 17.74-42.46 17.73-17.74 42.46-17.74h550.12q24.73 0 42.46 17.74 17.74 17.73 17.74 42.46v550.12q0 24.73-17.74 42.46-17.73 17.74-42.46 17.74H204.94Zm0-47.89h550.12q5.39 0 8.85-3.46t3.46-8.85v-550.12q0-5.39-3.46-8.85t-8.85-3.46H204.94q-5.39 0-8.85 3.46t-3.46 8.85v550.12q0 5.39 3.46 8.85t8.85 3.46ZM480.1-340.41q-58.52 0-99.11-40.51-40.58-40.5-40.58-98.93 0-58.26 40.51-99.14 40.5-40.88 98.93-40.88 58.26 0 99.14 40.97t40.88 98.8q0 58.52-40.97 99.11-40.97 40.58-98.8 40.58Z"/></svg>