<svg xmlns="http://www.w3.org/2000/svg" height="48" viewBox="0 -960 960 960" width="48"><path d="M199.23-143.08q-22.96 0-39.56-16.59-16.59-16.6-16.59-39.56v-561.54q0-22.96 16.59-39.56 16.6-16.59 39.56-16.59h561.54q22.96 0 39.56 16.59 16.59 16.6 16.59 39.56v561.54q0 22.96-16.59 39.56-16.6 16.59-39.56 16.59H199.23Zm0-43.84h561.54q5.38 0 8.84-3.47 3.47-3.46 3.47-8.84v-561.54q0-5.38-3.47-8.84-3.46-3.47-8.84-3.47H199.23q-5.38 0-8.84 3.47-3.47 3.46-3.47 8.84v561.54q0 5.38 3.47 8.84 3.46 3.47 8.84 3.47ZM480.1-340.69q-58.52 0-98.96-40.33-40.45-40.32-40.45-98.83 0-58.26 40.33-99.15 40.32-40.88 98.83-40.88 58.26 0 99.15 40.97 40.88 40.98 40.88 98.81 0 58.52-40.97 98.96-40.98 40.45-98.81 40.45Z"/></svg>