<svg xmlns="http://www.w3.org/2000/svg" height="48" viewBox="0 -960 960 960" width="48"><path d="M194.69-124q-29.59 0-50.14-20.55T124-194.69v-570.62q0-29.59 20.55-50.14T194.69-836h570.62q29.59 0 50.14 20.55T836-765.31v570.62q0 29.59-20.55 50.14T765.31-124H194.69Zm0-58.39h570.62q5.38 0 8.84-3.46t3.46-8.84v-570.62q0-5.38-3.46-8.84t-8.84-3.46H194.69q-5.38 0-8.84 3.46t-3.46 8.84v570.62q0 5.38 3.46 8.84t8.84 3.46Zm284.98-153.46q-60.4 0-102.11-41.79t-41.71-102.19q0-60.4 41.79-103.05 41.79-42.66 102.19-42.66t103.05 42.74q42.66 42.73 42.66 103.13T582.8-377.56q-42.73 41.71-103.13 41.71Z"/></svg>