<svg xmlns="http://www.w3.org/2000/svg" height="24" viewBox="0 -960 960 960" width="24"><path d="M218.62-128q-38.85 0-64.74-25.88Q128-179.77 128-218.62v-522.76q0-38.85 25.88-64.74Q179.77-832 218.62-832h522.76q38.85 0 64.74 25.88Q832-780.23 832-741.38v522.76q0 38.85-25.88 64.74Q780.23-128 741.38-128H218.62Zm0-66h522.76q10.77 0 17.7-6.92 6.92-6.93 6.92-17.7v-522.76q0-10.77-6.92-17.7-6.93-6.92-17.7-6.92H218.62q-10.77 0-17.7 6.92-6.92 6.93-6.92 17.7v522.76q0 10.77 6.92 17.7 6.93 6.92 17.7 6.92Zm261.3-149q-57.38 0-97.15-39.85T343-480.08q0-57.38 39.85-97.15T480.08-617q57.38 0 97.15 39.85T617-479.92q0 57.38-39.85 97.15T479.92-343Z"/></svg>