<svg xmlns="http://www.w3.org/2000/svg" height="20" viewBox="0 -960 960 960" width="20"><path d="M250.5-201q-20.67 0-35.08-14.42Q201-229.83 201-250.5v-459q0-20.67 14.42-35.08Q229.83-759 250.5-759h459q20.67 0 35.08 14.42Q759-730.17 759-709.5v459q0 20.67-14.42 35.08Q730.17-201 709.5-201h-459Zm0-17.5h459q14 0 23-9t9-23v-459q0-14-9-23t-23-9h-459q-14 0-23 9t-9 23v459q0 14 9 23t23 9ZM480.25-378q-43.75 0-73-29.25T378-480q0-43.5 29.25-72.75T480-582q43.5 0 72.75 29.34T582-480.25q0 43.75-29.34 73T480.25-378Z"/></svg>