<svg xmlns="http://www.w3.org/2000/svg" height="24" viewBox="0 -960 960 960" width="24"><path d="M227.69-166.15q-25.57 0-43.56-17.98-17.98-17.99-17.98-43.56v-504.62q0-25.57 17.98-43.56 17.99-17.98 43.56-17.98h504.62q25.57 0 43.56 17.98 17.98 17.99 17.98 43.56v504.62q0 25.57-17.98 43.56-17.99 17.98-43.56 17.98H227.69Zm0-36.93h504.62q10.77 0 17.69-6.92 6.92-6.92 6.92-17.69v-504.62q0-10.77-6.92-17.69-6.92-6.92-17.69-6.92H227.69q-10.77 0-17.69 6.92-6.92 6.92-6.92 17.69v504.62q0 10.77 6.92 17.69 6.92 6.92 17.69 6.92Zm252.5-150.61q-53.04 0-89.77-36.73t-36.73-89.52q0-52.79 36.73-89.52t89.52-36.73q52.79 0 89.52 36.82t36.73 89.18q0 53.04-36.82 89.77t-89.18 36.73Z"/></svg>