<svg xmlns="http://www.w3.org/2000/svg" height="24" viewBox="0 -960 960 960" width="24"><path d="M207.87-121.87q-35.72 0-60.86-25.14t-25.14-60.86v-544.26q0-35.72 25.14-60.86t60.86-25.14h544.26q35.72 0 60.86 25.14t25.14 60.86v544.26q0 35.72-25.14 60.86t-60.86 25.14H207.87Zm0-86h544.26v-544.26H207.87v544.26Zm272.13-121q-63.04 0-107.09-44.04-44.04-44.05-44.04-106.84 0-62.79 44.04-106.84 44.05-44.04 106.84-44.04 62.79 0 106.84 44.13 44.04 44.14 44.04 106.5 0 63.04-44.13 107.09-44.14 44.04-106.5 44.04Z"/></svg>