<svg xmlns="http://www.w3.org/2000/svg" height="40" viewBox="0 -960 960 960" width="40"><path d="M198.57-118.67q-33.71 0-56.81-23.09-23.09-23.1-23.09-56.81v-562.86q0-33.71 23.09-56.81 23.1-23.09 56.81-23.09h562.86q33.71 0 56.81 23.09 23.09 23.1 23.09 56.81v562.86q0 33.71-23.09 56.81-23.1 23.09-56.81 23.09H198.57Zm0-67.59h562.86q5.39 0 8.85-3.46t3.46-8.85v-562.86q0-5.39-3.46-8.85t-8.85-3.46H198.57q-5.39 0-8.85 3.46t-3.46 8.85v562.86q0 5.39 3.46 8.85t8.85 3.46Zm281.19-146.97q-61.32 0-103.92-42.69-42.61-42.68-42.61-103.99 0-61.32 42.69-104.55 42.68-43.23 103.99-43.23 61.32 0 104.55 43.31t43.23 104.62q0 61.32-43.31 103.92-43.31 42.61-104.62 42.61Z"/></svg>