<svg xmlns="http://www.w3.org/2000/svg" height="40" viewBox="0 -960 960 960" width="40"><path d="M195.65-110.84q-35.56 0-60.19-24.62-24.62-24.63-24.62-60.19v-568.7q0-35.72 24.62-60.45 24.63-24.74 60.19-24.74h568.7q35.72 0 60.45 24.74 24.74 24.73 24.74 60.45v568.7q0 35.56-24.74 60.19-24.73 24.62-60.45 24.62h-568.7Zm0-84.81h568.7v-568.7h-568.7v568.7Zm284.41-137.34q-62.18 0-104.63-42.3-42.44-42.31-42.44-104.4 0-61.93 42.3-104.54 42.31-42.62 104.4-42.62 61.93 0 104.54 42.65 42.62 42.64 42.62 104.14 0 62.18-42.65 104.63-42.64 42.44-104.14 42.44Z"/></svg>