<svg xmlns="http://www.w3.org/2000/svg" height="20" viewBox="0 -960 960 960" width="20"><path d="M223.87-145.87q-32.42 0-55.21-22.79t-22.79-55.21v-512.26q0-32.42 22.79-55.21t55.21-22.79h512.26q32.42 0 55.21 22.79t22.79 55.21v512.26q0 32.42-22.79 55.21t-55.21 22.79H223.87Zm0-78h512.26v-512.26H223.87v512.26Zm256.13-121q-57.04 0-96.09-39.04-39.04-39.05-39.04-95.84 0-56.79 39.04-95.84 39.05-39.04 95.84-39.04 56.79 0 95.84 39.13 39.04 39.14 39.04 95.5 0 57.04-39.13 96.09-39.14 39.04-95.5 39.04Z"/></svg>