<svg xmlns="http://www.w3.org/2000/svg" height="40" viewBox="0 -960 960 960" width="40"><path d="M219.87-162.82q-23.33 0-40.19-16.86t-16.86-40.19v-520.26q0-23.33 16.86-40.19t40.19-16.86h520.26q23.33 0 40.19 16.86t16.86 40.19v520.26q0 23.33-16.86 40.19t-40.19 16.86H219.87Zm0-32.44h520.26q10.77 0 17.69-6.92 6.92-6.92 6.92-17.69v-520.26q0-10.77-6.92-17.69-6.92-6.92-17.69-6.92H219.87q-10.77 0-17.69 6.92-6.92 6.92-6.92 17.69v520.26q0 10.77 6.92 17.69 6.92 6.92 17.69 6.92Zm260.32-158.23q-53.04 0-89.87-36.75-36.83-36.76-36.83-89.7 0-52.79 36.75-90.05 36.76-37.25 89.7-37.25 52.79 0 90.05 37.34 37.25 37.35 37.25 89.71 0 53.04-37.34 89.87-37.35 36.83-89.71 36.83Z"/></svg>