<svg xmlns="http://www.w3.org/2000/svg" height="20" viewBox="0 -960 960 960" width="20"><path d="M219.04-104.09q-48.48 0-81.72-33.23-33.23-33.24-33.23-81.72v-521.92q0-48.48 33.23-81.72 33.24-33.23 81.72-33.23h521.92q48.48 0 81.72 33.23 33.23 33.24 33.23 81.72v521.92q0 48.48-33.23 81.72-33.24 33.23-81.72 33.23H219.04Zm0-114.95h521.92v-521.92H219.04v521.92Zm261.02-119q-59.67 0-100.84-41.12-41.18-41.11-41.18-100.78t41.12-100.84q41.11-41.18 100.78-41.18t100.84 41.12q41.18 41.11 41.18 100.78t-41.12 100.84q-41.11 41.18-100.78 41.18Z"/></svg>