<svg xmlns="http://www.w3.org/2000/svg" height="24" viewBox="0 -960 960 960" width="24"><path d="M211.78-110.78q-42.24 0-71.62-29.38-29.38-29.38-29.38-71.62v-536.44q0-42.24 29.38-71.62 29.38-29.38 71.62-29.38h536.44q42.24 0 71.62 29.38 29.38 29.38 29.38 71.62v536.44q0 42.24-29.38 71.62-29.38 29.38-71.62 29.38H211.78Zm0-101h536.44v-536.44H211.78v536.44Zm268.22-121q-61.74 0-104.48-42.74t-42.74-104.23q0-61.49 42.74-104.23t104.23-42.74q61.49 0 104.23 42.83T626.72-480q0 61.74-42.83 104.48T480-332.78Z"/></svg>