<svg xmlns="http://www.w3.org/2000/svg" height="40" viewBox="0 -960 960 960" width="40"><path d="M196.67-90.67q-44.2 0-75.1-30.9-30.9-30.9-30.9-75.1v-566.66q0-44.48 30.9-75.57 30.9-31.1 75.1-31.1h566.66q44.48 0 75.57 31.1 31.1 31.09 31.1 75.57v566.66q0 44.2-31.1 75.1-31.09 30.9-75.57 30.9H196.67Zm0-106h566.66v-566.66H196.67v566.66ZM480.12-333Q418-333 375.5-375.22 333-417.44 333-479.55q0-62.12 42.22-105.12 42.22-43 104.33-43 62.12 0 105.12 42.72 43 42.72 43 104.83 0 62.12-42.72 104.62Q542.23-333 480.12-333Z"/></svg>