<svg xmlns="http://www.w3.org/2000/svg" height="40" viewBox="0 -960 960 960" width="40"><path d="M224-150.67q-30.83 0-52.08-21.25T150.67-224v-512q0-30.83 21.25-52.08T224-809.33h512q30.83 0 52.08 21.25T809.33-736v512q0 30.83-21.25 52.08T736-150.67H224Zm0-41.33h512q14 0 23-9t9-23v-512q0-14-9-23t-23-9H224q-14 0-23 9t-9 23v512q0 14 9 23t23 9Zm255.76-164q-52.09 0-87.93-35.91-35.83-35.92-35.83-88 0-52.09 35.91-88.76 35.92-36.66 88-36.66 52.09 0 88.76 36.74 36.66 36.75 36.66 88.83 0 52.09-36.74 87.93Q531.84-356 479.76-356Z"/></svg>