<svg xmlns="http://www.w3.org/2000/svg" height="20" viewBox="0 -960 960 960" width="20"><path d="M232.35-172.08q-24.96 0-42.62-17.65-17.65-17.66-17.65-42.62v-495.3q0-24.96 17.65-42.62 17.66-17.65 42.62-17.65h495.3q24.96 0 42.62 17.65 17.65 17.66 17.65 42.62v495.3q0 24.96-17.65 42.62-17.66 17.65-42.62 17.65h-495.3Zm0-47.96h495.3q5.39 0 8.85-3.46t3.46-8.85v-495.3q0-5.39-3.46-8.85t-8.85-3.46h-495.3q-5.39 0-8.85 3.46t-3.46 8.85v495.3q0 5.39 3.46 8.85t8.85 3.46ZM480.1-355.85q-52.52 0-88.39-35.86-35.86-35.87-35.86-88.14 0-52.26 35.86-88.13 35.87-35.87 88.14-35.87 52.26 0 88.13 35.96t35.87 87.79q0 52.52-35.96 88.39-35.96 35.86-87.79 35.86Z"/></svg>