<svg xmlns="http://www.w3.org/2000/svg" height="20" viewBox="0 -960 960 960" width="20"><path d="M222.31-132q-38.62 0-64.47-25.84Q132-183.69 132-222.31v-515.38q0-38.62 25.84-64.47Q183.69-828 222.31-828h515.38q38.62 0 64.47 25.84Q828-776.31 828-737.69v515.38q0 38.62-25.84 64.47Q776.31-132 737.69-132H222.31Zm0-78h515.38q5.39 0 8.85-3.46t3.46-8.85v-515.38q0-5.39-3.46-8.85t-8.85-3.46H222.31q-5.39 0-8.85 3.46t-3.46 8.85v515.38q0 5.39 3.46 8.85t8.85 3.46Zm257.61-134q-57.15 0-96.53-39.47Q344-422.93 344-480.08t39.47-96.53Q422.93-616 480.08-616t96.53 39.47Q616-537.07 616-479.92t-39.47 96.53Q537.07-344 479.92-344Z"/></svg>