<svg xmlns="http://www.w3.org/2000/svg" height="24" viewBox="0 -960 960 960" width="24"><path d="M216.35-148.08q-28.26 0-48.27-20-20-20.01-20-48.27v-527.3q0-28.26 20-48.27 20.01-20 48.27-20h527.3q28.26 0 48.27 20 20 20.01 20 48.27v527.3q0 28.26-20 48.27-20.01 20-48.27 20h-527.3Zm0-55.96h527.3q5.39 0 8.85-3.46t3.46-8.85v-527.3q0-5.39-3.46-8.85t-8.85-3.46h-527.3q-5.39 0-8.85 3.46t-3.46 8.85v527.3q0 5.39 3.46 8.85t8.85 3.46ZM480.1-339.85q-58.52 0-99.39-40.86-40.86-40.87-40.86-99.14 0-58.26 40.86-99.13 40.87-40.87 99.14-40.87 58.26 0 99.13 40.96t40.87 98.79q0 58.52-40.96 99.39-40.96 40.86-98.79 40.86Z"/></svg>