<svg xmlns="http://www.w3.org/2000/svg" version="1.1" width="3300" height="2000"><g id="Notes"><style>
    text {
      font-family: monospace;
      text-anchor: middle;
    }
    text.emphasis {
      font-weight:bold;
    }
    text.lanchor {
      text-anchor: start;
    }
  </style><rect height="2200" id="artboard" fill="white" width="3300" x="0" y="0"/><line id="" style="fill:none;stroke:black;stroke-width:0.5;" x1="263" x2="3036" y1="292" y2="292"/><text class="lanchor emphasis" transform="matrix(1 0 0 1 263 322)">Weight/Scale Variations</text><text transform="matrix(1 0 0 1 559.711 322)">Ultralight</text><text transform="matrix(1 0 0 1 856.422 322)">Thin</text><text transform="matrix(1 0 0 1 1153.13 322)">Light</text><text transform="matrix(1 0 0 1 1449.84 322)">Regular</text><text transform="matrix(1 0 0 1 1746.56 322)">Medium</text><text transform="matrix(1 0 0 1 2043.27 322)">Semibold</text><text transform="matrix(1 0 0 1 2339.98 322)">Bold</text><text transform="matrix(1 0 0 1 2636.69 322)">Heavy</text><text transform="matrix(1 0 0 1 2933.4 322)">Black</text><text id="template-version" style="text-anchor: end;" transform="matrix(1 0 0 1 3036 1933)">Template v.1.0</text><text class="lanchor" transform="matrix(1 0 0 1 263 726)">Small</text><text class="lanchor" transform="matrix(1 0 0 1 263 1156)">Medium</text><text class="lanchor" transform="matrix(1 0 0 1 263 1586)">Large</text></g><g id="Guides"><g id="H-reference" style="fill:#27AAE1;stroke:none;" transform="matrix(1 0 0 1 339 696)"><path d="M 54.9316 0 L 57.666 0 L 30.5664 -70.459 L 28.0762 -70.459 L 0.976562 0 L 3.66211 0 L 12.9395 -24.4629 L 45.7031 -24.4629 Z M 29.1992 -67.0898 L 29.4434 -67.0898 L 44.8242 -26.709 L 13.8184 -26.709 Z"/></g><line id="Baseline-S" style="fill:none;stroke:#27AAE1;opacity:1;stroke-width:0.577;" x1="263" x2="3036" y1="696" y2="696"/><line id="Capline-S" style="fill:none;stroke:#27AAE1;opacity:1;stroke-width:0.577;" x1="263" x2="3036" y1="625.541" y2="625.541"/><g id="H-reference" style="fill:#27AAE1;stroke:none;" transform="matrix(1 0 0 1 339 1126)"><path d="M 54.9316 0 L 57.666 0 L 30.5664 -70.459 L 28.0762 -70.459 L 0.976562 0 L 3.66211 0 L 12.9395 -24.4629 L 45.7031 -24.4629 Z M 29.1992 -67.0898 L 29.4434 -67.0898 L 44.8242 -26.709 L 13.8184 -26.709 Z"/></g><line id="Baseline-M" style="fill:none;stroke:#27AAE1;opacity:1;stroke-width:0.577;" x1="263" x2="3036" y1="1126" y2="1126"/><line id="Capline-M" style="fill:none;stroke:#27AAE1;opacity:1;stroke-width:0.577;" x1="263" x2="3036" y1="1055.54" y2="1055.54"/><g id="H-reference" style="fill:#27AAE1;stroke:none;" transform="matrix(1 0 0 1 339 1556)"><path d="M 54.9316 0 L 57.666 0 L 30.5664 -70.459 L 28.0762 -70.459 L 0.976562 0 L 3.66211 0 L 12.9395 -24.4629 L 45.7031 -24.4629 Z M 29.1992 -67.0898 L 29.4434 -67.0898 L 44.8242 -26.709 L 13.8184 -26.709 Z"/></g><line id="Baseline-L" style="fill:none;stroke:#27AAE1;opacity:1;stroke-width:0.577;" x1="263" x2="3036" y1="1556" y2="1556"/><line id="Capline-L" style="fill:none;stroke:#27AAE1;opacity:1;stroke-width:0.577;" x1="263" x2="3036" y1="1485.54" y2="1485.54"/><rect height="119.336" id="left-margin" style="fill:darkred;stroke:none;opacity:0.4;" width="12.4512" x="1394.06" y="1030.79"/><rect height="119.336" id="right-margin" style="fill:darkgreen;stroke:none;opacity:0.4;" width="12.4512" x="1502.5112" y="1030.79"/><rect x="1406.5112" y="1045" width="96" height="96" fill="none" stroke="blue" stroke-dasharray="5"/><rect x="1394.06" y="1030.79" width="120.9024" height="119.336" fill="none" stroke="blue"/></g><g id="Symbols"><g id="Bold-L" transform="matrix(1 0 0 1 2266 1556)"><path d="M16.125 26.045 V-96.666 H138.836 V26.045 H16.125 Z M30.879 11.291 H123.921 V-81.751 H30.879 V11.291 Z M77.427 -12.171 Q67.564 -12.171 60.953 -18.736 Q54.341 -25.302 54.341 -35.162 Q54.341 -44.986 60.906 -51.637 Q67.472 -58.289 77.332 -58.289 Q87.156 -58.289 93.807 -51.65 Q100.459 -45.011 100.459 -35.257 Q100.459 -25.394 93.82 -18.782 Q87.181 -12.171 77.427 -12.171 Z"/></g><g id="Semibold-L" transform="matrix(1 0 0 1 1970.27 1556)"><path d="M17.878 24.292 V-94.844 H137.014 V24.292 H17.878 Z M30.249 11.921 H124.551 V-82.381 H30.249 V11.921 Z M77.416 -11.541 Q67.354 -11.541 60.532 -18.328 Q53.711 -25.115 53.711 -35.174 Q53.711 -45.195 60.498 -52.058 Q67.285 -58.919 77.344 -58.919 Q87.365 -58.919 94.228 -52.058 Q101.089 -45.197 101.089 -35.246 Q101.089 -25.184 94.228 -18.362 Q87.367 -11.541 77.416 -11.541 Z"/></g><g id="Medium-L" transform="matrix(1 0 0 1 1674.31 1556)"><path d="M19.192 22.978 V-93.477 H135.647 V22.978 H19.192 Z M29.775 12.395 H125.025 V-82.855 H29.775 V12.395 Z M77.406 -11.067 Q67.196 -11.067 60.216 -18.021 Q53.237 -24.974 53.237 -35.183 Q53.237 -45.353 60.191 -52.374 Q67.144 -59.393 77.353 -59.393 Q87.523 -59.393 94.544 -52.364 Q101.563 -45.337 101.563 -35.236 Q101.563 -25.026 94.534 -18.046 Q87.507 -11.067 77.406 -11.067 Z"/></g><g id="Regular-L" transform="matrix(1 0 0 1 1378.56 1556)"><path d="M20.156 22.014 V-92.474 H134.644 V22.014 H20.156 Z M29.428 12.742 H125.372 V-83.202 H29.428 V12.742 Z M77.4 -10.72 Q67.08 -10.72 59.985 -17.796 Q52.89 -24.871 52.89 -35.19 Q52.89 -45.469 59.966 -52.605 Q67.041 -59.74 77.36 -59.74 Q87.639 -59.74 94.775 -52.59 Q101.91 -45.44 101.91 -35.23 Q101.91 -24.91 94.76 -17.815 Q87.61 -10.72 77.4 -10.72 Z"/></g><g id="Light-L" transform="matrix(1 0 0 1 1082.77 1556)"><path d="M23.072 19.098 V-89.558 H131.728 V19.098 H23.072 Z M30.141 12.029 H124.659 V-82.489 H30.141 V12.029 Z M77.416 -12.766 Q67.98 -12.766 61.459 -19.269 Q54.936 -25.771 54.936 -35.206 Q54.936 -44.6 61.439 -51.194 Q67.941 -57.786 77.376 -57.786 Q86.77 -57.786 93.364 -51.179 Q99.956 -44.571 99.956 -35.246 Q99.956 -25.81 93.349 -19.289 Q86.741 -12.766 77.416 -12.766 Z"/></g><g id="Thin-L" transform="matrix(1 0 0 1 787.282 1556)"><path d="M25.985 16.185 V-86.645 H128.815 V16.185 H25.985 Z M30.855 11.315 H123.945 V-81.775 H30.855 V11.315 Z M77.431 -14.813 Q68.878 -14.813 62.931 -20.742 Q56.983 -26.671 56.983 -35.22 Q56.983 -43.733 62.912 -49.783 Q68.841 -55.833 77.39 -55.833 Q85.903 -55.833 91.953 -49.768 Q98.003 -43.704 98.003 -35.261 Q98.003 -26.708 91.938 -20.761 Q85.874 -14.813 77.431 -14.813 Z"/></g><g id="Ultralight-L" transform="matrix(1 0 0 1 491.205 1556)"><path d="M27.735 14.435 V-84.895 H127.065 V14.435 H27.735 Z M31.283 10.888 H123.517 V-81.347 H31.283 V10.888 Z M77.44 -16.041 Q69.418 -16.041 63.815 -21.625 Q58.211 -27.209 58.211 -35.23 Q58.211 -43.212 63.795 -48.936 Q69.379 -54.661 77.4 -54.661 Q85.382 -54.661 91.106 -48.922 Q96.831 -43.183 96.831 -35.27 Q96.831 -27.248 91.092 -21.645 Q85.353 -16.041 77.44 -16.041 Z"/></g><g id="Bold-M" transform="matrix(1 0 0 1 2281.8 1126)"><path d="M12 12.77 V-83.23 H108 V12.77 H12 Z M27.125 -2.355 H92.875 V-68.105 H27.125 V-2.355 Z M60 -17.48 Q52.5 -17.48 47.375 -22.605 Q42.25 -27.73 42.25 -35.199 Q42.25 -42.667 47.375 -47.792 Q52.5 -52.917 59.969 -52.917 Q67.438 -52.917 72.562 -47.781 Q77.688 -42.645 77.688 -35.23 Q77.688 -27.73 72.551 -22.605 Q67.415 -17.48 60 -17.48 Z"/></g><g id="Semibold-M" transform="matrix(1 0 0 1 1985.97 1126)"><path d="M13.848 10.923 V-81.382 H106.153 V10.923 H13.848 Z M26.473 -1.702 H93.528 V-68.757 H26.473 V-1.702 Z M60 -16.827 Q52.282 -16.827 46.94 -22.17 Q41.597 -27.512 41.597 -35.199 Q41.597 -42.885 46.94 -48.227 Q52.282 -53.57 59.969 -53.57 Q67.655 -53.57 72.998 -48.216 Q78.34 -42.862 78.34 -35.23 Q78.34 -27.512 72.986 -22.17 Q67.632 -16.827 60 -16.827 Z"/></g><g id="Medium-M" transform="matrix(1 0 0 1 1689.91 1126)"><path d="M15.234 9.536 V-79.996 H104.766 V9.536 H15.234 Z M25.984 -1.214 H94.016 V-69.246 H25.984 V-1.214 Z M60 -16.339 Q52.12 -16.339 46.614 -21.844 Q41.109 -27.35 41.109 -35.199 Q41.109 -43.047 46.614 -48.554 Q52.12 -54.059 59.969 -54.059 Q67.817 -54.059 73.324 -48.542 Q78.829 -43.025 78.829 -35.23 Q78.829 -27.35 73.312 -21.844 Q67.795 -16.339 60 -16.339 Z"/></g><g id="Regular-M" transform="matrix(1 0 0 1 1394.06 1126)"><path d="M16.25 8.52 V-78.98 H103.75 V8.52 H16.25 Z M25.625 -0.855 H94.375 V-69.605 H25.625 V-0.855 Z M60 -15.98 Q52 -15.98 46.375 -21.605 Q40.75 -27.23 40.75 -35.199 Q40.75 -43.167 46.375 -48.792 Q52 -54.417 59.969 -54.417 Q67.938 -54.417 73.562 -48.781 Q79.188 -43.145 79.188 -35.23 Q79.188 -27.23 73.551 -21.605 Q67.915 -15.98 60 -15.98 Z"/></g><g id="Light-M" transform="matrix(1 0 0 1 1098.18 1126)"><path d="M18.51 6.26 V-76.72 H101.49 V6.26 H18.51 Z M25.505 -0.735 H94.495 V-69.725 H25.505 V-0.735 Z M60.013 -17.711 Q52.697 -17.711 47.589 -22.819 Q42.481 -27.927 42.481 -35.211 Q42.481 -42.494 47.589 -47.602 Q52.697 -52.711 59.981 -52.711 Q67.264 -52.711 72.373 -47.591 Q77.481 -42.471 77.481 -35.242 Q77.481 -27.927 72.361 -22.819 Q67.241 -17.711 60.013 -17.711 Z"/></g><g id="Thin-M" transform="matrix(1 0 0 1 802.565 1126)"><path d="M20.769 4.001 V-74.461 H99.231 V4.001 H20.769 Z M25.385 -0.615 H94.615 V-69.845 H25.385 V-0.615 Z M60.024 -19.441 Q53.394 -19.441 48.803 -24.032 Q44.211 -28.624 44.211 -35.222 Q44.211 -41.821 48.803 -46.412 Q53.394 -51.004 59.992 -51.004 Q66.591 -51.004 71.183 -46.401 Q75.774 -41.799 75.774 -35.254 Q75.774 -28.624 71.171 -24.032 Q66.569 -19.441 60.024 -19.441 Z"/></g><g id="Ultralight-M" transform="matrix(1 0 0 1 506.415 1126)"><path d="M22.125 2.645 V-73.105 H97.875 V2.645 H22.125 Z M25.312 -0.542 H94.688 V-69.917 H25.312 V-0.542 Z M60.031 -20.48 Q53.812 -20.48 49.531 -24.761 Q45.25 -29.042 45.25 -35.23 Q45.25 -41.417 49.531 -45.699 Q53.812 -49.98 60 -49.98 Q66.188 -49.98 70.469 -45.687 Q74.75 -41.395 74.75 -35.261 Q74.75 -29.042 70.457 -24.761 Q66.165 -20.48 60.031 -20.48 Z"/></g><g id="Bold-S" transform="matrix(1 0 0 1 2294.23 696)"><path d="M11.835 0.275 V-70.735 H82.845 V0.275 H11.835 Z M22.98 -10.87 H71.7 V-59.59 H22.98 V-10.87 Z M47.34 -22.803 Q42.014 -22.803 38.464 -26.354 Q34.913 -29.904 34.913 -35.205 Q34.913 -40.506 38.464 -44.057 Q42.014 -47.607 47.315 -47.607 Q52.616 -47.607 56.167 -44.048 Q59.717 -40.489 59.717 -35.23 Q59.717 -29.904 56.158 -26.354 Q52.599 -22.803 47.34 -22.803 Z"/></g><g id="Semibold-S" transform="matrix(1 0 0 1 1998.1 696)"><path d="M13.293 -1.183 V-69.277 H81.387 V-1.183 H13.293 Z M22.465 -10.355 H72.215 V-60.105 H22.465 V-10.355 Z M47.34 -22.288 Q41.843 -22.288 38.121 -26.011 Q34.398 -29.733 34.398 -35.205 Q34.398 -40.678 38.121 -44.4 Q41.843 -48.122 47.315 -48.122 Q52.788 -48.122 56.51 -44.391 Q60.232 -40.66 60.232 -35.23 Q60.232 -29.733 56.501 -26.011 Q52.77 -22.288 47.34 -22.288 Z"/></g><g id="Medium-S" transform="matrix(1 0 0 1 1701.85 696)"><path d="M14.386 -2.276 V-68.184 H80.294 V-2.276 H14.386 Z M22.079 -9.969 H72.601 V-60.491 H22.079 V-9.969 Z M47.34 -21.903 Q41.714 -21.903 37.863 -25.753 Q34.013 -29.604 34.013 -35.205 Q34.013 -40.806 37.863 -44.658 Q41.714 -48.508 47.315 -48.508 Q52.916 -48.508 56.768 -44.649 Q60.618 -40.789 60.618 -35.23 Q60.618 -29.604 56.759 -25.753 Q52.899 -21.903 47.34 -21.903 Z"/></g><g id="Regular-S" transform="matrix(1 0 0 1 1405.73 696)"><path d="M15.188 -3.078 V-67.382 H79.492 V-3.078 H15.188 Z M21.796 -9.686 H72.884 V-60.774 H21.796 V-9.686 Z M47.34 -21.62 Q41.62 -21.62 37.675 -25.565 Q33.73 -29.51 33.73 -35.205 Q33.73 -40.901 37.675 -44.846 Q41.62 -48.791 47.315 -48.791 Q53.011 -48.791 56.956 -44.837 Q60.901 -40.883 60.901 -35.23 Q60.901 -29.51 56.947 -25.565 Q52.993 -21.62 47.34 -21.62 Z"/></g><g id="Light-S" transform="matrix(1 0 0 1 1109.75 696)"><path d="M16.971 -4.861 V-65.599 H77.709 V-4.861 H16.971 Z M21.701 -9.591 H72.979 V-60.869 H21.701 V-9.591 Z M47.35 -22.986 Q42.17 -22.986 38.632 -26.522 Q35.096 -30.06 35.096 -35.215 Q35.096 -40.369 38.632 -43.907 Q42.17 -47.445 47.325 -47.445 Q52.479 -47.445 56.017 -43.898 Q59.555 -40.352 59.555 -35.24 Q59.555 -30.06 56.008 -26.522 Q52.462 -22.986 47.35 -22.986 Z"/></g><g id="Thin-S" transform="matrix(1 0 0 1 814.015 696)"><path d="M18.754 -6.644 V-63.816 H75.926 V-6.644 H18.754 Z M21.607 -9.497 H73.073 V-60.963 H21.607 V-9.497 Z M47.359 -24.351 Q42.719 -24.351 39.59 -27.48 Q36.461 -30.609 36.461 -35.224 Q36.461 -39.839 39.59 -42.968 Q42.719 -46.097 47.334 -46.097 Q51.949 -46.097 55.078 -42.959 Q58.207 -39.821 58.207 -35.249 Q58.207 -30.609 55.069 -27.48 Q51.931 -24.351 47.359 -24.351 Z"/></g><g id="Ultralight-S" transform="matrix(1 0 0 1 517.792 696)"><path d="M19.824 -7.714 V-62.746 H74.856 V-7.714 H19.824 Z M21.55 -9.44 H73.13 V-61.02 H21.55 V-9.44 Z M47.365 -25.17 Q43.05 -25.17 40.165 -28.055 Q37.28 -30.94 37.28 -35.23 Q37.28 -39.52 40.165 -42.405 Q43.05 -45.29 47.34 -45.29 Q51.63 -45.29 54.515 -42.396 Q57.4 -39.502 57.4 -35.255 Q57.4 -30.94 54.506 -28.055 Q51.612 -25.17 47.365 -25.17 Z"/></g></g></svg>