<svg xmlns="http://www.w3.org/2000/svg" version="1.1" width="3300" height="2000"><g id="Notes"><style>
    text {
      font-family: monospace;
      text-anchor: middle;
    }
    text.emphasis {
      font-weight:bold;
    }
    text.lanchor {
      text-anchor: start;
    }
  </style><rect height="2200" id="artboard" fill="white" width="3300" x="0" y="0"/><line id="" style="fill:none;stroke:black;stroke-width:0.5;" x1="263" x2="3036" y1="292" y2="292"/><text class="lanchor emphasis" transform="matrix(1 0 0 1 263 322)">Weight/Scale Variations</text><text transform="matrix(1 0 0 1 559.711 322)">Ultralight</text><text transform="matrix(1 0 0 1 856.422 322)">Thin</text><text transform="matrix(1 0 0 1 1153.13 322)">Light</text><text transform="matrix(1 0 0 1 1449.84 322)">Regular</text><text transform="matrix(1 0 0 1 1746.56 322)">Medium</text><text transform="matrix(1 0 0 1 2043.27 322)">Semibold</text><text transform="matrix(1 0 0 1 2339.98 322)">Bold</text><text transform="matrix(1 0 0 1 2636.69 322)">Heavy</text><text transform="matrix(1 0 0 1 2933.4 322)">Black</text><text id="template-version" style="text-anchor: end;" transform="matrix(1 0 0 1 3036 1933)">Template v.1.0</text><text class="lanchor" transform="matrix(1 0 0 1 263 726)">Small</text><text class="lanchor" transform="matrix(1 0 0 1 263 1156)">Medium</text><text class="lanchor" transform="matrix(1 0 0 1 263 1586)">Large</text></g><g id="Guides"><g id="H-reference" style="fill:#27AAE1;stroke:none;" transform="matrix(1 0 0 1 339 696)"><path d="M 54.9316 0 L 57.666 0 L 30.5664 -70.459 L 28.0762 -70.459 L 0.976562 0 L 3.66211 0 L 12.9395 -24.4629 L 45.7031 -24.4629 Z M 29.1992 -67.0898 L 29.4434 -67.0898 L 44.8242 -26.709 L 13.8184 -26.709 Z"/></g><line id="Baseline-S" style="fill:none;stroke:#27AAE1;opacity:1;stroke-width:0.577;" x1="263" x2="3036" y1="696" y2="696"/><line id="Capline-S" style="fill:none;stroke:#27AAE1;opacity:1;stroke-width:0.577;" x1="263" x2="3036" y1="625.541" y2="625.541"/><g id="H-reference" style="fill:#27AAE1;stroke:none;" transform="matrix(1 0 0 1 339 1126)"><path d="M 54.9316 0 L 57.666 0 L 30.5664 -70.459 L 28.0762 -70.459 L 0.976562 0 L 3.66211 0 L 12.9395 -24.4629 L 45.7031 -24.4629 Z M 29.1992 -67.0898 L 29.4434 -67.0898 L 44.8242 -26.709 L 13.8184 -26.709 Z"/></g><line id="Baseline-M" style="fill:none;stroke:#27AAE1;opacity:1;stroke-width:0.577;" x1="263" x2="3036" y1="1126" y2="1126"/><line id="Capline-M" style="fill:none;stroke:#27AAE1;opacity:1;stroke-width:0.577;" x1="263" x2="3036" y1="1055.54" y2="1055.54"/><g id="H-reference" style="fill:#27AAE1;stroke:none;" transform="matrix(1 0 0 1 339 1556)"><path d="M 54.9316 0 L 57.666 0 L 30.5664 -70.459 L 28.0762 -70.459 L 0.976562 0 L 3.66211 0 L 12.9395 -24.4629 L 45.7031 -24.4629 Z M 29.1992 -67.0898 L 29.4434 -67.0898 L 44.8242 -26.709 L 13.8184 -26.709 Z"/></g><line id="Baseline-L" style="fill:none;stroke:#27AAE1;opacity:1;stroke-width:0.577;" x1="263" x2="3036" y1="1556" y2="1556"/><line id="Capline-L" style="fill:none;stroke:#27AAE1;opacity:1;stroke-width:0.577;" x1="263" x2="3036" y1="1485.54" y2="1485.54"/><rect height="119.336" id="left-margin" style="fill:darkred;stroke:none;opacity:0.4;" width="12.4512" x="1394.06" y="1030.79"/><rect height="119.336" id="right-margin" style="fill:darkgreen;stroke:none;opacity:0.4;" width="12.4512" x="1502.5112" y="1030.79"/><rect x="1406.5112" y="1045" width="96" height="96" fill="none" stroke="blue" stroke-dasharray="5"/><rect x="1394.06" y="1030.79" width="120.9024" height="119.336" fill="none" stroke="blue"/></g><g id="Symbols"><g id="Bold-L" transform="matrix(1 0 0 1 2266 1556)"><path d="M15.319 26.851 V-97.472 H139.643 V26.851 H15.319 Z M30.476 11.694 H124.324 V-82.154 H30.476 V11.694 Z M77.427 -11.687 Q67.403 -11.687 60.63 -18.433 Q53.858 -25.178 53.858 -35.203 Q53.858 -45.227 60.603 -52 Q67.348 -58.772 77.373 -58.772 Q87.398 -58.772 94.17 -52.027 Q100.943 -45.282 100.943 -35.257 Q100.943 -25.232 94.197 -18.46 Q87.452 -11.687 77.427 -11.687 Z"/></g><g id="Semibold-L" transform="matrix(1 0 0 1 1970.27 1556)"><path d="M17.072 25.098 V-95.65 H137.82 V25.098 H17.072 Z M29.846 12.324 H124.954 V-82.784 H29.846 V12.324 Z M77.416 -11.057 Q67.193 -11.057 60.209 -18.025 Q53.227 -24.992 53.227 -35.214 Q53.227 -45.437 60.195 -52.421 Q67.162 -59.403 77.384 -59.403 Q87.607 -59.403 94.591 -52.435 Q101.573 -45.468 101.573 -35.246 Q101.573 -25.023 94.605 -18.039 Q87.638 -11.057 77.416 -11.057 Z"/></g><g id="Medium-L" transform="matrix(1 0 0 1 1674.31 1556)"><path d="M18.386 23.784 V-94.283 H136.453 V23.784 H18.386 Z M29.372 12.798 H125.428 V-83.258 H29.372 V12.798 Z M77.406 -10.583 Q67.035 -10.583 59.893 -17.717 Q52.753 -24.852 52.753 -35.224 Q52.753 -45.595 59.887 -52.737 Q67.022 -59.877 77.394 -59.877 Q87.765 -59.877 94.907 -52.743 Q102.047 -45.608 102.047 -35.236 Q102.047 -24.865 94.913 -17.723 Q87.778 -10.583 77.406 -10.583 Z"/></g><g id="Regular-L" transform="matrix(1 0 0 1 1378.56 1556)"><path d="M19.35 22.82 V-93.28 H135.45 V22.82 H19.35 Z M29.025 13.145 H125.775 V-83.605 H29.025 V13.145 Z M77.4 -10.236 Q66.919 -10.236 59.663 -17.492 Q52.406 -24.749 52.406 -35.23 Q52.406 -45.711 59.663 -52.967 Q66.919 -60.224 77.4 -60.224 Q87.881 -60.224 95.138 -52.967 Q102.394 -45.711 102.394 -35.23 Q102.394 -24.749 95.138 -17.492 Q87.881 -10.236 77.4 -10.236 Z"/></g><g id="Light-L" transform="matrix(1 0 0 1 1082.77 1556)"><path d="M22.575 19.595 V-90.055 H132.225 V19.595 H22.575 Z M29.894 12.276 H124.906 V-82.736 H29.894 V12.276 Z M77.4 -12.47 Q67.849 -12.47 61.244 -19.074 Q54.64 -25.679 54.64 -35.23 Q54.64 -44.781 61.244 -51.416 Q67.849 -58.053 77.4 -58.053 Q86.951 -58.053 93.586 -51.416 Q100.223 -44.781 100.223 -35.23 Q100.223 -25.679 93.586 -19.074 Q86.951 -12.47 77.4 -12.47 Z"/></g><g id="Thin-L" transform="matrix(1 0 0 1 787.282 1556)"><path d="M25.8 16.37 V-86.83 H129 V16.37 H25.8 Z M30.762 11.408 H124.038 V-81.868 H30.762 V11.408 Z M77.4 -14.701 Q68.78 -14.701 62.826 -20.656 Q56.871 -26.61 56.871 -35.23 Q56.871 -43.85 62.826 -49.867 Q68.78 -55.883 77.4 -55.883 Q86.02 -55.883 92.037 -49.867 Q98.053 -43.85 98.053 -35.23 Q98.053 -26.61 92.037 -20.656 Q86.02 -14.701 77.4 -14.701 Z"/></g><g id="Ultralight-L" transform="matrix(1 0 0 1 491.205 1556)"><path d="M27.735 14.435 V-84.895 H127.065 V14.435 H27.735 Z M31.283 10.888 H123.517 V-81.347 H31.283 V10.888 Z M77.4 -16.041 Q69.338 -16.041 63.774 -21.604 Q58.211 -27.167 58.211 -35.23 Q58.211 -43.292 63.774 -48.936 Q69.338 -54.58 77.4 -54.58 Q85.463 -54.58 91.106 -48.936 Q96.75 -43.292 96.75 -35.23 Q96.75 -27.167 91.106 -21.604 Q85.463 -16.041 77.4 -16.041 Z"/></g><g id="Bold-M" transform="matrix(1 0 0 1 2281.8 1126)"><path d="M10.75 14.02 V-84.48 H109.25 V14.02 H10.75 Z M26.5 -1.73 H93.5 V-68.73 H26.5 V-1.73 Z M60 -16.73 Q52.25 -16.73 46.875 -22.105 Q41.5 -27.48 41.5 -35.23 Q41.5 -42.98 46.875 -48.355 Q52.25 -53.73 60 -53.73 Q67.75 -53.73 73.125 -48.355 Q78.5 -42.98 78.5 -35.23 Q78.5 -27.48 73.125 -22.105 Q67.75 -16.73 60 -16.73 Z"/></g><g id="Semibold-M" transform="matrix(1 0 0 1 1985.97 1126)"><path d="M12.598 12.173 V-82.632 H107.403 V12.173 H12.598 Z M25.848 -1.077 H94.153 V-69.382 H25.848 V-1.077 Z M60 -16.077 Q52.032 -16.077 46.44 -21.67 Q40.847 -27.262 40.847 -35.23 Q40.847 -43.197 46.44 -48.79 Q52.032 -54.382 60 -54.382 Q67.968 -54.382 73.56 -48.79 Q79.153 -43.197 79.153 -35.23 Q79.153 -27.262 73.56 -21.67 Q67.968 -16.077 60 -16.077 Z"/></g><g id="Medium-M" transform="matrix(1 0 0 1 1689.91 1126)"><path d="M13.984 10.786 V-81.246 H106.016 V10.786 H13.984 Z M25.359 -0.589 H94.641 V-69.871 H25.359 V-0.589 Z M60 -15.589 Q51.87 -15.589 46.114 -21.344 Q40.359 -27.1 40.359 -35.23 Q40.359 -43.36 46.114 -49.116 Q51.87 -54.871 60 -54.871 Q68.13 -54.871 73.886 -49.116 Q79.641 -43.36 79.641 -35.23 Q79.641 -27.1 73.886 -21.344 Q68.13 -15.589 60 -15.589 Z"/></g><g id="Regular-M" transform="matrix(1 0 0 1 1394.06 1126)"><path d="M15 9.77 V-80.23 H105 V9.77 H15 Z M25 -0.23 H95 V-70.23 H25 V-0.23 Z M60 -15.23 Q51.75 -15.23 45.875 -21.105 Q40 -26.98 40 -35.23 Q40 -43.48 45.875 -49.355 Q51.75 -55.23 60 -55.23 Q68.25 -55.23 74.125 -49.355 Q80 -43.48 80 -35.23 Q80 -26.98 74.125 -21.105 Q68.25 -15.23 60 -15.23 Z"/></g><g id="Light-M" transform="matrix(1 0 0 1 1098.18 1126)"><path d="M17.5 7.27 V-77.73 H102.5 V7.27 H17.5 Z M25 -0.23 H95 V-70.23 H25 V-0.23 Z M60 -17.105 Q52.471 -17.105 47.174 -22.404 Q41.875 -27.701 41.875 -35.23 Q41.875 -42.759 47.174 -48.056 Q52.471 -53.355 60 -53.355 Q67.529 -53.355 72.826 -48.056 Q78.125 -42.759 78.125 -35.23 Q78.125 -27.701 72.826 -22.404 Q67.529 -17.105 60 -17.105 Z"/></g><g id="Thin-M" transform="matrix(1 0 0 1 802.565 1126)"><path d="M20 4.77 V-75.23 H100 V4.77 H20 Z M25 -0.23 H95 V-70.23 H25 V-0.23 Z M60 -18.98 Q53.193 -18.98 48.471 -23.701 Q43.75 -28.422 43.75 -35.23 Q43.75 -42.037 48.471 -46.759 Q53.193 -51.48 60 -51.48 Q66.808 -51.48 71.529 -46.759 Q76.25 -42.037 76.25 -35.23 Q76.25 -28.422 71.529 -23.701 Q66.808 -18.98 60 -18.98 Z"/></g><g id="Ultralight-M" transform="matrix(1 0 0 1 506.415 1126)"><path d="M21.5 3.27 V-73.73 H98.5 V3.27 H21.5 Z M25 -0.23 H95 V-70.23 H25 V-0.23 Z M60 -20.105 Q53.625 -20.105 49.25 -24.48 Q44.875 -28.855 44.875 -35.23 Q44.875 -41.605 49.25 -45.98 Q53.625 -50.355 60 -50.355 Q66.375 -50.355 70.75 -45.98 Q75.125 -41.605 75.125 -35.23 Q75.125 -28.855 70.75 -24.48 Q66.375 -20.105 60 -20.105 Z"/></g><g id="Bold-S" transform="matrix(1 0 0 1 2294.23 696)"><path d="M10.849 1.261 V-71.721 H83.831 V1.261 H10.849 Z M22.486 -10.376 H72.194 V-60.083 H22.486 V-10.376 Z M47.34 -22.211 Q41.817 -22.211 38.069 -25.959 Q34.322 -29.707 34.322 -35.23 Q34.322 -40.753 38.069 -44.501 Q41.817 -48.248 47.34 -48.248 Q52.863 -48.248 56.611 -44.501 Q60.358 -40.753 60.358 -35.23 Q60.358 -29.707 56.611 -25.959 Q52.863 -22.211 47.34 -22.211 Z"/></g><g id="Semibold-S" transform="matrix(1 0 0 1 1998.1 696)"><path d="M12.306 -0.196 V-70.264 H82.374 V-0.196 H12.306 Z M21.972 -9.862 H72.708 V-60.598 H21.972 V-9.862 Z M47.34 -21.697 Q41.645 -21.697 37.726 -25.616 Q33.807 -29.535 33.807 -35.23 Q33.807 -40.925 37.726 -44.844 Q41.645 -48.763 47.34 -48.763 Q53.035 -48.763 56.954 -44.844 Q60.873 -40.925 60.873 -35.23 Q60.873 -29.535 56.954 -25.616 Q53.035 -21.697 47.34 -21.697 Z"/></g><g id="Medium-S" transform="matrix(1 0 0 1 1701.85 696)"><path d="M13.4 -1.29 V-69.17 H81.28 V-1.29 H13.4 Z M21.586 -9.476 H73.094 V-60.984 H21.586 V-9.476 Z M47.34 -21.311 Q41.517 -21.311 37.469 -25.359 Q33.421 -29.407 33.421 -35.23 Q33.421 -41.053 37.469 -45.101 Q41.517 -49.149 47.34 -49.149 Q53.163 -49.149 57.211 -45.101 Q61.259 -41.053 61.259 -35.23 Q61.259 -29.407 57.211 -25.359 Q53.163 -21.311 47.34 -21.311 Z"/></g><g id="Regular-S" transform="matrix(1 0 0 1 1405.73 696)"><path d="M14.202 -2.092 V-68.368 H80.478 V-2.092 H14.202 Z M21.303 -9.193 H73.377 V-61.267 H21.303 V-9.193 Z M47.34 -21.028 Q41.422 -21.028 37.28 -25.17 Q33.138 -29.312 33.138 -35.23 Q33.138 -41.147 37.28 -45.29 Q41.422 -49.432 47.34 -49.432 Q53.258 -49.432 57.4 -45.29 Q61.542 -41.147 61.542 -35.23 Q61.542 -29.312 57.4 -25.17 Q53.258 -21.028 47.34 -21.028 Z"/></g><g id="Light-S" transform="matrix(1 0 0 1 1109.75 696)"><path d="M16.175 -4.064 V-66.395 H78.505 V-4.064 H16.175 Z M21.303 -9.193 H73.377 V-61.267 H21.303 V-9.193 Z M47.34 -22.507 Q41.992 -22.507 38.305 -26.195 Q34.617 -29.882 34.617 -35.23 Q34.617 -40.578 38.305 -44.265 Q41.992 -47.953 47.34 -47.953 Q52.688 -47.953 56.375 -44.265 Q60.063 -40.578 60.063 -35.23 Q60.063 -29.882 56.375 -26.195 Q52.688 -22.507 47.34 -22.507 Z"/></g><g id="Thin-S" transform="matrix(1 0 0 1 814.015 696)"><path d="M18.147 -6.037 V-64.423 H76.533 V-6.037 H18.147 Z M21.303 -9.193 H73.377 V-61.267 H21.303 V-9.193 Z M47.34 -23.987 Q42.561 -23.987 39.329 -27.219 Q36.097 -30.451 36.097 -35.23 Q36.097 -40.009 39.329 -43.241 Q42.561 -46.473 47.34 -46.473 Q52.119 -46.473 55.351 -43.241 Q58.583 -40.009 58.583 -35.23 Q58.583 -30.451 55.351 -27.219 Q52.119 -23.987 47.34 -23.987 Z"/></g><g id="Ultralight-S" transform="matrix(1 0 0 1 517.792 696)"><path d="M19.331 -7.22 V-63.239 H75.35 V-7.22 H19.331 Z M21.303 -9.193 H73.377 V-61.267 H21.303 V-9.193 Z M47.34 -24.874 Q42.902 -24.874 39.943 -27.833 Q36.984 -30.792 36.984 -35.23 Q36.984 -39.668 39.943 -42.627 Q42.902 -45.586 47.34 -45.586 Q51.778 -45.586 54.737 -42.627 Q57.696 -39.668 57.696 -35.23 Q57.696 -30.792 54.737 -27.833 Q51.778 -24.874 47.34 -24.874 Z"/></g></g></svg>