<svg xmlns="http://www.w3.org/2000/svg" version="1.1" width="3300" height="2000"><g id="Notes"><style>
    text {
      font-family: monospace;
      text-anchor: middle;
    }
    text.emphasis {
      font-weight:bold;
    }
    text.lanchor {
      text-anchor: start;
    }
  </style><rect height="2200" id="artboard" fill="white" width="3300" x="0" y="0"/><line id="" style="fill:none;stroke:black;stroke-width:0.5;" x1="263" x2="3036" y1="292" y2="292"/><text class="lanchor emphasis" transform="matrix(1 0 0 1 263 322)">Weight/Scale Variations</text><text transform="matrix(1 0 0 1 559.711 322)">Ultralight</text><text transform="matrix(1 0 0 1 856.422 322)">Thin</text><text transform="matrix(1 0 0 1 1153.13 322)">Light</text><text transform="matrix(1 0 0 1 1449.84 322)">Regular</text><text transform="matrix(1 0 0 1 1746.56 322)">Medium</text><text transform="matrix(1 0 0 1 2043.27 322)">Semibold</text><text transform="matrix(1 0 0 1 2339.98 322)">Bold</text><text transform="matrix(1 0 0 1 2636.69 322)">Heavy</text><text transform="matrix(1 0 0 1 2933.4 322)">Black</text><text id="template-version" style="text-anchor: end;" transform="matrix(1 0 0 1 3036 1933)">Template v.1.0</text><text class="lanchor" transform="matrix(1 0 0 1 263 726)">Small</text><text class="lanchor" transform="matrix(1 0 0 1 263 1156)">Medium</text><text class="lanchor" transform="matrix(1 0 0 1 263 1586)">Large</text></g><g id="Guides"><g id="H-reference" style="fill:#27AAE1;stroke:none;" transform="matrix(1 0 0 1 339 696)"><path d="M 54.9316 0 L 57.666 0 L 30.5664 -70.459 L 28.0762 -70.459 L 0.976562 0 L 3.66211 0 L 12.9395 -24.4629 L 45.7031 -24.4629 Z M 29.1992 -67.0898 L 29.4434 -67.0898 L 44.8242 -26.709 L 13.8184 -26.709 Z"/></g><line id="Baseline-S" style="fill:none;stroke:#27AAE1;opacity:1;stroke-width:0.577;" x1="263" x2="3036" y1="696" y2="696"/><line id="Capline-S" style="fill:none;stroke:#27AAE1;opacity:1;stroke-width:0.577;" x1="263" x2="3036" y1="625.541" y2="625.541"/><g id="H-reference" style="fill:#27AAE1;stroke:none;" transform="matrix(1 0 0 1 339 1126)"><path d="M 54.9316 0 L 57.666 0 L 30.5664 -70.459 L 28.0762 -70.459 L 0.976562 0 L 3.66211 0 L 12.9395 -24.4629 L 45.7031 -24.4629 Z M 29.1992 -67.0898 L 29.4434 -67.0898 L 44.8242 -26.709 L 13.8184 -26.709 Z"/></g><line id="Baseline-M" style="fill:none;stroke:#27AAE1;opacity:1;stroke-width:0.577;" x1="263" x2="3036" y1="1126" y2="1126"/><line id="Capline-M" style="fill:none;stroke:#27AAE1;opacity:1;stroke-width:0.577;" x1="263" x2="3036" y1="1055.54" y2="1055.54"/><g id="H-reference" style="fill:#27AAE1;stroke:none;" transform="matrix(1 0 0 1 339 1556)"><path d="M 54.9316 0 L 57.666 0 L 30.5664 -70.459 L 28.0762 -70.459 L 0.976562 0 L 3.66211 0 L 12.9395 -24.4629 L 45.7031 -24.4629 Z M 29.1992 -67.0898 L 29.4434 -67.0898 L 44.8242 -26.709 L 13.8184 -26.709 Z"/></g><line id="Baseline-L" style="fill:none;stroke:#27AAE1;opacity:1;stroke-width:0.577;" x1="263" x2="3036" y1="1556" y2="1556"/><line id="Capline-L" style="fill:none;stroke:#27AAE1;opacity:1;stroke-width:0.577;" x1="263" x2="3036" y1="1485.54" y2="1485.54"/><rect height="119.336" id="left-margin" style="fill:darkred;stroke:none;opacity:0.4;" width="12.4512" x="1394.06" y="1030.79"/><rect height="119.336" id="right-margin" style="fill:darkgreen;stroke:none;opacity:0.4;" width="12.4512" x="1502.5112" y="1030.79"/><rect x="1406.5112" y="1045" width="96" height="96" fill="none" stroke="blue" stroke-dasharray="5"/><rect x="1394.06" y="1030.79" width="120.9024" height="119.336" fill="none" stroke="blue"/></g><g id="Symbols"><g id="Bold-L" transform="matrix(1 0 0 1 2266 1556)"><path d="M30.476 26.851 Q24.058 26.851 19.689 22.481 Q15.319 18.112 15.319 11.694 V-82.154 Q15.319 -88.638 19.689 -93.056 Q24.058 -97.472 30.476 -97.472 H124.324 Q130.808 -97.472 135.226 -93.056 Q139.643 -88.638 139.643 -82.154 V11.694 Q139.643 18.112 135.226 22.481 Q130.808 26.851 124.324 26.851 H30.476 Z M30.476 11.694 H124.324 Q124.324 11.694 124.324 11.694 Q124.324 11.694 124.324 11.694 V-82.154 Q124.324 -82.154 124.324 -82.154 Q124.324 -82.154 124.324 -82.154 H30.476 Q30.476 -82.154 30.476 -82.154 Q30.476 -82.154 30.476 -82.154 V11.694 Q30.476 11.694 30.476 11.694 Q30.476 11.694 30.476 11.694 Z M77.427 -11.687 Q67.403 -11.687 60.63 -18.433 Q53.858 -25.178 53.858 -35.203 Q53.858 -45.227 60.603 -52 Q67.348 -58.772 77.373 -58.772 Q87.398 -58.772 94.17 -52.027 Q100.943 -45.282 100.943 -35.257 Q100.943 -25.232 94.197 -18.46 Q87.452 -11.687 77.427 -11.687 Z"/></g><g id="Semibold-L" transform="matrix(1 0 0 1 1970.27 1556)"><path d="M29.846 25.098 Q24.483 25.098 20.777 21.393 Q17.072 17.687 17.072 12.324 V-82.784 Q17.072 -88.184 20.777 -91.917 Q24.483 -95.65 29.846 -95.65 H124.954 Q130.355 -95.65 134.087 -91.917 Q137.82 -88.184 137.82 -82.784 V12.324 Q137.82 17.687 134.087 21.393 Q130.355 25.098 124.954 25.098 H29.846 Z M29.846 12.324 H124.954 Q124.954 12.324 124.954 12.324 Q124.954 12.324 124.954 12.324 V-82.784 Q124.954 -82.784 124.954 -82.784 Q124.954 -82.784 124.954 -82.784 H29.846 Q29.846 -82.784 29.846 -82.784 Q29.846 -82.784 29.846 -82.784 V12.324 Q29.846 12.324 29.846 12.324 Q29.846 12.324 29.846 12.324 Z M77.416 -11.057 Q67.193 -11.057 60.209 -18.025 Q53.227 -24.992 53.227 -35.214 Q53.227 -45.437 60.195 -52.421 Q67.162 -59.403 77.384 -59.403 Q87.607 -59.403 94.591 -52.435 Q101.573 -45.468 101.573 -35.246 Q101.573 -25.023 94.605 -18.039 Q87.638 -11.057 77.416 -11.057 Z"/></g><g id="Medium-L" transform="matrix(1 0 0 1 1674.31 1556)"><path d="M29.372 23.784 Q24.8 23.784 21.593 20.577 Q18.386 17.37 18.386 12.798 V-83.258 Q18.386 -87.846 21.593 -91.064 Q24.8 -94.283 29.372 -94.283 H125.428 Q130.016 -94.283 133.234 -91.064 Q136.453 -87.846 136.453 -83.258 V12.798 Q136.453 17.37 133.234 20.577 Q130.016 23.784 125.428 23.784 H29.372 Z M29.372 12.798 H125.428 Q125.428 12.798 125.428 12.798 Q125.428 12.798 125.428 12.798 V-83.258 Q125.428 -83.258 125.428 -83.258 Q125.428 -83.258 125.428 -83.258 H29.372 Q29.372 -83.258 29.372 -83.258 Q29.372 -83.258 29.372 -83.258 V12.798 Q29.372 12.798 29.372 12.798 Q29.372 12.798 29.372 12.798 Z M77.406 -10.583 Q67.035 -10.583 59.893 -17.717 Q52.753 -24.852 52.753 -35.224 Q52.753 -45.595 59.887 -52.737 Q67.022 -59.877 77.394 -59.877 Q87.765 -59.877 94.907 -52.743 Q102.047 -45.608 102.047 -35.236 Q102.047 -24.865 94.913 -17.723 Q87.778 -10.583 77.406 -10.583 Z"/></g><g id="Regular-L" transform="matrix(1 0 0 1 1378.56 1556)"><path d="M29.025 22.82 Q25.034 22.82 22.193 19.977 Q19.35 17.136 19.35 13.145 V-83.605 Q19.35 -87.596 22.193 -90.439 Q25.034 -93.28 29.025 -93.28 H125.775 Q129.766 -93.28 132.609 -90.439 Q135.45 -87.596 135.45 -83.605 V13.145 Q135.45 17.136 132.609 19.977 Q129.766 22.82 125.775 22.82 H29.025 Z M29.025 13.145 H125.775 Q125.775 13.145 125.775 13.145 Q125.775 13.145 125.775 13.145 V-83.605 Q125.775 -83.605 125.775 -83.605 Q125.775 -83.605 125.775 -83.605 H29.025 Q29.025 -83.605 29.025 -83.605 Q29.025 -83.605 29.025 -83.605 V13.145 Q29.025 13.145 29.025 13.145 Q29.025 13.145 29.025 13.145 Z M77.4 -10.236 Q66.919 -10.236 59.663 -17.492 Q52.406 -24.749 52.406 -35.23 Q52.406 -45.711 59.663 -52.967 Q66.919 -60.224 77.4 -60.224 Q87.881 -60.224 95.138 -52.967 Q102.394 -45.711 102.394 -35.23 Q102.394 -24.749 95.138 -17.492 Q87.881 -10.236 77.4 -10.236 Z"/></g><g id="Light-L" transform="matrix(1 0 0 1 1082.77 1556)"><path d="M31.878 19.595 Q28.074 19.595 25.324 16.846 Q22.575 14.096 22.575 10.292 V-80.752 Q22.575 -84.556 25.324 -87.306 Q28.074 -90.055 31.878 -90.055 H122.922 Q126.726 -90.055 129.476 -87.306 Q132.225 -84.556 132.225 -80.752 V10.292 Q132.225 14.096 129.476 16.846 Q126.726 19.595 122.922 19.595 H31.878 Z M31.878 12.276 H122.922 Q123.79 12.276 124.348 11.718 Q124.906 11.16 124.906 10.292 V-80.752 Q124.906 -81.62 124.348 -82.178 Q123.79 -82.736 122.922 -82.736 H31.878 Q31.01 -82.736 30.452 -82.178 Q29.894 -81.62 29.894 -80.752 V10.292 Q29.894 11.16 30.452 11.718 Q31.01 12.276 31.878 12.276 Z M77.4 -12.47 Q67.849 -12.47 61.244 -19.074 Q54.64 -25.679 54.64 -35.23 Q54.64 -44.781 61.244 -51.416 Q67.849 -58.053 77.4 -58.053 Q86.951 -58.053 93.586 -51.416 Q100.223 -44.781 100.223 -35.23 Q100.223 -25.679 93.586 -19.074 Q86.951 -12.47 77.4 -12.47 Z"/></g><g id="Thin-L" transform="matrix(1 0 0 1 787.282 1556)"><path d="M34.73 16.37 Q31.112 16.37 28.456 13.714 Q25.8 11.058 25.8 7.44 V-77.9 Q25.8 -81.518 28.456 -84.174 Q31.112 -86.83 34.73 -86.83 H120.07 Q123.688 -86.83 126.344 -84.174 Q129 -81.518 129 -77.9 V7.44 Q129 11.058 126.344 13.714 Q123.688 16.37 120.07 16.37 H34.73 Z M34.73 11.408 H120.07 Q121.805 11.408 122.922 10.292 Q124.038 9.175 124.038 7.44 V-77.9 Q124.038 -79.635 122.922 -80.752 Q121.805 -81.868 120.07 -81.868 H34.73 Q32.995 -81.868 31.878 -80.752 Q30.762 -79.635 30.762 -77.9 V7.44 Q30.762 9.175 31.878 10.292 Q32.995 11.408 34.73 11.408 Z M77.4 -14.701 Q68.78 -14.701 62.826 -20.656 Q56.871 -26.61 56.871 -35.23 Q56.871 -43.85 62.826 -49.867 Q68.78 -55.883 77.4 -55.883 Q86.02 -55.883 92.037 -49.867 Q98.053 -43.85 98.053 -35.23 Q98.053 -26.61 92.037 -20.656 Q86.02 -14.701 77.4 -14.701 Z"/></g><g id="Ultralight-L" transform="matrix(1 0 0 1 491.205 1556)"><path d="M36.443 14.435 Q32.935 14.435 30.336 11.834 Q27.735 9.235 27.735 5.728 V-76.187 Q27.735 -79.695 30.336 -82.296 Q32.935 -84.895 36.443 -84.895 H118.358 Q121.865 -84.895 124.466 -82.296 Q127.065 -79.695 127.065 -76.187 V5.728 Q127.065 9.235 124.466 11.834 Q121.865 14.435 118.358 14.435 H36.443 Z M36.443 10.888 H118.358 Q120.615 10.888 122.066 9.436 Q123.517 7.985 123.517 5.728 V-76.187 Q123.517 -78.445 122.066 -79.896 Q120.615 -81.347 118.358 -81.347 H36.443 Q34.185 -81.347 32.734 -79.896 Q31.283 -78.445 31.283 -76.187 V5.728 Q31.283 7.985 32.734 9.436 Q34.185 10.888 36.443 10.888 Z M77.4 -16.041 Q69.338 -16.041 63.774 -21.604 Q58.211 -27.167 58.211 -35.23 Q58.211 -43.292 63.774 -48.936 Q69.338 -54.58 77.4 -54.58 Q85.463 -54.58 91.106 -48.936 Q96.75 -43.292 96.75 -35.23 Q96.75 -27.167 91.106 -21.604 Q85.463 -16.041 77.4 -16.041 Z"/></g><g id="Bold-M" transform="matrix(1 0 0 1 2281.8 1126)"><path d="M26.5 14.02 Q19.875 14.02 15.312 9.458 Q10.75 4.895 10.75 -1.73 V-68.73 Q10.75 -75.355 15.312 -79.917 Q19.875 -84.48 26.5 -84.48 H93.5 Q100.125 -84.48 104.688 -79.917 Q109.25 -75.355 109.25 -68.73 V-1.73 Q109.25 4.895 104.688 9.458 Q100.125 14.02 93.5 14.02 H26.5 Z M26.5 -1.73 H93.5 Q93.5 -1.73 93.5 -1.73 Q93.5 -1.73 93.5 -1.73 V-68.73 Q93.5 -68.73 93.5 -68.73 Q93.5 -68.73 93.5 -68.73 H26.5 Q26.5 -68.73 26.5 -68.73 Q26.5 -68.73 26.5 -68.73 V-1.73 Q26.5 -1.73 26.5 -1.73 Q26.5 -1.73 26.5 -1.73 Z M60 -16.73 Q52.25 -16.73 46.875 -22.105 Q41.5 -27.48 41.5 -35.23 Q41.5 -42.98 46.875 -48.355 Q52.25 -53.73 60 -53.73 Q67.75 -53.73 73.125 -48.355 Q78.5 -42.98 78.5 -35.23 Q78.5 -27.48 73.125 -22.105 Q67.75 -16.73 60 -16.73 Z"/></g><g id="Semibold-M" transform="matrix(1 0 0 1 1985.97 1126)"><path d="M25.848 12.173 Q20.31 12.173 16.454 8.316 Q12.598 4.46 12.598 -1.077 V-69.382 Q12.598 -74.92 16.454 -78.776 Q20.31 -82.632 25.848 -82.632 H94.153 Q99.69 -82.632 103.546 -78.776 Q107.403 -74.92 107.403 -69.382 V-1.077 Q107.403 4.46 103.546 8.316 Q99.69 12.173 94.153 12.173 H25.848 Z M25.848 -1.077 H94.153 Q94.153 -1.077 94.153 -1.077 Q94.153 -1.077 94.153 -1.077 V-69.382 Q94.153 -69.382 94.153 -69.382 Q94.153 -69.382 94.153 -69.382 H25.848 Q25.848 -69.382 25.848 -69.382 Q25.848 -69.382 25.848 -69.382 V-1.077 Q25.848 -1.077 25.848 -1.077 Q25.848 -1.077 25.848 -1.077 Z M60 -16.077 Q52.032 -16.077 46.44 -21.67 Q40.847 -27.262 40.847 -35.23 Q40.847 -43.197 46.44 -48.79 Q52.032 -54.382 60 -54.382 Q67.968 -54.382 73.56 -48.79 Q79.153 -43.197 79.153 -35.23 Q79.153 -27.262 73.56 -21.67 Q67.968 -16.077 60 -16.077 Z"/></g><g id="Medium-M" transform="matrix(1 0 0 1 1689.91 1126)"><path d="M25.359 10.786 Q20.636 10.786 17.31 7.46 Q13.984 4.134 13.984 -0.589 V-69.871 Q13.984 -74.594 17.31 -77.92 Q20.636 -81.246 25.359 -81.246 H94.641 Q99.364 -81.246 102.69 -77.92 Q106.016 -74.594 106.016 -69.871 V-0.589 Q106.016 4.134 102.69 7.46 Q99.364 10.786 94.641 10.786 H25.359 Z M25.359 -0.589 H94.641 Q94.641 -0.589 94.641 -0.589 Q94.641 -0.589 94.641 -0.589 V-69.871 Q94.641 -69.871 94.641 -69.871 Q94.641 -69.871 94.641 -69.871 H25.359 Q25.359 -69.871 25.359 -69.871 Q25.359 -69.871 25.359 -69.871 V-0.589 Q25.359 -0.589 25.359 -0.589 Q25.359 -0.589 25.359 -0.589 Z M60 -15.589 Q51.87 -15.589 46.114 -21.344 Q40.359 -27.1 40.359 -35.23 Q40.359 -43.36 46.114 -49.116 Q51.87 -54.871 60 -54.871 Q68.13 -54.871 73.886 -49.116 Q79.641 -43.36 79.641 -35.23 Q79.641 -27.1 73.886 -21.344 Q68.13 -15.589 60 -15.589 Z"/></g><g id="Regular-M" transform="matrix(1 0 0 1 1394.06 1126)"><path d="M25 9.77 Q20.875 9.77 17.938 6.833 Q15 3.895 15 -0.23 V-70.23 Q15 -74.355 17.938 -77.292 Q20.875 -80.23 25 -80.23 H95 Q99.125 -80.23 102.062 -77.292 Q105 -74.355 105 -70.23 V-0.23 Q105 3.895 102.062 6.833 Q99.125 9.77 95 9.77 H25 Z M25 -0.23 H95 Q95 -0.23 95 -0.23 Q95 -0.23 95 -0.23 V-70.23 Q95 -70.23 95 -70.23 Q95 -70.23 95 -70.23 H25 Q25 -70.23 25 -70.23 Q25 -70.23 25 -70.23 V-0.23 Q25 -0.23 25 -0.23 Q25 -0.23 25 -0.23 Z M60 -15.23 Q51.75 -15.23 45.875 -21.105 Q40 -26.98 40 -35.23 Q40 -43.48 45.875 -49.355 Q51.75 -55.23 60 -55.23 Q68.25 -55.23 74.125 -49.355 Q80 -43.48 80 -35.23 Q80 -26.98 74.125 -21.105 Q68.25 -15.23 60 -15.23 Z"/></g><g id="Light-M" transform="matrix(1 0 0 1 1098.18 1126)"><path d="M26.539 7.27 Q22.799 7.27 20.149 4.621 Q17.5 1.971 17.5 -1.769 V-68.691 Q17.5 -72.431 20.149 -75.081 Q22.799 -77.73 26.539 -77.73 H93.461 Q97.201 -77.73 99.851 -75.081 Q102.5 -72.431 102.5 -68.691 V-1.769 Q102.5 1.971 99.851 4.621 Q97.201 7.27 93.461 7.27 H26.539 Z M26.539 -0.23 H93.461 Q94.135 -0.23 94.567 -0.662 Q95 -1.095 95 -1.769 V-68.691 Q95 -69.365 94.567 -69.797 Q94.135 -70.23 93.461 -70.23 H26.539 Q25.865 -70.23 25.433 -69.797 Q25 -69.365 25 -68.691 V-1.769 Q25 -1.095 25.433 -0.662 Q25.865 -0.23 26.539 -0.23 Z M60 -17.105 Q52.471 -17.105 47.174 -22.404 Q41.875 -27.701 41.875 -35.23 Q41.875 -42.759 47.174 -48.056 Q52.471 -53.355 60 -53.355 Q67.529 -53.355 72.826 -48.056 Q78.125 -42.759 78.125 -35.23 Q78.125 -27.701 72.826 -22.404 Q67.529 -17.105 60 -17.105 Z"/></g><g id="Thin-M" transform="matrix(1 0 0 1 802.565 1126)"><path d="M28.078 4.77 Q24.721 4.77 22.36 2.41 Q20 0.049 20 -3.307 V-67.152 Q20 -70.509 22.36 -72.87 Q24.721 -75.23 28.078 -75.23 H91.922 Q95.279 -75.23 97.64 -72.87 Q100 -70.509 100 -67.152 V-3.307 Q100 0.049 97.64 2.41 Q95.279 4.77 91.922 4.77 H28.078 Z M28.078 -0.23 H91.922 Q93.269 -0.23 94.135 -1.095 Q95 -1.961 95 -3.307 V-67.152 Q95 -68.499 94.135 -69.365 Q93.269 -70.23 91.922 -70.23 H28.078 Q26.731 -70.23 25.865 -69.365 Q25 -68.499 25 -67.152 V-3.307 Q25 -1.961 25.865 -1.095 Q26.731 -0.23 28.078 -0.23 Z M60 -18.98 Q53.193 -18.98 48.471 -23.701 Q43.75 -28.422 43.75 -35.23 Q43.75 -42.037 48.471 -46.759 Q53.193 -51.48 60 -51.48 Q66.808 -51.48 71.529 -46.759 Q76.25 -42.037 76.25 -35.23 Q76.25 -28.422 71.529 -23.701 Q66.808 -18.98 60 -18.98 Z"/></g><g id="Ultralight-M" transform="matrix(1 0 0 1 506.415 1126)"><path d="M29 3.27 Q25.875 3.27 23.688 1.083 Q21.5 -1.105 21.5 -4.23 V-66.23 Q21.5 -69.355 23.688 -71.542 Q25.875 -73.73 29 -73.73 H91 Q94.125 -73.73 96.312 -71.542 Q98.5 -69.355 98.5 -66.23 V-4.23 Q98.5 -1.105 96.312 1.083 Q94.125 3.27 91 3.27 H29 Z M29 -0.23 H91 Q92.75 -0.23 93.875 -1.355 Q95 -2.48 95 -4.23 V-66.23 Q95 -67.98 93.875 -69.105 Q92.75 -70.23 91 -70.23 H29 Q27.25 -70.23 26.125 -69.105 Q25 -67.98 25 -66.23 V-4.23 Q25 -2.48 26.125 -1.355 Q27.25 -0.23 29 -0.23 Z M60 -20.105 Q53.625 -20.105 49.25 -24.48 Q44.875 -28.855 44.875 -35.23 Q44.875 -41.605 49.25 -45.98 Q53.625 -50.355 60 -50.355 Q66.375 -50.355 70.75 -45.98 Q75.125 -41.605 75.125 -35.23 Q75.125 -28.855 70.75 -24.48 Q66.375 -20.105 60 -20.105 Z"/></g><g id="Bold-S" transform="matrix(1 0 0 1 2294.23 696)"><path d="M22.486 1.261 Q17.585 1.261 14.217 -2.107 Q10.849 -5.475 10.849 -10.376 V-60.083 Q10.849 -64.985 14.217 -68.353 Q17.585 -71.721 22.486 -71.721 H72.194 Q77.095 -71.721 80.463 -68.353 Q83.831 -64.985 83.831 -60.083 V-10.376 Q83.831 -5.475 80.463 -2.107 Q77.095 1.261 72.194 1.261 H22.486 Z M22.486 -10.376 H72.194 Q72.194 -10.376 72.194 -10.376 Q72.194 -10.376 72.194 -10.376 V-60.083 Q72.194 -60.083 72.194 -60.083 Q72.194 -60.083 72.194 -60.083 H22.486 Q22.486 -60.083 22.486 -60.083 Q22.486 -60.083 22.486 -60.083 V-10.376 Q22.486 -10.376 22.486 -10.376 Q22.486 -10.376 22.486 -10.376 Z M47.34 -22.211 Q41.817 -22.211 38.069 -25.959 Q34.322 -29.707 34.322 -35.23 Q34.322 -40.753 38.069 -44.501 Q41.817 -48.248 47.34 -48.248 Q52.863 -48.248 56.611 -44.501 Q60.358 -40.753 60.358 -35.23 Q60.358 -29.707 56.611 -25.959 Q52.863 -22.211 47.34 -22.211 Z"/></g><g id="Semibold-S" transform="matrix(1 0 0 1 1998.1 696)"><path d="M21.972 -0.196 Q17.928 -0.196 15.117 -3.007 Q12.306 -5.818 12.306 -9.862 V-60.598 Q12.306 -64.642 15.117 -67.453 Q17.928 -70.264 21.972 -70.264 H72.708 Q76.752 -70.264 79.563 -67.453 Q82.374 -64.642 82.374 -60.598 V-9.862 Q82.374 -5.818 79.563 -3.007 Q76.752 -0.196 72.708 -0.196 H21.972 Z M21.972 -9.862 H72.708 Q72.708 -9.862 72.708 -9.862 Q72.708 -9.862 72.708 -9.862 V-60.598 Q72.708 -60.598 72.708 -60.598 Q72.708 -60.598 72.708 -60.598 H21.972 Q21.972 -60.598 21.972 -60.598 Q21.972 -60.598 21.972 -60.598 V-9.862 Q21.972 -9.862 21.972 -9.862 Q21.972 -9.862 21.972 -9.862 Z M47.34 -21.697 Q41.645 -21.697 37.726 -25.616 Q33.807 -29.535 33.807 -35.23 Q33.807 -40.925 37.726 -44.844 Q41.645 -48.763 47.34 -48.763 Q53.035 -48.763 56.954 -44.844 Q60.873 -40.925 60.873 -35.23 Q60.873 -29.535 56.954 -25.616 Q53.035 -21.697 47.34 -21.697 Z"/></g><g id="Medium-S" transform="matrix(1 0 0 1 1701.85 696)"><path d="M21.586 -1.29 Q18.185 -1.29 15.793 -3.683 Q13.4 -6.075 13.4 -9.476 V-60.984 Q13.4 -64.385 15.793 -66.777 Q18.185 -69.17 21.586 -69.17 H73.094 Q76.495 -69.17 78.887 -66.777 Q81.28 -64.385 81.28 -60.984 V-9.476 Q81.28 -6.075 78.887 -3.683 Q76.495 -1.29 73.094 -1.29 H21.586 Z M21.586 -9.476 H73.094 Q73.094 -9.476 73.094 -9.476 Q73.094 -9.476 73.094 -9.476 V-60.984 Q73.094 -60.984 73.094 -60.984 Q73.094 -60.984 73.094 -60.984 H21.586 Q21.586 -60.984 21.586 -60.984 Q21.586 -60.984 21.586 -60.984 V-9.476 Q21.586 -9.476 21.586 -9.476 Q21.586 -9.476 21.586 -9.476 Z M47.34 -21.311 Q41.517 -21.311 37.469 -25.359 Q33.421 -29.407 33.421 -35.23 Q33.421 -41.053 37.469 -45.101 Q41.517 -49.149 47.34 -49.149 Q53.163 -49.149 57.211 -45.101 Q61.259 -41.053 61.259 -35.23 Q61.259 -29.407 57.211 -25.359 Q53.163 -21.311 47.34 -21.311 Z"/></g><g id="Regular-S" transform="matrix(1 0 0 1 1405.73 696)"><path d="M21.303 -2.092 Q18.374 -2.092 16.288 -4.178 Q14.202 -6.264 14.202 -9.193 V-61.267 Q14.202 -64.196 16.288 -66.282 Q18.374 -68.368 21.303 -68.368 H73.377 Q76.306 -68.368 78.392 -66.282 Q80.478 -64.196 80.478 -61.267 V-9.193 Q80.478 -6.264 78.392 -4.178 Q76.306 -2.092 73.377 -2.092 H21.303 Z M21.303 -9.193 H73.377 Q73.377 -9.193 73.377 -9.193 Q73.377 -9.193 73.377 -9.193 V-61.267 Q73.377 -61.267 73.377 -61.267 Q73.377 -61.267 73.377 -61.267 H21.303 Q21.303 -61.267 21.303 -61.267 Q21.303 -61.267 21.303 -61.267 V-9.193 Q21.303 -9.193 21.303 -9.193 Q21.303 -9.193 21.303 -9.193 Z M47.34 -21.028 Q41.422 -21.028 37.28 -25.17 Q33.138 -29.312 33.138 -35.23 Q33.138 -41.147 37.28 -45.29 Q41.422 -49.432 47.34 -49.432 Q53.258 -49.432 57.4 -45.29 Q61.542 -41.147 61.542 -35.23 Q61.542 -29.312 57.4 -25.17 Q53.258 -21.028 47.34 -21.028 Z"/></g><g id="Light-S" transform="matrix(1 0 0 1 1109.75 696)"><path d="M22.517 -4.064 Q19.892 -4.064 18.033 -5.923 Q16.175 -7.782 16.175 -10.407 V-60.053 Q16.175 -62.678 18.033 -64.537 Q19.892 -66.395 22.517 -66.395 H72.163 Q74.788 -66.395 76.647 -64.537 Q78.505 -62.678 78.505 -60.053 V-10.407 Q78.505 -7.782 76.647 -5.923 Q74.788 -4.064 72.163 -4.064 H22.517 Z M22.517 -9.193 H72.163 Q72.695 -9.193 73.036 -9.534 Q73.377 -9.875 73.377 -10.407 V-60.053 Q73.377 -60.585 73.036 -60.926 Q72.695 -61.267 72.163 -61.267 H22.517 Q21.985 -61.267 21.644 -60.926 Q21.303 -60.585 21.303 -60.053 V-10.407 Q21.303 -9.875 21.644 -9.534 Q21.985 -9.193 22.517 -9.193 Z M47.34 -22.507 Q41.992 -22.507 38.305 -26.195 Q34.617 -29.882 34.617 -35.23 Q34.617 -40.578 38.305 -44.265 Q41.992 -47.953 47.34 -47.953 Q52.688 -47.953 56.375 -44.265 Q60.063 -40.578 60.063 -35.23 Q60.063 -29.882 56.375 -26.195 Q52.688 -22.507 47.34 -22.507 Z"/></g><g id="Thin-S" transform="matrix(1 0 0 1 814.015 696)"><path d="M23.731 -6.037 Q21.409 -6.037 19.777 -7.667 Q18.147 -9.299 18.147 -11.621 V-58.839 Q18.147 -61.161 19.777 -62.793 Q21.409 -64.423 23.731 -64.423 H70.949 Q73.271 -64.423 74.903 -62.793 Q76.533 -61.161 76.533 -58.839 V-11.621 Q76.533 -9.299 74.903 -7.667 Q73.271 -6.037 70.949 -6.037 H23.731 Z M23.731 -9.193 H70.949 Q72.011 -9.193 72.695 -9.875 Q73.377 -10.559 73.377 -11.621 V-58.839 Q73.377 -59.901 72.695 -60.585 Q72.011 -61.267 70.949 -61.267 H23.731 Q22.669 -61.267 21.985 -60.585 Q21.303 -59.901 21.303 -58.839 V-11.621 Q21.303 -10.559 21.985 -9.875 Q22.669 -9.193 23.731 -9.193 Z M47.34 -23.987 Q42.561 -23.987 39.329 -27.219 Q36.097 -30.451 36.097 -35.23 Q36.097 -40.009 39.329 -43.241 Q42.561 -46.473 47.34 -46.473 Q52.119 -46.473 55.351 -43.241 Q58.583 -40.009 58.583 -35.23 Q58.583 -30.451 55.351 -27.219 Q52.119 -23.987 47.34 -23.987 Z"/></g><g id="Ultralight-S" transform="matrix(1 0 0 1 517.792 696)"><path d="M24.459 -7.22 Q22.319 -7.22 20.825 -8.715 Q19.331 -10.209 19.331 -12.349 V-58.111 Q19.331 -60.251 20.825 -61.745 Q22.319 -63.239 24.459 -63.239 H70.221 Q72.361 -63.239 73.855 -61.745 Q75.35 -60.251 75.35 -58.111 V-12.349 Q75.35 -10.209 73.855 -8.715 Q72.361 -7.22 70.221 -7.22 H24.459 Z M24.459 -9.193 H70.221 Q71.602 -9.193 72.489 -10.081 Q73.377 -10.968 73.377 -12.349 V-58.111 Q73.377 -59.492 72.489 -60.379 Q71.602 -61.267 70.221 -61.267 H24.459 Q23.078 -61.267 22.191 -60.379 Q21.303 -59.492 21.303 -58.111 V-12.349 Q21.303 -10.968 22.191 -10.081 Q23.078 -9.193 24.459 -9.193 Z M47.34 -24.874 Q42.902 -24.874 39.943 -27.833 Q36.984 -30.792 36.984 -35.23 Q36.984 -39.668 39.943 -42.627 Q42.902 -45.586 47.34 -45.586 Q51.778 -45.586 54.737 -42.627 Q57.696 -39.668 57.696 -35.23 Q57.696 -30.792 54.737 -27.833 Q51.778 -24.874 47.34 -24.874 Z"/></g></g></svg>