<svg xmlns="http://www.w3.org/2000/svg" version="1.1" width="3300" height="2000"><g id="Notes"><style>
    text {
      font-family: monospace;
      text-anchor: middle;
    }
    text.emphasis {
      font-weight:bold;
    }
    text.lanchor {
      text-anchor: start;
    }
  </style><rect height="2200" id="artboard" fill="white" width="3300" x="0" y="0"/><line id="" style="fill:none;stroke:black;stroke-width:0.5;" x1="263" x2="3036" y1="292" y2="292"/><text class="lanchor emphasis" transform="matrix(1 0 0 1 263 322)">Weight/Scale Variations</text><text transform="matrix(1 0 0 1 559.711 322)">Ultralight</text><text transform="matrix(1 0 0 1 856.422 322)">Thin</text><text transform="matrix(1 0 0 1 1153.13 322)">Light</text><text transform="matrix(1 0 0 1 1449.84 322)">Regular</text><text transform="matrix(1 0 0 1 1746.56 322)">Medium</text><text transform="matrix(1 0 0 1 2043.27 322)">Semibold</text><text transform="matrix(1 0 0 1 2339.98 322)">Bold</text><text transform="matrix(1 0 0 1 2636.69 322)">Heavy</text><text transform="matrix(1 0 0 1 2933.4 322)">Black</text><text id="template-version" style="text-anchor: end;" transform="matrix(1 0 0 1 3036 1933)">Template v.1.0</text><text class="lanchor" transform="matrix(1 0 0 1 263 726)">Small</text><text class="lanchor" transform="matrix(1 0 0 1 263 1156)">Medium</text><text class="lanchor" transform="matrix(1 0 0 1 263 1586)">Large</text></g><g id="Guides"><g id="H-reference" style="fill:#27AAE1;stroke:none;" transform="matrix(1 0 0 1 339 696)"><path d="M 54.9316 0 L 57.666 0 L 30.5664 -70.459 L 28.0762 -70.459 L 0.976562 0 L 3.66211 0 L 12.9395 -24.4629 L 45.7031 -24.4629 Z M 29.1992 -67.0898 L 29.4434 -67.0898 L 44.8242 -26.709 L 13.8184 -26.709 Z"/></g><line id="Baseline-S" style="fill:none;stroke:#27AAE1;opacity:1;stroke-width:0.577;" x1="263" x2="3036" y1="696" y2="696"/><line id="Capline-S" style="fill:none;stroke:#27AAE1;opacity:1;stroke-width:0.577;" x1="263" x2="3036" y1="625.541" y2="625.541"/><g id="H-reference" style="fill:#27AAE1;stroke:none;" transform="matrix(1 0 0 1 339 1126)"><path d="M 54.9316 0 L 57.666 0 L 30.5664 -70.459 L 28.0762 -70.459 L 0.976562 0 L 3.66211 0 L 12.9395 -24.4629 L 45.7031 -24.4629 Z M 29.1992 -67.0898 L 29.4434 -67.0898 L 44.8242 -26.709 L 13.8184 -26.709 Z"/></g><line id="Baseline-M" style="fill:none;stroke:#27AAE1;opacity:1;stroke-width:0.577;" x1="263" x2="3036" y1="1126" y2="1126"/><line id="Capline-M" style="fill:none;stroke:#27AAE1;opacity:1;stroke-width:0.577;" x1="263" x2="3036" y1="1055.54" y2="1055.54"/><g id="H-reference" style="fill:#27AAE1;stroke:none;" transform="matrix(1 0 0 1 339 1556)"><path d="M 54.9316 0 L 57.666 0 L 30.5664 -70.459 L 28.0762 -70.459 L 0.976562 0 L 3.66211 0 L 12.9395 -24.4629 L 45.7031 -24.4629 Z M 29.1992 -67.0898 L 29.4434 -67.0898 L 44.8242 -26.709 L 13.8184 -26.709 Z"/></g><line id="Baseline-L" style="fill:none;stroke:#27AAE1;opacity:1;stroke-width:0.577;" x1="263" x2="3036" y1="1556" y2="1556"/><line id="Capline-L" style="fill:none;stroke:#27AAE1;opacity:1;stroke-width:0.577;" x1="263" x2="3036" y1="1485.54" y2="1485.54"/><rect height="119.336" id="left-margin" style="fill:darkred;stroke:none;opacity:0.4;" width="12.4512" x="1394.06" y="1030.79"/><rect height="119.336" id="right-margin" style="fill:darkgreen;stroke:none;opacity:0.4;" width="12.4512" x="1502.5112" y="1030.79"/><rect x="1406.5112" y="1045" width="96" height="96" fill="none" stroke="blue" stroke-dasharray="5"/><rect x="1394.06" y="1030.79" width="120.9024" height="119.336" fill="none" stroke="blue"/></g><g id="Symbols"><g id="Bold-L" transform="matrix(1 0 0 1 2266 1556)"><path d="M30.637 26.206 Q24.542 26.206 20.253 21.917 Q15.964 17.628 15.964 11.533 V-81.992 Q15.964 -88.154 20.253 -92.491 Q24.542 -96.827 30.637 -96.827 H124.163 Q130.324 -96.827 134.661 -92.491 Q138.998 -88.154 138.998 -81.992 V11.533 Q138.998 17.628 134.661 21.917 Q130.324 26.206 124.163 26.206 H30.637 Z M30.637 11.533 H124.163 Q124.163 11.533 124.163 11.533 Q124.163 11.533 124.163 11.533 V-81.992 Q124.163 -81.992 124.163 -81.992 Q124.163 -81.992 124.163 -81.992 H30.637 Q30.637 -81.992 30.637 -81.992 Q30.637 -81.992 30.637 -81.992 V11.533 Q30.637 11.533 30.637 11.533 Q30.637 11.533 30.637 11.533 Z M77.415 -11.849 Q67.483 -11.849 60.751 -18.528 Q54.019 -25.205 54.019 -35.136 Q54.019 -45.066 60.698 -51.919 Q67.375 -58.772 77.306 -58.772 Q87.236 -58.772 94.089 -51.974 Q100.943 -45.174 100.943 -35.245 Q100.943 -25.313 94.144 -18.581 Q87.344 -11.849 77.415 -11.849 Z"/></g><g id="Semibold-L" transform="matrix(1 0 0 1 1970.27 1556)"><path d="M29.726 25.856 Q24.125 25.856 20.219 21.951 Q16.314 18.045 16.314 12.444 V-82.904 Q16.314 -88.542 20.219 -92.475 Q24.125 -96.407 29.726 -96.407 H125.074 Q130.712 -96.407 134.645 -92.475 Q138.577 -88.542 138.577 -82.904 V12.444 Q138.577 18.045 134.645 21.951 Q130.712 25.856 125.074 25.856 H29.726 Z M29.726 12.444 H125.074 Q125.074 12.444 125.074 12.444 Q125.074 12.444 125.074 12.444 V-82.904 Q125.074 -82.904 125.074 -82.904 Q125.074 -82.904 125.074 -82.904 H29.726 Q29.726 -82.904 29.726 -82.904 Q29.726 -82.904 29.726 -82.904 V12.444 Q29.726 12.444 29.726 12.444 Q29.726 12.444 29.726 12.444 Z M77.385 -10.938 Q67.133 -10.938 60.12 -17.925 Q53.108 -24.913 53.108 -35.165 Q53.108 -45.416 60.095 -52.55 Q67.083 -59.684 77.336 -59.684 Q87.586 -59.684 94.72 -52.576 Q101.854 -45.466 101.854 -35.215 Q101.854 -24.963 94.746 -17.95 Q87.636 -10.938 77.385 -10.938 Z"/></g><g id="Medium-L" transform="matrix(1 0 0 1 1674.31 1556)"><path d="M29.043 25.594 Q23.812 25.594 20.195 21.975 Q16.576 18.358 16.576 13.127 V-83.587 Q16.576 -88.834 20.195 -92.462 Q23.812 -96.091 29.043 -96.091 H125.757 Q131.004 -96.091 134.632 -92.462 Q138.261 -88.834 138.261 -83.587 V13.127 Q138.261 18.358 134.632 21.975 Q131.004 25.594 125.757 25.594 H29.043 Z M29.043 13.127 H125.757 Q125.757 13.127 125.757 13.127 Q125.757 13.127 125.757 13.127 V-83.587 Q125.757 -83.587 125.757 -83.587 Q125.757 -83.587 125.757 -83.587 H29.043 Q29.043 -83.587 29.043 -83.587 Q29.043 -83.587 29.043 -83.587 V13.127 Q29.043 13.127 29.043 13.127 Q29.043 13.127 29.043 13.127 Z M77.363 -10.254 Q66.87 -10.254 59.646 -17.473 Q52.424 -24.694 52.424 -35.186 Q52.424 -45.679 59.643 -53.024 Q66.864 -60.367 77.356 -60.367 Q87.849 -60.367 95.194 -53.027 Q102.537 -45.685 102.537 -35.193 Q102.537 -24.7 95.197 -17.476 Q87.855 -10.254 77.363 -10.254 Z"/></g><g id="Regular-L" transform="matrix(1 0 0 1 1378.56 1556)"><path d="M28.541 25.4 Q23.583 25.4 20.177 21.993 Q16.77 18.587 16.77 13.629 V-84.089 Q16.77 -89.047 20.177 -92.454 Q23.583 -95.86 28.541 -95.86 H126.259 Q131.217 -95.86 134.624 -92.454 Q138.03 -89.047 138.03 -84.089 V13.629 Q138.03 18.587 134.624 21.993 Q131.217 25.4 126.259 25.4 H28.541 Z M28.541 13.629 H126.259 Q126.259 13.629 126.259 13.629 Q126.259 13.629 126.259 13.629 V-84.089 Q126.259 -84.089 126.259 -84.089 Q126.259 -84.089 126.259 -84.089 H28.541 Q28.541 -84.089 28.541 -84.089 Q28.541 -84.089 28.541 -84.089 V13.629 Q28.541 13.629 28.541 13.629 Q28.541 13.629 28.541 13.629 Z M77.347 -9.752 Q66.677 -9.752 59.3 -17.143 Q51.922 -24.533 51.922 -35.203 Q51.922 -45.872 59.313 -53.371 Q66.703 -60.869 77.373 -60.869 Q88.043 -60.869 95.541 -53.358 Q103.039 -45.847 103.039 -35.177 Q103.039 -24.507 95.528 -17.13 Q88.017 -9.752 77.347 -9.752 Z"/></g><g id="Light-L" transform="matrix(1 0 0 1 1082.77 1556)"><path d="M31.394 22.175 Q26.622 22.175 23.309 18.861 Q19.995 15.548 19.995 10.776 V-81.236 Q19.995 -86.008 23.309 -89.321 Q26.622 -92.635 31.394 -92.635 H123.406 Q128.178 -92.635 131.491 -89.321 Q134.805 -86.008 134.805 -81.236 V10.776 Q134.805 15.548 131.491 18.861 Q128.178 22.175 123.406 22.175 H31.394 Z M31.394 12.76 H123.406 Q124.274 12.76 124.832 12.202 Q125.39 11.644 125.39 10.776 V-81.236 Q125.39 -82.104 124.832 -82.662 Q124.274 -83.22 123.406 -83.22 H31.394 Q30.526 -83.22 29.968 -82.662 Q29.41 -82.104 29.41 -81.236 V10.776 Q29.41 11.644 29.968 12.202 Q30.526 12.76 31.394 12.76 Z M77.347 -11.986 Q67.607 -11.986 60.882 -18.724 Q54.156 -25.463 54.156 -35.203 Q54.156 -44.942 60.894 -51.819 Q67.633 -58.698 77.373 -58.698 Q87.112 -58.698 93.989 -51.806 Q100.868 -44.916 100.868 -35.177 Q100.868 -25.437 93.977 -18.712 Q87.086 -11.986 77.347 -11.986 Z"/></g><g id="Thin-L" transform="matrix(1 0 0 1 787.282 1556)"><path d="M34.246 18.95 Q29.66 18.95 26.44 15.73 Q23.22 12.51 23.22 7.924 V-78.384 Q23.22 -82.97 26.44 -86.19 Q29.66 -89.41 34.246 -89.41 H120.554 Q125.14 -89.41 128.36 -86.19 Q131.58 -82.97 131.58 -78.384 V7.924 Q131.58 12.51 128.36 15.73 Q125.14 18.95 120.554 18.95 H34.246 Z M34.246 11.892 H120.554 Q122.289 11.892 123.406 10.776 Q124.522 9.659 124.522 7.924 V-78.384 Q124.522 -80.119 123.406 -81.236 Q122.289 -82.352 120.554 -82.352 H34.246 Q32.511 -82.352 31.394 -81.236 Q30.278 -80.119 30.278 -78.384 V7.924 Q30.278 9.659 31.394 10.776 Q32.511 11.892 34.246 11.892 Z M77.347 -14.218 Q68.538 -14.218 62.463 -20.306 Q56.388 -26.393 56.388 -35.203 Q56.388 -44.012 62.476 -50.27 Q68.564 -56.528 77.373 -56.528 Q86.182 -56.528 92.44 -50.257 Q98.698 -43.986 98.698 -35.177 Q98.698 -26.368 92.427 -20.293 Q86.156 -14.218 77.347 -14.218 Z"/></g><g id="Ultralight-L" transform="matrix(1 0 0 1 491.205 1556)"><path d="M35.959 17.015 Q31.484 17.015 28.32 13.85 Q25.155 10.686 25.155 6.211 V-76.671 Q25.155 -81.146 28.32 -84.311 Q31.484 -87.475 35.959 -87.475 H118.841 Q123.316 -87.475 126.481 -84.311 Q129.645 -81.146 129.645 -76.671 V6.211 Q129.645 10.686 126.481 13.85 Q123.316 17.015 118.841 17.015 H35.959 Z M35.959 11.371 H118.841 Q121.099 11.371 122.55 9.92 Q124.001 8.469 124.001 6.211 V-76.671 Q124.001 -78.929 122.55 -80.38 Q121.099 -81.831 118.841 -81.831 H35.959 Q33.701 -81.831 32.25 -80.38 Q30.799 -78.929 30.799 -76.671 V6.211 Q30.799 8.469 32.25 9.92 Q33.701 11.371 35.959 11.371 Z M77.347 -15.557 Q69.096 -15.557 63.412 -21.254 Q57.727 -26.951 57.727 -35.203 Q57.727 -43.454 63.424 -49.339 Q69.121 -55.225 77.373 -55.225 Q85.624 -55.225 91.509 -49.326 Q97.395 -43.428 97.395 -35.177 Q97.395 -26.926 91.496 -21.242 Q85.598 -15.557 77.347 -15.557 Z"/></g><g id="Bold-M" transform="matrix(1 0 0 1 2281.8 1126)"><path d="M26.25 15.52 Q19.125 15.52 14.188 10.583 Q9.25 5.645 9.25 -1.48 V-68.98 Q9.25 -76.105 14.188 -81.042 Q19.125 -85.98 26.25 -85.98 H93.75 Q100.875 -85.98 105.812 -81.042 Q110.75 -76.105 110.75 -68.98 V-1.48 Q110.75 5.645 105.812 10.583 Q100.875 15.52 93.75 15.52 H26.25 Z M26.25 -1.48 H93.75 Q93.75 -1.48 93.75 -1.48 Q93.75 -1.48 93.75 -1.48 V-68.98 Q93.75 -68.98 93.75 -68.98 Q93.75 -68.98 93.75 -68.98 H26.25 Q26.25 -68.98 26.25 -68.98 Q26.25 -68.98 26.25 -68.98 V-1.48 Q26.25 -1.48 26.25 -1.48 Q26.25 -1.48 26.25 -1.48 Z M60.021 -16.355 Q52.125 -16.355 46.625 -21.834 Q41.125 -27.312 41.125 -35.209 Q41.125 -43.105 46.604 -48.605 Q52.083 -54.105 59.979 -54.105 Q67.875 -54.105 73.375 -48.626 Q78.875 -43.147 78.875 -35.251 Q78.875 -27.355 73.396 -21.855 Q67.918 -16.355 60.021 -16.355 Z"/></g><g id="Semibold-M" transform="matrix(1 0 0 1 1985.97 1126)"><path d="M25.38 14.759 Q18.907 14.759 14.459 10.311 Q10.011 5.863 10.011 -0.61 V-69.85 Q10.011 -76.322 14.459 -80.771 Q18.907 -85.219 25.38 -85.219 H94.62 Q101.093 -85.219 105.541 -80.771 Q109.989 -76.322 109.989 -69.85 V-0.61 Q109.989 5.863 105.541 10.311 Q101.093 14.759 94.62 14.759 H25.38 Z M25.38 -0.61 H94.62 Q94.62 -0.61 94.62 -0.61 Q94.62 -0.61 94.62 -0.61 V-69.85 Q94.62 -69.85 94.62 -69.85 Q94.62 -69.85 94.62 -69.85 H25.38 Q25.38 -69.85 25.38 -69.85 Q25.38 -69.85 25.38 -69.85 V-0.61 Q25.38 -0.61 25.38 -0.61 Q25.38 -0.61 25.38 -0.61 Z M60.008 -15.485 Q51.799 -15.485 46.028 -21.25 Q40.255 -27.014 40.255 -35.222 Q40.255 -43.431 46.02 -49.202 Q51.784 -54.975 59.992 -54.975 Q68.201 -54.975 73.972 -49.21 Q79.745 -43.446 79.745 -35.237 Q79.745 -27.029 73.98 -21.257 Q68.216 -15.485 60.008 -15.485 Z"/></g><g id="Medium-M" transform="matrix(1 0 0 1 1689.91 1126)"><path d="M24.729 14.189 Q18.745 14.189 14.662 10.108 Q10.581 6.025 10.581 0.041 V-70.501 Q10.581 -76.485 14.662 -80.567 Q18.745 -84.649 24.729 -84.649 H95.271 Q101.255 -84.649 105.338 -80.567 Q109.419 -76.485 109.419 -70.501 V0.041 Q109.419 6.025 105.338 10.108 Q101.255 14.189 95.271 14.189 H24.729 Z M24.729 0.041 H95.271 Q95.271 0.041 95.271 0.041 Q95.271 0.041 95.271 0.041 V-70.501 Q95.271 -70.501 95.271 -70.501 Q95.271 -70.501 95.271 -70.501 H24.729 Q24.729 -70.501 24.729 -70.501 Q24.729 -70.501 24.729 -70.501 V0.041 Q24.729 0.041 24.729 0.041 Q24.729 0.041 24.729 0.041 Z M59.998 -14.834 Q51.554 -14.834 45.579 -20.811 Q39.604 -26.79 39.604 -35.232 Q39.604 -43.676 45.581 -49.651 Q51.56 -55.626 60.002 -55.626 Q68.446 -55.626 74.421 -49.649 Q80.396 -43.67 80.396 -35.227 Q80.396 -26.784 74.419 -20.809 Q68.44 -14.834 59.998 -14.834 Z"/></g><g id="Regular-M" transform="matrix(1 0 0 1 1394.06 1126)"><path d="M24.25 13.77 Q18.625 13.77 14.812 9.958 Q11 6.145 11 0.52 V-70.98 Q11 -76.605 14.812 -80.417 Q18.625 -84.23 24.25 -84.23 H95.75 Q101.375 -84.23 105.188 -80.417 Q109 -76.605 109 -70.98 V0.52 Q109 6.145 105.188 9.958 Q101.375 13.77 95.75 13.77 H24.25 Z M24.25 0.52 H95.75 Q95.75 0.52 95.75 0.52 Q95.75 0.52 95.75 0.52 V-70.98 Q95.75 -70.98 95.75 -70.98 Q95.75 -70.98 95.75 -70.98 H24.25 Q24.25 -70.98 24.25 -70.98 Q24.25 -70.98 24.25 -70.98 V0.52 Q24.25 0.52 24.25 0.52 Q24.25 0.52 24.25 0.52 Z M59.99 -14.355 Q51.375 -14.355 45.25 -20.49 Q39.125 -26.625 39.125 -35.24 Q39.125 -43.855 45.26 -49.98 Q51.395 -56.105 60.01 -56.105 Q68.625 -56.105 74.75 -49.97 Q80.875 -43.835 80.875 -35.22 Q80.875 -26.605 74.74 -20.48 Q68.605 -14.355 59.99 -14.355 Z"/></g><g id="Light-M" transform="matrix(1 0 0 1 1098.18 1126)"><path d="M25.789 11.27 Q20.549 11.27 17.024 7.746 Q13.5 4.221 13.5 -1.019 V-69.441 Q13.5 -74.681 17.024 -78.206 Q20.549 -81.73 25.789 -81.73 H94.211 Q99.451 -81.73 102.976 -78.206 Q106.5 -74.681 106.5 -69.441 V-1.019 Q106.5 4.221 102.976 7.746 Q99.451 11.27 94.211 11.27 H25.789 Z M25.789 0.52 H94.211 Q94.885 0.52 95.317 0.088 Q95.75 -0.345 95.75 -1.019 V-69.441 Q95.75 -70.115 95.317 -70.547 Q94.885 -70.98 94.211 -70.98 H25.789 Q25.115 -70.98 24.683 -70.547 Q24.25 -70.115 24.25 -69.441 V-1.019 Q24.25 -0.345 24.683 0.088 Q25.115 0.52 25.789 0.52 Z M59.99 -16.23 Q52.096 -16.23 46.549 -21.789 Q41 -27.346 41 -35.24 Q41 -43.134 46.559 -48.681 Q52.116 -54.23 60.01 -54.23 Q67.904 -54.23 73.451 -48.671 Q79 -43.114 79 -35.22 Q79 -27.326 73.441 -21.779 Q67.884 -16.23 59.99 -16.23 Z"/></g><g id="Thin-M" transform="matrix(1 0 0 1 802.565 1126)"><path d="M27.328 8.77 Q22.471 8.77 19.235 5.535 Q16 2.299 16 -2.557 V-67.902 Q16 -72.759 19.235 -75.995 Q22.471 -79.23 27.328 -79.23 H92.672 Q97.529 -79.23 100.765 -75.995 Q104 -72.759 104 -67.902 V-2.557 Q104 2.299 100.765 5.535 Q97.529 8.77 92.672 8.77 H27.328 Z M27.328 0.52 H92.672 Q94.019 0.52 94.885 -0.345 Q95.75 -1.211 95.75 -2.557 V-67.902 Q95.75 -69.249 94.885 -70.115 Q94.019 -70.98 92.672 -70.98 H27.328 Q25.981 -70.98 25.115 -70.115 Q24.25 -69.249 24.25 -67.902 V-2.557 Q24.25 -1.211 25.115 -0.345 Q25.981 0.52 27.328 0.52 Z M59.99 -18.105 Q52.818 -18.105 47.846 -23.086 Q42.875 -28.067 42.875 -35.24 Q42.875 -42.412 47.856 -47.384 Q52.837 -52.355 60.01 -52.355 Q67.183 -52.355 72.154 -47.374 Q77.125 -42.392 77.125 -35.22 Q77.125 -28.047 72.144 -23.076 Q67.162 -18.105 59.99 -18.105 Z"/></g><g id="Ultralight-M" transform="matrix(1 0 0 1 506.415 1126)"><path d="M28.25 7.27 Q23.625 7.27 20.562 4.208 Q17.5 1.145 17.5 -3.48 V-66.98 Q17.5 -71.605 20.562 -74.667 Q23.625 -77.73 28.25 -77.73 H91.75 Q96.375 -77.73 99.438 -74.667 Q102.5 -71.605 102.5 -66.98 V-3.48 Q102.5 1.145 99.438 4.208 Q96.375 7.27 91.75 7.27 H28.25 Z M28.25 0.52 H91.75 Q93.5 0.52 94.625 -0.605 Q95.75 -1.73 95.75 -3.48 V-66.98 Q95.75 -68.73 94.625 -69.855 Q93.5 -70.98 91.75 -70.98 H28.25 Q26.5 -70.98 25.375 -69.855 Q24.25 -68.73 24.25 -66.98 V-3.48 Q24.25 -1.73 25.375 -0.605 Q26.5 0.52 28.25 0.52 Z M59.99 -19.23 Q53.25 -19.23 48.625 -23.865 Q44 -28.5 44 -35.24 Q44 -41.98 48.635 -46.605 Q53.27 -51.23 60.01 -51.23 Q66.75 -51.23 71.375 -46.595 Q76 -41.96 76 -35.22 Q76 -28.48 71.365 -23.855 Q66.73 -19.23 59.99 -19.23 Z"/></g><g id="Bold-S" transform="matrix(1 0 0 1 2294.23 696)"><path d="M22.289 2.445 Q16.993 2.445 13.329 -1.219 Q9.665 -4.883 9.665 -10.179 V-60.281 Q9.665 -65.577 13.329 -69.241 Q16.993 -72.905 22.289 -72.905 H72.391 Q77.687 -72.905 81.351 -69.241 Q85.015 -65.577 85.015 -60.281 V-10.179 Q85.015 -4.883 81.351 -1.219 Q77.687 2.445 72.391 2.445 H22.289 Z M22.289 -10.179 H72.391 Q72.391 -10.179 72.391 -10.179 Q72.391 -10.179 72.391 -10.179 V-60.281 Q72.391 -60.281 72.391 -60.281 Q72.391 -60.281 72.391 -60.281 H22.289 Q22.289 -60.281 22.289 -60.281 Q22.289 -60.281 22.289 -60.281 V-10.179 Q22.289 -10.179 22.289 -10.179 Q22.289 -10.179 22.289 -10.179 Z M47.357 -21.916 Q41.718 -21.916 37.872 -25.745 Q34.026 -29.575 34.026 -35.213 Q34.026 -40.852 37.855 -44.698 Q41.685 -48.544 47.323 -48.544 Q52.962 -48.544 56.808 -44.715 Q60.654 -40.885 60.654 -35.247 Q60.654 -29.608 56.825 -25.762 Q52.995 -21.916 47.357 -21.916 Z"/></g><g id="Semibold-S" transform="matrix(1 0 0 1 1998.1 696)"><path d="M21.603 1.844 Q16.821 1.844 13.543 -1.433 Q10.266 -4.711 10.266 -9.493 V-60.967 Q10.266 -65.749 13.543 -69.027 Q16.821 -72.304 21.603 -72.304 H73.077 Q77.859 -72.304 81.137 -69.027 Q84.414 -65.749 84.414 -60.967 V-9.493 Q84.414 -4.711 81.137 -1.433 Q77.859 1.844 73.077 1.844 H21.603 Z M21.603 -9.493 H73.077 Q73.077 -9.493 73.077 -9.493 Q73.077 -9.493 73.077 -9.493 V-60.967 Q73.077 -60.967 73.077 -60.967 Q73.077 -60.967 73.077 -60.967 H21.603 Q21.603 -60.967 21.603 -60.967 Q21.603 -60.967 21.603 -60.967 V-9.493 Q21.603 -9.493 21.603 -9.493 Q21.603 -9.493 21.603 -9.493 Z M47.346 -21.229 Q41.461 -21.229 37.401 -25.285 Q33.339 -29.339 33.339 -35.224 Q33.339 -41.109 37.395 -45.169 Q41.449 -49.231 47.334 -49.231 Q53.219 -49.231 57.279 -45.175 Q61.341 -41.121 61.341 -35.236 Q61.341 -29.351 57.285 -25.291 Q53.231 -21.229 47.346 -21.229 Z"/></g><g id="Medium-S" transform="matrix(1 0 0 1 1701.85 696)"><path d="M21.089 1.394 Q16.693 1.394 13.704 -1.594 Q10.716 -4.583 10.716 -8.979 V-61.481 Q10.716 -65.877 13.704 -68.866 Q16.693 -71.854 21.089 -71.854 H73.591 Q77.987 -71.854 80.976 -68.866 Q83.964 -65.877 83.964 -61.481 V-8.979 Q83.964 -4.583 80.976 -1.594 Q77.987 1.394 73.591 1.394 H21.089 Z M21.089 -8.979 H73.591 Q73.591 -8.979 73.591 -8.979 Q73.591 -8.979 73.591 -8.979 V-61.481 Q73.591 -61.481 73.591 -61.481 Q73.591 -61.481 73.591 -61.481 H21.089 Q21.089 -61.481 21.089 -61.481 Q21.089 -61.481 21.089 -61.481 V-8.979 Q21.089 -8.979 21.089 -8.979 Q21.089 -8.979 21.089 -8.979 Z M47.338 -20.715 Q41.268 -20.715 37.047 -24.938 Q32.825 -29.163 32.825 -35.232 Q32.825 -41.302 37.048 -45.523 Q41.273 -49.745 47.342 -49.745 Q53.412 -49.745 57.633 -45.522 Q61.855 -41.297 61.855 -35.228 Q61.855 -29.158 57.632 -24.937 Q53.407 -20.715 47.338 -20.715 Z"/></g><g id="Regular-S" transform="matrix(1 0 0 1 1405.73 696)"><path d="M20.711 1.064 Q16.599 1.064 13.822 -1.712 Q11.046 -4.489 11.046 -8.601 V-61.859 Q11.046 -65.971 13.822 -68.748 Q16.599 -71.524 20.711 -71.524 H73.969 Q78.081 -71.524 80.858 -68.748 Q83.634 -65.971 83.634 -61.859 V-8.601 Q83.634 -4.489 80.858 -1.712 Q78.081 1.064 73.969 1.064 H20.711 Z M20.711 -8.601 H73.969 Q73.969 -8.601 73.969 -8.601 Q73.969 -8.601 73.969 -8.601 V-61.859 Q73.969 -61.859 73.969 -61.859 Q73.969 -61.859 73.969 -61.859 H20.711 Q20.711 -61.859 20.711 -61.859 Q20.711 -61.859 20.711 -61.859 V-8.601 Q20.711 -8.601 20.711 -8.601 Q20.711 -8.601 20.711 -8.601 Z M47.332 -20.338 Q41.127 -20.338 36.787 -24.685 Q32.448 -29.032 32.448 -35.238 Q32.448 -41.443 36.795 -45.783 Q41.142 -50.122 47.348 -50.122 Q53.553 -50.122 57.893 -45.775 Q62.232 -41.428 62.232 -35.222 Q62.232 -29.017 57.885 -24.677 Q53.538 -20.338 47.332 -20.338 Z"/></g><g id="Light-S" transform="matrix(1 0 0 1 1109.75 696)"><path d="M21.925 -0.908 Q18.116 -0.908 15.567 -3.457 Q13.019 -6.006 13.019 -9.815 V-60.645 Q13.019 -64.454 15.567 -67.003 Q18.116 -69.551 21.925 -69.551 H72.755 Q76.564 -69.551 79.113 -67.003 Q81.662 -64.454 81.662 -60.645 V-9.815 Q81.662 -6.006 79.113 -3.457 Q76.564 -0.908 72.755 -0.908 H21.925 Z M21.925 -8.601 H72.755 Q73.286 -8.601 73.628 -8.942 Q73.969 -9.284 73.969 -9.815 V-60.645 Q73.969 -61.176 73.628 -61.518 Q73.286 -61.859 72.755 -61.859 H21.925 Q21.394 -61.859 21.052 -61.518 Q20.711 -61.176 20.711 -60.645 V-9.815 Q20.711 -9.284 21.052 -8.942 Q21.394 -8.601 21.925 -8.601 Z M47.332 -21.817 Q41.696 -21.817 37.812 -25.71 Q33.927 -29.601 33.927 -35.238 Q33.927 -40.874 37.82 -44.758 Q41.711 -48.643 47.348 -48.643 Q52.984 -48.643 56.868 -44.75 Q60.753 -40.859 60.753 -35.222 Q60.753 -29.586 56.86 -25.702 Q52.969 -21.817 47.332 -21.817 Z"/></g><g id="Thin-S" transform="matrix(1 0 0 1 814.015 696)"><path d="M23.139 -2.881 Q19.633 -2.881 17.312 -5.202 Q14.991 -7.523 14.991 -11.029 V-59.431 Q14.991 -62.937 17.312 -65.258 Q19.633 -67.579 23.139 -67.579 H71.541 Q75.047 -67.579 77.368 -65.258 Q79.689 -62.937 79.689 -59.431 V-11.029 Q79.689 -7.523 77.368 -5.202 Q75.047 -2.881 71.541 -2.881 H23.139 Z M23.139 -8.601 H71.541 Q72.603 -8.601 73.286 -9.284 Q73.969 -9.967 73.969 -11.029 V-59.431 Q73.969 -60.493 73.286 -61.176 Q72.603 -61.859 71.541 -61.859 H23.139 Q22.077 -61.859 21.394 -61.176 Q20.711 -60.493 20.711 -59.431 V-11.029 Q20.711 -9.967 21.394 -9.284 Q22.077 -8.601 23.139 -8.601 Z M47.332 -23.296 Q42.265 -23.296 38.836 -26.733 Q35.406 -30.171 35.406 -35.238 Q35.406 -40.305 38.843 -43.734 Q42.281 -47.164 47.348 -47.164 Q52.415 -47.164 55.844 -43.727 Q59.274 -40.289 59.274 -35.222 Q59.274 -30.155 55.837 -26.726 Q52.399 -23.296 47.332 -23.296 Z"/></g><g id="Ultralight-S" transform="matrix(1 0 0 1 517.792 696)"><path d="M23.867 -4.064 Q20.544 -4.064 18.359 -6.249 Q16.175 -8.434 16.175 -11.757 V-58.703 Q16.175 -62.026 18.359 -64.211 Q20.544 -66.395 23.867 -66.395 H70.813 Q74.136 -66.395 76.321 -64.211 Q78.505 -62.026 78.505 -58.703 V-11.757 Q78.505 -8.434 76.321 -6.249 Q74.136 -4.064 70.813 -4.064 H23.867 Z M23.867 -8.601 H70.813 Q72.194 -8.601 73.081 -9.489 Q73.969 -10.376 73.969 -11.757 V-58.703 Q73.969 -60.083 73.081 -60.971 Q72.194 -61.859 70.813 -61.859 H23.867 Q22.486 -61.859 21.599 -60.971 Q20.711 -60.083 20.711 -58.703 V-11.757 Q20.711 -10.376 21.599 -9.489 Q22.486 -8.601 23.867 -8.601 Z M47.332 -24.184 Q42.606 -24.184 39.45 -27.348 Q36.294 -30.512 36.294 -35.238 Q36.294 -39.964 39.458 -43.12 Q42.622 -46.276 47.348 -46.276 Q52.074 -46.276 55.23 -43.112 Q58.386 -39.948 58.386 -35.222 Q58.386 -30.496 55.222 -27.34 Q52.058 -24.184 47.332 -24.184 Z"/></g></g></svg>