<svg xmlns="http://www.w3.org/2000/svg" version="1.1" width="3300" height="2000"><g id="Notes"><style>
    text {
      font-family: monospace;
      text-anchor: middle;
    }
    text.emphasis {
      font-weight:bold;
    }
    text.lanchor {
      text-anchor: start;
    }
  </style><rect height="2200" id="artboard" fill="white" width="3300" x="0" y="0"/><line id="" style="fill:none;stroke:black;stroke-width:0.5;" x1="263" x2="3036" y1="292" y2="292"/><text class="lanchor emphasis" transform="matrix(1 0 0 1 263 322)">Weight/Scale Variations</text><text transform="matrix(1 0 0 1 559.711 322)">Ultralight</text><text transform="matrix(1 0 0 1 856.422 322)">Thin</text><text transform="matrix(1 0 0 1 1153.13 322)">Light</text><text transform="matrix(1 0 0 1 1449.84 322)">Regular</text><text transform="matrix(1 0 0 1 1746.56 322)">Medium</text><text transform="matrix(1 0 0 1 2043.27 322)">Semibold</text><text transform="matrix(1 0 0 1 2339.98 322)">Bold</text><text transform="matrix(1 0 0 1 2636.69 322)">Heavy</text><text transform="matrix(1 0 0 1 2933.4 322)">Black</text><text id="template-version" style="text-anchor: end;" transform="matrix(1 0 0 1 3036 1933)">Template v.1.0</text><text class="lanchor" transform="matrix(1 0 0 1 263 726)">Small</text><text class="lanchor" transform="matrix(1 0 0 1 263 1156)">Medium</text><text class="lanchor" transform="matrix(1 0 0 1 263 1586)">Large</text></g><g id="Guides"><g id="H-reference" style="fill:#27AAE1;stroke:none;" transform="matrix(1 0 0 1 339 696)"><path d="M 54.9316 0 L 57.666 0 L 30.5664 -70.459 L 28.0762 -70.459 L 0.976562 0 L 3.66211 0 L 12.9395 -24.4629 L 45.7031 -24.4629 Z M 29.1992 -67.0898 L 29.4434 -67.0898 L 44.8242 -26.709 L 13.8184 -26.709 Z"/></g><line id="Baseline-S" style="fill:none;stroke:#27AAE1;opacity:1;stroke-width:0.577;" x1="263" x2="3036" y1="696" y2="696"/><line id="Capline-S" style="fill:none;stroke:#27AAE1;opacity:1;stroke-width:0.577;" x1="263" x2="3036" y1="625.541" y2="625.541"/><g id="H-reference" style="fill:#27AAE1;stroke:none;" transform="matrix(1 0 0 1 339 1126)"><path d="M 54.9316 0 L 57.666 0 L 30.5664 -70.459 L 28.0762 -70.459 L 0.976562 0 L 3.66211 0 L 12.9395 -24.4629 L 45.7031 -24.4629 Z M 29.1992 -67.0898 L 29.4434 -67.0898 L 44.8242 -26.709 L 13.8184 -26.709 Z"/></g><line id="Baseline-M" style="fill:none;stroke:#27AAE1;opacity:1;stroke-width:0.577;" x1="263" x2="3036" y1="1126" y2="1126"/><line id="Capline-M" style="fill:none;stroke:#27AAE1;opacity:1;stroke-width:0.577;" x1="263" x2="3036" y1="1055.54" y2="1055.54"/><g id="H-reference" style="fill:#27AAE1;stroke:none;" transform="matrix(1 0 0 1 339 1556)"><path d="M 54.9316 0 L 57.666 0 L 30.5664 -70.459 L 28.0762 -70.459 L 0.976562 0 L 3.66211 0 L 12.9395 -24.4629 L 45.7031 -24.4629 Z M 29.1992 -67.0898 L 29.4434 -67.0898 L 44.8242 -26.709 L 13.8184 -26.709 Z"/></g><line id="Baseline-L" style="fill:none;stroke:#27AAE1;opacity:1;stroke-width:0.577;" x1="263" x2="3036" y1="1556" y2="1556"/><line id="Capline-L" style="fill:none;stroke:#27AAE1;opacity:1;stroke-width:0.577;" x1="263" x2="3036" y1="1485.54" y2="1485.54"/><rect height="119.336" id="left-margin" style="fill:darkred;stroke:none;opacity:0.4;" width="12.4512" x="1394.06" y="1030.79"/><rect height="119.336" id="right-margin" style="fill:darkgreen;stroke:none;opacity:0.4;" width="12.4512" x="1502.5112" y="1030.79"/><rect x="1406.5112" y="1045" width="96" height="96" fill="none" stroke="blue" stroke-dasharray="5"/><rect x="1394.06" y="1030.79" width="120.9024" height="119.336" fill="none" stroke="blue"/></g><g id="Symbols"><g id="Bold-L" transform="matrix(1 0 0 1 2266 1556)"><path d="M30.879 26.045 Q24.628 26.045 20.377 21.793 Q16.125 17.542 16.125 11.291 V-81.751 Q16.125 -88.068 20.377 -92.367 Q24.628 -96.666 30.879 -96.666 H123.921 Q130.238 -96.666 134.537 -92.367 Q138.836 -88.068 138.836 -81.751 V11.291 Q138.836 17.542 134.537 21.793 Q130.238 26.045 123.921 26.045 H30.879 Z M30.879 11.291 H123.921 Q123.921 11.291 123.921 11.291 Q123.921 11.291 123.921 11.291 V-81.751 Q123.921 -81.751 123.921 -81.751 Q123.921 -81.751 123.921 -81.751 H30.879 Q30.879 -81.751 30.879 -81.751 Q30.879 -81.751 30.879 -81.751 V11.291 Q30.879 11.291 30.879 11.291 Q30.879 11.291 30.879 11.291 Z M77.427 -12.171 Q67.564 -12.171 60.953 -18.736 Q54.341 -25.302 54.341 -35.162 Q54.341 -44.986 60.906 -51.637 Q67.472 -58.289 77.332 -58.289 Q87.156 -58.289 93.807 -51.65 Q100.459 -45.011 100.459 -35.257 Q100.459 -25.394 93.82 -18.782 Q87.181 -12.171 77.427 -12.171 Z"/></g><g id="Semibold-L" transform="matrix(1 0 0 1 1970.27 1556)"><path d="M30.249 24.292 Q25.052 24.292 21.466 20.704 Q17.878 17.118 17.878 11.921 V-82.381 Q17.878 -87.615 21.466 -91.229 Q25.052 -94.844 30.249 -94.844 H124.551 Q129.785 -94.844 133.399 -91.229 Q137.014 -87.615 137.014 -82.381 V11.921 Q137.014 17.118 133.399 20.704 Q129.785 24.292 124.551 24.292 H30.249 Z M30.249 11.921 H124.551 Q124.551 11.921 124.551 11.921 Q124.551 11.921 124.551 11.921 V-82.381 Q124.551 -82.381 124.551 -82.381 Q124.551 -82.381 124.551 -82.381 H30.249 Q30.249 -82.381 30.249 -82.381 Q30.249 -82.381 30.249 -82.381 V11.921 Q30.249 11.921 30.249 11.921 Q30.249 11.921 30.249 11.921 Z M77.416 -11.541 Q67.354 -11.541 60.532 -18.328 Q53.711 -25.115 53.711 -35.174 Q53.711 -45.195 60.498 -52.058 Q67.285 -58.919 77.344 -58.919 Q87.365 -58.919 94.228 -52.058 Q101.089 -45.197 101.089 -35.246 Q101.089 -25.184 94.228 -18.362 Q87.367 -11.541 77.416 -11.541 Z"/></g><g id="Medium-L" transform="matrix(1 0 0 1 1674.31 1556)"><path d="M29.775 22.978 Q25.369 22.978 22.282 19.888 Q19.192 16.801 19.192 12.395 V-82.855 Q19.192 -87.275 22.282 -90.376 Q25.369 -93.477 29.775 -93.477 H125.025 Q129.445 -93.477 132.546 -90.376 Q135.647 -87.275 135.647 -82.855 V12.395 Q135.647 16.801 132.546 19.888 Q129.445 22.978 125.025 22.978 H29.775 Z M29.775 12.395 H125.025 Q125.025 12.395 125.025 12.395 Q125.025 12.395 125.025 12.395 V-82.855 Q125.025 -82.855 125.025 -82.855 Q125.025 -82.855 125.025 -82.855 H29.775 Q29.775 -82.855 29.775 -82.855 Q29.775 -82.855 29.775 -82.855 V12.395 Q29.775 12.395 29.775 12.395 Q29.775 12.395 29.775 12.395 Z M77.406 -11.067 Q67.196 -11.067 60.216 -18.021 Q53.237 -24.974 53.237 -35.183 Q53.237 -45.353 60.191 -52.374 Q67.144 -59.393 77.353 -59.393 Q87.523 -59.393 94.544 -52.364 Q101.563 -45.337 101.563 -35.236 Q101.563 -25.026 94.534 -18.046 Q87.507 -11.067 77.406 -11.067 Z"/></g><g id="Regular-L" transform="matrix(1 0 0 1 1378.56 1556)"><path d="M29.428 22.014 Q25.603 22.014 22.88 19.29 Q20.156 16.567 20.156 12.742 V-83.202 Q20.156 -87.027 22.88 -89.75 Q25.603 -92.474 29.428 -92.474 H125.372 Q129.197 -92.474 131.92 -89.75 Q134.644 -87.027 134.644 -83.202 V12.742 Q134.644 16.567 131.92 19.29 Q129.197 22.014 125.372 22.014 H29.428 Z M29.428 12.742 H125.372 Q125.372 12.742 125.372 12.742 Q125.372 12.742 125.372 12.742 V-83.202 Q125.372 -83.202 125.372 -83.202 Q125.372 -83.202 125.372 -83.202 H29.428 Q29.428 -83.202 29.428 -83.202 Q29.428 -83.202 29.428 -83.202 V12.742 Q29.428 12.742 29.428 12.742 Q29.428 12.742 29.428 12.742 Z M77.4 -10.72 Q67.08 -10.72 59.985 -17.796 Q52.89 -24.871 52.89 -35.19 Q52.89 -45.469 59.966 -52.605 Q67.041 -59.74 77.36 -59.74 Q87.639 -59.74 94.775 -52.59 Q101.91 -45.44 101.91 -35.23 Q101.91 -24.91 94.76 -17.815 Q87.61 -10.72 77.4 -10.72 Z"/></g><g id="Light-L" transform="matrix(1 0 0 1 1082.77 1556)"><path d="M32.126 19.098 Q28.424 19.098 25.747 16.423 Q23.072 13.746 23.072 10.044 V-80.504 Q23.072 -84.206 25.747 -86.883 Q28.424 -89.558 32.126 -89.558 H122.674 Q126.376 -89.558 129.053 -86.883 Q131.728 -84.206 131.728 -80.504 V10.044 Q131.728 13.746 129.053 16.423 Q126.376 19.098 122.674 19.098 H32.126 Z M32.126 12.029 H122.674 Q123.542 12.029 124.1 11.47 Q124.659 10.912 124.659 10.044 V-80.504 Q124.659 -81.372 124.1 -81.93 Q123.542 -82.489 122.674 -82.489 H32.126 Q31.258 -82.489 30.7 -81.93 Q30.141 -81.372 30.141 -80.504 V10.044 Q30.141 10.912 30.7 11.47 Q31.258 12.029 32.126 12.029 Z M77.416 -12.766 Q67.98 -12.766 61.459 -19.269 Q54.936 -25.771 54.936 -35.206 Q54.936 -44.6 61.439 -51.194 Q67.941 -57.786 77.376 -57.786 Q86.77 -57.786 93.364 -51.179 Q99.956 -44.571 99.956 -35.246 Q99.956 -25.81 93.349 -19.289 Q86.741 -12.766 77.416 -12.766 Z"/></g><g id="Thin-L" transform="matrix(1 0 0 1 787.282 1556)"><path d="M34.824 16.185 Q31.244 16.185 28.615 13.555 Q25.985 10.926 25.985 7.346 V-77.806 Q25.985 -81.386 28.615 -84.015 Q31.244 -86.645 34.824 -86.645 H119.976 Q123.556 -86.645 126.185 -84.015 Q128.815 -81.386 128.815 -77.806 V7.346 Q128.815 10.926 126.185 13.555 Q123.556 16.185 119.976 16.185 H34.824 Z M34.824 11.315 H119.976 Q121.713 11.315 122.829 10.199 Q123.945 9.083 123.945 7.346 V-77.806 Q123.945 -79.543 122.829 -80.659 Q121.713 -81.775 119.976 -81.775 H34.824 Q33.087 -81.775 31.971 -80.659 Q30.855 -79.543 30.855 -77.806 V7.346 Q30.855 9.083 31.971 10.199 Q33.087 11.315 34.824 11.315 Z M77.431 -14.813 Q68.878 -14.813 62.931 -20.742 Q56.983 -26.671 56.983 -35.22 Q56.983 -43.733 62.912 -49.783 Q68.841 -55.833 77.39 -55.833 Q85.903 -55.833 91.953 -49.768 Q98.003 -43.704 98.003 -35.261 Q98.003 -26.708 91.938 -20.761 Q85.874 -14.813 77.431 -14.813 Z"/></g><g id="Ultralight-L" transform="matrix(1 0 0 1 491.205 1556)"><path d="M36.443 14.435 Q32.935 14.435 30.336 11.834 Q27.735 9.235 27.735 5.728 V-76.187 Q27.735 -79.695 30.336 -82.296 Q32.935 -84.895 36.443 -84.895 H118.358 Q121.865 -84.895 124.466 -82.296 Q127.065 -79.695 127.065 -76.187 V5.728 Q127.065 9.235 124.466 11.834 Q121.865 14.435 118.358 14.435 H36.443 Z M36.443 10.888 H118.358 Q120.615 10.888 122.066 9.436 Q123.517 7.985 123.517 5.728 V-76.187 Q123.517 -78.445 122.066 -79.896 Q120.615 -81.347 118.358 -81.347 H36.443 Q34.185 -81.347 32.734 -79.896 Q31.283 -78.445 31.283 -76.187 V5.728 Q31.283 7.985 32.734 9.436 Q34.185 10.888 36.443 10.888 Z M77.44 -16.041 Q69.418 -16.041 63.815 -21.625 Q58.211 -27.209 58.211 -35.23 Q58.211 -43.212 63.795 -48.936 Q69.379 -54.661 77.4 -54.661 Q85.382 -54.661 91.106 -48.922 Q96.831 -43.183 96.831 -35.27 Q96.831 -27.248 91.092 -21.645 Q85.353 -16.041 77.44 -16.041 Z"/></g><g id="Bold-M" transform="matrix(1 0 0 1 2281.8 1126)"><path d="M27.125 12.77 Q20.758 12.77 16.379 8.391 Q12 4.013 12 -2.355 V-68.105 Q12 -74.472 16.379 -78.851 Q20.758 -83.23 27.125 -83.23 H92.875 Q99.243 -83.23 103.621 -78.851 Q108 -74.472 108 -68.105 V-2.355 Q108 4.013 103.621 8.391 Q99.243 12.77 92.875 12.77 H27.125 Z M27.125 -2.355 H92.875 Q92.875 -2.355 92.875 -2.355 Q92.875 -2.355 92.875 -2.355 V-68.105 Q92.875 -68.105 92.875 -68.105 Q92.875 -68.105 92.875 -68.105 H27.125 Q27.125 -68.105 27.125 -68.105 Q27.125 -68.105 27.125 -68.105 V-2.355 Q27.125 -2.355 27.125 -2.355 Q27.125 -2.355 27.125 -2.355 Z M60 -17.48 Q52.5 -17.48 47.375 -22.605 Q42.25 -27.73 42.25 -35.199 Q42.25 -42.667 47.375 -47.792 Q52.5 -52.917 59.969 -52.917 Q67.438 -52.917 72.562 -47.781 Q77.688 -42.645 77.688 -35.23 Q77.688 -27.73 72.551 -22.605 Q67.415 -17.48 60 -17.48 Z"/></g><g id="Semibold-M" transform="matrix(1 0 0 1 1985.97 1126)"><path d="M26.473 10.923 Q21.192 10.923 17.52 7.25 Q13.848 3.578 13.848 -1.702 V-68.757 Q13.848 -74.037 17.52 -77.71 Q21.192 -81.382 26.473 -81.382 H93.528 Q98.808 -81.382 102.48 -77.71 Q106.153 -74.037 106.153 -68.757 V-1.702 Q106.153 3.578 102.48 7.25 Q98.808 10.923 93.528 10.923 H26.473 Z M26.473 -1.702 H93.528 Q93.528 -1.702 93.528 -1.702 Q93.528 -1.702 93.528 -1.702 V-68.757 Q93.528 -68.757 93.528 -68.757 Q93.528 -68.757 93.528 -68.757 H26.473 Q26.473 -68.757 26.473 -68.757 Q26.473 -68.757 26.473 -68.757 V-1.702 Q26.473 -1.702 26.473 -1.702 Q26.473 -1.702 26.473 -1.702 Z M60 -16.827 Q52.282 -16.827 46.94 -22.17 Q41.597 -27.512 41.597 -35.199 Q41.597 -42.885 46.94 -48.227 Q52.282 -53.57 59.969 -53.57 Q67.655 -53.57 72.998 -48.216 Q78.34 -42.862 78.34 -35.23 Q78.34 -27.512 72.986 -22.17 Q67.632 -16.827 60 -16.827 Z"/></g><g id="Medium-M" transform="matrix(1 0 0 1 1689.91 1126)"><path d="M25.984 9.536 Q21.519 9.536 18.376 6.394 Q15.234 3.251 15.234 -1.214 V-69.246 Q15.234 -73.711 18.376 -76.854 Q21.519 -79.996 25.984 -79.996 H94.016 Q98.481 -79.996 101.624 -76.854 Q104.766 -73.711 104.766 -69.246 V-1.214 Q104.766 3.251 101.624 6.394 Q98.481 9.536 94.016 9.536 H25.984 Z M25.984 -1.214 H94.016 Q94.016 -1.214 94.016 -1.214 Q94.016 -1.214 94.016 -1.214 V-69.246 Q94.016 -69.246 94.016 -69.246 Q94.016 -69.246 94.016 -69.246 H25.984 Q25.984 -69.246 25.984 -69.246 Q25.984 -69.246 25.984 -69.246 V-1.214 Q25.984 -1.214 25.984 -1.214 Q25.984 -1.214 25.984 -1.214 Z M60 -16.339 Q52.12 -16.339 46.614 -21.844 Q41.109 -27.35 41.109 -35.199 Q41.109 -43.047 46.614 -48.554 Q52.12 -54.059 59.969 -54.059 Q67.817 -54.059 73.324 -48.542 Q78.829 -43.025 78.829 -35.23 Q78.829 -27.35 73.312 -21.844 Q67.795 -16.339 60 -16.339 Z"/></g><g id="Regular-M" transform="matrix(1 0 0 1 1394.06 1126)"><path d="M25.625 8.52 Q21.758 8.52 19.004 5.766 Q16.25 3.013 16.25 -0.855 V-69.605 Q16.25 -73.472 19.004 -76.226 Q21.758 -78.98 25.625 -78.98 H94.375 Q98.243 -78.98 100.996 -76.226 Q103.75 -73.472 103.75 -69.605 V-0.855 Q103.75 3.013 100.996 5.766 Q98.243 8.52 94.375 8.52 H25.625 Z M25.625 -0.855 H94.375 Q94.375 -0.855 94.375 -0.855 Q94.375 -0.855 94.375 -0.855 V-69.605 Q94.375 -69.605 94.375 -69.605 Q94.375 -69.605 94.375 -69.605 H25.625 Q25.625 -69.605 25.625 -69.605 Q25.625 -69.605 25.625 -69.605 V-0.855 Q25.625 -0.855 25.625 -0.855 Q25.625 -0.855 25.625 -0.855 Z M60 -15.98 Q52 -15.98 46.375 -21.605 Q40.75 -27.23 40.75 -35.199 Q40.75 -43.167 46.375 -48.792 Q52 -54.417 59.969 -54.417 Q67.938 -54.417 73.562 -48.781 Q79.188 -43.145 79.188 -35.23 Q79.188 -27.23 73.551 -21.605 Q67.915 -15.98 60 -15.98 Z"/></g><g id="Light-M" transform="matrix(1 0 0 1 1098.18 1126)"><path d="M27.044 6.26 Q23.511 6.26 21.01 3.76 Q18.51 1.259 18.51 -2.274 V-68.186 Q18.51 -71.719 21.01 -74.22 Q23.511 -76.72 27.044 -76.72 H92.956 Q96.489 -76.72 98.99 -74.22 Q101.49 -71.719 101.49 -68.186 V-2.274 Q101.49 1.259 98.99 3.76 Q96.489 6.26 92.956 6.26 H27.044 Z M27.044 -0.735 H92.956 Q93.63 -0.735 94.062 -1.167 Q94.495 -1.6 94.495 -2.274 V-68.186 Q94.495 -68.86 94.062 -69.292 Q93.63 -69.725 92.956 -69.725 H27.044 Q26.37 -69.725 25.938 -69.292 Q25.505 -68.86 25.505 -68.186 V-2.274 Q25.505 -1.6 25.938 -1.167 Q26.37 -0.735 27.044 -0.735 Z M60.013 -17.711 Q52.697 -17.711 47.589 -22.819 Q42.481 -27.927 42.481 -35.211 Q42.481 -42.494 47.589 -47.602 Q52.697 -52.711 59.981 -52.711 Q67.264 -52.711 72.373 -47.591 Q77.481 -42.471 77.481 -35.242 Q77.481 -27.927 72.361 -22.819 Q67.241 -17.711 60.013 -17.711 Z"/></g><g id="Thin-M" transform="matrix(1 0 0 1 802.565 1126)"><path d="M28.461 4.001 Q25.265 4.001 23.016 1.754 Q20.769 -0.495 20.769 -3.691 V-66.769 Q20.769 -69.965 23.016 -72.214 Q25.265 -74.461 28.461 -74.461 H91.539 Q94.735 -74.461 96.984 -72.214 Q99.231 -69.965 99.231 -66.769 V-3.691 Q99.231 -0.495 96.984 1.754 Q94.735 4.001 91.539 4.001 H28.461 Z M28.461 -0.615 H91.539 Q92.885 -0.615 93.75 -1.48 Q94.615 -2.345 94.615 -3.691 V-66.769 Q94.615 -68.115 93.75 -68.98 Q92.885 -69.845 91.539 -69.845 H28.461 Q27.115 -69.845 26.25 -68.98 Q25.385 -68.115 25.385 -66.769 V-3.691 Q25.385 -2.345 26.25 -1.48 Q27.115 -0.615 28.461 -0.615 Z M60.024 -19.441 Q53.394 -19.441 48.803 -24.032 Q44.211 -28.624 44.211 -35.222 Q44.211 -41.821 48.803 -46.412 Q53.394 -51.004 59.992 -51.004 Q66.591 -51.004 71.183 -46.401 Q75.774 -41.799 75.774 -35.254 Q75.774 -28.624 71.171 -24.032 Q66.569 -19.441 60.024 -19.441 Z"/></g><g id="Ultralight-M" transform="matrix(1 0 0 1 506.415 1126)"><path d="M29.312 2.645 Q26.316 2.645 24.221 0.549 Q22.125 -1.546 22.125 -4.542 V-65.917 Q22.125 -68.914 24.221 -71.009 Q26.316 -73.105 29.312 -73.105 H90.688 Q93.684 -73.105 95.779 -71.009 Q97.875 -68.914 97.875 -65.917 V-4.542 Q97.875 -1.546 95.779 0.549 Q93.684 2.645 90.688 2.645 H29.312 Z M29.312 -0.542 H90.688 Q92.438 -0.542 93.562 -1.667 Q94.688 -2.792 94.688 -4.542 V-65.917 Q94.688 -67.667 93.562 -68.792 Q92.438 -69.917 90.688 -69.917 H29.312 Q27.562 -69.917 26.438 -68.792 Q25.312 -67.667 25.312 -65.917 V-4.542 Q25.312 -2.792 26.438 -1.667 Q27.562 -0.542 29.312 -0.542 Z M60.031 -20.48 Q53.812 -20.48 49.531 -24.761 Q45.25 -29.042 45.25 -35.23 Q45.25 -41.417 49.531 -45.699 Q53.812 -49.98 60 -49.98 Q66.188 -49.98 70.469 -45.687 Q74.75 -41.395 74.75 -35.261 Q74.75 -29.042 70.457 -24.761 Q66.165 -20.48 60.031 -20.48 Z"/></g><g id="Bold-S" transform="matrix(1 0 0 1 2294.23 696)"><path d="M22.98 0.275 Q18.281 0.275 15.058 -2.948 Q11.835 -6.171 11.835 -10.87 V-59.59 Q11.835 -64.289 15.058 -67.512 Q18.281 -70.735 22.98 -70.735 H71.7 Q76.399 -70.735 79.622 -67.512 Q82.845 -64.289 82.845 -59.59 V-10.87 Q82.845 -6.171 79.622 -2.948 Q76.399 0.275 71.7 0.275 H22.98 Z M22.98 -10.87 H71.7 Q71.7 -10.87 71.7 -10.87 Q71.7 -10.87 71.7 -10.87 V-59.59 Q71.7 -59.59 71.7 -59.59 Q71.7 -59.59 71.7 -59.59 H22.98 Q22.98 -59.59 22.98 -59.59 Q22.98 -59.59 22.98 -59.59 V-10.87 Q22.98 -10.87 22.98 -10.87 Q22.98 -10.87 22.98 -10.87 Z M47.34 -22.803 Q42.014 -22.803 38.464 -26.354 Q34.913 -29.904 34.913 -35.205 Q34.913 -40.506 38.464 -44.057 Q42.014 -47.607 47.315 -47.607 Q52.616 -47.607 56.167 -44.048 Q59.717 -40.489 59.717 -35.23 Q59.717 -29.904 56.158 -26.354 Q52.599 -22.803 47.34 -22.803 Z"/></g><g id="Semibold-S" transform="matrix(1 0 0 1 1998.1 696)"><path d="M22.465 -1.183 Q18.624 -1.183 15.959 -3.849 Q13.293 -6.514 13.293 -10.355 V-60.105 Q13.293 -63.946 15.959 -66.611 Q18.624 -69.277 22.465 -69.277 H72.215 Q76.056 -69.277 78.721 -66.611 Q81.387 -63.946 81.387 -60.105 V-10.355 Q81.387 -6.514 78.721 -3.849 Q76.056 -1.183 72.215 -1.183 H22.465 Z M22.465 -10.355 H72.215 Q72.215 -10.355 72.215 -10.355 Q72.215 -10.355 72.215 -10.355 V-60.105 Q72.215 -60.105 72.215 -60.105 Q72.215 -60.105 72.215 -60.105 H22.465 Q22.465 -60.105 22.465 -60.105 Q22.465 -60.105 22.465 -60.105 V-10.355 Q22.465 -10.355 22.465 -10.355 Q22.465 -10.355 22.465 -10.355 Z M47.34 -22.288 Q41.843 -22.288 38.121 -26.011 Q34.398 -29.733 34.398 -35.205 Q34.398 -40.678 38.121 -44.4 Q41.843 -48.122 47.315 -48.122 Q52.788 -48.122 56.51 -44.391 Q60.232 -40.66 60.232 -35.23 Q60.232 -29.733 56.501 -26.011 Q52.77 -22.288 47.34 -22.288 Z"/></g><g id="Medium-S" transform="matrix(1 0 0 1 1701.85 696)"><path d="M22.079 -2.276 Q18.882 -2.276 16.634 -4.524 Q14.386 -6.772 14.386 -9.969 V-60.491 Q14.386 -63.688 16.634 -65.936 Q18.882 -68.184 22.079 -68.184 H72.601 Q75.798 -68.184 78.046 -65.936 Q80.294 -63.688 80.294 -60.491 V-9.969 Q80.294 -6.772 78.046 -4.524 Q75.798 -2.276 72.601 -2.276 H22.079 Z M22.079 -9.969 H72.601 Q72.601 -9.969 72.601 -9.969 Q72.601 -9.969 72.601 -9.969 V-60.491 Q72.601 -60.491 72.601 -60.491 Q72.601 -60.491 72.601 -60.491 H22.079 Q22.079 -60.491 22.079 -60.491 Q22.079 -60.491 22.079 -60.491 V-9.969 Q22.079 -9.969 22.079 -9.969 Q22.079 -9.969 22.079 -9.969 Z M47.34 -21.903 Q41.714 -21.903 37.863 -25.753 Q34.013 -29.604 34.013 -35.205 Q34.013 -40.806 37.863 -44.658 Q41.714 -48.508 47.315 -48.508 Q52.916 -48.508 56.768 -44.649 Q60.618 -40.789 60.618 -35.23 Q60.618 -29.604 56.759 -25.753 Q52.899 -21.903 47.34 -21.903 Z"/></g><g id="Regular-S" transform="matrix(1 0 0 1 1405.73 696)"><path d="M21.796 -3.078 Q19.07 -3.078 17.129 -5.019 Q15.188 -6.96 15.188 -9.686 V-60.774 Q15.188 -63.5 17.129 -65.441 Q19.07 -67.382 21.796 -67.382 H72.884 Q75.61 -67.382 77.551 -65.441 Q79.492 -63.5 79.492 -60.774 V-9.686 Q79.492 -6.96 77.551 -5.019 Q75.61 -3.078 72.884 -3.078 H21.796 Z M21.796 -9.686 H72.884 Q72.884 -9.686 72.884 -9.686 Q72.884 -9.686 72.884 -9.686 V-60.774 Q72.884 -60.774 72.884 -60.774 Q72.884 -60.774 72.884 -60.774 H21.796 Q21.796 -60.774 21.796 -60.774 Q21.796 -60.774 21.796 -60.774 V-9.686 Q21.796 -9.686 21.796 -9.686 Q21.796 -9.686 21.796 -9.686 Z M47.34 -21.62 Q41.62 -21.62 37.675 -25.565 Q33.73 -29.51 33.73 -35.205 Q33.73 -40.901 37.675 -44.846 Q41.62 -48.791 47.315 -48.791 Q53.011 -48.791 56.956 -44.837 Q60.901 -40.883 60.901 -35.23 Q60.901 -29.51 56.947 -25.565 Q52.993 -21.62 47.34 -21.62 Z"/></g><g id="Light-S" transform="matrix(1 0 0 1 1109.75 696)"><path d="M22.916 -4.861 Q20.454 -4.861 18.712 -6.602 Q16.971 -8.344 16.971 -10.806 V-59.654 Q16.971 -62.116 18.712 -63.858 Q20.454 -65.599 22.916 -65.599 H71.764 Q74.226 -65.599 75.968 -63.858 Q77.709 -62.116 77.709 -59.654 V-10.806 Q77.709 -8.344 75.968 -6.602 Q74.226 -4.861 71.764 -4.861 H22.916 Z M22.916 -9.591 H71.764 Q72.296 -9.591 72.637 -9.933 Q72.979 -10.274 72.979 -10.806 V-59.654 Q72.979 -60.186 72.637 -60.527 Q72.296 -60.869 71.764 -60.869 H22.916 Q22.384 -60.869 22.043 -60.527 Q21.701 -60.186 21.701 -59.654 V-10.806 Q21.701 -10.274 22.043 -9.933 Q22.384 -9.591 22.916 -9.591 Z M47.35 -22.986 Q42.17 -22.986 38.632 -26.522 Q35.096 -30.06 35.096 -35.215 Q35.096 -40.369 38.632 -43.907 Q42.17 -47.445 47.325 -47.445 Q52.479 -47.445 56.017 -43.898 Q59.555 -40.352 59.555 -35.24 Q59.555 -30.06 56.008 -26.522 Q52.462 -22.986 47.35 -22.986 Z"/></g><g id="Thin-S" transform="matrix(1 0 0 1 814.015 696)"><path d="M24.034 -6.644 Q21.838 -6.644 20.295 -8.185 Q18.754 -9.728 18.754 -11.924 V-58.536 Q18.754 -60.732 20.295 -62.275 Q21.838 -63.816 24.034 -63.816 H70.646 Q72.842 -63.816 74.385 -62.275 Q75.926 -60.732 75.926 -58.536 V-11.924 Q75.926 -9.728 74.385 -8.185 Q72.842 -6.644 70.646 -6.644 H24.034 Z M24.034 -9.497 H70.646 Q71.708 -9.497 72.391 -10.179 Q73.073 -10.862 73.073 -11.924 V-58.536 Q73.073 -59.598 72.391 -60.281 Q71.708 -60.963 70.646 -60.963 H24.034 Q22.972 -60.963 22.289 -60.281 Q21.607 -59.598 21.607 -58.536 V-11.924 Q21.607 -10.862 22.289 -10.179 Q22.972 -9.497 24.034 -9.497 Z M47.359 -24.351 Q42.719 -24.351 39.59 -27.48 Q36.461 -30.609 36.461 -35.224 Q36.461 -39.839 39.59 -42.968 Q42.719 -46.097 47.334 -46.097 Q51.949 -46.097 55.078 -42.959 Q58.207 -39.821 58.207 -35.249 Q58.207 -30.609 55.069 -27.48 Q51.931 -24.351 47.359 -24.351 Z"/></g><g id="Ultralight-S" transform="matrix(1 0 0 1 517.792 696)"><path d="M24.706 -7.714 Q22.667 -7.714 21.246 -9.136 Q19.824 -10.557 19.824 -12.596 V-57.864 Q19.824 -59.903 21.246 -61.324 Q22.667 -62.746 24.706 -62.746 H69.974 Q72.013 -62.746 73.434 -61.324 Q74.856 -59.903 74.856 -57.864 V-12.596 Q74.856 -10.557 73.434 -9.136 Q72.013 -7.714 69.974 -7.714 H24.706 Z M24.706 -9.44 H69.974 Q71.355 -9.44 72.243 -10.327 Q73.13 -11.215 73.13 -12.596 V-57.864 Q73.13 -59.245 72.243 -60.133 Q71.355 -61.02 69.974 -61.02 H24.706 Q23.325 -61.02 22.437 -60.133 Q21.55 -59.245 21.55 -57.864 V-12.596 Q21.55 -11.215 22.437 -10.327 Q23.325 -9.44 24.706 -9.44 Z M47.365 -25.17 Q43.05 -25.17 40.165 -28.055 Q37.28 -30.94 37.28 -35.23 Q37.28 -39.52 40.165 -42.405 Q43.05 -45.29 47.34 -45.29 Q51.63 -45.29 54.515 -42.396 Q57.4 -39.502 57.4 -35.255 Q57.4 -30.94 54.506 -28.055 Q51.612 -25.17 47.365 -25.17 Z"/></g></g></svg>