<svg xmlns="http://www.w3.org/2000/svg" height="20" viewBox="0 -960 960 960" width="20"><path d="M358.65-263.78q-53.69 59.69-120.52 57.69t-115.09-39.69q-48.26-37.7-64.95-100.52-16.7-62.83 24.56-130.22l60.18-97.35q-18.87-23.56-28.81-51.35-9.93-27.78-9.93-58.78 0-72.39 49.76-122.15 49.76-49.76 122.15-49.76 72.39 0 122.44 49.76 50.04 49.76 50.04 122.15 0 72.39-50.04 122.44-50.05 50.04-122.44 50.04-8.3 0-16.46-1.5-8.15-1.5-18.02-3.94l-61.61 99.48q-16.3 24.61-8.43 47.28 7.87 22.68 26.17 35.98 17.74 13.31 40.42 13.02 22.67-.28 40.28-22.02l323.56-352q54.26-59.26 120.16-58.76 65.89.5 113.58 38.76 48.26 38.26 65.55 100.81 17.28 62.54-23.85 131.37l-59.61 97.91q18.87 23.56 28.52 50.85 9.65 27.28 9.65 58.28 0 72.39-49.76 122.15-49.76 49.76-122.15 49.76-72.39 0-122.44-49.76-50.04-49.76-50.04-122.15 0-72.39 50.04-122.44 50.05-50.04 122.44-50.04 8.87 0 17.02 1.5t18.02 3.94l61.18-98.92q15.3-24.61 8.08-47.06-7.21-22.46-25.52-36.2-18.3-14.3-41.41-13.02-23.11 1.28-39.72 23.02l-323 351.44Z"/></svg>