<svg xmlns="http://www.w3.org/2000/svg" height="24" viewBox="0 -960 960 960" width="24"><path d="M294.39-246.37q-48.72 42.72-102.91 38.22-54.2-4.5-93.15-37.22-38.96-32.72-52.18-85.91-13.22-53.2 19.74-108.63l72.81-121.61q-25.53-25.24-39.79-58.86Q84.65-654 84.65-692q0-76.43 53.46-129.89 53.46-53.46 129.89-53.46 76.43 0 130.01 53.46 53.58 53.46 53.58 129.89 0 76.43-53.58 130.01-53.58 53.58-130.01 53.58-7.28 0-14.42-.5-7.15-.5-14.67-2.26l-76.56 129.08q-9.28 14.57-5.26 28.87 4.02 14.31 14.3 22.59 10.04 8.28 23.85 9.66 13.8 1.38 26.37-9.66l444.24-383q48.95-41.96 102.89-37.96 53.93 4 92.65 36.96 38.96 32.96 52.58 86.03 13.62 53.08-19.86 109.27l-72.57 121.85q25.53 25.24 39.67 58.36Q875.35-306 875.35-268q0 76.43-53.46 129.89Q768.43-84.65 692-84.65q-76.43 0-130.01-53.46-53.58-53.46-53.58-129.89 0-76.43 53.58-130.01 53.58-53.58 130.01-53.58 7.52 0 14.16.5 6.64.5 14.17 2.26l76.8-128.84q8.28-14.57 5.4-27.99-2.88-13.43-13.16-22.47-10.28-9.28-24.35-10.16-14.06-.88-26.63 10.16l-444 381.76Z"/></svg>