<svg xmlns="http://www.w3.org/2000/svg" height="48" viewBox="0 -960 960 960" width="48"><path d="M286.38-287.38q-37 31.61-77.11 28.5-40.12-3.12-67.35-28.5-28.23-24.39-37.3-61.7-9.08-37.3 15.3-78.61l81.23-135.46q-26.46-20.01-41.69-49.16-15.23-29.15-15.23-63.27 0-58.02 41.29-99.34 41.29-41.31 100.4-41.31 58.3 0 99.61 41.31 41.32 41.32 41.32 99.61 0 58.3-41.32 99.61-41.31 41.32-99.61 41.32-12.77 0-24.78-1.77-12-1.77-22.23-7.31l-82.37 138.15q-15.54 24.67-8.71 48.79 6.83 24.12 23.72 37.52 16.88 13.4 40.5 16.32 23.61 2.91 46.57-16.4l415.76-353.77q35.31-31.61 75.07-29.1 39.75 2.5 68.72 26.3 27.1 25.35 37.58 63.69 10.48 38.34-13.9 79.42l-80.77 135.46q25.46 20.7 40.3 49.33 14.85 28.63 14.85 62.83 0 58.29-41.7 99.61Q732.82-144 674.47-144q-58.98 0-99.53-41.71-40.56-41.72-40.56-99.58 0-57.87 40.73-99.21 40.72-41.35 99.2-41.35 11 0 23.58 1.66 12.57 1.65 23.11 6.19l82.46-136.92Q818-580 812.53-603.37q-5.47-23.37-22.81-37.35-17.34-13.97-41.03-16.74-23.69-2.77-46.54 16.31L286.38-287.38Zm387.8 99.61q40.4 0 69.34-28.65 28.94-28.65 28.94-68.88 0-40.22-28.85-68.5-28.86-28.28-69.38-28.28-40.52 0-68.3 28.32-27.78 28.31-27.78 68.83 0 39.84 27.5 68.5 27.5 28.66 68.53 28.66ZM285.91-578.15q39.85 0 68.51-28.66 28.66-28.65 28.66-68.87 0-40.23-28.65-68.51-28.66-28.27-68.88-28.27-40.23 0-68.89 28.31Q188-715.83 188-675.32q0 39.84 28.54 68.51 28.54 28.66 69.37 28.66Zm389.4 293.23ZM285.92-675.31Z"/></svg>