<svg xmlns="http://www.w3.org/2000/svg" height="20" viewBox="0 -960 960 960" width="20"><path d="M358.35-308.92q-41.62 47.42-92.99 46.77-51.36-.66-89.09-29.16-37.73-28.5-50.23-76.27-12.5-47.77 19.31-99.34l65.23-104.89q-18-17.46-28.25-40.15-10.25-22.69-10.25-49.04 0-53.73 36.59-90.33 36.6-36.59 90.29-36.59 53.69 0 90.29 36.59 36.6 36.6 36.6 90.29 0 53.69-36.6 90.29-36.6 36.6-90.29 36.6-12.34 0-24.5-2.64-12.15-2.63-24.61-6.79L185.5-441.73q-20.73 33-11.29 63 9.45 30 33.96 48.52 24.32 18.72 55.33 18.93 31.01.2 57.35-27.91l281.38-311.19q40.96-47.43 91.13-47.66 50.18-.23 87.88 28.35 37.71 28.58 51.6 76.21 13.89 47.63-18.03 100.68l-65.2 104.99q17.81 17.77 28.06 40.23 10.25 22.46 10.25 49.01 0 53.3-36.87 89.9-36.88 36.59-90.29 36.59-53.41 0-90.01-36.75-36.6-36.75-36.6-90.08 0-53.05 36.68-89.99 36.68-36.95 89.82-36.95 12.83 0 25.13 2.78 12.3 2.78 24.95 6.84l63.46-102.04q20.54-33 11.28-63.48-9.27-30.48-33.56-49.13-24.29-18.66-55.91-18.45-31.62.21-56.77 28.33L358.35-308.92Zm302.47 88.88q32.82 0 55.98-23.04 23.16-23.05 23.16-55.79 0-33.17-23.37-56.09-23.37-22.93-56.19-22.93-32.82 0-55.55 23.14-22.74 23.14-22.74 56.15 0 33.02 22.95 55.79 22.94 22.77 55.76 22.77ZM299.17-582.11q32.87 0 55.79-23.14 22.93-23.14 22.93-56 0-32.87-23.14-55.79t-56-22.92q-32.87 0-55.79 23.13-22.92 23.14-22.92 56 0 32.87 23.13 55.79 23.14 22.93 56 22.93Zm361.87 283.15ZM298.96-661.04Z"/></svg>