<svg xmlns="http://www.w3.org/2000/svg" height="24" viewBox="0 -960 960 960" width="24"><path d="M303.02-262.43q-44.95 38.45-94.57 34.64-49.62-3.82-86.3-33.64-36.67-29.83-49.62-79.2Q59.59-390 90.48-441.09l71.11-117.34q-22.87-22.7-36.84-53.88-13.97-31.18-13.97-66.65 0-71.28 49.49-120.77 49.49-49.49 120.77-49.49 71.29 0 120.78 49.49 49.48 49.49 49.48 120.77 0 71.29-49.48 120.78-49.49 49.48-120.78 49.48-7.88 0-15.76-.96-7.88-.97-15.08-2.4l-73.18 122.97q-8.74 14.55-5.43 28.42 3.3 13.87 14.04 22.59 10.74 8.72 24.65 9.91 13.9 1.19 26.78-9.98L657.54-697.5q46.09-39.59 95.96-35.27 49.87 4.31 85.76 34.7 35.89 30.4 47.99 79.23 12.1 48.84-18.23 100.43L798.98-401q22.87 23.2 36.55 53.97 13.69 30.77 13.69 66.5 0 70.77-49.49 120.26-49.49 49.49-120.77 49.49-71.29 0-120.78-49.49-49.48-49.49-49.48-120.52 0-71.04 49.48-120.78 49.49-49.73 120.78-49.73 8 0 15.55.96 7.56.97 14.86 2.4l73.67-122.41q8.74-14.54 4.85-28.37-3.9-13.82-14.64-22.56-10.75-8.74-24.62-9.68-13.88-.93-26.19 9.68L303.02-262.43ZM444.94-445.8q29.05 0 49.16-19.96 20.1-19.96 20.1-48.8 0-29.54-20.1-49.65-20.11-20.11-49.16-20.11-29.04 0-49.15 20.11t-20.11 49.4q0 29.3 20.11 49.16 20.11 19.85 49.15 19.85Zm70.12 70.12q29.04 0 49.15-20.11t20.11-49.15q0-29.05-20.11-49.16-20.11-20.1-49.15-20.1-29.05 0-49.16 20.1-20.1 20.11-20.1 49.16 0 29.04 20.1 49.15 20.11 20.11 49.16 20.11Zm-70.12-139.38Zm70.12 70.12Z"/></svg>