<svg xmlns="http://www.w3.org/2000/svg" height="24" viewBox="0 -960 960 960" width="24"><path d="M294-304q-32.21 27-67.11 24Q192-283 167-304t-33.5-55q-8.5-34 12.5-69l79-131q-24-17-38.5-44.2Q172-630.41 172-662q0-53 36.5-89.5T298-788q53 0 89.5 36.5T424-662q0 53-36.5 89.5T298-536q-13 0-25-2t-23-7l-80 132q-15 25-9 49t24.03 38.96q18.03 14.96 43 17Q253-306 276-325l391-331q31-27 65-24.5t60.24 23.45q26.24 20.95 35.5 55Q837-568 815-532l-80 132q24 17 38.5 43.5T788-298q0 53-37.23 89.5-37.22 36.5-89.5 36.5-52.27 0-88.77-37.02-36.5-37.02-36.5-89T572.72-387q36.72-37 88.28-37 13.15 0 25.58 2.5Q699-419 710-414l80-133q15-25 9.47-48.95-5.53-23.94-23.5-39Q758-650 733-652.5T685-635L294-304Zm366.88 104q40.89 0 70-28.5Q760-257 760-298t-29.12-69.5q-29.11-28.5-70-28.5Q620-396 592-367.5 564-339 564-298t28 69.5q28 28.5 68.88 28.5ZM298-564q41 0 69.5-28.5T396-662q0-41-28.5-69.5T298-760q-41 0-69.5 28.5T200-662q0 41 28.5 69.5T298-564Zm364 266ZM298-662Z"/></svg>