<svg xmlns="http://www.w3.org/2000/svg" height="40" viewBox="0 -960 960 960" width="40"><path d="M284.67-257.67q-44.67 38.67-94 34.84-49.34-3.84-84-34.5-35.34-30-46.84-77.34-11.5-47.33 18.5-98l79.34-132.66q-27.34-23.67-42.84-56.59-15.5-32.92-15.5-70.75 0-70.01 49.66-119.67T268.67-862q70.01 0 119.67 49.66T438-692.67q0 70.02-49.66 119.68-49.66 49.66-119.67 49.66-9.87 0-19.24-.84-9.36-.83-17.76-4.16l-82 138.33q-12.67 20-7.39 39.57 5.29 19.57 19.5 30.5 13.55 10.93 32.55 13.1 19 2.16 36.34-13.17l444.66-383q44.67-38.33 93.84-35 49.16 3.33 84.5 33.33Q888.33-674 900.5-626q12.17 48-18.17 98.33l-78 132.67q26.67 23.67 42.17 56.42Q862-305.82 862-268q0 70.02-49.86 119.67-49.87 49.66-120.17 49.66-70.3 0-119.47-49.66-49.17-49.65-49.17-119.67 0-70.02 49.17-119.67 49.17-49.66 119.5-49.66 9.15 0 18.24.5 9.09.5 17.76 3.16l82-137q11.67-20 7.55-38.9t-18.33-30.83q-14.22-11.27-33.39-12.93-19.16-1.67-36.5 13L284.67-257.67Z"/></svg>