<svg xmlns="http://www.w3.org/2000/svg" height="20" viewBox="0 -960 960 960" width="20"><path d="M359.5-297q-45 50.5-100.25 49.75T163-279q-41-31-54.75-83T129-470l63.5-102q-18-19-28.25-43T154-667q0-58.5 40.25-98.75T293-806q58.5 0 98.75 40.25T432-667q0 58.5-40.25 98.75T293-528q-11.5 0-22.25-2.25t-22.25-5.25l-63 100.5q-19 30.5-10.25 58t31.25 44.5q22.5 17 50.75 17t52.25-26l291-321q45-50.5 99.5-50.25t95 31.25q40.5 31 55.25 82.75T830.5-489.5l-63 101.5q18 19.5 28.25 43.5t10.25 52q0 58-40.25 98.25T667-154q-58.5 0-98.75-40.25T528-292.5q0-58.5 40.25-99T667-432q11.5 0 22.25 2.25t22.25 5.25L774-525q19-30.5 10.25-58.5t-31.25-45q-22.5-17-51.25-16.5T650-618.5L359.5-297Z"/></svg>