<svg xmlns="http://www.w3.org/2000/svg" height="20" viewBox="0 -960 960 960" width="20"><path d="M355.39-267.37q-52.72 58.72-117.91 56.72-65.2-2-112.15-38.72-46.96-36.72-62.68-97.91-15.72-61.2 24.24-126.63l61.81-100.61q-19.53-23.24-29.79-50.91-10.26-27.66-10.26-58.57 0-70.43 48.46-118.89 48.46-48.46 118.89-48.46t119.01 48.46q48.58 48.46 48.58 118.89t-48.58 119.01Q346.43-516.41 276-516.41q-8.72 0-17.68-1.5-8.95-1.5-19.48-4.26l-63.49 102.08q-17.28 26.57-8.77 50.89 8.51 24.33 27.67 38.6 19.16 14.28 43.42 14.14 24.26-.13 43.94-23.17l323.24-352q52.95-57.96 116.89-57.46 63.93.5 110.84 37.46 46.9 36.96 63.95 98.03 17.06 61.08-23.42 128.27l-61.57 100.85q19.53 23.24 29.67 50.2 10.14 26.97 10.14 58.28 0 70.43-48.46 118.89-48.46 48.46-118.89 48.46t-119.01-48.46Q516.41-205.57 516.41-276t48.58-119.01q48.58-48.58 119.01-48.58 9.12 0 17.98 1.5 8.85 1.5 19.35 4.26l62.8-101.84q16.28-26.57 8.9-50.49-7.38-23.93-26.66-39.09-19.28-15.16-44.35-14.04-25.06 1.12-43.63 24.16l-323 351.76Zm229.7-45.46q25.76 0 43.92-18.37 18.16-18.38 18.16-44.13 0-25.76-18.37-43.92-18.38-18.17-44.13-18.17-25.76 0-43.92 18.38-18.17 18.37-18.17 44.13t18.38 43.92q18.37 18.16 44.13 18.16ZM375.33-522.58q25.76 0 43.92-18.38 18.17-18.37 18.17-44.13t-18.38-43.92q-18.37-18.16-44.13-18.16t-43.92 18.37q-18.16 18.38-18.16 44.13 0 25.76 18.37 43.92 18.38 18.17 44.13 18.17ZM585-375ZM375-585Z"/></svg>