<svg xmlns="http://www.w3.org/2000/svg" height="48" viewBox="0 -960 960 960" width="48"><path d="M288-295q-35 30-73 27t-63-27q-27-23-35.5-58t14.5-74l81-135q-26-19-41-46.63-15-27.64-15-61.37 0-55.53 39.24-94.76Q234.48-804 291-804q55.52 0 94.76 39.24Q425-725.53 425-670q0 55.53-39.24 94.76Q346.52-536 291-536q-13.8 0-26.1-2t-22.9-8l-82 137q-16 25-8.82 50.11 7.17 25.1 25 39Q193-306 217.5-303t48.5-17l407-345q33-30 70.5-28t64.5 25q25 24 35.5 60T831-533l-81 135q25 20 39.5 47.63Q804-322.73 804-290q0 55.52-39.54 94.76Q724.91-156 668.96-156q-55.96 0-94.46-39.74Q536-235.48 536-290q0-55.52 38.5-94.76T669-424q11.73 0 24.87 2 13.13 2 24.13 7l82-136q15-26 9.32-50.11-5.67-24.1-23.5-39Q768-654 743.5-657T695-640L288-295Z"/></svg>