<svg xmlns="http://www.w3.org/2000/svg" height="40" viewBox="0 -960 960 960" width="40"><path d="M291.33-304.67q-32 27-66.33 24t-58.67-24q-25-21-33.16-54-8.17-33 12.83-68l80.33-133.66q-24.66-17-39.5-43.76Q172-630.84 172-663.33q0-52.02 36.32-88.35Q244.65-788 297.33-788q52.02 0 88.34 36.32Q422-715.35 422-663.33q0 52.01-36.33 88.34-36.32 36.32-88.34 36.32-13.53 0-26.06-2.33-12.54-2.33-23.94-7.33L166-413.67q-15.67 25.67-9.22 50.74 6.46 25.07 25 40.67 18.55 15.59 44.22 17.59 25.67 2 50-17.66l393.67-333q30.33-27 64.33-24.84Q768-678 793.33-657q24.67 21 34.17 54.33 9.5 33.34-11.83 69.34l-81.34 134q24.67 17.66 39.17 44.25t14.5 58.41q0 52.02-36.7 88.35-36.69 36.32-89 36.32-51.97 0-87.8-36.82-35.83-36.83-35.83-87.85 0-51.68 35.83-88.17t87.83-36.49q12.82 0 25.75 2.5 12.92 2.5 24.59 7.5l81.33-135q15.67-26.34 9.72-51.07-5.96-24.74-24.5-40.34-18.55-15.59-44.22-18.09-25.67-2.5-50 18.16l-393.67 333Z"/></svg>