<svg xmlns="http://www.w3.org/2000/svg" height="40" viewBox="0 -960 960 960" width="40"><path d="M290.41-296.97q-34.16 28.69-70.68 25.61-36.53-3.08-63.04-25.54-26.51-22.46-35.37-57.88-8.86-35.43 13.68-72.96l80.18-133.44q-25.05-18-40.04-45.99-14.99-27.99-14.99-61.27 0-54.68 38.5-93.2 38.51-38.51 93.91-38.51 54.87 0 93.38 38.51 38.52 38.52 38.52 93.38 0 54.87-38.52 93.38-38.51 38.52-93.38 38.52-12.76 0-24.76-2.1-11.99-2.1-22.85-6.57l-81.41 135.29q-15.05 24.66-8.99 48.69 6.07 24.04 23.95 38.99 17.88 14.95 42.45 16.86 24.56 1.92 47.67-16.9l401.74-341.16q32.72-28.69 69.09-26.24 36.37 2.45 63.76 24.77 26.7 22.43 36.36 58.22t-13.13 74.1l-80.8 133.69q25.05 18.51 39.78 46.15 14.73 27.64 14.73 60.67 0 54.87-38.96 93.38Q722.23-160 667.52-160q-55.14 0-93.15-38.92-38.01-38.91-38.01-93.23 0-54.31 38.18-92.98 38.17-38.66 92.79-38.66 12.33 0 24.42 2.15 12.1 2.15 23.22 6.61l81.49-135.38q15.05-25.18 9.35-48.91-5.71-23.74-23.54-38.76t-42.42-17.29q-24.59-2.27-47.7 17.32L290.41-296.97Zm376.92 103.12q40.83 0 69.9-28.83 29.08-28.84 29.08-69.58 0-40.74-29.13-69.21-29.13-28.48-70.04-28.48-40.91 0-68.92 28.61-28.01 28.62-28.01 69.55 0 40.48 27.93 69.21 27.94 28.73 69.19 28.73ZM292.67-570.21q40.48 0 69.21-28.83 28.74-28.84 28.74-69.58 0-40.74-28.84-69.21-28.84-28.48-69.58-28.48-40.74 0-69.47 28.61Q194-709.08 194-668.15q0 40.48 28.76 69.21 28.77 28.73 69.91 28.73ZM668.26-291.9Zm-375.7-376.36Z"/></svg>