<svg xmlns="http://www.w3.org/2000/svg" height="40" viewBox="0 -960 960 960" width="40"><path d="M292.93-264.03q-43.91 37.04-91.59 33.24-47.67-3.79-82.88-32.91-34.63-29.11-46.56-75.85-11.92-46.74 17.93-96.12l76.48-127.1q-25.25-22.36-40.02-54.06-14.78-31.7-14.78-67.71 0-68.83 48.22-117.25 48.23-48.41 117.07-48.41 68.46 0 116.87 48.41 48.42 48.42 48.42 117.25 0 68.46-48.42 116.88-48.41 48.41-116.87 48.41-9.38 0-18.63-1.13-9.25-1.13-17.35-3.95l-78.55 132.07q-11.12 19.01-6.74 36.47 4.37 17.46 17.64 27.8 12.93 11.04 30.46 12.61 17.52 1.58 34.03-12.69l430.3-368.17q44.34-37.79 92.43-34.35 48.1 3.44 82.23 33.12 34.14 30.01 45.74 76.74 11.6 46.73-17.69 95.9l-74.75 127.5q24.91 22.48 39.6 54.09 14.68 31.6 14.68 67.28 0 68.67-48.62 116.89-48.62 48.23-117.74 48.23-68.75 0-116.67-48.23-47.92-48.22-47.92-116.89 0-68.46 47.92-116.96t116.7-48.5q9.19 0 17.99.8 8.81.8 17.89 2.9l78.38-130.5q11.12-18.63 6.18-36.28-4.94-17.65-18.21-28.32-13.27-10.33-30.79-11.81-17.53-1.48-32.76 11.88L292.93-264.03Z"/></svg>