<svg xmlns="http://www.w3.org/2000/svg" height="40" viewBox="0 -960 960 960" width="40"><path d="M295.83-255.33q-46.66 39.5-97.75 35.41Q147-224 109.33-255q-36.66-31-49.75-81-13.08-50 19.09-103l74.16-123.33q-24.66-23.67-39.08-56.09Q99.33-650.84 99.33-687q0-73.18 50.91-124.43 50.91-51.24 124.09-51.24 72.52 0 123.76 51.24 51.24 51.25 51.24 124.43 0 72.52-51.24 123.76Q346.85-512 274.33-512q-8.36 0-16.81-.92-8.45-.91-15.69-3.58l-76.66 129.17q-9.67 16.83-5.8 31.9 3.86 15.07 15.25 23.67 11.05 9.59 25.96 11.09 14.92 1.5 29.25-11.16L665.5-704.5q47.67-40.83 99.17-37.25 51.5 3.58 87.66 35.58 36.17 32.34 48.42 82.25Q913-574 881.83-521.5l-72 124.17q24.34 23.5 38.59 55.75 14.25 32.26 14.25 68.08 0 73.02-51.45 123.92-51.45 50.91-124.92 50.91-72.8 0-123.55-50.91Q512-200.48 512-273.5q0-72.52 50.75-123.84 50.75-51.33 123.58-51.33 8.32 0 16.33.59 8.01.58 16.51 2.25L795.67-573q9.66-16.17 4.8-31.57-4.87-15.4-16.25-24.33-11.39-8.6-26.3-9.93-14.92-1.34-27.25 10l-434.84 373.5Z"/></svg>