<svg xmlns="http://www.w3.org/2000/svg" height="48" viewBox="0 -960 960 960" width="48"><path d="M289.12-298.08q-34.78 28.12-70.53 25.2-35.74-2.93-61.86-25.2-26.11-22.27-34.77-56.71-8.65-34.44 14-71.9l81.62-135.35q-26.23-18.19-41.21-45.88-14.99-27.69-14.99-61 0-53.49 38.31-91.82 38.31-38.34 92.81-38.34 53.68 0 92.01 38.34 38.34 38.33 38.34 92.01 0 53.68-38.34 92.01-38.33 38.34-91.95 38.34-13.12 0-25.54-2.27t-23.17-7.31l-82.29 137.12q-15.98 25.61-9.48 50.41 6.51 24.79 24.97 39.7 17.58 15.78 42.82 17.95 25.25 2.16 49.82-18.03l402.85-341.73q32.19-28.11 68.19-26 36 2.12 62.45 24.64 25.42 22.67 35.35 57.59 9.93 34.93-12.17 72.32l-81.82 135.8q25.34 19.07 39.94 46.48 14.6 27.41 14.6 60.18 0 53.71-38.73 92.04-38.72 38.34-92.45 38.34-54.37 0-91.94-38.53-37.58-38.52-37.58-92.82 0-53 37.75-91.17 37.74-38.18 91.6-38.18 11.85 0 24.56 2.19 12.71 2.18 24.75 6.28l81.78-136.08q15.6-26.31 9.55-50.68-6.05-24.37-24.26-40.04-18.03-15.17-43.5-17.49-25.46-2.33-49.3 17.53L289.12-298.08Zm378.66 106.73q41.7 0 71.4-29.54 29.7-29.55 29.7-71.54 0-41.15-29.78-70.19-29.79-29.03-71.62-29.03-41.83 0-70.36 29.24-28.54 29.25-28.54 70.63 0 41.7 28.43 71.07 28.42 29.36 70.77 29.36ZM292.66-568.58q41.15 0 70.57-29.58 29.42-29.58 29.42-71.11 0-41.54-29.58-70.58-29.58-29.03-71.11-29.03-41.54 0-70.96 29.24-29.42 29.25-29.42 71.07 0 41.15 29.47 70.57 29.47 29.42 71.61 29.42ZM668.73-291.5ZM292.5-668.73Z"/></svg>