<svg xmlns="http://www.w3.org/2000/svg" height="48" viewBox="0 -960 960 960" width="48"><path d="M281-262q-43 37-90.5 33.5T110-262q-34-29-45-74t18-94l82-137q-28-23.08-44-55.92-16-32.85-16-70.08 0-67.53 48.24-115.76Q201.48-857 269-857q67.52 0 115.76 48.24Q433-760.53 433-693t-48.24 115.76Q336.52-529 269-529q-10.47 0-20.93-1-10.47-1-19.16-5L145-393q-14 22.36-8.32 43.78 5.67 21.43 21 33.33Q173-304 193.94-301.5 214.89-299 234-316l445-383q43-37 90.58-33.8 47.58 3.2 81.49 31.8 33.06 30 44.5 76Q907-579 878-531l-80 137q27 23 43 55.58T857-268q0 67.52-48.54 115.76Q759.91-104 691.96-104 624-104 576.5-152.24T529-268q0-67.52 47.5-115.76Q624-432 692-432q9.35 0 19.67.5Q722-431 731-428l84-140q13-22 8.32-43.11-4.67-21.1-20.5-33.5Q787-657 766-659t-40 14L281-262Zm410.96 85q37.83 0 64.94-26.73 27.1-26.73 27.1-64.26t-26.94-64.27Q730.13-359 692.3-359q-37.83 0-64.06 26.73Q602-305.54 602-268.01t26.07 64.27Q654.14-177 691.96-177ZM268.99-602q37.53 0 64.27-26.73Q360-655.46 360-692.99q0-37.54-26.73-64.27Q306.54-784 269.01-784t-64.27 26.73Q178-730.54 178-693.01q0 37.54 26.73 64.27Q231.46-602 268.99-602ZM693-268ZM269-693Z"/></svg>