<svg xmlns="http://www.w3.org/2000/svg" height="24" viewBox="0 -960 960 960" width="24"><path d="M292-249q-48 42-101 37.5T100-248q-38-32-50.5-84T69-438l74-124q-26-25-40.5-58.5T88-692q0-75 52.5-127.5T268-872q75 0 127.5 52.5T448-692q0 75-52.5 127.5T268-512q-7.67 0-15.33-.5-7.67-.5-15.76-2.5L159-384q-10 16-5.5 31.5T169-328q11 9 25.94 10.5Q209.89-316 224-328l444-383q48-41 100.5-37t90.57 36q38.06 32 51.5 84Q924-576 891-521l-74 124q26 25 40.5 57.9T872-268q0 75-52.5 127.5T692-88q-75 0-127.5-52.5T512-268q0-75 52.5-127.5T692-448q7.62 0 14.81.5T722-445l78-131q9-16 6-30.5T792-631q-11-10-26.5-11T736-631L292-249Zm400 55q30.53 0 52.26-21.74Q766-237.48 766-268t-21.74-52.26Q722.53-342 692-342q-30.53 0-52.26 21.74Q618-298.52 618-268t21.74 52.26Q661.47-194 692-194ZM268-618q30.52 0 52.26-21.74Q342-661.47 342-692q0-30.53-21.74-52.26Q298.52-766 268-766t-52.26 21.74Q194-722.53 194-692q0 30.53 21.74 52.26Q237.48-618 268-618Zm424 350ZM268-692Z"/></svg>