<svg xmlns="http://www.w3.org/2000/svg" height="24" viewBox="0 -960 960 960" width="24"><path d="M297.65-242.78q-49.69 43.69-105.52 39.19t-96.09-38.19q-40.26-33.7-54.45-88.52-14.2-54.83 20.06-112.22l71.18-118.35q-24.87-25.56-38.81-59.35Q80.09-654 80.09-692q0-78.39 54.76-133.15 54.76-54.76 133.15-54.76 78.39 0 133.44 54.76 55.04 54.76 55.04 133.15 0 78.39-55.04 133.44-55.05 55.04-133.44 55.04-6.3 0-12.96-.5-6.65-.5-13.52-1.94l-74.61 126.48q-8.3 12.61-4.93 25.28 3.37 12.68 12.67 19.98 8.74 7.31 20.92 8.52 12.17 1.22 22.78-8.52l444.56-383q50.26-43.26 106.16-39.26 55.89 4 95.58 38.26 40.26 34.26 54.05 88.81 13.78 54.54-20.35 112.37l-70.61 118.91q24.87 25.56 38.52 58.85Q879.91-306 879.91-268q0 78.39-54.76 133.15Q770.39-80.09 692-80.09q-78.39 0-133.44-54.76-55.04-54.76-55.04-133.15 0-78.39 55.04-133.44 55.05-55.04 133.44-55.04 6.87 0 13.02.5 6.15.5 13.02 1.94l75.18-125.92q7.3-12.61 4.58-24.56-2.71-11.96-12.02-19.7-9.3-8.3-21.41-9.02-12.11-.72-22.72 9.02l-444 381.44Z"/></svg>