<svg xmlns="http://www.w3.org/2000/svg" height="48" viewBox="0 -960 960 960" width="48"><path d="M290.5-257q-46 38.5-95.75 34.5T109-257q-36-30.5-48.5-78.75T79.5-436l77-128.5q-26-23.5-40.75-56.16T101-689.21q0-72.17 49.93-122.48T272.5-862q70.52 0 121.01 50.49Q444-761.03 444-690t-50.49 121.51Q343.02-518 272.56-518q-9.62 0-18.93-1-9.32-1-16.63-4.5l-79.44 133.82q-11.06 19.68-6.75 36.87 4.31 17.19 17.19 27.05 12.39 10.36 29.52 12.06 17.14 1.7 33.48-12.8L671-703q46.5-39.5 96.75-36.5T853-704.75q35 31.75 47 80.46 12 48.71-18.5 99.29L807-395.5q25.5 23 40.25 55.33T862-271.76q0 71.62-50.79 121.69Q760.41-100 688.96-100q-71.46 0-121.21-49.81Q518-199.63 518-271.75q0-70.27 49.75-120.76Q617.5-443 688.98-443q7.71 0 16.95.62 9.23.63 18.57 2.38l78.94-131.38q11.06-18.62 5.8-36.23-5.26-17.6-18.34-27.5-12.9-9.39-29.98-11.14t-31.08 11.42L290.5-257Zm88.13-245.5q33.14 0 57-23.01 23.87-23.01 23.87-56.65 0-33.34-23.87-56.34-23.86-23-57.5-23-33.63 0-56.13 23.13t-22.5 56.78q0 33.59 22.47 56.34t56.66 22.75Zm204.53 203q33.34 0 56.34-23.13t23-57.03q0-32.84-23.13-56.34t-57.03-23.5q-32.84 0-55.84 23.66t-23 57q0 33.34 23.16 56.34t56.5 23Zm-203.66-282Zm203 202Z"/></svg>