<svg xmlns="http://www.w3.org/2000/svg" height="24" viewBox="0 -960 960 960" width="24"><path d="M300.41-270.26q-42.67 36.17-89.19 32.68-46.52-3.49-81.08-31.68-34.55-28.2-46.52-74.47-11.97-46.27 16.97-94.42l73.06-120.61q-23.52-21.72-37.65-52.25-14.13-30.53-14.13-65.66 0-67.37 47.04-114.42 47.05-47.04 114.42-47.04t114.41 47.04q47.04 47.05 47.04 114.42t-47.04 114.41q-47.04 47.04-114.41 47.04-8.72 0-17.44-1.13t-16.67-2.89l-74.81 125.59q-10.04 16.82-6.23 32.79 3.8 15.97 16.18 26 12.37 10.04 28.54 11.4 16.17 1.37 31.34-11.43L659.83-690q43.15-36.65 89.92-32.66 46.77 3.99 80.71 32.42Q864.39-661.8 876-615.9q11.61 45.9-17.09 94.55L786.59-401q23.52 22.22 37.53 52.57 14.01 30.36 14.01 65.62 0 66.85-47.04 113.9-47.05 47.04-114.42 47.04t-114.41-47.04q-47.04-47.05-47.04-114.17t47.04-114.41q47.04-47.29 114.41-47.29 8.78 0 17.07 1.13 8.29 1.13 16.28 2.89l75.31-125.35q10.04-16.82 5.98-32.77-4.05-15.95-16.43-25.99-12.38-10.04-28.54-11.3-16.15-1.26-31.08 11.3L300.41-270.26Zm277.26-36.61q31.33 0 53.39-21.92 22.07-21.92 22.07-53.04 0-31.82-22.07-53.89-22.06-22.06-53.39-22.06-31.32 0-53.39 22.06-22.06 22.07-22.06 53.64 0 31.58 22.06 53.39 22.07 21.82 53.39 21.82ZM382.33-502.22q31.32 0 53.39-22.06 22.06-22.07 22.06-53.39 0-31.33-22.06-53.39-22.07-22.07-53.39-22.07-31.33 0-53.39 22.07-22.07 22.06-22.07 53.39 0 31.32 22.07 53.39 22.06 22.06 53.39 22.06Zm195.34 119.89ZM382.33-577.67Z"/></svg>