<svg xmlns="http://www.w3.org/2000/svg" height="48" viewBox="0 -960 960 960" width="48"><path d="M282.91-260.8q-43.48 37.23-91.57 33.85-48.1-3.38-81.58-33.85-34.48-29.48-46.08-74.96-11.59-45.48 18.12-95.67l81.05-135.09q-27.76-23.32-43.4-56.22-15.65-32.9-15.65-69.71 0-68.4 48.71-117.19 48.7-48.79 116.97-48.79 68 0 116.96 48.83 48.95 48.84 48.95 116.96 0 68.12-48.95 117.08-48.96 48.95-116.96 48.95-10.09 0-20.42-1-10.33-1-18.46-5l-82.73 140.57q-13.52 21.64-8.21 42.25 5.3 20.61 20.03 31.89 14.72 11.29 34.84 13.78 20.12 2.49 38.51-14.03L677.33-700.2q43.47-37.23 91.89-34.27 48.42 2.96 82.68 32.27 33.43 30.72 44.98 77.25 11.55 46.53-17.68 95.15l-78.81 135.32q26.76 23 42.4 55.66 15.64 32.66 15.64 70.23 0 68.32-49.14 117.05-49.14 48.74-117.69 48.74-68.56 0-116.77-48.71-48.22-48.7-48.22-116.97 0-68 48.22-116.96 48.21-48.95 116.81-48.95 8.66 0 18.93.5t19 3.26l83.04-138.33q12.52-21.04 7.84-41.55-4.67-20.5-20.02-32.06-15.34-11.56-35.27-13.68-19.92-2.12-37.96 13.4L282.91-260.8Zm334.32 6.32q36.52 0 63.02-26.01 26.51-26.01 26.51-62.35t-26.34-62.36q-26.34-26.02-62.97-26.02-36.63 0-62.15 26-25.52 26.01-25.52 62.48 0 36.22 25.35 62.24 25.34 26.02 62.1 26.02Zm-273.39-275.3q36.34 0 62.36-26 26.02-26.01 26.02-62.48 0-36.22-26-62.36-26.01-26.14-62.48-26.14-36.22 0-62.24 26.13-26.02 26.13-26.02 62.47t26.01 62.36q26.01 26.02 62.35 26.02Zm274.55 187.17ZM343.61-618.39Z"/></svg>