<svg xmlns="http://www.w3.org/2000/svg" height="40" viewBox="0 -960 960 960" width="40"><path d="M286.21-270.49q-41.42 35.85-86.93 32.14-45.51-3.7-77.1-31.93-32.26-27.57-42.6-70.86-10.35-43.3 17.09-89.73l79.59-133.05q-26.69-22.06-41.94-53.4-15.24-31.35-15.24-67.23 0-65.18 45.99-111.19 46-46 111.55-46 65.27 0 111.27 46 46.01 46.01 46.01 111.28 0 65.27-46.01 111.28-46 46-111.27 46-10.82 0-21.25-1.22t-19.82-5.45l-81.78 137.31q-13.69 21.91-7.77 43.09 5.93 21.18 20.98 33.12 15.05 11.94 35.77 14.31 20.73 2.38 40.23-14.36l431.2-369.41q40.69-35.52 85.76-32.41 45.08 3.11 77.73 30.34 31.75 28.21 43.18 72.19t-16.47 90.46l-78.89 133.18q26.02 22.26 41.14 53.05 15.11 30.8 15.11 67.03 0 65.27-46.33 111.28-46.33 46-111.67 46-65.55 0-111.06-46.2-45.5-46.21-45.5-111.2 0-65 45.59-111.08t110.9-46.08q9.85 0 20.38 1.08 10.54 1.07 20.1 4.64l81.75-136.36q12.69-21.92 8.11-42.41-4.58-20.49-19.93-33.13-15.36-12.64-36.32-14.69-20.97-2.05-40.35 14.41l-431.2 369.2Zm397.39 84.23q37.26 0 63.91-26.34 26.64-26.35 26.64-63.47t-26.56-63.35q-26.56-26.22-63.87-26.22-37.3 0-63.12 26.23-25.83 26.24-25.83 63.45 0 37 25.68 63.35 25.67 26.35 63.15 26.35ZM276.61-594.77q36.99 0 63.35-26.35 26.35-26.34 26.35-63.46 0-37.12-26.35-63.35-26.35-26.22-63.47-26.22t-63.47 26.23q-26.35 26.24-26.35 63.45 0 37 26.31 63.35t63.63 26.35Zm407.85 318.82ZM276.62-684.46Z"/></svg>