<svg xmlns="http://www.w3.org/2000/svg" height="48" viewBox="0 -960 960 960" width="48"><path d="M281-262q-43 37-90.5 33.5T110-262q-34-29-45-74t18-94l82-137q-28-23-44-55.63-16-32.64-16-70.37 0-67.53 48.24-115.76Q201.48-857 269-857q67.52 0 115.76 48.24Q433-760.53 433-693t-48.24 115.76Q336.52-529 269-529q-10.8 0-21.1-1t-18.9-5l-84 142q-14 22-8.32 43.61 5.67 21.6 21.5 33.5Q173-304 194-301.5t40-14.5l445-383q43-37 90.5-34t81.5 32q33 30 44.5 76T878-531l-80 137q27 23 43 55.63 16 32.64 16 70.37 0 67.52-48.54 115.76Q759.91-104 691.96-104 624-104 576.5-152.24T529-268q0-67.52 47.5-115.76Q624-432 692-432q9.73 0 19.87.5Q722-431 731-428l84-140q13-22 8.32-43.11-4.67-21.1-20.5-34Q787-657 766-659t-40 14L281-262Z"/></svg>