<svg xmlns="http://www.w3.org/2000/svg" height="20" viewBox="0 -960 960 960" width="20"><path d="M353-270q-52 58-116 56t-110-38q-46-36-61-96t24-124l63-103q-20-23-30.5-50.49Q112-652.98 112-684q0-69 47.5-116.5T276-848q69 0 116.5 47.5T440-684q0 69-47.5 116.5T276-520q-9.33 0-18.67-1.5-9.33-1.5-20.42-4.5L172-422q-18 28-9 53.5t29 40.5q20 15 45.44 15 25.45 0 46.56-24l323-352q52-57 114.5-56.5T830.07-709q46.06 36 63 96Q910-553 870-487l-63 103q20 23 30.5 49.89T848-276q0 69-47.5 116.5T684-112q-69 0-116.5-47.5T520-276q0-69 47.5-116.5T684-440q9.69 0 18.85 1.5Q712-437 723-434l64-104q17-28 9.5-53T769-632q-20-16-46.5-15T676-622L353-270Zm331.21 60q27.32 0 46.55-19.45Q750-248.9 750-276.21t-19.45-46.55Q711.1-342 683.79-342q-27.32 0-46.55 19.45Q618-303.1 618-275.79t19.45 46.55Q656.9-210 684.21-210Zm-408-408q27.31 0 46.55-19.45T342-684.21q0-27.32-19.45-46.55Q303.1-750 275.79-750t-46.55 19.45Q210-711.1 210-683.79q0 27.32 19.45 46.55Q248.9-618 276.21-618ZM684-276ZM276-684Z"/></svg>