<svg xmlns="http://www.w3.org/2000/svg" height="40" viewBox="0 -960 960 960" width="40"><path d="M284.67-257.67q-44.67 38.67-94 34.84-49.34-3.84-84-34.5-35.34-30-46.84-77.34-11.5-47.33 18.5-98l79.34-132.66q-27.34-23.73-42.84-56.79-15.5-33.06-15.5-70.55 0-70.01 49.66-119.67T268.67-862q70.01 0 119.67 49.66T438-692.67q0 70.02-49.66 119.68-49.66 49.66-119.67 49.66-9.54 0-19.07-.84-9.53-.83-18.03-4.16L149.67-390q-12.67 20.24-7.39 39.69 5.29 19.45 19.17 30.38 13.88 10.93 32.83 13.1 18.94 2.16 36.39-13.17l444.66-383q44.67-38.33 93.89-34.87 49.22 3.47 84.51 33.2Q888.46-674 900.56-626q12.11 48-18.23 98.33l-78 132.67q26.67 23.67 42.17 56.35Q862-305.96 862-268q0 70.02-49.86 119.67-49.87 49.66-120.17 49.66-70.3 0-119.47-49.66-49.17-49.65-49.17-119.67 0-70.02 49.17-119.67 49.17-49.66 119.5-49.66 8.77 0 18.05.5 9.28.5 17.95 3.16l82-137q11.67-20 7.55-38.9t-18.33-30.5q-14.22-11.6-33.39-13.26-19.16-1.67-36.5 13L284.67-257.67Zm407.31 75q35.39 0 60.7-25.06Q778-232.8 778-267.99q0-35.2-25.2-60.27-25.21-25.07-60.6-25.07t-60.13 25.06q-24.74 25.07-24.74 60.26 0 35.2 24.63 60.27 24.62 25.07 60.02 25.07ZM268.66-607.33q35.2 0 60.27-25.07Q354-657.46 354-692.66t-25.06-60.27Q303.87-778 268.67-778t-60.27 25.06q-25.07 25.07-25.07 60.27t25.07 60.27q25.06 25.07 60.26 25.07ZM692.67-268Zm-424-424.67Z"/></svg>