<svg xmlns="http://www.w3.org/2000/svg" height="48" viewBox="0 -960 960 960" width="48"><path d="M284.5-275q-40 33.5-82.75 30t-74.25-30Q96-301.5 86-343.25T102.5-429l82-136.5q-27-20.5-42.75-51.66Q126-648.32 126-684.5q0-62.53 44.49-107.01Q214.98-836 277.5-836t107.01 44.49Q429-747.03 429-684.5q0 62.53-44.49 107.01Q340.02-533 277.56-533q-11.19 0-22.08-1.5-10.88-1.5-20.48-5l-83.44 139.82q-14.06 23.68-8.71 45.79 5.36 22.1 22.25 35.5 16.4 13.89 38.98 15.64T247-318.5L676-686q39.5-33.5 82.75-30.5T833-686.75Q864-660 874.5-618t-16 86L778-395.5q26.5 21 42.25 52.07Q836-312.37 836-276.29q0 62.31-44.79 106.8Q746.41-125 683.46-125q-62.96 0-106.71-44.37Q533-213.74 533-276.75q0-62.27 43.75-106.76T683.5-428q10.58 0 21.04 1.12Q715-425.75 725.5-423l82.94-138.38q14.06-23.62 8.8-45.73-5.26-22.1-22.34-36-16.9-13.39-39.48-15.14t-42.58 15.42L284.5-275Zm399.13 92.5q39.14 0 67-27.51 27.87-27.51 27.87-66.65 0-38.84-27.87-66.34-27.86-27.5-67-27.5-39.13 0-66.13 27.66-27 27.66-27 66.25 0 39.59 27 66.84t66.13 27.25Zm-405.97-408q38.84 0 66.34-27.66t27.5-66.5q0-38.84-27.66-66.34t-66.5-27.5q-38.84 0-66.34 27.66t-27.5 66.5q0 38.84 27.66 66.34t66.5 27.5Zm406.84 314Zm-407-408Z"/></svg>