<svg xmlns="http://www.w3.org/2000/svg" height="40" viewBox="0 -960 960 960" width="40"><path d="M289.57-253.71q-45.99 39.61-97.21 35.96-51.21-3.64-87.39-35.63-36.84-31.32-49.85-80.34-13-49.03 18.88-102.71l76.88-127.77q-26.58-24.23-41.32-57.25-14.75-33.02-14.75-70.46 0-72.28 51.17-123.63 51.16-51.36 123.44-51.36 71.9 0 123.54 51.36 51.63 51.35 51.63 123.63 0 71.9-51.63 123.53-51.64 51.64-123.54 51.64-8.55 0-17.44-.83-8.9-.84-16.17-3.98l-78.98 134.56q-11.35 17.74-7.01 35.05t17.24 26.55q11.66 9.61 28.4 11.68 16.74 2.07 31.82-11.75L671-706.96q46.17-39.46 97.79-36.5 51.62 2.95 87.89 34.84 36.17 32.55 48.62 82.15 12.45 49.6-18.63 102.01l-74.99 128.33q25.91 23.85 40.57 56.89 14.65 33.04 14.65 70.49 0 72.27-51.56 123.44-51.56 51.16-124.12 51.16-72.19 0-123.34-51.16-51.14-51.17-51.14-123.44 0-71.9 51.14-123.54 51.15-51.64 123.37-51.64 8.02 0 16.64.5 8.62.5 16.53 2.6l79.55-132.66q10.35-17.37 6.33-34.48-4.03-17.11-16.92-26.78-12.9-9.57-29.24-11.33-16.34-1.76-31.04 11.4L289.57-253.71Z"/></svg>