<svg xmlns="http://www.w3.org/2000/svg" height="40" viewBox="0 -960 960 960" width="40"><path d="M286.74-255.99q-45.23 39.06-95.36 35.31-50.13-3.76-85.43-34.98-35.97-30.56-48.11-78.61t18.66-99.99l78.3-130.6q-27.02-23.9-42.2-56.86-15.18-32.96-15.18-70.63 0-70.97 50.3-121.35 50.29-50.37 121.27-50.37 70.81 0 121.3 50.37 50.5 50.38 50.5 121.35 0 70.82-50.5 121.31-50.49 50.5-121.3 50.5-9.31 0-18.48-.84-9.17-.83-17.09-4.08L152.7-388.72q-12.11 19.04-7.23 37.65 4.89 18.62 18.55 28.83 12.75 10.37 30.79 12.5 18.05 2.12 34.42-12.57L673.5-704.67q45.3-38.82 95.51-35.64 50.2 3.17 85.93 33.97 35.31 31.46 47.59 80.14 12.29 48.68-18.36 99.89l-76.73 130.83q26.35 23.75 41.49 56.62 15.14 32.88 15.14 70.54 0 70.97-50.58 121.27t-121.84 50.3q-71.1 0-121.1-50.3-50.01-50.3-50.01-121.27 0-70.81 50.01-121.31 50-50.49 121.13-50.49 8.68 0 17.57.5t17.24 2.92l80.96-135.16q11.11-18.89 7.03-37.03-4.08-18.15-17.74-29.12-13.65-10.55-31.62-12.25-17.98-1.71-34.19 12.32L286.74-255.99Z"/></svg>