<svg xmlns="http://www.w3.org/2000/svg" height="24" viewBox="0 -960 960 960" width="24"><path d="M290.46-275.15q-40.47 35.84-85.31 31.34-44.84-4.5-75.92-31.11-31.08-26.62-40.5-69.77-9.42-43.16 16.42-87.16l77.08-129.38Q157-582.38 142.5-612.96 128-643.54 128-678.15q0-65 44.42-109.43Q216.85-832 281.85-832t109.42 44.42q44.42 44.43 44.42 109.43t-44.42 109.42q-44.42 44.42-109.42 44.42-10.75 0-20.72-1.27-9.98-1.27-20.38-5.57l-80.21 132.53q-13.08 21.39-7.04 41.89t20.91 32.55q14.87 12.04 35.17 13.96 20.31 1.91 39.04-13.93l421.69-359.93q39.54-34.84 82.81-31.61 43.26 3.23 75.36 29.81t43.42 69.77q11.33 43.19-16.28 88.96L777.77-397q25.23 21.15 39.73 50.59 14.5 29.44 14.5 64.56 0 65-44.98 109.43Q742.04-128 677.6-128q-64.45 0-108.87-44.82t-44.42-109.04q0-64.22 44.59-109.02 44.59-44.81 108.48-44.81 10.82 0 21.03 1.65 10.21 1.66 20.51 5.96l79.54-133.3q12.08-21.39 7.9-40.85-4.17-19.46-19-32.58-14.82-13.11-35.71-14.88-20.88-1.77-39.5 14.84l-421.69 359.7ZM677.3-194q36.59 0 62.64-25.58Q766-245.17 766-281.85q0-36.67-26.06-62.26-26.05-25.58-62.64-25.58t-61.79 25.58q-25.2 25.59-25.2 62.26 0 36.68 25.2 62.27Q640.71-194 677.3-194ZM281.85-590.31q36.67 0 62.26-25.58 25.58-25.59 25.58-62.26 0-36.68-25.58-62.27Q318.52-766 281.85-766q-36.68 0-62.27 25.58Q194-714.83 194-678.15q0 36.67 25.58 62.26 25.59 25.58 62.27 25.58Zm396.3 308.46Zm-396.3-396.3Z"/></svg>