<svg xmlns="http://www.w3.org/2000/svg" height="20" viewBox="0 -960 960 960" width="20"><path d="M359.5-297q-45 50.5-100.25 49.75T163-279q-41-31-54.75-83T129-470l63.5-102q-18-19-28.25-43.04T154-667q0-58.5 40.25-98.75T293-806q58.5 0 98.75 40.25T432-667q0 58.5-40.25 98.75T293-528q-11 0-22-2.25t-22.5-5.25l-63 100.5q-19 30.5-10.32 58 8.67 27.5 31.25 44.5 22.57 17 50.9 17t52.17-26l291-321q45-50.5 99.5-50.25t95 31.25q40.5 31 55.25 82.75T830.5-489.5l-63 101.5q18 19.5 28.25 43.54Q806-320.41 806-292.49q0 57.99-40.25 98.24Q725.5-154 667-154t-98.75-40.25Q528-234.5 528-292.75t40.25-98.75Q608.5-432 667-432q11.42 0 22.21 2.25 10.79 2.25 22.29 5.25L774-525q19-30.5 10.32-58.5-8.67-28-31.25-45-22.57-17-51.4-16.5T650-618.5L359.5-297Zm307.71 76Q697-221 718-242.07q21-21.06 21-50.64Q739-323 717.79-344t-51-21Q637-365 616-343.79t-21 51.25q0 30.04 21.21 50.79t51 20.75Zm-374-374Q323-595 344-616.21t21-51Q365-697 343.79-718t-51-21Q263-739 242-717.79t-21 51Q221-637 242.21-616t51 21ZM667-293ZM293-667Z"/></svg>