<svg xmlns="http://www.w3.org/2000/svg" height="40" viewBox="0 -960 960 960" width="40"><path d="M294-251.33q-47 40-99 36T104.67-251q-37.34-31.67-51.17-82.67-13.83-51 19.17-105.33L147-563q-25-24.33-39.67-57.42-14.66-33.09-14.66-69.91 0-74.35 51.99-126.68 51.99-52.32 126.34-52.32 73.68 0 126.01 52.32 52.32 52.33 52.32 126.68 0 73.68-52.32 126Q344.68-512 271-512q-7.87 0-16.23-.83-8.37-.84-15.44-3.17L162-385.33q-9.67 16.33-6.05 31.4t14.83 24Q182-320.33 197-319q15 1.33 29-11l441-378.67Q715.33-750 767.83-746.5t89.84 36.17Q895-677.67 907.5-626.5T888-521.67l-72.67 125q25 23.67 39.5 56.59t14.5 69.75q0 74.35-52.53 126.34Q764.27-92 689.64-92q-73.97 0-125.81-51.99Q512-195.98 512-270.33q0-73.69 51.83-126.01 51.84-52.33 125.84-52.33 8.15 0 15.91.5 7.75.5 15.75 2.17L799-575q9.67-15.67 5.05-31.07t-15.83-24.33Q777-639.33 762-640.5q-15-1.17-27.33 10.17L294-251.33Z"/></svg>