<svg xmlns="http://www.w3.org/2000/svg" height="20" viewBox="0 -960 960 960" width="20"><path d="M351.46-296.15q-44.47 51.84-100.31 49.84t-94.92-32.61q-39.08-30.62-51-81.77-11.92-51.16 20.92-105.16l66.08-108.38Q173-593.38 162.5-617.95t-10.5-52.2q0-59 39.42-98.43Q230.85-808 289.85-808q59 0 98.42 39.42 39.42 39.43 39.42 98.43 0 59-39.42 98.42t-98.42 39.42q-12.41 0-24.06-2.27-11.64-2.27-25.04-7.57l-67.21 105.53q-21.08 33.39-10.54 63.89t34.41 48.55q23.87 18.04 54.67 18.46 30.81.41 56.54-27.43l300.69-328.93q43.54-50.84 96.81-51.11 53.26-.27 93.36 30.31t54.92 81.77q14.83 51.19-19.78 107.96L767.77-384q19.23 19.15 29.73 42.58t10.5 51.57q0 59-39.98 98.43Q728.04-152 669.6-152q-58.45 0-97.87-39.82t-39.42-98.04q0-58.22 39.59-98.02 39.59-39.81 97.48-39.81 12.89 0 25.06 2.65 12.18 2.66 25.48 7.96l65.54-106.3q20.08-33.39 11.4-63.35-8.67-29.96-32.5-49.08-23.82-19.11-55.71-18.88-31.88.23-56.5 28.84l-300.69 329.7ZM669.51-210q33.38 0 56.93-23.3Q750-256.59 750-290.06q0-33.46-23.77-56.55-23.77-23.08-57.15-23.08-33.37 0-56.07 23.29-22.7 23.3-22.7 56.77 0 33.46 22.91 56.55Q636.13-210 669.51-210ZM290.06-590.31q33.46 0 56.55-23.29 23.08-23.3 23.08-56.77 0-33.46-23.29-56.55Q323.1-750 289.63-750q-33.46 0-56.55 23.3Q210-703.41 210-669.94q0 33.46 23.3 56.55 23.29 23.08 56.76 23.08Zm380.09 300.46Zm-380.3-380.3Z"/></svg>