<svg xmlns="http://www.w3.org/2000/svg" height="40" viewBox="0 -960 960 960" width="40"><path d="M295.83-255.33q-46.66 39.5-97.75 35.41Q147-224 109.83-255q-37.16-31-50.25-81-13.08-50 19.09-103l74.16-123.33q-24.66-23.67-39.08-56.13-14.42-32.45-14.42-68.35 0-73.61 50.87-124.73 50.87-51.13 124.13-51.13 72.52 0 123.76 51.24 51.24 51.25 51.24 124.1t-51.24 124.09Q346.85-512 274.37-512q-8.67 0-17.13-.92-8.46-.91-15.41-3.58l-76.62 129.04q-9.71 16.96-5.96 32.11 3.75 15.16 15.19 24.05 11.11 9.23 26.17 10.68 15.05 1.45 29.22-11.21L665.5-704.5q47.67-40.83 99.17-37.25 51.5 3.58 87.66 35.75 36.17 32.17 48.42 82.22Q913-573.72 881.83-521.5l-72 124.17q24.34 23.5 38.59 55.49 14.25 31.99 14.25 68.17 0 73.08-51.45 124.04-51.45 50.96-124.58 50.96-73.14 0-123.89-50.79T512-273.75q0-72.27 50.75-123.59 50.75-51.33 123.9-51.33 7.47 0 15.81.67 8.35.67 16.71 2.17l76.46-127.09q9.7-16.25 4.97-31.65-4.73-15.4-16.31-24.33-11.46-8.6-26.45-9.93-15-1.34-27.28 10.11L295.83-255.33Zm45.93-290q30.75 0 52.5-21.13Q416-587.58 416-618.6q0-31.06-21.74-52.23Q372.51-692 341.42-692q-31.08 0-51.92 21.25-20.83 21.26-20.83 52.44 0 31.15 20.81 52.06 20.81 20.92 52.28 20.92Zm277.68 276.66q30.89 0 52.06-21.25 21.16-21.25 21.16-52.52 0-30.56-21.25-52.06-21.25-21.5-52.52-21.5-30.56 0-51.73 21.6Q546-372.79 546-341.9q0 30.9 21.27 52.06 21.27 21.17 52.17 21.17Zm-277.1-349.66ZM619-342.34Z"/></svg>