<svg xmlns="http://www.w3.org/2000/svg" height="40" viewBox="0 -960 960 960" width="40"><path d="M292.17-305.67q-32.67 26.5-66.59 23.67-33.91-2.83-58.08-23.67-24.83-20.83-33-53.33-8.17-32.5 13-67.67l80.67-133.5q-25.34-17.33-39.92-43.67-14.58-26.34-14.58-58.66 0-51.35 36.24-87.59t88.26-36.24q51.35 0 87.59 36.24T422-662.5q0 51.35-36.24 87.59t-87.59 36.24q-13.54 0-26.15-2.41-12.62-2.42-23.69-7.75l-81.16 134.66Q151-388.5 157.7-363.43q6.7 25.07 25.42 40.33Q201-307 226.58-304.83q25.59 2.16 50.75-18.34l392.34-331.5q30.16-26.5 63.91-24.5T792-656.33q24 21.66 33.75 54.5 9.75 32.83-11.25 68.16L733.33-399.5q24.5 18 38.75 44.42t14.25 57.25q0 51.68-36.61 87.92t-88.25 36.24q-51.3 0-87.05-36.74t-35.75-87.42q0-51.02 35.75-87.26t87.08-36.24q12.49 0 25.66 2.58t25.34 7.08l80.67-134.16q15.66-26.34 9.46-51.07-6.2-24.74-24.41-40.84Q760-653 734.17-655.42q-25.84-2.41-50.17 17.75l-391.83 332Z"/></svg>