<svg xmlns="http://www.w3.org/2000/svg" height="40" viewBox="0 -960 960 960" width="40"><path d="M291.1-260.03q-44.25 37.54-92.84 33.83-48.59-3.71-84.46-33.5-35.31-29.78-47.98-77.52-12.68-47.74 18.01-98.45l76.65-127.76q-25.58-23.03-40.61-55.4-15.03-32.36-15.03-69.04 0-70 49.31-119.5t119.31-49.5q69.63 0 119.13 49.5t49.5 119.5q0 69.63-49.5 119.12-49.5 49.5-119.13 49.5-8.88 0-18.04-1.05-9.17-1.05-17.1-3.53L159.1-390.26q-11.11 18.51-6.99 35.97 4.13 17.46 17.22 28.13 13.1 11.04 30.71 12.45 17.61 1.41 33.79-12.52l435.63-374.18q45-38.29 94.1-34.93 49.09 3.35 84.4 33.7 35.3 30.35 47.15 78.33 11.85 47.98-18.27 98.31l-75.42 128.33q25.58 22.66 40.52 54.93 14.93 32.26 14.93 68.94 0 70.01-49.7 119.32-49.71 49.31-120 49.31-69.91 0-118.92-49.31-49-49.31-49-119.32 0-69.62 49-119.12 49.01-49.5 118.95-49.5 9.03 0 17.58.72 8.55.71 17.13 2.82l79.55-132.34q11.12-18.13 6.43-35.78-4.69-17.65-17.79-28.32-13.1-10.67-30.71-11.98-17.61-1.31-32.84 12.05L291.1-260.03Z"/></svg>