<svg xmlns="http://www.w3.org/2000/svg" height="40" viewBox="0 -960 960 960" width="40"><path d="M291.47-298.67q-34.59 28.2-70.58 25.23-35.99-2.97-62.22-25.15-26.23-22.18-34.92-56.99-8.69-34.8 13.79-72.16l80.4-133.16q-25.49-18.1-40.23-45.67-14.74-27.58-14.74-60.38 0-53.98 38.19-92.18 38.19-38.2 92.81-38.2 54.08 0 92.29 38.2 38.2 38.2 38.2 92.28t-38.2 92.29q-38.21 38.2-92.25 38.2-12.75 0-24.91-2.18-12.16-2.19-22.81-6.99l-81.08 134.82q-15.48 24.9-9.24 48.93 6.25 24.04 24.37 38.65 17.4 15.34 41.96 17.42 24.57 2.08 48.23-17.46l399.48-338.61q32.44-28.19 68.39-25.85 35.95 2.33 62.55 24.73 25.92 22.51 35.72 57.63 9.79 35.12-12.38 72.58L743.6-399q24.77 18.73 39.25 45.96 14.48 27.24 14.48 59.81 0 54-38.64 92.21-38.65 38.2-92.59 38.2-54.35 0-92.05-38.43-37.69-38.43-37.69-92.78 0-53.28 37.86-91.52 37.87-38.24 91.7-38.24 11.95 0 24.38 2.22 12.42 2.22 24.05 6.33l80.66-134.24q15.09-25.38 9.28-49.11-5.82-23.74-23.64-38.95-17.69-14.88-42.47-17.13-24.78-2.24-47.82 17.08L291.47-298.67Zm374.45 103.41q40.83 0 69.9-28.8 29.08-28.8 29.08-69.83 0-40.52-29.13-68.99-29.13-28.48-70.04-28.48-40.91 0-68.92 28.61-28.01 28.62-28.01 69.27 0 40.88 27.93 69.55 27.94 28.67 69.19 28.67ZM294.08-568.8q40.48 0 69.21-28.83 28.74-28.84 28.74-69.58 0-40.74-28.84-69.21-28.84-28.48-69.58-28.48-40.74 0-69.47 28.61-28.73 28.62-28.73 69.55 0 40.48 28.76 69.21 28.77 28.73 69.91 28.73Zm372.77 275.49ZM293.97-666.85Z"/></svg>