<svg xmlns="http://www.w3.org/2000/svg" height="20" viewBox="0 -960 960 960" width="20"><path d="M353-270q-52 58-116 56t-110-38q-46-36-61-96t24-124l63-103q-20-23-30.5-50.5T112-684q0-69 47.5-116.5T276-848q69 0 116.5 47.5T440-684q0 69-47.5 116.5T276-520q-10 0-19-1.5t-20-4.5l-65 104q-18 28-9 53.5t29 40.5q20 15 45.5 15t46.5-24l323-352q52-57 114.5-56.5T830-709q46 36 63 96t-23 126l-63 103q20 23 30.5 50t10.5 58q0 69-47.5 116.5T684-112q-69 0-116.5-47.5T520-276q0-69 47.5-116.5T684-440q10 0 19 1.5t20 4.5l64-104q17-28 9.5-53T769-632q-20-16-46.5-15T676-622L353-270Z"/></svg>