<svg xmlns="http://www.w3.org/2000/svg" height="20" viewBox="0 -960 960 960" width="20"><path d="M361.41-291.26q-46.67 52.17-104.19 51.18-57.52-.99-100.2-33.18-42.43-32.2-56.9-86.47Q85.65-414 121.59-472.15l62.06-99.61q-17.52-19.72-27.65-44.2-10.13-24.47-10.13-52.71 0-61.37 42.04-103.42 42.05-42.04 103.42-42.04 61.37 0 103.41 42.04 42.04 42.05 42.04 103.42 0 61.37-42.04 103.41t-103.41 42.04q-10.79 0-20.94-2.13-10.15-2.13-21.17-4.89l-61.81 98.59q-18.04 28.82-9.65 54.77 8.39 25.95 29.7 41.99 21.3 16.04 47.88 15.92 26.57-.12 48.9-24.92L598.83-668q47.15-52.65 103.92-52.16 56.77.49 98.71 32.92 41.93 32.44 57.04 86.34 15.11 53.9-20.59 113.55L776.59-388q17.52 20.22 27.53 44.58 10.01 24.35 10.01 52.59 0 60.87-42.04 102.92-42.05 42.04-103.42 42.04-61.37 0-103.41-42.04-42.04-42.05-42.04-102.92 0-61.37 42.04-103.66t103.41-42.29q11.03 0 21.18 2.13t21.17 4.89l61.31-98.35q18.04-28.82 9.41-55.27-8.63-26.45-29.94-42.49-21.3-16.04-48.38-15.3-27.07.74-48.16 25.3L361.41-291.26Z"/></svg>