<svg xmlns="http://www.w3.org/2000/svg" height="40" viewBox="0 -960 960 960" width="40"><path d="M288.67-291q-36 31.33-75.5 27.83T147.33-291q-27.66-23.67-36.16-60.5-8.5-36.83 14.83-76.5l80-133.67q-25.67-19.33-40.5-47.59-14.83-28.25-14.83-62.07 0-57.69 40.16-97.84 40.15-40.16 98.5-40.16 57.69 0 97.84 40.16 40.16 40.15 40.16 97.84 0 57.68-40.16 97.84-40.15 40.16-97.84 40.16-13.2 0-24.9-1.84-11.7-1.83-22.43-7.5L160.33-407q-15.33 24.33-8.38 48.4 6.95 24.07 24.17 37.67 16.55 13.6 40.21 16.26Q240-302 262.67-321l409.66-347.67q34.34-31 72.84-28.66 38.5 2.33 66.5 26Q838.33-647 849-609.5q10.67 37.5-13.33 77.83l-80.34 134q25 20 39.5 47.93 14.5 27.92 14.5 61.07 0 57.69-40.53 97.84-40.53 40.16-98.5 40.16-57.63 0-97.3-40.66-39.67-40.65-39.67-97.34 0-57.35 39.67-97.67 39.67-40.33 97.33-40.33 11.82 0 24.25 2 12.42 2 23.42 7L799.33-553q14.34-25 9.05-48.07-5.28-23.07-22.5-37.67-17.21-13.93-41.05-16.59-23.83-2.67-46.5 16.66L288.67-291Z"/></svg>