<svg xmlns="http://www.w3.org/2000/svg" height="20" viewBox="0 -960 960 960" width="20"><path d="M357.19-320.85q-38.24 44.35-85.71 43.79-47.48-.56-81.94-26.56t-45.71-69.53q-11.25-43.54 17.86-90.7l66.96-107.77q-18-15.92-28.25-37.26-10.25-21.34-10.25-46.12 0-48.96 32.95-81.9 32.94-32.95 81.82-32.95 48.89 0 81.83 32.95 32.94 32.94 32.94 81.82 0 48.89-32.94 81.83t-81.83 32.94q-13.69 0-27-3.02-13.3-3.02-26.73-8.32L185.5-448.46q-22.46 35.5-12.25 68 10.22 32.5 36.66 52.54 26.06 20.44 59.75 20.85 33.69.42 62.53-29.81l271.77-301.39q36.92-44.35 82.77-45.06 45.85-.71 80.76 25.45 34.92 26.15 47.94 69.67 13.03 43.52-16.3 92.11l-67.4 108.48q17.62 16.04 27.87 36.92 10.25 20.87 10.25 46.05 0 48.61-33.5 81.55-33.5 32.95-81.83 32.95t-81.27-33.25q-32.94-33.25-32.94-81.67 0-47.85 33.11-81.24 33.11-33.38 80.89-33.38 14.23 0 28.04 3.31 13.8 3.3 27.61 8.42l64.42-103.58q22.08-35.5 12.23-68.46-9.85-32.96-35.87-53.27-26.01-20.31-60.42-20.38-34.4-.08-61.86 30.15L357.19-320.85Zm297.24 101.77q35.85 0 61.17-25.02 25.32-25.03 25.32-60.92 0-36.06-25.53-60.9-25.53-24.85-61.38-24.85-35.86 0-60.32 25.06t-24.46 61.06q0 36 24.67 60.78 24.68 24.79 60.53 24.79ZM305.14-569.23q35.94 0 60.78-25.06 24.85-25.06 24.85-61t-25.06-60.79q-25.06-24.84-61-24.84t-60.79 25.06q-24.84 25.05-24.84 61 0 35.94 25.06 60.78 25.05 24.85 61 24.85Zm349.94 264.31ZM304.92-655.08Z"/></svg>