<svg xmlns="http://www.w3.org/2000/svg" height="24" viewBox="0 -960 960 960" width="24"><path d="M296.19-299.85q-34.07 28.35-70.63 25.29-36.56-3.06-63.02-25.06t-35.21-57.53q-8.75-35.54 13.36-72.7l77.96-128.77q-24-17.92-38.25-45.03-14.25-27.12-14.25-59.43 0-54.88 37.95-92.82 37.94-37.95 92.82-37.95 54.89 0 92.83 37.95 37.94 37.94 37.94 92.82 0 54.89-37.94 92.83t-92.83 37.94q-12.19 0-23.75-2.02-11.55-2.02-21.98-6.32L172.5-410.46q-14.46 23.5-8.67 46 5.79 22.5 23.13 36.58 16.96 14.46 40.1 16.34 23.13 1.89 45.13-16.34l392.77-332.39q32.92-28.35 68.77-25.56 35.85 2.79 62.58 24.79 26.73 22.39 36.44 57.87 9.71 35.48-12.79 73.13l-78.23 129.42q23.62 18.04 37.87 44.97 14.25 26.92 14.25 58.84 0 54.77-38.33 92.71-38.33 37.95-93.21 37.95-54.12 0-92.06-38.33-37.94-38.33-37.94-92.33 0-54.11 37.94-92.5 37.94-38.38 92.06-38.38 12.19 0 24.02 2.4 11.82 2.41 22.63 6.33l78.42-130.58q14.08-23.5 8.68-46-5.41-22.5-22.37-36.96-16.96-14.08-40.29-16.15-23.32-2.08-44.94 16.15L296.19-299.85Z"/></svg>