<svg xmlns="http://www.w3.org/2000/svg" height="20" viewBox="0 -960 960 960" width="20"><path d="M363-259q-55 61-124 59t-119-41q-50-39-68-104t25-135l58-93q-18-24-27.5-52.22Q98-653.45 98-684q0-75 51.5-126.5T276-862q75 0 127 51.5T455-684q0 75-52 127t-127 52q-6.76 0-14.52-1.5-7.77-1.5-16.48-3.5l-59 96q-15 22-8.04 42.58 6.95 20.59 23.44 32.55 16.49 11.97 36.99 11.42Q258.89-328 274-348l324-352q56-61 124.5-60.5T840.57-720q49.56 40 67 104.5Q925-551 883-480l-57 94q18 24 27 51.2 9 27.21 9 58.8 0 75-51.5 126.5T684-98q-75 0-127-51.5T505-276q0-75 52-127t127-52q7.31 0 15.21 1.5 7.91 1.5 16.79 3.5l59-95q14-22 7-42.5t-24-33q-17-12.5-37.5-11T686-610L363-259Zm-93.29-381q20.82 0 35.55-14.95Q320-669.9 320-690.71q0-20.82-14.95-35.55Q290.1-741 269.29-741q-20.82 0-35.55 14.95Q219-711.1 219-690.29q0 20.82 14.95 35.55Q248.9-640 269.71-640Zm421 421q20.82 0 35.55-14.95Q741-248.9 741-269.71q0-20.82-14.95-35.55Q711.1-320 690.29-320q-20.82 0-35.55 14.95Q640-290.1 640-269.29q0 20.82 14.95 35.55Q669.9-219 690.71-219ZM270-690Zm420 420Z"/></svg>