<svg xmlns="http://www.w3.org/2000/svg" height="24" viewBox="0 -960 960 960" width="24"><path d="M291.23-262.08q-44.23 38.92-93.15 34.42-48.93-4.5-83.46-33.8-34.54-29.31-45.5-76.89-10.96-47.57 17.96-96.57l75.54-126.7Q137-584.69 122.5-616.73 108-648.77 108-685.08q0-70 48.46-118.46Q204.92-852 274.92-852t118.46 48.46q48.47 48.46 48.47 118.46t-48.47 118.46q-48.46 48.47-118.46 48.47-9.2 0-18.02-.89-8.82-.88-18.07-4.04l-79.06 131.77q-11.54 18.69-6.27 36.69 5.27 18 18.2 28.53 12.94 10.52 30.56 12.23 17.63 1.71 34.05-12.22l432.84-371.46q43.77-37.92 91.66-34.3 47.88 3.61 82.96 32.9 35.08 29.29 47.46 76.88 12.38 47.6-17.92 97.98L797.38-397q25.62 23.08 40.12 54.24 14.5 31.17 14.5 67.84 0 70-48.74 118.46Q754.52-108 684.8-108t-118.18-48.66q-48.47-48.66-48.47-118.27t48.55-118.26q48.55-48.66 117.99-48.66 9.21 0 17.92 1.08 8.7 1.08 17.85 4.23l78.77-132.15q10.54-18.69 6.95-35.67-3.59-16.98-16.5-28.54-12.91-11.56-31.1-12.95-18.2-1.38-34.5 12.93L291.23-262.08ZM684.65-194q33.56 0 57.45-23.66 23.9-23.66 23.9-57.26 0-33.61-23.9-57.27-23.89-23.66-57.45-23.66t-57.03 23.66q-23.47 23.66-23.47 57.27 0 33.6 23.47 57.26Q651.09-194 684.65-194ZM274.92-604.15q33.61 0 57.27-23.66 23.66-23.66 23.66-57.27 0-33.6-23.66-57.26Q308.53-766 274.92-766q-33.6 0-57.26 23.66Q194-718.68 194-685.08q0 33.61 23.66 57.27 23.66 23.66 57.26 23.66Zm410.16 329.23ZM274.92-685.08Z"/></svg>