<svg xmlns="http://www.w3.org/2000/svg" height="40" viewBox="0 -960 960 960" width="40"><path d="M288.67-291q-36.21 31.33-75.61 27.83-39.39-3.5-66.06-27.83-27.33-23.67-35.83-60.5T126-428l80-133.67q-25.67-19.39-40.5-47.98-14.83-28.6-14.83-61.92 0-57.45 40.13-97.6 40.14-40.16 98.53-40.16 57.69 0 97.84 40.16 40.16 40.15 40.16 97.84 0 57.68-40.16 97.84-40.15 40.16-97.84 40.16-12.86 0-24.73-1.84-11.87-1.83-22.69-7.5L160.33-407q-15.33 24.57-8.38 48.52 6.95 23.95 23.87 37.51 16.91 13.56 40.49 16.26Q239.89-302 262.67-321l409.66-347.67q34.34-31 72.77-28.46 38.44 2.53 66.87 25.75 26.97 24.28 37.33 61.83 10.37 37.55-13.63 77.88l-80.34 134q25 20 39.5 47.77 14.5 27.76 14.5 61.23 0 57.69-40.67 97.84-40.68 40.16-98.08 40.16-57.95 0-97.6-40.67-39.65-40.68-39.65-97.65 0-56.97 39.87-97.33 39.86-40.35 97.13-40.35 11.59 0 24.13 2t23.54 7L799.33-553q14.34-25 9.02-48.02-5.31-23.02-22.5-37.33-17.18-14.32-41.02-16.98-23.83-2.67-46.5 16.66L288.67-291Zm381.52 99q40.26 0 69.03-28.4Q768-248.8 768-288.99q0-40.2-28.74-68.27-28.74-28.07-69.09-28.07-40.36 0-67.93 28.1-27.57 28.11-27.57 68.56 0 39.86 27.36 68.27 27.36 28.4 68.16 28.4ZM289.33-574.67q39.86 0 68.27-28.39 28.4-28.4 28.4-68.6 0-40.2-28.4-68.27Q329.2-768 289.01-768q-40.2 0-68.61 28.11-28.4 28.1-28.4 68.55 0 39.87 28.3 68.27t69.03 28.4Zm382 286Zm-382-382.66Z"/></svg>