<svg xmlns="http://www.w3.org/2000/svg" version="1.1" width="3300" height="2000"><g id="Notes"><style>
    text {
      font-family: monospace;
      text-anchor: middle;
    }
    text.emphasis {
      font-weight:bold;
    }
    text.lanchor {
      text-anchor: start;
    }
  </style><rect height="2200" id="artboard" fill="white" width="3300" x="0" y="0"/><line id="" style="fill:none;stroke:black;stroke-width:0.5;" x1="263" x2="3036" y1="292" y2="292"/><text class="lanchor emphasis" transform="matrix(1 0 0 1 263 322)">Weight/Scale Variations</text><text transform="matrix(1 0 0 1 559.711 322)">Ultralight</text><text transform="matrix(1 0 0 1 856.422 322)">Thin</text><text transform="matrix(1 0 0 1 1153.13 322)">Light</text><text transform="matrix(1 0 0 1 1449.84 322)">Regular</text><text transform="matrix(1 0 0 1 1746.56 322)">Medium</text><text transform="matrix(1 0 0 1 2043.27 322)">Semibold</text><text transform="matrix(1 0 0 1 2339.98 322)">Bold</text><text transform="matrix(1 0 0 1 2636.69 322)">Heavy</text><text transform="matrix(1 0 0 1 2933.4 322)">Black</text><text id="template-version" style="text-anchor: end;" transform="matrix(1 0 0 1 3036 1933)">Template v.1.0</text><text class="lanchor" transform="matrix(1 0 0 1 263 726)">Small</text><text class="lanchor" transform="matrix(1 0 0 1 263 1156)">Medium</text><text class="lanchor" transform="matrix(1 0 0 1 263 1586)">Large</text></g><g id="Guides"><g id="H-reference" style="fill:#27AAE1;stroke:none;" transform="matrix(1 0 0 1 339 696)"><path d="M 54.9316 0 L 57.666 0 L 30.5664 -70.459 L 28.0762 -70.459 L 0.976562 0 L 3.66211 0 L 12.9395 -24.4629 L 45.7031 -24.4629 Z M 29.1992 -67.0898 L 29.4434 -67.0898 L 44.8242 -26.709 L 13.8184 -26.709 Z"/></g><line id="Baseline-S" style="fill:none;stroke:#27AAE1;opacity:1;stroke-width:0.577;" x1="263" x2="3036" y1="696" y2="696"/><line id="Capline-S" style="fill:none;stroke:#27AAE1;opacity:1;stroke-width:0.577;" x1="263" x2="3036" y1="625.541" y2="625.541"/><g id="H-reference" style="fill:#27AAE1;stroke:none;" transform="matrix(1 0 0 1 339 1126)"><path d="M 54.9316 0 L 57.666 0 L 30.5664 -70.459 L 28.0762 -70.459 L 0.976562 0 L 3.66211 0 L 12.9395 -24.4629 L 45.7031 -24.4629 Z M 29.1992 -67.0898 L 29.4434 -67.0898 L 44.8242 -26.709 L 13.8184 -26.709 Z"/></g><line id="Baseline-M" style="fill:none;stroke:#27AAE1;opacity:1;stroke-width:0.577;" x1="263" x2="3036" y1="1126" y2="1126"/><line id="Capline-M" style="fill:none;stroke:#27AAE1;opacity:1;stroke-width:0.577;" x1="263" x2="3036" y1="1055.54" y2="1055.54"/><g id="H-reference" style="fill:#27AAE1;stroke:none;" transform="matrix(1 0 0 1 339 1556)"><path d="M 54.9316 0 L 57.666 0 L 30.5664 -70.459 L 28.0762 -70.459 L 0.976562 0 L 3.66211 0 L 12.9395 -24.4629 L 45.7031 -24.4629 Z M 29.1992 -67.0898 L 29.4434 -67.0898 L 44.8242 -26.709 L 13.8184 -26.709 Z"/></g><line id="Baseline-L" style="fill:none;stroke:#27AAE1;opacity:1;stroke-width:0.577;" x1="263" x2="3036" y1="1556" y2="1556"/><line id="Capline-L" style="fill:none;stroke:#27AAE1;opacity:1;stroke-width:0.577;" x1="263" x2="3036" y1="1485.54" y2="1485.54"/><rect height="119.336" id="left-margin" style="fill:darkred;stroke:none;opacity:0.4;" width="12.4512" x="1394.06" y="1030.79"/><rect height="119.336" id="right-margin" style="fill:darkgreen;stroke:none;opacity:0.4;" width="12.4512" x="1502.5112" y="1030.79"/><rect x="1406.5112" y="1045" width="96" height="96" fill="none" stroke="blue" stroke-dasharray="5"/><rect x="1394.06" y="1030.79" width="120.9024" height="119.336" fill="none" stroke="blue"/></g><g id="Symbols"><g id="Bold-L" transform="matrix(1 0 0 1 2266 1556)"><path d="M46.843 0.729 Q39.426 6.937 31.403 6.292 Q23.381 5.647 17.496 0.729 Q11.771 -4.189 9.756 -11.97 Q7.74 -19.75 12.819 -28.135 L25.236 -48.856 Q21.043 -52.645 18.665 -57.907 Q16.286 -63.17 16.286 -69.012 Q16.286 -80.546 24.347 -88.686 Q32.408 -96.827 43.941 -96.827 Q55.312 -96.827 63.453 -88.686 Q71.595 -80.546 71.595 -69.012 Q71.595 -57.639 63.453 -49.499 Q55.312 -41.357 43.941 -41.357 Q42.441 -41.357 40.941 -41.519 Q39.442 -41.68 38.216 -42.244 L25.397 -20.637 Q23.623 -17.492 24.337 -14.734 Q25.05 -11.976 27.119 -10.46 Q29.106 -8.704 31.847 -8.422 Q34.588 -8.14 37.249 -10.478 L108.199 -71.189 Q115.697 -77.558 123.8 -77.074 Q131.903 -76.591 137.546 -71.511 Q143.19 -66.351 145.125 -58.531 Q147.06 -50.71 142.142 -42.486 L130.129 -21.604 Q134.241 -17.896 136.619 -12.634 Q138.998 -7.371 138.998 -1.609 Q138.998 9.923 130.808 17.984 Q122.616 26.045 111.014 26.045 Q99.572 26.045 91.55 17.984 Q83.528 9.923 83.528 -1.609 Q83.528 -12.981 91.55 -21.122 Q99.572 -29.264 111.021 -29.264 Q112.428 -29.264 113.862 -29.183 Q115.294 -29.102 116.826 -28.78 L129.564 -49.984 Q131.338 -52.967 130.463 -55.807 Q129.589 -58.645 127.52 -60.241 Q125.453 -61.756 122.711 -62.038 Q119.97 -62.32 117.713 -60.224 L46.843 0.729 Z"/></g><g id="Semibold-L" transform="matrix(1 0 0 1 1970.27 1556)"><path d="M46.422 -0.534 Q39.426 5.324 31.894 4.715 Q24.363 4.105 18.828 -0.534 Q13.384 -5.171 11.544 -12.495 Q9.702 -19.819 14.432 -27.645 L27.198 -48.925 Q22.936 -52.505 20.487 -57.661 Q18.039 -62.818 18.039 -68.662 Q18.039 -79.564 25.715 -87.285 Q33.388 -95.005 44.291 -95.005 Q55.102 -95.005 62.823 -87.285 Q70.544 -79.564 70.544 -68.662 Q70.544 -57.85 62.823 -50.129 Q55.102 -42.409 44.291 -42.409 Q42.651 -42.409 41.046 -42.606 Q39.442 -42.802 38.076 -43.367 L24.976 -21.338 Q22.993 -17.913 23.776 -14.804 Q24.56 -11.696 26.908 -9.901 Q29.175 -7.934 32.303 -7.651 Q35.43 -7.369 38.371 -9.917 L108.549 -69.997 Q115.557 -75.946 123.169 -75.462 Q130.78 -74.978 136.143 -70.249 Q141.508 -65.44 143.337 -58.074 Q145.167 -50.71 140.529 -42.976 L128.095 -21.604 Q132.278 -18.036 134.726 -12.879 Q137.175 -7.722 137.175 -1.959 Q137.175 8.943 129.405 16.617 Q121.634 24.292 110.663 24.292 Q99.781 24.292 92.18 16.617 Q84.579 8.943 84.579 -1.959 Q84.579 -12.771 92.18 -20.492 Q99.781 -28.212 110.671 -28.212 Q112.219 -28.212 113.755 -28.096 Q115.294 -27.98 116.895 -27.588 L129.914 -49.283 Q131.899 -52.618 131.024 -55.772 Q130.15 -58.926 127.8 -60.801 Q125.453 -62.597 122.326 -62.88 Q119.199 -63.162 116.521 -60.785 L46.422 -0.534 Z"/></g><g id="Medium-L" transform="matrix(1 0 0 1 1674.31 1556)"><path d="M46.106 -1.48 Q39.426 4.115 32.263 3.531 Q25.099 2.948 19.827 -1.48 Q14.593 -5.907 12.884 -12.89 Q11.175 -19.873 15.641 -27.276 L28.67 -48.978 Q24.355 -52.4 21.854 -57.478 Q19.353 -62.555 19.353 -68.399 Q19.353 -78.827 26.738 -86.233 Q34.125 -93.638 44.553 -93.638 Q54.944 -93.638 62.349 -86.233 Q69.755 -78.827 69.755 -68.399 Q69.755 -58.008 62.349 -50.604 Q54.944 -43.197 44.553 -43.197 Q42.809 -43.197 41.125 -43.42 Q39.442 -43.642 37.971 -44.207 L24.66 -21.864 Q22.519 -18.229 23.355 -14.858 Q24.192 -11.486 26.75 -9.48 Q29.228 -7.355 32.645 -7.073 Q36.06 -6.79 39.211 -9.496 L108.811 -69.104 Q115.452 -74.736 122.695 -74.252 Q129.94 -73.769 135.092 -69.302 Q140.246 -64.756 141.997 -57.732 Q143.748 -50.71 139.32 -43.346 L126.57 -21.604 Q130.806 -18.141 133.307 -13.063 Q135.808 -7.985 135.808 -2.222 Q135.808 8.206 128.353 15.593 Q120.899 22.978 110.4 22.978 Q99.94 22.978 92.654 15.593 Q85.367 8.206 85.367 -2.222 Q85.367 -12.613 92.654 -20.018 Q99.94 -27.424 110.408 -27.424 Q112.061 -27.424 113.676 -27.282 Q115.294 -27.14 116.948 -26.695 L130.177 -48.757 Q132.32 -52.355 131.445 -55.744 Q130.569 -59.135 128.012 -61.222 Q125.453 -63.228 122.037 -63.51 Q118.62 -63.792 115.628 -61.206 L46.106 -1.48 Z"/></g><g id="Regular-L" transform="matrix(1 0 0 1 1378.56 1556)"><path d="M45.876 -2.174 Q39.426 3.228 32.532 2.664 Q25.639 2.099 20.559 -2.174 Q15.48 -6.447 13.867 -13.179 Q12.255 -19.911 16.528 -27.006 L29.751 -49.017 Q25.397 -52.322 22.857 -57.342 Q20.317 -62.364 20.317 -68.206 Q20.317 -78.289 27.492 -85.461 Q34.666 -92.635 44.747 -92.635 Q54.828 -92.635 62.002 -85.461 Q69.176 -78.289 69.176 -68.206 Q69.176 -58.123 62.002 -50.95 Q54.828 -43.776 44.747 -43.776 Q42.925 -43.776 41.183 -44.018 Q39.442 -44.26 37.894 -44.824 L24.429 -22.249 Q22.172 -18.46 23.047 -14.895 Q23.921 -11.331 26.635 -9.17 Q29.267 -6.931 32.895 -6.648 Q36.523 -6.366 39.829 -9.188 L109.005 -68.447 Q115.374 -73.849 122.348 -73.366 Q129.322 -72.882 134.321 -68.609 Q139.32 -64.255 141.013 -57.482 Q142.706 -50.71 138.433 -43.615 L125.453 -21.604 Q129.726 -18.218 132.265 -13.198 Q134.805 -8.177 134.805 -2.416 Q134.805 7.666 127.583 14.84 Q120.359 22.014 110.208 22.014 Q100.056 22.014 93.001 14.84 Q85.946 7.666 85.946 -2.416 Q85.946 -12.497 93.001 -19.671 Q100.056 -26.845 110.214 -26.845 Q111.945 -26.845 113.62 -26.684 Q115.294 -26.522 116.987 -26.039 L130.371 -48.372 Q132.628 -52.161 131.753 -55.726 Q130.879 -59.29 128.165 -61.531 Q125.453 -63.691 121.824 -63.973 Q118.196 -64.255 114.971 -61.514 L45.876 -2.174 Z"/></g><g id="Light-L" transform="matrix(1 0 0 1 1082.77 1556)"><path d="M46.248 -4.035 Q40.232 0.934 33.896 0.416 Q27.561 -0.102 22.947 -4.035 Q18.271 -7.966 16.767 -14.109 Q15.264 -20.253 19.226 -26.821 L32.418 -48.738 Q28.125 -51.858 25.648 -56.583 Q23.17 -61.309 23.17 -66.933 Q23.17 -76.304 29.847 -82.981 Q36.525 -89.658 45.956 -89.658 Q55.325 -89.658 62.002 -82.981 Q68.68 -76.304 68.68 -66.933 Q68.68 -57.565 62.002 -50.887 Q55.325 -44.21 45.956 -44.21 Q43.979 -44.21 42.114 -44.515 Q40.248 -44.818 38.606 -45.506 L25.236 -23.149 Q22.823 -19.205 23.791 -15.422 Q24.76 -11.641 27.596 -9.357 Q30.321 -6.961 34.167 -6.648 Q38.011 -6.336 41.659 -9.374 L108.726 -66.556 Q114.505 -71.524 120.907 -71.118 Q127.307 -70.711 131.903 -66.779 Q136.435 -62.736 138.098 -56.536 Q139.76 -50.338 135.827 -43.77 L122.755 -21.822 Q126.934 -18.591 129.381 -13.85 Q131.828 -9.107 131.828 -3.656 Q131.828 5.744 125.101 12.421 Q118.374 19.098 108.936 19.098 Q99.498 19.098 92.94 12.39 Q86.38 5.682 86.38 -3.656 Q86.38 -13.024 92.94 -19.687 Q99.498 -26.348 108.942 -26.348 Q110.766 -26.348 112.627 -26.095 Q114.487 -25.84 116.305 -25.263 L129.595 -47.411 Q131.977 -51.416 131.04 -55.167 Q130.103 -58.918 127.297 -61.314 Q124.491 -63.597 120.631 -63.926 Q116.769 -64.255 113.235 -61.296 L46.248 -4.035 Z"/></g><g id="Thin-L" transform="matrix(1 0 0 1 787.282 1556)"><path d="M46.621 -5.895 Q41.038 -1.361 35.261 -1.832 Q29.485 -2.304 25.336 -5.895 Q21.062 -9.486 19.666 -15.04 Q18.271 -20.593 21.924 -26.634 L35.085 -48.459 Q30.855 -51.392 28.44 -55.823 Q26.023 -60.254 26.023 -65.663 Q26.023 -74.319 32.205 -80.499 Q38.386 -86.682 47.166 -86.682 Q55.822 -86.682 62.002 -80.499 Q68.185 -74.319 68.185 -65.663 Q68.185 -57.007 62.002 -50.826 Q55.822 -44.644 47.166 -44.644 Q45.034 -44.644 43.044 -45.01 Q41.054 -45.376 39.321 -46.189 L26.042 -24.047 Q23.475 -19.948 24.536 -15.949 Q25.597 -11.952 28.557 -9.543 Q31.376 -6.992 35.438 -6.648 Q39.5 -6.305 43.488 -9.561 L108.447 -64.665 Q113.638 -69.197 119.465 -68.87 Q125.291 -68.541 129.484 -64.95 Q133.552 -61.215 135.184 -55.591 Q136.814 -49.965 133.223 -43.925 L120.057 -22.038 Q124.143 -18.963 126.497 -14.5 Q128.852 -10.038 128.852 -4.896 Q128.852 3.822 122.621 10.002 Q116.39 16.185 107.665 16.185 Q98.94 16.185 92.877 9.941 Q86.814 3.697 86.814 -4.896 Q86.814 -13.552 92.877 -19.702 Q98.94 -25.853 107.671 -25.853 Q109.589 -25.853 111.635 -25.505 Q113.681 -25.158 115.623 -24.488 L128.819 -46.45 Q131.325 -50.673 130.327 -54.609 Q129.327 -58.547 126.428 -61.096 Q123.53 -63.505 119.436 -63.879 Q115.344 -64.255 111.498 -61.08 L46.621 -5.895 Z"/></g><g id="Ultralight-L" transform="matrix(1 0 0 1 491.205 1556)"><path d="M46.843 -7.011 Q41.522 -2.738 36.08 -3.182 Q30.637 -3.625 26.768 -7.011 Q22.736 -10.397 21.406 -15.598 Q20.076 -20.798 23.543 -26.522 L36.684 -48.291 Q32.492 -51.113 30.113 -55.367 Q27.735 -59.622 27.735 -64.9 Q27.735 -73.129 33.619 -79.011 Q39.503 -84.895 47.891 -84.895 Q56.118 -84.895 62.002 -79.011 Q67.886 -73.129 67.886 -64.9 Q67.886 -56.671 62.002 -50.789 Q56.118 -44.905 47.891 -44.905 Q45.666 -44.905 43.602 -45.308 Q41.538 -45.711 39.748 -46.598 L26.526 -24.587 Q23.865 -20.395 24.982 -16.265 Q26.098 -12.137 29.135 -9.654 Q32.008 -7.011 36.201 -6.648 Q40.393 -6.286 44.586 -9.672 L108.279 -63.529 Q113.117 -67.802 118.599 -67.52 Q124.082 -67.238 128.032 -63.852 Q131.822 -60.304 133.434 -55.023 Q135.047 -49.742 131.661 -44.018 L118.438 -22.169 Q122.469 -19.186 124.767 -14.892 Q127.065 -10.596 127.065 -5.641 Q127.065 2.667 121.133 8.551 Q115.199 14.435 106.902 14.435 Q98.604 14.435 92.84 8.47 Q87.075 2.506 87.075 -5.641 Q87.075 -13.868 92.84 -19.711 Q98.604 -25.555 106.909 -25.555 Q108.881 -25.555 111.04 -25.152 Q113.198 -24.749 115.213 -24.023 L128.355 -45.872 Q130.935 -50.226 129.898 -54.275 Q128.863 -58.323 125.907 -60.967 Q122.953 -63.449 118.72 -63.852 Q114.487 -64.255 110.456 -60.949 L46.843 -7.011 Z"/></g><g id="Bold-M" transform="matrix(1 0 0 1 2281.8 1126)"><path d="M38.312 -6.73 Q32.312 -1.542 25.594 -2.074 Q18.875 -2.605 13.875 -6.605 Q9 -10.605 7.219 -17.292 Q5.438 -23.98 9.625 -30.855 L18.188 -44.98 Q15.438 -47.98 13.719 -51.98 Q12 -55.98 12 -60.48 Q12 -70.042 18.594 -76.636 Q25.188 -83.23 34.75 -83.23 Q44.312 -83.23 50.906 -76.636 Q57.5 -70.042 57.5 -60.48 Q57.5 -50.917 50.906 -44.324 Q44.312 -37.73 34.75 -37.73 Q33.938 -37.73 33.094 -37.824 Q32.25 -37.917 31.438 -38.042 L22.562 -23.105 Q21.688 -21.667 22.031 -20.292 Q22.375 -18.917 23.438 -18.042 Q24.5 -17.167 25.844 -17.042 Q27.188 -16.917 28.438 -18.042 L81.812 -63.667 Q88.062 -69.105 94.812 -68.511 Q101.562 -67.917 106.375 -63.792 Q111.188 -59.667 112.781 -53.074 Q114.375 -46.48 110.312 -39.542 L101.938 -25.355 Q104.688 -22.292 106.344 -18.355 Q108 -14.417 108 -9.917 Q108 -0.417 101.406 6.176 Q94.812 12.77 85.25 12.77 Q75.688 12.77 69.094 6.176 Q62.5 -0.417 62.5 -9.917 Q62.5 -19.48 69.094 -26.105 Q75.688 -32.73 85.25 -32.73 Q86.188 -32.73 86.969 -32.636 Q87.75 -32.542 88.562 -32.417 L97.5 -47.23 Q98.375 -48.667 97.906 -50.042 Q97.438 -51.417 96.375 -52.292 Q95.312 -53.167 93.969 -53.23 Q92.625 -53.292 91.5 -52.292 L38.312 -6.73 Z"/></g><g id="Semibold-M" transform="matrix(1 0 0 1 1985.97 1126)"><path d="M37.877 -8.034 Q32.259 -3.227 26.056 -3.704 Q19.854 -4.181 15.234 -7.909 Q10.685 -11.637 9.066 -17.809 Q7.449 -23.98 11.31 -30.366 L20.199 -45.034 Q17.34 -47.871 15.594 -51.762 Q13.848 -55.654 13.848 -60.1 Q13.848 -69.01 20.034 -75.196 Q26.22 -81.382 35.13 -81.382 Q44.041 -81.382 50.227 -75.196 Q56.413 -69.01 56.413 -60.1 Q56.413 -51.189 50.227 -45.002 Q44.041 -38.817 35.13 -38.817 Q34.155 -38.817 33.175 -38.937 Q32.196 -39.059 31.275 -39.237 L22.128 -23.866 Q21.035 -22.047 21.461 -20.32 Q21.886 -18.591 23.22 -17.499 Q24.554 -16.406 26.279 -16.255 Q28.003 -16.102 29.633 -17.499 L82.192 -62.417 Q87.954 -67.366 94.188 -66.826 Q100.421 -66.287 104.907 -62.489 Q109.394 -58.689 110.906 -52.585 Q112.419 -46.48 108.627 -40.031 L99.873 -25.355 Q102.731 -22.455 104.441 -18.6 Q106.153 -14.744 106.153 -10.297 Q106.153 -1.45 99.966 4.736 Q93.78 10.923 84.87 10.923 Q75.959 10.923 69.772 4.736 Q63.587 -1.45 63.587 -10.297 Q63.587 -19.209 69.772 -25.426 Q75.959 -31.642 84.87 -31.642 Q85.916 -31.642 86.832 -31.522 Q87.75 -31.401 88.671 -31.222 L97.88 -46.524 Q98.972 -48.341 98.476 -50.07 Q97.981 -51.797 96.646 -52.89 Q95.312 -53.982 93.589 -54.1 Q91.864 -54.216 90.305 -52.89 L37.877 -8.034 Z"/></g><g id="Medium-M" transform="matrix(1 0 0 1 1689.91 1126)"><path d="M37.551 -9.012 Q32.218 -4.491 26.402 -4.927 Q20.587 -5.364 16.253 -8.887 Q11.949 -12.412 10.453 -18.196 Q8.956 -23.98 12.574 -29.999 L21.706 -45.075 Q18.766 -47.79 17 -51.6 Q15.234 -55.409 15.234 -59.814 Q15.234 -68.235 21.114 -74.116 Q26.995 -79.996 35.416 -79.996 Q43.837 -79.996 49.718 -74.116 Q55.597 -68.235 55.597 -59.814 Q55.597 -51.392 49.718 -45.512 Q43.837 -39.632 35.416 -39.632 Q34.318 -39.632 33.236 -39.774 Q32.155 -39.915 31.152 -40.135 L21.801 -24.436 Q20.546 -22.334 21.032 -20.34 Q21.519 -18.346 23.058 -17.091 Q24.595 -15.836 26.605 -15.664 Q28.614 -15.491 30.53 -17.091 L82.479 -61.48 Q87.873 -66.061 93.719 -65.562 Q99.565 -65.064 103.808 -61.51 Q108.049 -57.955 109.5 -52.217 Q110.951 -46.48 107.364 -40.399 L98.324 -25.355 Q101.264 -22.577 103.015 -18.782 Q104.766 -14.989 104.766 -10.584 Q104.766 -2.225 98.886 3.656 Q93.005 9.536 84.584 9.536 Q76.162 9.536 70.282 3.656 Q64.403 -2.225 64.403 -10.584 Q64.403 -19.005 70.282 -24.916 Q76.162 -30.827 84.584 -30.827 Q85.713 -30.827 86.731 -30.686 Q87.75 -30.545 88.752 -30.325 L98.166 -45.994 Q99.421 -48.096 98.905 -50.09 Q98.389 -52.084 96.85 -53.339 Q95.312 -54.594 93.302 -54.751 Q91.294 -54.909 89.407 -53.339 L37.551 -9.012 Z"/></g><g id="Regular-M" transform="matrix(1 0 0 1 1394.06 1126)"><path d="M37.312 -9.73 Q32.188 -5.417 26.656 -5.824 Q21.125 -6.23 17 -9.605 Q12.875 -12.98 11.469 -18.48 Q10.062 -23.98 13.5 -29.73 L22.812 -45.105 Q19.812 -47.73 18.031 -51.48 Q16.25 -55.23 16.25 -59.605 Q16.25 -67.667 21.906 -73.324 Q27.562 -78.98 35.625 -78.98 Q43.688 -78.98 49.344 -73.324 Q55 -67.667 55 -59.605 Q55 -51.542 49.344 -45.886 Q43.688 -40.23 35.625 -40.23 Q34.438 -40.23 33.281 -40.386 Q32.125 -40.542 31.062 -40.792 L21.562 -24.855 Q20.188 -22.542 20.719 -20.355 Q21.25 -18.167 22.938 -16.792 Q24.625 -15.417 26.844 -15.23 Q29.062 -15.042 31.188 -16.792 L82.688 -60.792 Q87.812 -65.105 93.375 -64.636 Q98.938 -64.167 103 -60.792 Q107.062 -57.417 108.469 -51.949 Q109.875 -46.48 106.438 -40.667 L97.188 -25.355 Q100.188 -22.667 101.969 -18.917 Q103.75 -15.167 103.75 -10.792 Q103.75 -2.792 98.094 2.864 Q92.438 8.52 84.375 8.52 Q76.312 8.52 70.656 2.864 Q65 -2.792 65 -10.792 Q65 -18.855 70.656 -24.542 Q76.312 -30.23 84.375 -30.23 Q85.562 -30.23 86.656 -30.074 Q87.75 -29.917 88.812 -29.667 L98.375 -45.605 Q99.75 -47.917 99.219 -50.105 Q98.688 -52.292 97 -53.667 Q95.312 -55.042 93.094 -55.23 Q90.875 -55.417 88.75 -53.667 L37.312 -9.73 Z"/></g><g id="Light-M" transform="matrix(1 0 0 1 1098.18 1126)"><path d="M37.169 -11.22 Q32.476 -7.292 27.425 -7.686 Q22.375 -8.081 18.659 -11.144 Q14.943 -14.206 13.693 -19.177 Q12.443 -24.149 15.544 -29.345 L25.073 -45.081 Q22.073 -47.514 20.291 -51.084 Q18.51 -54.652 18.51 -58.86 Q18.51 -66.321 23.709 -71.521 Q28.909 -76.72 36.37 -76.72 Q43.831 -76.72 49.031 -71.521 Q54.231 -66.321 54.231 -58.86 Q54.231 -51.399 49.031 -46.199 Q43.831 -40.999 36.37 -40.999 Q35.015 -40.999 33.714 -41.204 Q32.414 -41.407 31.231 -41.802 L21.562 -25.696 Q19.971 -23.071 20.599 -20.571 Q21.226 -18.071 23.154 -16.504 Q25.058 -14.912 27.613 -14.701 Q30.169 -14.49 32.606 -16.504 L82.904 -59.277 Q87.524 -63.206 92.545 -62.797 Q97.567 -62.389 101.269 -59.326 Q104.971 -56.24 106.281 -51.287 Q107.591 -46.336 104.466 -41.076 L94.951 -25.331 Q97.927 -22.86 99.709 -19.302 Q101.49 -15.745 101.49 -11.561 Q101.49 -4.139 96.266 1.061 Q91.044 6.26 83.581 6.26 Q76.169 6.26 70.969 1.036 Q65.769 -4.186 65.769 -11.561 Q65.769 -18.975 70.969 -24.217 Q76.169 -29.461 83.581 -29.461 Q84.938 -29.461 86.224 -29.232 Q87.51 -29.004 88.716 -28.634 L98.399 -44.764 Q99.966 -47.389 99.362 -49.889 Q98.76 -52.389 96.856 -53.98 Q94.953 -55.547 92.385 -55.771 Q89.817 -55.995 87.404 -53.98 L37.169 -11.22 Z"/></g><g id="Thin-M" transform="matrix(1 0 0 1 802.565 1126)"><path d="M37.024 -12.711 Q32.765 -9.167 28.195 -9.55 Q23.625 -9.932 20.317 -12.682 Q17.01 -15.432 15.916 -19.874 Q14.822 -24.316 17.586 -28.961 L27.331 -45.057 Q24.331 -47.297 22.55 -50.686 Q20.769 -54.076 20.769 -58.115 Q20.769 -64.975 25.512 -69.717 Q30.255 -74.461 37.115 -74.461 Q43.976 -74.461 48.719 -69.717 Q53.461 -64.975 53.461 -58.115 Q53.461 -51.254 48.719 -46.511 Q43.976 -41.769 37.115 -41.769 Q35.591 -41.769 34.146 -42.021 Q32.703 -42.274 31.399 -42.811 L21.562 -26.537 Q19.755 -23.6 20.479 -20.787 Q21.203 -17.975 23.37 -16.215 Q25.49 -14.407 28.383 -14.172 Q31.274 -13.936 34.024 -16.215 L83.12 -57.764 Q87.235 -61.307 91.716 -60.959 Q96.198 -60.61 99.539 -57.86 Q102.88 -55.061 104.094 -50.626 Q105.308 -46.191 102.495 -41.485 L92.716 -25.307 Q95.669 -23.052 97.45 -19.686 Q99.231 -16.321 99.231 -12.331 Q99.231 -5.485 94.44 -0.742 Q89.649 4.001 82.789 4.001 Q76.024 4.001 71.281 -0.79 Q66.539 -5.581 66.539 -12.331 Q66.539 -19.095 71.281 -23.894 Q76.024 -28.691 82.789 -28.691 Q84.312 -28.691 85.791 -28.391 Q87.269 -28.09 88.62 -27.6 L98.422 -43.922 Q100.183 -46.86 99.507 -49.672 Q98.831 -52.485 96.711 -54.292 Q94.591 -56.052 91.675 -56.311 Q88.76 -56.571 86.058 -54.292 L37.024 -12.711 Z"/></g><g id="Ultralight-M" transform="matrix(1 0 0 1 506.415 1126)"><path d="M36.938 -13.605 Q32.938 -10.292 28.656 -10.667 Q24.375 -11.042 21.312 -13.605 Q18.25 -16.167 17.25 -20.292 Q16.25 -24.417 18.812 -28.73 L28.688 -45.042 Q25.688 -47.167 23.906 -50.449 Q22.125 -53.73 22.125 -57.667 Q22.125 -64.167 26.594 -68.636 Q31.062 -73.105 37.562 -73.105 Q44.062 -73.105 48.531 -68.636 Q53 -64.167 53 -57.667 Q53 -51.167 48.531 -46.699 Q44.062 -42.23 37.562 -42.23 Q35.938 -42.23 34.406 -42.511 Q32.875 -42.792 31.5 -43.417 L21.562 -27.042 Q19.625 -23.917 20.406 -20.917 Q21.188 -17.917 23.5 -16.042 Q25.75 -14.105 28.844 -13.855 Q31.938 -13.605 34.875 -16.042 L83.25 -56.855 Q87.062 -60.167 91.219 -59.855 Q95.375 -59.542 98.5 -56.98 Q101.625 -54.355 102.781 -50.23 Q103.938 -46.105 101.312 -41.73 L91.375 -25.292 Q94.312 -23.167 96.094 -19.917 Q97.875 -16.667 97.875 -12.792 Q97.875 -6.292 93.344 -1.824 Q88.812 2.645 82.312 2.645 Q75.938 2.645 71.469 -1.886 Q67 -6.417 67 -12.792 Q67 -19.167 71.469 -23.699 Q75.938 -28.23 82.312 -28.23 Q83.938 -28.23 85.531 -27.886 Q87.125 -27.542 88.562 -26.98 L98.438 -43.417 Q100.312 -46.542 99.594 -49.542 Q98.875 -52.542 96.625 -54.48 Q94.375 -56.355 91.25 -56.636 Q88.125 -56.917 85.25 -54.48 L36.938 -13.605 Z"/></g><g id="Bold-S" transform="matrix(1 0 0 1 2294.23 696)"><path d="M36.245 -14.815 Q31.116 -9.144 24.73 -9.316 Q18.344 -9.489 13.61 -13.039 Q8.975 -16.59 7.323 -22.655 Q5.671 -28.721 9.665 -35.131 L15.336 -44.205 Q13.758 -46.375 12.797 -48.939 Q11.835 -51.503 11.835 -54.363 Q11.835 -61.316 16.544 -66.026 Q21.254 -70.735 28.207 -70.735 Q35.16 -70.735 39.869 -66.026 Q44.579 -61.316 44.579 -54.363 Q44.579 -47.41 39.869 -42.701 Q35.16 -37.991 28.207 -37.991 Q27.368 -37.991 26.555 -38.164 Q25.741 -38.337 24.804 -38.534 L19.084 -29.411 Q17.605 -27.093 18.32 -25.022 Q19.035 -22.951 20.761 -21.669 Q22.486 -20.387 24.582 -20.436 Q26.678 -20.486 28.355 -22.557 L58.534 -55.497 Q63.86 -61.366 70.172 -61.242 Q76.484 -61.119 81.07 -57.47 Q85.656 -53.821 87.258 -47.829 Q88.861 -41.838 84.965 -35.279 L79.442 -26.156 Q81.02 -23.937 81.933 -21.422 Q82.845 -18.908 82.845 -16.047 Q82.845 -9.144 78.136 -4.434 Q73.426 0.275 66.473 0.275 Q59.52 0.275 54.811 -4.434 Q50.102 -9.144 50.102 -16.047 Q50.102 -23 54.811 -27.734 Q59.52 -32.468 66.473 -32.468 Q67.41 -32.468 68.224 -32.296 Q69.038 -32.123 69.974 -31.926 L75.645 -40.95 Q77.125 -43.268 76.311 -45.388 Q75.497 -47.509 73.772 -48.791 Q72.046 -50.073 69.9 -49.925 Q67.755 -49.777 66.276 -47.805 L36.245 -14.815 Z"/></g><g id="Semibold-S" transform="matrix(1 0 0 1 1998.1 696)"><path d="M35.901 -15.843 Q31.074 -10.473 25.095 -10.602 Q19.116 -10.733 14.682 -14.068 Q10.304 -17.405 8.781 -23.063 Q7.258 -28.721 10.995 -34.746 L16.923 -44.247 Q15.259 -46.289 14.276 -48.767 Q13.293 -51.246 13.293 -54.063 Q13.293 -60.502 17.681 -64.889 Q22.068 -69.277 28.507 -69.277 Q34.946 -69.277 39.334 -64.889 Q43.72 -60.502 43.72 -54.063 Q43.72 -47.624 39.334 -43.236 Q34.946 -38.85 28.507 -38.85 Q27.54 -38.85 26.619 -39.043 Q25.699 -39.237 24.676 -39.477 L18.741 -30.012 Q17.09 -27.393 17.87 -25.044 Q18.649 -22.694 20.589 -21.24 Q22.529 -19.786 24.925 -19.815 Q27.321 -19.843 29.298 -22.128 L58.834 -54.511 Q63.774 -59.994 69.679 -59.913 Q75.583 -59.833 79.912 -56.441 Q84.241 -53.049 85.779 -47.444 Q87.318 -41.838 83.636 -35.665 L77.813 -26.156 Q79.477 -24.066 80.432 -21.616 Q81.387 -19.165 81.387 -16.347 Q81.387 -9.958 76.999 -5.571 Q72.612 -1.183 66.173 -1.183 Q59.734 -1.183 55.346 -5.571 Q50.96 -9.958 50.96 -16.347 Q50.96 -22.786 55.346 -27.199 Q59.734 -31.61 66.173 -31.61 Q67.196 -31.61 68.116 -31.417 Q69.038 -31.223 70.06 -30.983 L75.945 -40.393 Q77.596 -43.011 76.761 -45.41 Q75.926 -47.809 73.986 -49.262 Q72.046 -50.716 69.601 -50.612 Q67.155 -50.506 65.333 -48.276 L35.901 -15.843 Z"/></g><g id="Medium-S" transform="matrix(1 0 0 1 1701.85 696)"><path d="M35.644 -16.616 Q31.041 -11.47 25.368 -11.568 Q19.695 -11.666 15.486 -14.84 Q11.301 -18.016 9.874 -23.368 Q8.447 -28.721 11.992 -34.456 L18.112 -44.28 Q16.385 -46.225 15.386 -48.639 Q14.386 -51.052 14.386 -53.838 Q14.386 -59.89 18.533 -64.037 Q22.68 -68.184 28.732 -68.184 Q34.785 -68.184 38.931 -64.037 Q43.077 -59.89 43.077 -53.838 Q43.077 -47.785 38.931 -43.639 Q34.785 -39.493 28.732 -39.493 Q27.668 -39.493 26.667 -39.703 Q25.666 -39.913 24.579 -40.185 L18.483 -30.461 Q16.704 -27.619 17.532 -25.06 Q18.359 -22.5 20.461 -20.919 Q22.561 -19.337 25.183 -19.348 Q27.803 -19.36 30.006 -21.806 L59.06 -53.771 Q63.71 -58.964 69.309 -58.916 Q74.908 -58.867 79.044 -55.669 Q83.179 -52.47 84.67 -47.154 Q86.16 -41.838 82.639 -35.955 L76.591 -26.156 Q78.319 -24.162 79.306 -21.76 Q80.294 -19.358 80.294 -16.573 Q80.294 -10.57 76.147 -6.423 Q72 -2.276 65.948 -2.276 Q59.895 -2.276 55.749 -6.423 Q51.603 -10.57 51.603 -16.573 Q51.603 -22.626 55.749 -26.797 Q59.895 -30.967 65.948 -30.967 Q67.035 -30.967 68.036 -30.757 Q69.038 -30.547 70.124 -30.275 L76.171 -39.975 Q77.95 -42.817 77.099 -45.426 Q76.248 -48.034 74.146 -49.616 Q72.046 -51.198 69.375 -51.125 Q66.705 -51.052 64.625 -48.63 L35.644 -16.616 Z"/></g><g id="Regular-S" transform="matrix(1 0 0 1 1405.73 696)"><path d="M35.456 -17.182 Q31.018 -12.201 25.569 -12.275 Q20.12 -12.349 16.076 -15.406 Q12.032 -18.464 10.676 -23.592 Q9.32 -28.721 12.723 -34.244 L18.985 -44.303 Q17.21 -46.177 16.199 -48.544 Q15.188 -50.911 15.188 -53.673 Q15.188 -59.442 19.158 -63.412 Q23.128 -67.382 28.897 -67.382 Q34.667 -67.382 38.636 -63.412 Q42.606 -59.442 42.606 -53.673 Q42.606 -47.903 38.636 -43.934 Q34.667 -39.964 28.897 -39.964 Q27.763 -39.964 26.703 -40.186 Q25.643 -40.408 24.508 -40.704 L18.295 -30.792 Q16.421 -27.784 17.284 -25.072 Q18.147 -22.359 20.366 -20.683 Q22.585 -19.006 25.371 -19.006 Q28.157 -19.006 30.524 -21.57 L59.224 -53.229 Q63.662 -58.21 69.038 -58.185 Q74.413 -58.16 78.407 -55.103 Q82.401 -52.046 83.856 -46.942 Q85.311 -41.838 81.908 -36.167 L75.695 -26.156 Q77.47 -24.233 78.481 -21.866 Q79.492 -19.499 79.492 -16.738 Q79.492 -11.018 75.522 -7.048 Q71.552 -3.078 65.783 -3.078 Q60.013 -3.078 56.044 -7.048 Q52.074 -11.018 52.074 -16.738 Q52.074 -22.507 56.044 -26.502 Q60.013 -30.496 65.783 -30.496 Q66.917 -30.496 67.977 -30.274 Q69.038 -30.052 70.172 -29.756 L76.336 -39.668 Q78.21 -42.676 77.347 -45.438 Q76.484 -48.199 74.265 -49.876 Q72.046 -51.552 69.21 -51.503 Q66.375 -51.454 64.106 -48.89 L35.456 -17.182 Z"/></g><g id="Light-S" transform="matrix(1 0 0 1 1109.75 696)"><path d="M35.342 -18.357 Q31.245 -13.68 26.175 -13.745 Q21.106 -13.81 17.385 -16.62 Q13.664 -19.431 12.431 -24.143 Q11.198 -28.854 14.335 -33.94 L20.768 -44.285 Q18.993 -46.007 17.982 -48.232 Q16.971 -50.456 16.971 -53.085 Q16.971 -58.38 20.58 -61.99 Q24.19 -65.599 29.485 -65.599 Q34.78 -65.599 38.39 -61.99 Q41.999 -58.38 41.999 -53.085 Q41.999 -47.79 38.39 -44.18 Q34.78 -40.571 29.485 -40.571 Q28.219 -40.571 27.044 -40.831 Q25.87 -41.09 24.641 -41.501 L18.295 -31.456 Q16.25 -28.201 17.189 -25.242 Q18.128 -22.283 20.537 -20.455 Q22.926 -18.608 25.978 -18.589 Q29.03 -18.57 31.644 -21.343 L59.395 -52.034 Q63.435 -56.712 68.383 -56.734 Q73.332 -56.757 77.041 -53.946 Q80.751 -51.117 82.13 -46.42 Q83.509 -41.724 80.353 -36.489 L73.93 -26.138 Q75.687 -24.385 76.698 -22.17 Q77.709 -19.955 77.709 -17.344 Q77.709 -12.08 74.08 -8.47 Q70.453 -4.861 65.157 -4.861 Q59.9 -4.861 56.29 -8.49 Q52.681 -12.117 52.681 -17.344 Q52.681 -22.602 56.29 -26.245 Q59.9 -29.889 65.157 -29.889 Q66.424 -29.889 67.636 -29.61 Q68.848 -29.331 70.096 -28.941 L76.354 -39.004 Q78.38 -42.259 77.46 -45.267 Q76.541 -48.275 74.151 -50.122 Q71.762 -51.951 68.651 -51.93 Q65.54 -51.909 63.044 -49.136 L35.342 -18.357 Z"/></g><g id="Thin-S" transform="matrix(1 0 0 1 814.015 696)"><path d="M35.228 -19.534 Q31.473 -15.16 26.783 -15.215 Q22.092 -15.27 18.693 -17.835 Q15.295 -20.399 14.185 -24.692 Q13.076 -28.986 15.947 -33.637 L22.551 -44.266 Q20.775 -45.836 19.764 -47.918 Q18.754 -50.001 18.754 -52.497 Q18.754 -57.318 22.003 -60.567 Q25.252 -63.816 30.073 -63.816 Q34.895 -63.816 38.143 -60.567 Q41.392 -57.318 41.392 -52.497 Q41.392 -47.675 38.143 -44.427 Q34.895 -41.178 30.073 -41.178 Q28.673 -41.178 27.385 -41.476 Q26.098 -41.774 24.774 -42.296 L18.295 -32.119 Q16.08 -28.618 17.095 -25.413 Q18.11 -22.208 20.707 -20.227 Q23.268 -18.209 26.585 -18.172 Q29.902 -18.133 32.762 -21.115 L59.566 -50.839 Q63.207 -55.213 67.729 -55.283 Q72.251 -55.353 75.676 -52.789 Q79.101 -50.186 80.404 -45.898 Q81.707 -41.61 78.797 -36.812 L72.167 -26.119 Q73.905 -24.537 74.916 -22.473 Q75.926 -20.41 75.926 -17.952 Q75.926 -13.142 72.639 -9.893 Q69.352 -6.644 64.531 -6.644 Q59.785 -6.644 56.537 -9.931 Q53.288 -13.218 53.288 -17.952 Q53.288 -22.697 56.537 -25.99 Q59.785 -29.282 64.531 -29.282 Q65.931 -29.282 67.295 -28.947 Q68.658 -28.61 70.02 -28.125 L76.373 -38.341 Q78.551 -41.842 77.574 -45.096 Q76.597 -48.351 74.037 -50.369 Q71.476 -52.349 68.091 -52.356 Q64.706 -52.364 61.982 -49.383 L35.228 -19.534 Z"/></g><g id="Ultralight-S" transform="matrix(1 0 0 1 517.792 696)"><path d="M35.16 -20.239 Q31.609 -16.047 27.147 -16.097 Q22.684 -16.146 19.478 -18.562 Q16.273 -20.979 15.238 -25.022 Q14.202 -29.066 16.914 -33.455 L23.621 -44.254 Q21.845 -45.734 20.835 -47.731 Q19.824 -49.728 19.824 -52.144 Q19.824 -56.681 22.856 -59.714 Q25.889 -62.746 30.426 -62.746 Q34.963 -62.746 37.995 -59.714 Q41.028 -56.681 41.028 -52.144 Q41.028 -47.607 37.995 -44.575 Q34.963 -41.542 30.426 -41.542 Q28.946 -41.542 27.59 -41.863 Q26.234 -42.183 24.854 -42.775 L18.295 -32.518 Q15.977 -28.869 17.037 -25.515 Q18.098 -22.162 20.81 -20.091 Q23.473 -17.971 26.949 -17.921 Q30.426 -17.872 33.434 -20.979 L59.668 -50.122 Q63.071 -54.314 67.336 -54.413 Q71.602 -54.511 74.856 -52.095 Q78.111 -49.629 79.368 -45.586 Q80.626 -41.542 77.864 -37.005 L71.109 -26.107 Q72.835 -24.628 73.845 -22.655 Q74.856 -20.683 74.856 -18.316 Q74.856 -13.779 71.774 -10.746 Q68.692 -7.714 64.156 -7.714 Q59.717 -7.714 56.685 -10.796 Q53.652 -13.878 53.652 -18.316 Q53.652 -22.754 56.685 -25.836 Q59.717 -28.918 64.156 -28.918 Q65.635 -28.918 67.09 -28.548 Q68.544 -28.178 69.974 -27.636 L76.385 -37.942 Q78.653 -41.591 77.643 -44.994 Q76.632 -48.396 73.969 -50.517 Q71.306 -52.588 67.755 -52.613 Q64.205 -52.637 61.345 -49.531 L35.16 -20.239 Z"/></g></g></svg>