<svg xmlns="http://www.w3.org/2000/svg" version="1.1" width="3300" height="2000"><g id="Notes"><style>
    text {
      font-family: monospace;
      text-anchor: middle;
    }
    text.emphasis {
      font-weight:bold;
    }
    text.lanchor {
      text-anchor: start;
    }
  </style><rect height="2200" id="artboard" fill="white" width="3300" x="0" y="0"/><line id="" style="fill:none;stroke:black;stroke-width:0.5;" x1="263" x2="3036" y1="292" y2="292"/><text class="lanchor emphasis" transform="matrix(1 0 0 1 263 322)">Weight/Scale Variations</text><text transform="matrix(1 0 0 1 559.711 322)">Ultralight</text><text transform="matrix(1 0 0 1 856.422 322)">Thin</text><text transform="matrix(1 0 0 1 1153.13 322)">Light</text><text transform="matrix(1 0 0 1 1449.84 322)">Regular</text><text transform="matrix(1 0 0 1 1746.56 322)">Medium</text><text transform="matrix(1 0 0 1 2043.27 322)">Semibold</text><text transform="matrix(1 0 0 1 2339.98 322)">Bold</text><text transform="matrix(1 0 0 1 2636.69 322)">Heavy</text><text transform="matrix(1 0 0 1 2933.4 322)">Black</text><text id="template-version" style="text-anchor: end;" transform="matrix(1 0 0 1 3036 1933)">Template v.1.0</text><text class="lanchor" transform="matrix(1 0 0 1 263 726)">Small</text><text class="lanchor" transform="matrix(1 0 0 1 263 1156)">Medium</text><text class="lanchor" transform="matrix(1 0 0 1 263 1586)">Large</text></g><g id="Guides"><g id="H-reference" style="fill:#27AAE1;stroke:none;" transform="matrix(1 0 0 1 339 696)"><path d="M 54.9316 0 L 57.666 0 L 30.5664 -70.459 L 28.0762 -70.459 L 0.976562 0 L 3.66211 0 L 12.9395 -24.4629 L 45.7031 -24.4629 Z M 29.1992 -67.0898 L 29.4434 -67.0898 L 44.8242 -26.709 L 13.8184 -26.709 Z"/></g><line id="Baseline-S" style="fill:none;stroke:#27AAE1;opacity:1;stroke-width:0.577;" x1="263" x2="3036" y1="696" y2="696"/><line id="Capline-S" style="fill:none;stroke:#27AAE1;opacity:1;stroke-width:0.577;" x1="263" x2="3036" y1="625.541" y2="625.541"/><g id="H-reference" style="fill:#27AAE1;stroke:none;" transform="matrix(1 0 0 1 339 1126)"><path d="M 54.9316 0 L 57.666 0 L 30.5664 -70.459 L 28.0762 -70.459 L 0.976562 0 L 3.66211 0 L 12.9395 -24.4629 L 45.7031 -24.4629 Z M 29.1992 -67.0898 L 29.4434 -67.0898 L 44.8242 -26.709 L 13.8184 -26.709 Z"/></g><line id="Baseline-M" style="fill:none;stroke:#27AAE1;opacity:1;stroke-width:0.577;" x1="263" x2="3036" y1="1126" y2="1126"/><line id="Capline-M" style="fill:none;stroke:#27AAE1;opacity:1;stroke-width:0.577;" x1="263" x2="3036" y1="1055.54" y2="1055.54"/><g id="H-reference" style="fill:#27AAE1;stroke:none;" transform="matrix(1 0 0 1 339 1556)"><path d="M 54.9316 0 L 57.666 0 L 30.5664 -70.459 L 28.0762 -70.459 L 0.976562 0 L 3.66211 0 L 12.9395 -24.4629 L 45.7031 -24.4629 Z M 29.1992 -67.0898 L 29.4434 -67.0898 L 44.8242 -26.709 L 13.8184 -26.709 Z"/></g><line id="Baseline-L" style="fill:none;stroke:#27AAE1;opacity:1;stroke-width:0.577;" x1="263" x2="3036" y1="1556" y2="1556"/><line id="Capline-L" style="fill:none;stroke:#27AAE1;opacity:1;stroke-width:0.577;" x1="263" x2="3036" y1="1485.54" y2="1485.54"/><rect height="119.336" id="left-margin" style="fill:darkred;stroke:none;opacity:0.4;" width="12.4512" x="1394.06" y="1030.79"/><rect height="119.336" id="right-margin" style="fill:darkgreen;stroke:none;opacity:0.4;" width="12.4512" x="1502.5112" y="1030.79"/><rect x="1406.5112" y="1045" width="96" height="96" fill="none" stroke="blue" stroke-dasharray="5"/><rect x="1394.06" y="1030.79" width="120.9024" height="119.336" fill="none" stroke="blue"/></g><g id="Symbols"><g id="Bold-L" transform="matrix(1 0 0 1 2266 1556)"><path d="M46.843 0.729 Q39.426 6.937 31.403 6.292 Q23.381 5.647 17.576 0.729 Q11.771 -4.189 9.756 -11.97 Q7.74 -19.75 12.819 -28.135 L25.236 -48.856 Q21.043 -52.645 18.665 -57.911 Q16.286 -63.178 16.286 -68.965 Q16.286 -80.603 24.337 -88.715 Q32.389 -96.827 43.941 -96.827 Q55.312 -96.827 63.453 -88.686 Q71.595 -80.546 71.595 -69.092 Q71.595 -57.639 63.453 -49.499 Q55.312 -41.357 43.95 -41.357 Q42.399 -41.357 40.898 -41.519 Q39.395 -41.68 38.216 -42.244 L25.407 -20.666 Q23.623 -17.492 24.318 -14.721 Q25.013 -11.949 27.09 -10.359 Q29.088 -8.688 31.85 -8.414 Q34.614 -8.14 37.249 -10.478 L108.199 -71.189 Q115.697 -77.558 123.8 -77.074 Q131.903 -76.591 137.546 -71.471 Q143.19 -66.351 145.125 -58.497 Q147.06 -50.642 142.142 -42.486 L130.129 -21.604 Q134.241 -17.896 136.619 -12.682 Q138.998 -7.469 138.998 -1.651 Q138.998 9.897 130.808 17.971 Q122.616 26.045 111.095 26.045 Q99.572 26.045 91.55 18.013 Q83.528 9.98 83.528 -1.65 Q83.528 -12.981 91.55 -21.122 Q99.572 -29.264 111.098 -29.264 Q112.341 -29.264 113.831 -29.164 Q115.32 -29.062 116.826 -28.78 L129.555 -49.965 Q131.338 -52.967 130.49 -55.807 Q129.642 -58.645 127.533 -60.241 Q125.453 -61.756 122.698 -62.038 Q119.944 -62.32 117.687 -60.196 L46.843 0.729 Z M61.054 -38.858 Q66.398 -38.858 70.245 -42.568 Q74.094 -46.279 74.094 -51.703 Q74.094 -57.079 70.245 -60.788 Q66.398 -64.497 60.973 -64.497 Q55.551 -64.497 51.922 -60.767 Q48.294 -57.037 48.294 -51.611 Q48.294 -46.195 51.918 -42.527 Q55.541 -38.858 61.054 -38.858 Z M94.035 -6.124 Q99.411 -6.124 103.119 -9.854 Q106.828 -13.584 106.828 -19.05 Q106.828 -24.346 103.098 -28.135 Q99.369 -31.924 93.902 -31.924 Q88.607 -31.924 84.898 -28.109 Q81.189 -24.294 81.189 -18.918 Q81.189 -13.542 84.924 -9.833 Q88.658 -6.124 94.035 -6.124 Z"/></g><g id="Semibold-L" transform="matrix(1 0 0 1 1970.27 1556)"><path d="M46.422 -0.534 Q39.426 5.324 31.894 4.715 Q24.363 4.105 18.873 -0.534 Q13.384 -5.171 11.544 -12.495 Q9.702 -19.819 14.432 -27.645 L27.198 -48.925 Q22.936 -52.505 20.487 -57.666 Q18.039 -62.826 18.039 -68.635 Q18.039 -79.596 25.708 -87.301 Q33.379 -95.005 44.291 -95.005 Q55.102 -95.005 62.823 -87.285 Q70.544 -79.564 70.544 -68.707 Q70.544 -57.85 62.823 -50.129 Q55.102 -42.409 44.3 -42.409 Q42.639 -42.409 41.027 -42.606 Q39.416 -42.802 38.076 -43.367 L24.986 -21.367 Q22.993 -17.913 23.76 -14.796 Q24.528 -11.681 26.887 -9.843 Q29.165 -7.924 32.31 -7.647 Q35.456 -7.369 38.371 -9.917 L108.549 -69.997 Q115.557 -75.946 123.169 -75.462 Q130.78 -74.978 136.143 -70.208 Q141.508 -65.44 143.337 -58.057 Q145.167 -50.671 140.529 -42.976 L128.095 -21.604 Q132.278 -18.036 134.726 -12.911 Q137.175 -7.787 137.175 -1.969 Q137.175 8.928 129.405 16.61 Q121.634 24.292 110.708 24.292 Q99.781 24.292 92.18 16.643 Q84.579 8.991 84.579 -2 Q84.579 -12.771 92.18 -20.492 Q99.781 -28.212 110.714 -28.212 Q112.159 -28.212 113.733 -28.077 Q115.308 -27.94 116.895 -27.588 L129.905 -49.264 Q131.899 -52.618 131.051 -55.772 Q130.203 -58.926 127.813 -60.801 Q125.453 -62.597 122.313 -62.88 Q119.173 -63.162 116.495 -60.757 L46.422 -0.534 Z M82.436 -16.425 Q88.199 -16.425 92.329 -20.451 Q96.458 -24.478 96.458 -30.286 Q96.458 -36.048 92.329 -40.072 Q88.199 -44.097 82.391 -44.097 Q76.582 -44.097 72.638 -40.05 Q68.694 -36.002 68.694 -30.23 Q68.694 -24.392 72.635 -20.41 Q76.576 -16.425 82.436 -16.425 Z M72.617 -26.524 Q78.379 -26.524 82.404 -30.571 Q86.428 -34.619 86.428 -40.432 Q86.428 -46.148 82.381 -50.218 Q78.334 -54.288 72.521 -54.288 Q66.804 -54.288 62.781 -50.192 Q58.756 -46.097 58.756 -40.335 Q58.756 -34.574 62.805 -30.549 Q66.856 -26.524 72.617 -26.524 Z"/></g><g id="Medium-L" transform="matrix(1 0 0 1 1674.31 1556)"><path d="M46.106 -1.48 Q39.426 4.115 32.263 3.531 Q25.099 2.948 19.847 -1.48 Q14.593 -5.907 12.884 -12.89 Q11.175 -19.873 15.641 -27.276 L28.67 -48.978 Q24.355 -52.4 21.854 -57.482 Q19.353 -62.563 19.353 -68.388 Q19.353 -78.842 26.737 -86.24 Q34.12 -93.638 44.553 -93.638 Q54.944 -93.638 62.349 -86.233 Q69.755 -78.827 69.755 -68.418 Q69.755 -58.008 62.349 -50.604 Q54.944 -43.197 44.563 -43.197 Q42.82 -43.197 41.125 -43.42 Q39.43 -43.642 37.971 -44.207 L24.671 -21.893 Q22.519 -18.229 23.343 -14.854 Q24.165 -11.479 26.735 -9.456 Q29.223 -7.351 32.655 -7.071 Q36.086 -6.79 39.211 -9.496 L108.811 -69.104 Q115.452 -74.736 122.695 -74.252 Q129.94 -73.769 135.092 -69.262 Q140.246 -64.756 141.997 -57.724 Q143.748 -50.694 139.32 -43.346 L126.57 -21.604 Q130.806 -18.141 133.307 -13.082 Q135.808 -8.026 135.808 -2.208 Q135.808 8.199 128.353 15.59 Q120.899 22.978 110.419 22.978 Q99.94 22.978 92.654 15.614 Q85.367 8.249 85.367 -2.262 Q85.367 -12.613 92.654 -20.018 Q99.94 -27.424 110.426 -27.424 Q112.02 -27.424 113.66 -27.261 Q115.3 -27.1 116.948 -26.695 L130.167 -48.738 Q132.32 -52.355 131.472 -55.744 Q130.624 -59.135 128.023 -61.222 Q125.453 -63.228 122.024 -63.51 Q118.595 -63.792 115.602 -61.178 L46.106 -1.48 Z M98.475 0.403 Q104.553 0.403 108.892 -3.86 Q113.233 -8.124 113.233 -14.222 Q113.233 -20.272 108.892 -24.533 Q104.553 -28.795 98.456 -28.795 Q92.358 -28.795 88.178 -24.508 Q83.997 -20.224 83.997 -14.192 Q83.997 -8.038 88.176 -3.818 Q92.354 0.403 98.475 0.403 Z M56.554 -41.827 Q62.604 -41.827 66.864 -46.113 Q71.126 -50.397 71.126 -56.47 Q71.126 -62.502 66.84 -66.782 Q62.555 -71.063 56.483 -71.063 Q50.45 -71.063 46.19 -66.756 Q41.928 -62.451 41.928 -56.399 Q41.928 -50.349 46.216 -46.089 Q50.502 -41.827 56.554 -41.827 Z"/></g><g id="Regular-L" transform="matrix(1 0 0 1 1378.56 1556)"><path d="M45.876 -2.174 Q39.426 3.228 32.532 2.664 Q25.639 2.099 20.559 -2.174 Q15.48 -6.447 13.867 -13.179 Q12.255 -19.911 16.528 -27.006 L29.751 -49.017 Q25.397 -52.322 22.857 -57.347 Q20.317 -62.372 20.317 -68.206 Q20.317 -78.289 27.492 -85.461 Q34.666 -92.635 44.747 -92.635 Q54.828 -92.635 62.002 -85.461 Q69.176 -78.289 69.176 -68.206 Q69.176 -58.123 62.002 -50.95 Q54.828 -43.776 44.757 -43.776 Q42.952 -43.776 41.196 -44.018 Q39.442 -44.26 37.894 -44.824 L24.439 -22.278 Q22.172 -18.46 23.035 -14.895 Q23.899 -11.331 26.622 -9.17 Q29.267 -6.931 32.908 -6.648 Q36.549 -6.366 39.829 -9.188 L109.005 -68.447 Q115.374 -73.849 122.348 -73.366 Q129.322 -72.882 134.321 -68.568 Q139.32 -64.255 141.013 -57.482 Q142.706 -50.71 138.433 -43.615 L125.453 -21.604 Q129.726 -18.218 132.265 -13.208 Q134.805 -8.2 134.805 -2.382 Q134.805 7.666 127.583 14.84 Q120.359 22.014 110.208 22.014 Q100.056 22.014 93.001 14.859 Q85.946 7.704 85.946 -2.456 Q85.946 -12.497 93.001 -19.671 Q100.056 -26.845 110.214 -26.845 Q111.92 -26.845 113.607 -26.664 Q115.294 -26.482 116.987 -26.039 L130.361 -48.353 Q132.628 -52.161 131.78 -55.726 Q130.932 -59.29 128.178 -61.531 Q125.453 -63.691 121.811 -63.973 Q118.17 -64.255 114.945 -61.486 L45.876 -2.174 Z M110.235 12.742 Q116.547 12.742 121.039 8.306 Q125.533 3.87 125.533 -2.441 Q125.533 -8.704 121.039 -13.139 Q116.547 -17.573 110.235 -17.573 Q103.926 -17.573 99.572 -13.113 Q95.218 -8.653 95.218 -2.43 Q95.218 3.954 99.572 8.348 Q103.926 12.742 110.235 12.742 Z M44.773 -53.048 Q51.036 -53.048 55.47 -57.508 Q59.904 -61.968 59.904 -68.231 Q59.904 -74.494 55.444 -78.929 Q50.984 -83.363 44.721 -83.363 Q38.458 -83.363 34.024 -78.903 Q29.589 -74.443 29.589 -68.18 Q29.589 -61.917 34.05 -57.482 Q38.51 -53.048 44.773 -53.048 Z"/></g><g id="Light-L" transform="matrix(1 0 0 1 1082.77 1556)"><path d="M46.248 -4.035 Q40.219 0.934 33.89 0.416 Q27.561 -0.102 22.917 -4.035 Q18.271 -7.966 16.767 -14.109 Q15.264 -20.253 19.226 -26.821 L32.418 -48.738 Q28.125 -51.858 25.648 -56.602 Q23.17 -61.346 23.17 -66.949 Q23.17 -76.304 29.846 -82.981 Q36.522 -89.658 45.956 -89.658 Q55.325 -89.658 62.002 -82.981 Q68.68 -76.304 68.68 -66.933 Q68.68 -57.565 62.002 -50.887 Q55.325 -44.21 45.966 -44.21 Q44.007 -44.21 42.127 -44.515 Q40.248 -44.818 38.606 -45.506 L25.245 -23.178 Q22.823 -19.205 23.78 -15.422 Q24.736 -11.641 27.587 -9.359 Q30.325 -6.966 34.182 -6.652 Q38.037 -6.336 41.659 -9.374 L108.726 -66.556 Q114.505 -71.524 120.896 -71.111 Q127.284 -70.699 131.917 -66.727 Q136.466 -62.741 138.112 -56.539 Q139.76 -50.338 135.842 -43.775 L122.755 -21.822 Q126.934 -18.591 129.381 -13.876 Q131.828 -9.161 131.828 -3.61 Q131.828 5.744 125.095 12.421 Q118.361 19.098 108.953 19.098 Q99.493 19.098 92.936 12.416 Q86.38 5.732 86.38 -3.727 Q86.38 -13.019 92.951 -19.684 Q99.52 -26.348 108.942 -26.348 Q110.751 -26.348 112.619 -26.082 Q114.487 -25.816 116.305 -25.263 L129.585 -47.391 Q131.977 -51.416 131.066 -55.164 Q130.153 -58.911 127.307 -61.294 Q124.491 -63.597 120.618 -63.926 Q116.743 -64.255 113.209 -61.27 L46.248 -4.035 Z M108.957 12.029 Q115.474 12.029 120.117 7.429 Q124.758 2.828 124.758 -3.712 Q124.758 -10.162 120.109 -14.721 Q115.461 -19.279 108.934 -19.279 Q102.407 -19.279 97.929 -14.692 Q93.451 -10.102 93.451 -3.656 Q93.451 2.899 97.919 7.464 Q102.389 12.029 108.957 12.029 Z M45.982 -51.281 Q52.43 -51.281 57.021 -55.896 Q61.61 -60.511 61.61 -66.991 Q61.61 -73.47 56.995 -78.029 Q52.38 -82.588 45.9 -82.588 Q39.419 -82.588 34.83 -78 Q30.241 -73.412 30.241 -66.909 Q30.241 -60.459 34.846 -55.87 Q39.453 -51.281 45.982 -51.281 Z"/></g><g id="Thin-L" transform="matrix(1 0 0 1 787.282 1556)"><path d="M46.621 -5.895 Q41.012 -1.361 35.248 -1.832 Q29.485 -2.304 25.273 -5.895 Q21.062 -9.486 19.666 -15.04 Q18.271 -20.593 21.924 -26.634 L35.085 -48.459 Q30.855 -51.392 28.44 -55.857 Q26.023 -60.322 26.023 -65.693 Q26.023 -74.319 32.2 -80.499 Q38.377 -86.682 47.166 -86.682 Q55.822 -86.682 62.002 -80.499 Q68.185 -74.319 68.185 -65.663 Q68.185 -57.007 62.002 -50.826 Q55.822 -44.644 47.175 -44.644 Q45.06 -44.644 43.057 -45.01 Q41.054 -45.376 39.321 -46.189 L26.052 -24.078 Q23.475 -19.948 24.523 -15.949 Q25.573 -11.952 28.549 -9.548 Q31.384 -7.003 35.454 -6.653 Q39.526 -6.305 43.488 -9.561 L108.447 -64.665 Q113.638 -69.197 119.443 -68.857 Q125.248 -68.515 129.513 -64.884 Q133.612 -61.228 135.213 -55.597 Q136.814 -49.965 133.251 -43.936 L120.057 -22.038 Q124.143 -18.963 126.497 -14.543 Q128.852 -10.123 128.852 -4.839 Q128.852 3.822 122.606 10.002 Q116.363 16.185 107.699 16.185 Q98.932 16.185 92.874 9.972 Q86.814 3.76 86.814 -4.996 Q86.814 -13.542 92.901 -19.697 Q98.987 -25.853 107.671 -25.853 Q109.582 -25.853 111.632 -25.5 Q113.681 -25.149 115.623 -24.488 L128.81 -46.43 Q131.325 -50.673 130.35 -54.603 Q129.374 -58.532 126.438 -61.059 Q123.53 -63.505 119.423 -63.879 Q115.318 -64.255 111.474 -61.053 L46.621 -5.895 Z M107.68 11.315 Q114.404 11.315 119.193 6.551 Q123.982 1.787 123.982 -4.984 Q123.982 -11.62 119.18 -16.302 Q114.376 -20.984 107.631 -20.984 Q100.886 -20.984 96.286 -16.269 Q91.684 -11.552 91.684 -4.88 Q91.684 1.845 96.268 6.581 Q100.851 11.315 107.68 11.315 Z M47.191 -49.514 Q53.827 -49.514 58.571 -54.283 Q63.315 -59.053 63.315 -65.75 Q63.315 -72.448 58.545 -77.131 Q53.775 -81.812 47.079 -81.812 Q40.38 -81.812 35.636 -77.097 Q30.892 -72.38 30.892 -65.637 Q30.892 -59.001 35.644 -54.257 Q40.396 -49.514 47.191 -49.514 Z"/></g><g id="Ultralight-L" transform="matrix(1 0 0 1 491.205 1556)"><path d="M46.843 -7.011 Q41.488 -2.738 36.062 -3.182 Q30.637 -3.625 26.687 -7.011 Q22.736 -10.397 21.406 -15.598 Q20.076 -20.798 23.543 -26.522 L36.684 -48.291 Q32.492 -51.113 30.113 -55.41 Q27.735 -59.706 27.735 -64.94 Q27.735 -73.129 33.614 -79.011 Q39.492 -84.895 47.891 -84.895 Q56.118 -84.895 62.002 -79.011 Q67.886 -73.129 67.886 -64.9 Q67.886 -56.671 62.002 -50.789 Q56.118 -44.905 47.901 -44.905 Q45.693 -44.905 43.615 -45.308 Q41.538 -45.711 39.748 -46.598 L26.535 -24.617 Q23.865 -20.395 24.97 -16.265 Q26.076 -12.137 29.128 -9.661 Q32.018 -7.024 36.218 -6.655 Q40.419 -6.286 44.586 -9.672 L108.279 -63.529 Q113.117 -67.802 118.572 -67.504 Q124.025 -67.206 128.071 -63.779 Q131.899 -60.32 133.473 -55.031 Q135.047 -49.742 131.696 -44.031 L118.438 -22.169 Q122.469 -19.186 124.767 -14.943 Q127.065 -10.701 127.065 -5.576 Q127.065 2.667 121.115 8.551 Q115.165 14.435 106.946 14.435 Q98.595 14.435 92.835 8.506 Q87.075 2.577 87.075 -5.758 Q87.075 -13.856 92.87 -19.705 Q98.666 -25.555 106.909 -25.555 Q108.881 -25.555 111.04 -25.152 Q113.198 -24.749 115.213 -24.023 L128.345 -45.853 Q130.935 -50.226 129.921 -54.266 Q128.908 -58.306 125.915 -60.917 Q122.953 -63.449 118.707 -63.852 Q114.462 -64.255 110.43 -60.922 L46.843 -7.011 Z M106.912 10.888 Q113.762 10.888 118.64 6.024 Q123.517 1.161 123.517 -5.747 Q123.517 -12.494 118.622 -17.251 Q113.725 -22.007 106.851 -22.007 Q99.975 -22.007 95.299 -17.215 Q90.623 -12.423 90.623 -5.615 Q90.623 1.213 95.276 6.05 Q99.928 10.888 106.912 10.888 Z M47.917 -48.452 Q54.664 -48.452 59.501 -53.316 Q64.339 -58.179 64.339 -65.006 Q64.339 -71.834 59.475 -76.591 Q54.612 -81.347 47.785 -81.347 Q40.958 -81.347 36.12 -76.555 Q31.283 -71.763 31.283 -64.874 Q31.283 -58.127 36.123 -53.29 Q40.962 -48.452 47.917 -48.452 Z"/></g><g id="Bold-M" transform="matrix(1 0 0 1 2281.8 1126)"><path d="M38.312 -6.73 Q32.312 -1.542 25.594 -2.074 Q18.875 -2.605 13.938 -6.605 Q9 -10.605 7.219 -17.292 Q5.438 -23.98 9.625 -30.855 L18.188 -44.98 Q15.438 -47.98 13.719 -51.986 Q12 -55.992 12 -60.48 Q12 -70.042 18.594 -76.636 Q25.188 -83.23 34.75 -83.23 Q44.312 -83.23 50.906 -76.636 Q57.5 -70.042 57.5 -60.48 Q57.5 -50.917 50.906 -44.324 Q44.312 -37.73 34.75 -37.73 Q33.905 -37.73 33.06 -37.824 Q32.214 -37.917 31.438 -38.042 L22.562 -23.105 Q21.688 -21.667 22.016 -20.282 Q22.346 -18.896 23.416 -18.026 Q24.486 -17.155 25.846 -17.036 Q27.207 -16.917 28.438 -18.042 L81.812 -63.667 Q88.062 -69.105 94.812 -68.511 Q101.562 -67.917 106.375 -63.792 Q111.188 -59.667 112.781 -53.074 Q114.375 -46.48 110.312 -39.542 L101.938 -25.355 Q104.688 -22.292 106.344 -18.377 Q108 -14.462 108 -9.916 Q108 -0.417 101.406 6.176 Q94.812 12.77 85.25 12.77 Q75.688 12.77 69.094 6.176 Q62.5 -0.417 62.5 -9.949 Q62.5 -19.48 69.094 -26.105 Q75.688 -32.73 85.25 -32.73 Q86.12 -32.73 86.942 -32.636 Q87.765 -32.542 88.562 -32.417 L97.5 -47.23 Q98.375 -48.667 97.915 -50.042 Q97.456 -51.417 96.384 -52.292 Q95.312 -53.167 93.959 -53.23 Q92.605 -53.292 91.5 -52.292 L38.312 -6.73 Z M33.5 -54.105 Q36.75 -54.105 38.938 -56.274 Q41.125 -58.444 41.125 -61.667 Q41.125 -64.98 38.938 -67.167 Q36.75 -69.355 33.5 -69.355 Q30.25 -69.355 28.062 -67.167 Q25.875 -64.98 25.875 -61.699 Q25.875 -58.417 28.062 -56.261 Q30.25 -54.105 33.5 -54.105 Z M86.5 -1.105 Q89.75 -1.105 91.938 -3.292 Q94.125 -5.48 94.125 -8.73 Q94.125 -11.98 91.938 -14.167 Q89.75 -16.355 86.5 -16.355 Q83.25 -16.355 81.062 -14.167 Q78.875 -11.98 78.875 -8.73 Q78.875 -5.48 81.062 -3.292 Q83.25 -1.105 86.5 -1.105 Z"/></g><g id="Semibold-M" transform="matrix(1 0 0 1 1985.97 1126)"><path d="M37.877 -8.034 Q32.259 -3.227 26.056 -3.704 Q19.854 -4.181 15.269 -7.909 Q10.685 -11.637 9.066 -17.809 Q7.449 -23.98 11.31 -30.366 L20.199 -45.034 Q17.34 -47.871 15.594 -51.769 Q13.848 -55.666 13.848 -60.1 Q13.848 -69.01 20.034 -75.196 Q26.22 -81.382 35.13 -81.382 Q44.041 -81.382 50.227 -75.196 Q56.413 -69.01 56.413 -60.1 Q56.413 -51.189 50.227 -45.002 Q44.041 -38.817 35.13 -38.817 Q34.145 -38.817 33.16 -38.937 Q32.175 -39.059 31.275 -39.237 L22.128 -23.866 Q21.035 -22.047 21.449 -20.314 Q21.861 -18.58 23.204 -17.49 Q24.546 -16.4 26.285 -16.251 Q28.023 -16.102 29.633 -17.499 L82.192 -62.417 Q87.954 -67.366 94.188 -66.826 Q100.421 -66.287 104.907 -62.489 Q109.394 -58.689 110.906 -52.585 Q112.419 -46.48 108.627 -40.031 L99.873 -25.355 Q102.731 -22.455 104.441 -18.609 Q106.153 -14.762 106.153 -10.296 Q106.153 -1.45 99.966 4.736 Q93.78 10.923 84.87 10.923 Q75.959 10.923 69.772 4.736 Q63.587 -1.45 63.587 -10.329 Q63.587 -19.209 69.772 -25.426 Q75.959 -31.642 84.87 -31.642 Q85.87 -31.642 86.814 -31.522 Q87.759 -31.401 88.671 -31.222 L97.88 -46.524 Q98.972 -48.341 98.486 -50.07 Q97.999 -51.797 96.656 -52.89 Q95.312 -53.982 93.579 -54.1 Q91.844 -54.216 90.305 -52.89 L37.877 -8.034 Z M55.617 -30.955 Q59.249 -30.955 61.763 -33.45 Q64.275 -35.945 64.275 -39.55 Q64.275 -43.242 61.763 -45.756 Q59.249 -48.27 55.617 -48.27 Q51.987 -48.27 49.474 -45.756 Q46.96 -43.242 46.96 -39.581 Q46.96 -35.919 49.474 -33.436 Q51.987 -30.955 55.617 -30.955 Z M64.382 -22.19 Q68.013 -22.19 70.526 -24.704 Q73.04 -27.217 73.04 -30.847 Q73.04 -34.479 70.526 -36.992 Q68.013 -39.505 64.382 -39.505 Q60.751 -39.505 58.237 -36.992 Q55.725 -34.479 55.725 -30.847 Q55.725 -27.217 58.237 -24.704 Q60.751 -22.19 64.382 -22.19 Z"/></g><g id="Medium-M" transform="matrix(1 0 0 1 1689.91 1126)"><path d="M37.551 -9.012 Q32.218 -4.491 26.402 -4.927 Q20.587 -5.364 16.267 -8.887 Q11.949 -12.412 10.453 -18.196 Q8.956 -23.98 12.574 -29.999 L21.706 -45.075 Q18.766 -47.79 17 -51.606 Q15.234 -55.422 15.234 -59.814 Q15.234 -68.235 21.114 -74.116 Q26.995 -79.996 35.416 -79.996 Q43.837 -79.996 49.718 -74.116 Q55.597 -68.235 55.597 -59.814 Q55.597 -51.392 49.718 -45.512 Q43.837 -39.632 35.416 -39.632 Q34.326 -39.632 33.236 -39.774 Q32.146 -39.915 31.152 -40.135 L21.801 -24.436 Q20.546 -22.334 21.023 -20.337 Q21.497 -18.341 23.045 -17.087 Q24.591 -15.832 26.613 -15.662 Q28.634 -15.491 30.53 -17.091 L82.479 -61.48 Q87.873 -66.061 93.719 -65.562 Q99.565 -65.064 103.808 -61.51 Q108.049 -57.955 109.5 -52.217 Q110.951 -46.48 107.364 -40.399 L98.324 -25.355 Q101.264 -22.577 103.015 -18.784 Q104.766 -14.989 104.766 -10.581 Q104.766 -2.225 98.886 3.656 Q93.005 9.536 84.584 9.536 Q76.162 9.536 70.282 3.656 Q64.403 -2.225 64.403 -10.615 Q64.403 -19.005 70.282 -24.916 Q76.162 -30.827 84.584 -30.827 Q85.681 -30.827 86.718 -30.686 Q87.754 -30.545 88.752 -30.325 L98.166 -45.994 Q99.421 -48.096 98.914 -50.09 Q98.407 -52.084 96.86 -53.339 Q95.312 -54.594 93.293 -54.751 Q91.274 -54.909 89.407 -53.339 L37.551 -9.012 Z M72.209 -13.589 Q76.125 -13.589 78.882 -16.329 Q81.641 -19.069 81.641 -22.959 Q81.641 -26.936 78.882 -29.695 Q76.125 -32.452 72.209 -32.452 Q68.294 -32.452 65.535 -29.695 Q62.778 -26.936 62.778 -22.99 Q62.778 -19.042 65.535 -16.316 Q68.294 -13.589 72.209 -13.589 Z M47.791 -38.007 Q51.706 -38.007 54.465 -40.765 Q57.222 -43.524 57.222 -47.439 Q57.222 -51.355 54.465 -54.112 Q51.706 -56.871 47.791 -56.871 Q43.875 -56.871 41.117 -54.112 Q38.359 -51.355 38.359 -47.439 Q38.359 -43.524 41.117 -40.765 Q43.875 -38.007 47.791 -38.007 Z"/></g><g id="Regular-M" transform="matrix(1 0 0 1 1394.06 1126)"><path d="M37.312 -9.73 Q32.188 -5.417 26.656 -5.824 Q21.125 -6.23 17 -9.605 Q12.875 -12.98 11.469 -18.48 Q10.062 -23.98 13.5 -29.73 L22.812 -45.105 Q19.812 -47.73 18.031 -51.486 Q16.25 -55.242 16.25 -59.605 Q16.25 -67.667 21.906 -73.324 Q27.562 -78.98 35.625 -78.98 Q43.688 -78.98 49.344 -73.324 Q55 -67.667 55 -59.605 Q55 -51.542 49.344 -45.886 Q43.688 -40.23 35.625 -40.23 Q34.459 -40.23 33.291 -40.386 Q32.125 -40.542 31.062 -40.792 L21.562 -24.855 Q20.188 -22.542 20.71 -20.355 Q21.231 -18.167 22.929 -16.792 Q24.625 -15.417 26.854 -15.23 Q29.082 -15.042 31.188 -16.792 L82.688 -60.792 Q87.812 -65.105 93.375 -64.636 Q98.938 -64.167 103 -60.792 Q107.062 -57.417 108.469 -51.949 Q109.875 -46.48 106.438 -40.667 L97.188 -25.355 Q100.188 -22.667 101.969 -18.911 Q103.75 -15.154 103.75 -10.791 Q103.75 -2.792 98.094 2.864 Q92.438 8.52 84.375 8.52 Q76.312 8.52 70.656 2.864 Q65 -2.792 65 -10.824 Q65 -18.855 70.656 -24.542 Q76.312 -30.23 84.375 -30.23 Q85.544 -30.23 86.646 -30.074 Q87.75 -29.917 88.812 -29.667 L98.375 -45.605 Q99.75 -47.917 99.228 -50.105 Q98.706 -52.292 97.009 -53.667 Q95.312 -55.042 93.084 -55.23 Q90.855 -55.417 88.75 -53.667 L37.312 -9.73 Z M84.375 -0.855 Q88.5 -0.855 91.438 -3.774 Q94.375 -6.694 94.375 -10.792 Q94.375 -14.98 91.438 -17.917 Q88.5 -20.855 84.375 -20.855 Q80.25 -20.855 77.312 -17.917 Q74.375 -14.98 74.375 -10.824 Q74.375 -6.667 77.312 -3.761 Q80.25 -0.855 84.375 -0.855 Z M35.625 -49.605 Q39.75 -49.605 42.688 -52.542 Q45.625 -55.48 45.625 -59.605 Q45.625 -63.73 42.688 -66.667 Q39.75 -69.605 35.625 -69.605 Q31.5 -69.605 28.562 -66.667 Q25.625 -63.73 25.625 -59.605 Q25.625 -55.48 28.562 -52.542 Q31.5 -49.605 35.625 -49.605 Z"/></g><g id="Light-M" transform="matrix(1 0 0 1 1098.18 1126)"><path d="M37.169 -11.22 Q32.466 -7.292 27.42 -7.686 Q22.375 -8.081 18.659 -11.144 Q14.943 -14.206 13.693 -19.177 Q12.443 -24.149 15.544 -29.345 L25.073 -45.081 Q22.073 -47.514 20.291 -51.101 Q18.51 -54.689 18.51 -58.855 Q18.51 -66.321 23.709 -71.521 Q28.909 -76.72 36.37 -76.72 Q43.831 -76.72 49.031 -71.521 Q54.231 -66.321 54.231 -58.86 Q54.231 -51.399 49.031 -46.199 Q43.831 -40.999 36.37 -40.999 Q35.035 -40.999 33.725 -41.204 Q32.414 -41.407 31.231 -41.802 L21.562 -25.696 Q19.971 -23.071 20.589 -20.571 Q21.207 -18.071 23.146 -16.506 Q25.061 -14.916 27.625 -14.702 Q30.189 -14.49 32.606 -16.504 L82.904 -59.277 Q87.524 -63.206 92.545 -62.797 Q97.567 -62.389 101.28 -59.316 Q104.994 -56.244 106.293 -51.29 Q107.591 -46.336 104.476 -41.08 L94.951 -25.331 Q97.927 -22.86 99.709 -19.301 Q101.49 -15.742 101.49 -11.551 Q101.49 -4.139 96.256 1.061 Q91.021 6.26 83.595 6.26 Q76.169 6.26 70.969 1.041 Q65.769 -4.177 65.769 -11.594 Q65.769 -18.975 70.979 -24.217 Q76.189 -29.461 83.581 -29.461 Q84.925 -29.461 86.218 -29.239 Q87.51 -29.016 88.716 -28.634 L98.399 -44.764 Q99.966 -47.389 99.371 -49.886 Q98.775 -52.384 96.864 -53.965 Q94.953 -55.547 92.375 -55.771 Q89.797 -55.995 87.404 -53.98 L37.169 -11.22 Z M83.576 -0.735 Q88.08 -0.735 91.287 -3.901 Q94.495 -7.067 94.495 -11.561 Q94.495 -16.11 91.287 -19.287 Q88.08 -22.466 83.576 -22.466 Q79.073 -22.466 75.919 -19.287 Q72.764 -16.11 72.764 -11.581 Q72.764 -7.052 75.919 -3.894 Q79.073 -0.735 83.576 -0.735 Z M36.37 -47.994 Q40.88 -47.994 44.057 -51.172 Q47.236 -54.35 47.236 -58.86 Q47.236 -63.37 44.057 -66.547 Q40.88 -69.725 36.37 -69.725 Q31.86 -69.725 28.683 -66.547 Q25.505 -63.37 25.505 -58.86 Q25.505 -54.35 28.683 -51.172 Q31.86 -47.994 36.37 -47.994 Z"/></g><g id="Thin-M" transform="matrix(1 0 0 1 802.565 1126)"><path d="M37.024 -12.711 Q32.744 -9.167 28.185 -9.55 Q23.625 -9.932 20.317 -12.682 Q17.01 -15.432 15.916 -19.874 Q14.822 -24.316 17.586 -28.961 L27.331 -45.057 Q24.331 -47.297 22.55 -50.716 Q20.769 -54.135 20.769 -58.105 Q20.769 -64.975 25.512 -69.717 Q30.255 -74.461 37.115 -74.461 Q43.976 -74.461 48.719 -69.717 Q53.461 -64.975 53.461 -58.115 Q53.461 -51.254 48.719 -46.511 Q43.976 -41.769 37.115 -41.769 Q35.612 -41.769 34.157 -42.021 Q32.703 -42.274 31.399 -42.811 L21.562 -26.537 Q19.755 -23.6 20.469 -20.787 Q21.184 -17.975 23.364 -16.22 Q25.496 -14.415 28.395 -14.176 Q31.294 -13.936 34.024 -16.215 L83.12 -57.764 Q87.235 -61.307 91.716 -60.959 Q96.198 -60.61 99.561 -57.84 Q102.926 -55.071 104.116 -50.631 Q105.308 -46.191 102.516 -41.492 L92.716 -25.307 Q95.669 -23.052 97.45 -19.691 Q99.231 -16.331 99.231 -12.311 Q99.231 -5.485 94.419 -0.742 Q89.606 4.001 82.815 4.001 Q76.024 4.001 71.281 -0.78 Q66.539 -5.561 66.539 -12.364 Q66.539 -19.095 71.302 -23.894 Q76.066 -28.691 82.789 -28.691 Q84.308 -28.691 85.789 -28.402 Q87.269 -28.115 88.62 -27.6 L98.422 -43.922 Q100.183 -46.86 99.514 -49.667 Q98.845 -52.475 96.718 -54.264 Q94.591 -56.052 91.665 -56.311 Q88.74 -56.571 86.058 -54.292 L37.024 -12.711 Z M82.778 -0.615 Q87.66 -0.615 91.138 -4.029 Q94.615 -7.442 94.615 -12.331 Q94.615 -17.24 91.138 -20.657 Q87.66 -24.076 82.778 -24.076 Q77.894 -24.076 74.524 -20.657 Q71.154 -17.24 71.154 -12.339 Q71.154 -7.436 74.524 -4.026 Q77.894 -0.615 82.778 -0.615 Z M37.115 -46.384 Q42.01 -46.384 45.428 -49.802 Q48.846 -53.22 48.846 -58.115 Q48.846 -63.009 45.428 -66.427 Q42.01 -69.845 37.115 -69.845 Q32.221 -69.845 28.802 -66.427 Q25.385 -63.009 25.385 -58.115 Q25.385 -53.22 28.802 -49.802 Q32.221 -46.384 37.115 -46.384 Z"/></g><g id="Ultralight-M" transform="matrix(1 0 0 1 506.415 1126)"><path d="M36.938 -13.605 Q32.911 -10.292 28.642 -10.667 Q24.375 -11.042 21.312 -13.605 Q18.25 -16.167 17.25 -20.292 Q16.25 -24.417 18.812 -28.73 L28.688 -45.042 Q25.688 -47.167 23.906 -50.485 Q22.125 -53.802 22.125 -57.655 Q22.125 -64.167 26.594 -68.636 Q31.062 -73.105 37.562 -73.105 Q44.062 -73.105 48.531 -68.636 Q53 -64.167 53 -57.667 Q53 -51.167 48.531 -46.699 Q44.062 -42.23 37.562 -42.23 Q35.959 -42.23 34.416 -42.511 Q32.875 -42.792 31.5 -43.417 L21.562 -27.042 Q19.625 -23.917 20.398 -20.917 Q21.169 -17.917 23.495 -16.047 Q25.758 -14.115 28.858 -13.86 Q31.957 -13.605 34.875 -16.042 L83.25 -56.855 Q87.062 -60.167 91.219 -59.855 Q95.375 -59.542 98.53 -56.955 Q101.685 -54.367 102.811 -50.236 Q103.938 -46.105 101.34 -41.74 L91.375 -25.292 Q94.312 -23.167 96.094 -19.926 Q97.875 -16.684 97.875 -12.766 Q97.875 -6.292 93.315 -1.824 Q88.756 2.645 82.346 2.645 Q75.938 2.645 71.469 -1.874 Q67 -6.392 67 -12.826 Q67 -19.167 71.496 -23.699 Q75.993 -28.23 82.312 -28.23 Q83.938 -28.23 85.531 -27.902 Q87.125 -27.574 88.562 -26.98 L98.438 -43.417 Q100.312 -46.542 99.599 -49.536 Q98.886 -52.529 96.63 -54.442 Q94.375 -56.355 91.24 -56.636 Q88.105 -56.917 85.25 -54.48 L36.938 -13.605 Z M82.297 -0.542 Q87.409 -0.542 91.047 -4.105 Q94.688 -7.667 94.688 -12.792 Q94.688 -17.917 91.047 -21.48 Q87.409 -25.042 82.297 -25.042 Q77.188 -25.042 73.688 -21.48 Q70.188 -17.917 70.188 -12.792 Q70.188 -7.667 73.688 -4.105 Q77.188 -0.542 82.297 -0.542 Z M37.562 -45.417 Q42.688 -45.417 46.25 -48.98 Q49.812 -52.542 49.812 -57.667 Q49.812 -62.792 46.25 -66.355 Q42.688 -69.917 37.562 -69.917 Q32.438 -69.917 28.875 -66.355 Q25.312 -62.792 25.312 -57.667 Q25.312 -52.542 28.875 -48.98 Q32.438 -45.417 37.562 -45.417 Z"/></g><g id="Bold-S" transform="matrix(1 0 0 1 2294.23 696)"><path d="M36.245 -14.815 Q31.116 -9.144 24.73 -9.316 Q18.344 -9.489 13.66 -13.039 Q8.975 -16.59 7.323 -22.655 Q5.671 -28.721 9.665 -35.131 L15.336 -44.205 Q13.758 -46.375 12.797 -48.943 Q11.835 -51.511 11.835 -54.363 Q11.835 -61.316 16.544 -66.026 Q21.254 -70.735 28.207 -70.735 Q35.16 -70.735 39.869 -66.026 Q44.579 -61.316 44.579 -54.363 Q44.579 -47.41 39.869 -42.701 Q35.16 -37.991 28.207 -37.991 Q27.375 -37.991 26.544 -38.164 Q25.713 -38.337 24.804 -38.534 L19.084 -29.411 Q17.605 -27.093 18.308 -25.014 Q19.012 -22.934 20.744 -21.656 Q22.476 -20.377 24.584 -20.431 Q26.694 -20.486 28.355 -22.557 L58.534 -55.497 Q63.86 -61.366 70.172 -61.242 Q76.484 -61.119 81.07 -57.47 Q85.656 -53.821 87.258 -47.829 Q88.861 -41.838 84.965 -35.279 L79.442 -26.156 Q81.02 -23.937 81.933 -21.441 Q82.845 -18.945 82.845 -16.046 Q82.845 -9.144 78.136 -4.434 Q73.426 0.275 66.473 0.275 Q59.52 0.275 54.811 -4.434 Q50.102 -9.144 50.102 -16.072 Q50.102 -23 54.811 -27.734 Q59.52 -32.468 66.473 -32.468 Q67.365 -32.468 68.207 -32.296 Q69.049 -32.123 69.974 -31.926 L75.645 -40.95 Q77.125 -43.268 76.318 -45.388 Q75.512 -47.509 73.778 -48.791 Q72.046 -50.073 69.893 -49.925 Q67.74 -49.777 66.276 -47.805 L36.245 -14.815 Z M25.663 -51.7 Q27.911 -51.7 29.39 -53.187 Q30.87 -54.672 30.87 -56.899 Q30.87 -59.196 29.37 -60.675 Q27.869 -62.155 25.622 -62.155 Q23.374 -62.155 21.895 -60.655 Q20.415 -59.154 20.415 -56.882 Q20.415 -54.61 21.915 -53.155 Q23.416 -51.7 25.663 -51.7 Z M69.058 -8.305 Q71.306 -8.305 72.785 -9.805 Q74.265 -11.306 74.265 -13.553 Q74.265 -15.801 72.765 -17.28 Q71.264 -18.76 69.017 -18.76 Q66.769 -18.76 65.29 -17.26 Q63.81 -15.759 63.81 -13.512 Q63.81 -11.264 65.31 -9.785 Q66.811 -8.305 69.058 -8.305 Z"/></g><g id="Semibold-S" transform="matrix(1 0 0 1 1998.1 696)"><path d="M35.901 -15.843 Q31.074 -10.473 25.095 -10.602 Q19.116 -10.733 14.71 -14.068 Q10.304 -17.405 8.781 -23.063 Q7.258 -28.721 10.995 -34.746 L16.923 -44.247 Q15.259 -46.289 14.276 -48.771 Q13.293 -51.254 13.293 -54.063 Q13.293 -60.502 17.681 -64.889 Q22.068 -69.277 28.507 -69.277 Q34.946 -69.277 39.334 -64.889 Q43.72 -60.502 43.72 -54.063 Q43.72 -47.624 39.334 -43.236 Q34.946 -38.85 28.507 -38.85 Q27.566 -38.85 26.624 -39.043 Q25.682 -39.237 24.676 -39.477 L18.741 -30.012 Q17.09 -27.393 17.86 -25.039 Q18.629 -22.685 20.576 -21.233 Q22.523 -19.781 24.93 -19.812 Q27.337 -19.843 29.298 -22.128 L58.834 -54.511 Q63.774 -59.994 69.679 -59.913 Q75.583 -59.833 79.912 -56.441 Q84.241 -53.049 85.779 -47.444 Q87.318 -41.838 83.636 -35.665 L77.813 -26.156 Q79.477 -24.066 80.432 -21.624 Q81.387 -19.182 81.387 -16.346 Q81.387 -9.958 76.999 -5.571 Q72.612 -1.183 66.173 -1.183 Q59.734 -1.183 55.346 -5.571 Q50.96 -9.958 50.96 -16.372 Q50.96 -22.786 55.346 -27.199 Q59.734 -31.61 66.173 -31.61 Q67.167 -31.61 68.105 -31.417 Q69.044 -31.223 70.06 -30.983 L75.945 -40.393 Q77.596 -43.011 76.769 -45.41 Q75.94 -47.809 73.993 -49.262 Q72.046 -50.716 69.593 -50.612 Q67.139 -50.506 65.333 -48.276 L35.901 -15.843 Z M43.115 -33.435 Q45.662 -33.435 47.399 -35.178 Q49.135 -36.92 49.135 -39.448 Q49.135 -42.045 47.377 -43.782 Q45.62 -45.519 43.072 -45.519 Q40.525 -45.519 38.788 -43.76 Q37.051 -42.003 37.051 -39.43 Q37.051 -36.858 38.81 -35.146 Q40.567 -33.435 43.115 -33.435 Z M51.608 -24.941 Q54.155 -24.941 55.892 -26.7 Q57.629 -28.457 57.629 -31.005 Q57.629 -33.552 55.87 -35.289 Q54.113 -37.025 51.565 -37.025 Q49.018 -37.025 47.281 -35.267 Q45.545 -33.51 45.545 -30.962 Q45.545 -28.415 47.303 -26.678 Q49.06 -24.941 51.608 -24.941 Z"/></g><g id="Medium-S" transform="matrix(1 0 0 1 1701.85 696)"><path d="M35.644 -16.616 Q31.041 -11.47 25.368 -11.568 Q19.695 -11.666 15.498 -14.84 Q11.301 -18.016 9.874 -23.368 Q8.447 -28.721 11.992 -34.456 L18.112 -44.28 Q16.385 -46.225 15.386 -48.643 Q14.386 -51.061 14.386 -53.838 Q14.386 -59.89 18.533 -64.037 Q22.68 -68.184 28.732 -68.184 Q34.785 -68.184 38.931 -64.037 Q43.077 -59.89 43.077 -53.838 Q43.077 -47.785 38.931 -43.639 Q34.785 -39.493 28.732 -39.493 Q27.708 -39.493 26.684 -39.703 Q25.659 -39.913 24.579 -40.185 L18.483 -30.461 Q16.704 -27.619 17.524 -25.058 Q18.342 -22.497 20.451 -20.916 Q22.558 -19.334 25.189 -19.347 Q27.819 -19.36 30.006 -21.806 L59.06 -53.771 Q63.71 -58.964 69.309 -58.916 Q74.908 -58.867 79.044 -55.669 Q83.179 -52.47 84.67 -47.154 Q86.16 -41.838 82.639 -35.955 L76.591 -26.156 Q78.319 -24.162 79.306 -21.762 Q80.294 -19.36 80.294 -16.571 Q80.294 -10.57 76.147 -6.423 Q72 -2.276 65.948 -2.276 Q59.895 -2.276 55.749 -6.423 Q51.603 -10.57 51.603 -16.598 Q51.603 -22.626 55.749 -26.797 Q59.895 -30.967 65.948 -30.967 Q67.019 -30.967 68.03 -30.757 Q69.04 -30.547 70.124 -30.275 L76.171 -39.975 Q77.95 -42.817 77.106 -45.426 Q76.263 -48.034 74.154 -49.616 Q72.046 -51.198 69.367 -51.125 Q66.689 -51.052 64.625 -48.63 L35.644 -16.616 Z M56.204 -19.733 Q58.978 -19.733 60.907 -21.669 Q62.837 -23.605 62.837 -26.358 Q62.837 -29.179 60.886 -31.109 Q58.935 -33.039 56.163 -33.039 Q53.391 -33.039 51.461 -31.089 Q49.531 -29.138 49.531 -26.341 Q49.531 -23.543 51.481 -21.638 Q53.432 -19.733 56.204 -19.733 Z M38.517 -37.421 Q41.289 -37.421 43.219 -39.371 Q45.149 -41.322 45.149 -44.094 Q45.149 -46.868 43.199 -48.797 Q41.248 -50.727 38.476 -50.727 Q35.702 -50.727 33.773 -48.776 Q31.843 -46.825 31.843 -44.053 Q31.843 -41.281 33.794 -39.351 Q35.745 -37.421 38.517 -37.421 Z"/></g><g id="Regular-S" transform="matrix(1 0 0 1 1405.73 696)"><path d="M35.456 -17.182 Q31.018 -12.201 25.569 -12.275 Q20.12 -12.349 16.076 -15.406 Q12.032 -18.464 10.676 -23.592 Q9.32 -28.721 12.723 -34.244 L18.985 -44.303 Q17.21 -46.177 16.199 -48.548 Q15.188 -50.919 15.188 -53.673 Q15.188 -59.442 19.158 -63.412 Q23.128 -67.382 28.897 -67.382 Q34.667 -67.382 38.636 -63.412 Q42.606 -59.442 42.606 -53.673 Q42.606 -47.903 38.636 -43.934 Q34.667 -39.964 28.897 -39.964 Q27.812 -39.964 26.727 -40.186 Q25.643 -40.408 24.508 -40.704 L18.295 -30.792 Q16.421 -27.784 17.277 -25.072 Q18.132 -22.359 20.359 -20.683 Q22.585 -19.006 25.379 -19.006 Q28.173 -19.006 30.524 -21.57 L59.224 -53.229 Q63.662 -58.21 69.038 -58.185 Q74.413 -58.16 78.407 -55.103 Q82.401 -52.046 83.856 -46.942 Q85.311 -41.838 81.908 -36.167 L75.695 -26.156 Q77.47 -24.233 78.481 -21.862 Q79.492 -19.49 79.492 -16.737 Q79.492 -11.018 75.522 -7.048 Q71.552 -3.078 65.783 -3.078 Q60.013 -3.078 56.044 -7.048 Q52.074 -11.018 52.074 -16.762 Q52.074 -22.507 56.044 -26.502 Q60.013 -30.496 65.783 -30.496 Q66.909 -30.496 67.973 -30.274 Q69.038 -30.052 70.172 -29.756 L76.336 -39.668 Q78.21 -42.676 77.354 -45.438 Q76.498 -48.199 74.272 -49.876 Q72.046 -51.552 69.202 -51.503 Q66.359 -51.454 64.106 -48.89 L35.456 -17.182 Z M65.804 -9.686 Q68.742 -9.686 70.813 -11.764 Q72.884 -13.841 72.884 -16.759 Q72.884 -19.746 70.792 -21.817 Q68.7 -23.888 65.762 -23.888 Q62.824 -23.888 60.753 -21.796 Q58.682 -19.704 58.682 -16.742 Q58.682 -13.779 60.774 -11.733 Q62.866 -9.686 65.804 -9.686 Z M28.918 -46.572 Q31.856 -46.572 33.927 -48.664 Q35.998 -50.756 35.998 -53.694 Q35.998 -56.632 33.906 -58.703 Q31.814 -60.774 28.876 -60.774 Q25.938 -60.774 23.867 -58.682 Q21.796 -56.59 21.796 -53.652 Q21.796 -50.714 23.888 -48.643 Q25.98 -46.572 28.918 -46.572 Z"/></g><g id="Light-S" transform="matrix(1 0 0 1 1109.75 696)"><path d="M35.342 -18.357 Q31.237 -13.68 26.171 -13.745 Q21.106 -13.81 17.385 -16.62 Q13.664 -19.431 12.431 -24.143 Q11.198 -28.854 14.335 -33.94 L20.768 -44.285 Q18.993 -46.007 17.982 -48.245 Q16.971 -50.482 16.971 -53.081 Q16.971 -58.38 20.58 -61.99 Q24.19 -65.599 29.485 -65.599 Q34.78 -65.599 38.39 -61.99 Q41.999 -58.38 41.999 -53.085 Q41.999 -47.79 38.39 -44.18 Q34.78 -40.571 29.485 -40.571 Q28.268 -40.571 27.069 -40.831 Q25.87 -41.09 24.641 -41.501 L18.295 -31.456 Q16.25 -28.201 17.181 -25.242 Q18.113 -22.283 20.531 -20.457 Q22.929 -18.611 25.988 -18.59 Q29.046 -18.57 31.644 -21.343 L59.395 -52.034 Q63.435 -56.712 68.383 -56.734 Q73.332 -56.757 77.05 -53.938 Q80.769 -51.119 82.139 -46.422 Q83.509 -41.724 80.361 -36.492 L73.93 -26.138 Q75.687 -24.385 76.698 -22.17 Q77.709 -19.955 77.709 -17.336 Q77.709 -12.08 74.072 -8.47 Q70.435 -4.861 65.167 -4.861 Q59.9 -4.861 56.29 -8.486 Q52.681 -12.11 52.681 -17.37 Q52.681 -22.602 56.298 -26.245 Q59.916 -29.889 65.157 -29.889 Q66.422 -29.889 67.635 -29.615 Q68.848 -29.341 70.096 -28.941 L76.354 -39.004 Q78.38 -42.259 77.467 -45.265 Q76.553 -48.271 74.157 -50.111 Q71.762 -51.951 68.643 -51.93 Q65.524 -51.909 63.044 -49.136 L35.342 -18.357 Z M65.173 -9.591 Q68.41 -9.591 70.694 -11.864 Q72.979 -14.137 72.979 -17.366 Q72.979 -20.637 70.674 -22.898 Q68.369 -25.159 65.132 -25.159 Q61.895 -25.159 59.653 -22.877 Q57.411 -20.595 57.411 -17.339 Q57.411 -14.083 59.674 -11.837 Q61.937 -9.591 65.173 -9.591 Z M29.506 -45.301 Q32.747 -45.301 35.008 -47.583 Q37.269 -49.865 37.269 -53.106 Q37.269 -56.348 34.987 -58.608 Q32.705 -60.869 29.464 -60.869 Q26.222 -60.869 23.962 -58.587 Q21.701 -56.305 21.701 -53.064 Q21.701 -49.823 23.983 -47.562 Q26.265 -45.301 29.506 -45.301 Z"/></g><g id="Thin-S" transform="matrix(1 0 0 1 814.015 696)"><path d="M35.228 -19.534 Q31.456 -15.16 26.775 -15.215 Q22.092 -15.27 18.693 -17.835 Q15.295 -20.399 14.185 -24.692 Q13.076 -28.986 15.947 -33.637 L22.551 -44.266 Q20.775 -45.836 19.764 -47.941 Q18.754 -50.045 18.754 -52.489 Q18.754 -57.318 22.003 -60.567 Q25.252 -63.816 30.073 -63.816 Q34.895 -63.816 38.143 -60.567 Q41.392 -57.318 41.392 -52.497 Q41.392 -47.675 38.143 -44.427 Q34.895 -41.178 30.073 -41.178 Q28.723 -41.178 27.41 -41.476 Q26.098 -41.774 24.774 -42.296 L18.295 -32.119 Q16.08 -28.618 17.087 -25.413 Q18.095 -22.208 20.702 -20.231 Q23.273 -18.215 26.595 -18.175 Q29.918 -18.133 32.762 -21.115 L59.566 -50.839 Q63.207 -55.213 67.729 -55.283 Q72.251 -55.353 75.694 -52.773 Q79.138 -50.194 80.422 -45.902 Q81.707 -41.61 78.814 -36.818 L72.167 -26.119 Q73.905 -24.537 74.916 -22.478 Q75.926 -20.419 75.926 -17.936 Q75.926 -13.142 72.623 -9.893 Q69.319 -6.644 64.552 -6.644 Q59.785 -6.644 56.537 -9.923 Q53.288 -13.202 53.288 -17.978 Q53.288 -22.697 56.554 -25.99 Q59.819 -29.282 64.531 -29.282 Q65.935 -29.282 67.297 -28.955 Q68.658 -28.63 70.02 -28.125 L76.373 -38.341 Q78.551 -41.842 77.579 -45.092 Q76.608 -48.343 74.042 -50.346 Q71.476 -52.349 68.083 -52.356 Q64.69 -52.364 61.982 -49.383 L35.228 -19.534 Z M64.543 -9.497 Q68.079 -9.497 70.576 -11.964 Q73.073 -14.433 73.073 -17.973 Q73.073 -21.529 70.555 -23.979 Q68.037 -26.43 64.502 -26.43 Q60.965 -26.43 58.553 -23.958 Q56.14 -21.487 56.14 -17.936 Q56.14 -14.386 58.573 -11.942 Q61.007 -9.497 64.543 -9.497 Z M30.094 -44.03 Q33.639 -44.03 36.089 -46.502 Q38.54 -48.973 38.54 -52.518 Q38.54 -56.063 36.068 -58.513 Q33.597 -60.963 30.052 -60.963 Q26.507 -60.963 24.057 -58.492 Q21.607 -56.021 21.607 -52.476 Q21.607 -48.931 24.078 -46.481 Q26.549 -44.03 30.094 -44.03 Z"/></g><g id="Ultralight-S" transform="matrix(1 0 0 1 517.792 696)"><path d="M35.16 -20.239 Q31.589 -16.047 27.136 -16.097 Q22.684 -16.146 19.478 -18.562 Q16.273 -20.979 15.238 -25.022 Q14.202 -29.066 16.914 -33.455 L23.621 -44.254 Q21.845 -45.734 20.835 -47.758 Q19.824 -49.783 19.824 -52.134 Q19.824 -56.681 22.856 -59.714 Q25.889 -62.746 30.426 -62.746 Q34.963 -62.746 37.995 -59.714 Q41.028 -56.681 41.028 -52.144 Q41.028 -47.607 37.995 -44.575 Q34.963 -41.542 30.426 -41.542 Q28.996 -41.542 27.615 -41.863 Q26.234 -42.183 24.854 -42.775 L18.295 -32.518 Q15.977 -28.869 17.031 -25.515 Q18.083 -22.162 20.806 -20.095 Q23.479 -17.979 26.96 -17.925 Q30.442 -17.872 33.434 -20.979 L59.668 -50.122 Q63.071 -54.314 67.336 -54.413 Q71.602 -54.511 74.88 -52.075 Q78.158 -49.639 79.392 -45.591 Q80.626 -41.542 77.886 -37.013 L71.109 -26.107 Q72.835 -24.628 73.845 -22.663 Q74.856 -20.698 74.856 -18.295 Q74.856 -13.779 71.752 -10.746 Q68.648 -7.714 64.182 -7.714 Q59.717 -7.714 56.685 -10.786 Q53.652 -13.858 53.652 -18.342 Q53.652 -22.754 56.706 -25.836 Q59.761 -28.918 64.156 -28.918 Q65.643 -28.918 67.094 -28.561 Q68.544 -28.203 69.974 -27.636 L76.385 -37.942 Q78.653 -41.591 77.646 -44.989 Q76.641 -48.386 73.973 -50.487 Q71.306 -52.588 67.747 -52.613 Q64.189 -52.637 61.345 -49.531 L35.16 -20.239 Z M64.165 -9.44 Q67.881 -9.44 70.505 -12.025 Q73.13 -14.609 73.13 -18.337 Q73.13 -22.064 70.484 -24.628 Q67.839 -27.192 64.123 -27.192 Q60.408 -27.192 57.893 -24.607 Q55.378 -22.022 55.378 -18.295 Q55.378 -14.568 57.914 -12.004 Q60.449 -9.44 64.165 -9.44 Z M30.447 -43.268 Q34.174 -43.268 36.738 -45.853 Q39.302 -48.438 39.302 -52.165 Q39.302 -55.892 36.717 -58.456 Q34.132 -61.02 30.405 -61.02 Q26.678 -61.02 24.114 -58.435 Q21.55 -55.851 21.55 -52.123 Q21.55 -48.396 24.135 -45.832 Q26.719 -43.268 30.447 -43.268 Z"/></g></g></svg>