<svg xmlns="http://www.w3.org/2000/svg" version="1.1" width="3300" height="2000"><g id="Notes"><style>
    text {
      font-family: monospace;
      text-anchor: middle;
    }
    text.emphasis {
      font-weight:bold;
    }
    text.lanchor {
      text-anchor: start;
    }
  </style><rect height="2200" id="artboard" fill="white" width="3300" x="0" y="0"/><line id="" style="fill:none;stroke:black;stroke-width:0.5;" x1="263" x2="3036" y1="292" y2="292"/><text class="lanchor emphasis" transform="matrix(1 0 0 1 263 322)">Weight/Scale Variations</text><text transform="matrix(1 0 0 1 559.711 322)">Ultralight</text><text transform="matrix(1 0 0 1 856.422 322)">Thin</text><text transform="matrix(1 0 0 1 1153.13 322)">Light</text><text transform="matrix(1 0 0 1 1449.84 322)">Regular</text><text transform="matrix(1 0 0 1 1746.56 322)">Medium</text><text transform="matrix(1 0 0 1 2043.27 322)">Semibold</text><text transform="matrix(1 0 0 1 2339.98 322)">Bold</text><text transform="matrix(1 0 0 1 2636.69 322)">Heavy</text><text transform="matrix(1 0 0 1 2933.4 322)">Black</text><text id="template-version" style="text-anchor: end;" transform="matrix(1 0 0 1 3036 1933)">Template v.1.0</text><text class="lanchor" transform="matrix(1 0 0 1 263 726)">Small</text><text class="lanchor" transform="matrix(1 0 0 1 263 1156)">Medium</text><text class="lanchor" transform="matrix(1 0 0 1 263 1586)">Large</text></g><g id="Guides"><g id="H-reference" style="fill:#27AAE1;stroke:none;" transform="matrix(1 0 0 1 339 696)"><path d="M 54.9316 0 L 57.666 0 L 30.5664 -70.459 L 28.0762 -70.459 L 0.976562 0 L 3.66211 0 L 12.9395 -24.4629 L 45.7031 -24.4629 Z M 29.1992 -67.0898 L 29.4434 -67.0898 L 44.8242 -26.709 L 13.8184 -26.709 Z"/></g><line id="Baseline-S" style="fill:none;stroke:#27AAE1;opacity:1;stroke-width:0.577;" x1="263" x2="3036" y1="696" y2="696"/><line id="Capline-S" style="fill:none;stroke:#27AAE1;opacity:1;stroke-width:0.577;" x1="263" x2="3036" y1="625.541" y2="625.541"/><g id="H-reference" style="fill:#27AAE1;stroke:none;" transform="matrix(1 0 0 1 339 1126)"><path d="M 54.9316 0 L 57.666 0 L 30.5664 -70.459 L 28.0762 -70.459 L 0.976562 0 L 3.66211 0 L 12.9395 -24.4629 L 45.7031 -24.4629 Z M 29.1992 -67.0898 L 29.4434 -67.0898 L 44.8242 -26.709 L 13.8184 -26.709 Z"/></g><line id="Baseline-M" style="fill:none;stroke:#27AAE1;opacity:1;stroke-width:0.577;" x1="263" x2="3036" y1="1126" y2="1126"/><line id="Capline-M" style="fill:none;stroke:#27AAE1;opacity:1;stroke-width:0.577;" x1="263" x2="3036" y1="1055.54" y2="1055.54"/><g id="H-reference" style="fill:#27AAE1;stroke:none;" transform="matrix(1 0 0 1 339 1556)"><path d="M 54.9316 0 L 57.666 0 L 30.5664 -70.459 L 28.0762 -70.459 L 0.976562 0 L 3.66211 0 L 12.9395 -24.4629 L 45.7031 -24.4629 Z M 29.1992 -67.0898 L 29.4434 -67.0898 L 44.8242 -26.709 L 13.8184 -26.709 Z"/></g><line id="Baseline-L" style="fill:none;stroke:#27AAE1;opacity:1;stroke-width:0.577;" x1="263" x2="3036" y1="1556" y2="1556"/><line id="Capline-L" style="fill:none;stroke:#27AAE1;opacity:1;stroke-width:0.577;" x1="263" x2="3036" y1="1485.54" y2="1485.54"/><rect height="119.336" id="left-margin" style="fill:darkred;stroke:none;opacity:0.4;" width="12.4512" x="1394.06" y="1030.79"/><rect height="119.336" id="right-margin" style="fill:darkgreen;stroke:none;opacity:0.4;" width="12.4512" x="1502.5112" y="1030.79"/><rect x="1406.5112" y="1045" width="96" height="96" fill="none" stroke="blue" stroke-dasharray="5"/><rect x="1394.06" y="1030.79" width="120.9024" height="119.336" fill="none" stroke="blue"/></g><g id="Symbols"><g id="Bold-L" transform="matrix(1 0 0 1 2266 1556)"><path d="M46.601 0.729 Q39.345 6.856 31.283 6.373 Q23.22 5.889 17.576 0.729 Q11.771 -4.27 9.594 -11.849 Q7.418 -19.427 12.578 -28.135 L25.155 -48.936 Q20.801 -52.806 18.463 -58.068 Q16.125 -63.331 16.125 -69.254 Q16.125 -80.627 24.226 -88.807 Q32.327 -96.989 43.699 -96.989 Q54.909 -96.989 63.171 -88.807 Q71.434 -80.627 71.434 -69.254 Q71.434 -58.042 63.171 -49.781 Q54.909 -41.519 43.699 -41.519 Q42.28 -41.519 40.7 -41.68 Q39.119 -41.841 38.055 -42.486 L25.316 -20.556 Q23.381 -17.492 24.055 -14.572 Q24.728 -11.654 26.958 -10.219 Q28.864 -8.624 31.686 -8.221 Q34.508 -7.817 37.087 -10.236 L108.36 -71.35 Q115.616 -77.477 123.84 -77.155 Q132.064 -76.832 137.708 -71.672 Q143.351 -66.351 145.286 -58.611 Q147.221 -50.871 142.384 -42.647 L130.29 -21.685 Q134.483 -17.976 136.821 -12.634 Q139.159 -7.29 139.159 -1.367 Q139.159 10.004 130.929 18.105 Q122.697 26.206 111.256 26.206 Q99.975 26.206 91.832 18.105 Q83.689 10.004 83.689 -1.367 Q83.689 -12.578 91.832 -20.84 Q99.975 -29.102 111.263 -29.102 Q112.509 -29.102 114.063 -29.022 Q115.616 -28.941 116.906 -28.619 L129.806 -50.065 Q131.58 -52.967 130.825 -55.968 Q130.072 -58.968 127.842 -60.403 Q125.614 -61.836 122.953 -62.239 Q120.293 -62.642 117.874 -60.385 L46.601 0.729 Z"/></g><g id="Semibold-L" transform="matrix(1 0 0 1 1970.27 1556)"><path d="M46.04 0.379 Q38.924 6.435 31.037 5.916 Q23.151 5.399 17.646 0.379 Q11.981 -4.48 9.98 -11.918 Q7.979 -19.358 12.927 -27.714 L25.785 -49.077 Q21.362 -52.876 18.919 -58.139 Q16.475 -63.4 16.475 -69.394 Q16.475 -80.556 24.436 -88.562 Q32.397 -96.568 43.558 -96.568 Q54.63 -96.568 62.681 -88.562 Q70.732 -80.556 70.732 -69.394 Q70.732 -58.323 62.681 -50.271 Q54.63 -42.22 43.558 -42.22 Q41.999 -42.22 40.383 -42.381 Q38.769 -42.543 37.565 -43.188 L24.475 -20.837 Q22.399 -17.562 23.178 -14.398 Q23.957 -11.233 26.326 -9.588 Q28.443 -7.853 31.51 -7.45 Q34.577 -7.047 37.368 -9.606 L108.85 -71 Q115.966 -77.057 123.945 -76.665 Q131.923 -76.271 137.498 -71.323 Q143.001 -66.211 144.901 -58.611 Q146.8 -51.012 142.034 -42.997 L129.589 -21.545 Q133.852 -17.836 136.295 -12.529 Q138.738 -7.221 138.738 -1.227 Q138.738 9.935 130.682 17.895 Q122.627 25.856 111.396 25.856 Q100.256 25.856 92.322 17.895 Q84.39 9.935 84.39 -1.227 Q84.39 -12.299 92.322 -20.35 Q100.256 -28.401 111.403 -28.401 Q112.79 -28.401 114.378 -28.32 Q115.966 -28.24 117.327 -27.848 L130.508 -49.784 Q132.422 -52.967 131.667 -56.143 Q130.912 -59.318 128.544 -61.033 Q126.175 -62.678 123.198 -63.046 Q120.223 -63.413 117.524 -61.015 L46.04 0.379 Z"/></g><g id="Medium-L" transform="matrix(1 0 0 1 1674.31 1556)"><path d="M45.619 0.116 Q38.608 6.119 30.854 5.574 Q23.097 5.029 17.699 0.116 Q12.139 -4.638 10.268 -11.971 Q8.4 -19.305 13.19 -27.398 L26.26 -49.181 Q21.783 -52.929 19.261 -58.19 Q16.738 -63.454 16.738 -69.499 Q16.738 -80.503 24.594 -88.378 Q32.45 -96.252 43.454 -96.252 Q54.419 -96.252 62.313 -88.378 Q70.207 -80.503 70.207 -69.499 Q70.207 -58.534 62.313 -50.639 Q54.419 -42.746 43.454 -42.746 Q41.79 -42.746 40.148 -42.907 Q38.507 -43.068 37.196 -43.713 L23.844 -21.046 Q21.664 -17.615 22.522 -14.266 Q23.378 -10.917 25.853 -9.116 Q28.127 -7.274 31.379 -6.871 Q34.63 -6.468 37.578 -9.132 L109.219 -70.737 Q116.229 -76.741 124.024 -76.296 Q131.819 -75.85 137.34 -71.06 Q142.739 -66.106 144.612 -58.611 Q146.484 -51.116 141.771 -43.26 L129.063 -21.44 Q133.378 -17.731 135.9 -12.45 Q138.422 -7.168 138.422 -1.122 Q138.422 9.881 130.498 17.737 Q122.574 25.594 111.501 25.594 Q100.465 25.594 92.691 17.737 Q84.916 9.881 84.916 -1.122 Q84.916 -12.087 92.691 -19.982 Q100.465 -27.875 111.508 -27.875 Q112.999 -27.875 114.615 -27.795 Q116.229 -27.714 117.643 -27.269 L131.033 -49.575 Q133.052 -52.967 132.298 -56.275 Q131.545 -59.58 129.069 -61.506 Q126.596 -63.308 123.382 -63.65 Q120.17 -63.992 117.261 -61.49 L45.619 0.116 Z"/></g><g id="Regular-L" transform="matrix(1 0 0 1 1378.56 1556)"><path d="M45.311 -0.077 Q38.377 5.889 30.718 5.324 Q23.059 4.76 17.738 -0.077 Q12.255 -4.754 10.481 -12.01 Q8.707 -19.266 13.384 -27.167 L26.606 -49.259 Q22.091 -52.967 19.511 -58.229 Q16.931 -63.492 16.931 -69.576 Q16.931 -80.465 24.71 -88.243 Q32.489 -96.021 43.376 -96.021 Q54.264 -96.021 62.043 -88.243 Q69.821 -80.465 69.821 -69.576 Q69.821 -58.687 62.043 -50.91 Q54.264 -43.131 43.376 -43.131 Q41.635 -43.131 39.974 -43.292 Q38.313 -43.454 36.926 -44.099 L23.381 -21.201 Q21.124 -17.654 22.04 -14.169 Q22.954 -10.686 25.507 -8.767 Q27.896 -6.85 31.283 -6.447 Q34.669 -6.044 37.733 -8.785 L109.489 -70.544 Q116.422 -76.51 124.082 -76.026 Q131.741 -75.542 137.224 -70.866 Q142.545 -66.029 144.399 -58.611 Q146.254 -51.194 141.578 -43.454 L128.678 -21.362 Q133.031 -17.654 135.611 -12.392 Q138.191 -7.129 138.191 -1.045 Q138.191 9.843 130.364 17.621 Q122.535 25.4 111.579 25.4 Q100.62 25.4 92.961 17.621 Q85.301 9.843 85.301 -1.045 Q85.301 -11.933 92.961 -19.711 Q100.62 -27.49 111.585 -27.49 Q113.154 -27.49 114.789 -27.409 Q116.422 -27.329 117.874 -26.845 L131.419 -49.42 Q133.515 -52.967 132.76 -56.371 Q132.007 -59.774 129.455 -61.854 Q126.904 -63.771 123.517 -64.094 Q120.131 -64.416 117.068 -61.836 L45.311 -0.077 Z"/></g><g id="Light-L" transform="matrix(1 0 0 1 1082.77 1556)"><path d="M45.745 -2.124 Q39.308 3.407 32.237 2.875 Q25.168 2.341 20.343 -2.124 Q15.295 -6.429 13.676 -13.065 Q12.057 -19.7 16.36 -26.982 L29.522 -48.949 Q25.131 -52.41 22.612 -57.362 Q20.095 -62.314 20.095 -68.149 Q20.095 -78.293 27.314 -85.514 Q34.535 -92.733 44.74 -92.733 Q54.885 -92.733 62.105 -85.514 Q69.325 -78.293 69.325 -68.149 Q69.325 -58.005 62.105 -50.786 Q54.885 -43.565 44.74 -43.565 Q42.813 -43.565 41.028 -43.789 Q39.243 -44.012 37.733 -44.781 L24.312 -22.193 Q21.93 -18.46 22.938 -14.759 Q23.947 -11.059 26.622 -9.016 Q29.136 -6.974 32.74 -6.54 Q36.344 -6.105 39.717 -9.033 L109.116 -68.435 Q115.431 -73.967 122.469 -73.545 Q129.508 -73.124 134.557 -68.82 Q139.381 -64.353 141.174 -57.557 Q142.966 -50.76 138.662 -43.578 L125.701 -21.611 Q129.93 -18.088 132.417 -13.136 Q134.903 -8.184 134.903 -2.409 Q134.903 7.735 127.634 14.954 Q120.365 22.175 110.151 22.175 Q99.938 22.175 92.836 14.924 Q85.735 7.672 85.735 -2.409 Q85.735 -12.553 92.836 -19.774 Q99.938 -26.993 110.158 -26.993 Q111.851 -26.993 113.672 -26.821 Q115.492 -26.647 117.068 -26.039 L130.488 -48.365 Q132.709 -52.161 131.893 -55.751 Q131.077 -59.34 128.4 -61.543 Q125.725 -63.586 122.123 -63.97 Q118.519 -64.355 115.145 -61.527 L45.745 -2.124 Z"/></g><g id="Thin-L" transform="matrix(1 0 0 1 787.282 1556)"><path d="M46.179 -4.17 Q40.238 0.927 33.758 0.426 Q27.275 -0.077 22.947 -4.17 Q18.333 -8.103 16.87 -14.119 Q15.406 -20.134 19.337 -26.795 L32.435 -48.638 Q28.169 -51.852 25.713 -56.492 Q23.257 -61.135 23.257 -66.724 Q23.257 -76.123 29.918 -82.786 Q36.581 -89.447 46.105 -89.447 Q55.505 -89.447 62.167 -82.786 Q68.83 -76.123 68.83 -66.724 Q68.83 -57.323 62.167 -50.662 Q55.505 -43.999 46.105 -43.999 Q43.992 -43.999 42.083 -44.284 Q40.174 -44.57 38.539 -45.463 L25.242 -23.186 Q22.736 -19.266 23.838 -15.348 Q24.939 -11.429 27.738 -9.264 Q30.376 -7.098 34.198 -6.632 Q38.018 -6.168 41.702 -9.282 L108.744 -66.327 Q114.438 -71.424 120.857 -71.065 Q127.276 -70.705 131.89 -66.774 Q136.219 -62.68 137.949 -56.502 Q139.68 -50.326 135.748 -43.702 L122.724 -21.859 Q126.83 -18.521 129.223 -13.88 Q131.617 -9.238 131.617 -3.773 Q131.617 5.626 124.906 12.289 Q118.195 18.95 108.724 18.95 Q99.256 18.95 92.712 12.226 Q86.169 5.502 86.169 -3.773 Q86.169 -13.174 92.712 -19.835 Q99.256 -26.498 108.732 -26.498 Q110.55 -26.498 112.556 -26.231 Q114.562 -25.965 116.261 -25.232 L129.558 -47.311 Q131.903 -51.355 131.024 -55.13 Q130.146 -58.906 127.347 -61.233 Q124.546 -63.399 120.726 -63.845 Q116.906 -64.292 113.222 -61.215 L46.179 -4.17 Z"/></g><g id="Ultralight-L" transform="matrix(1 0 0 1 491.205 1556)"><path d="M46.44 -5.399 Q40.796 -0.561 34.669 -1.045 Q28.541 -1.529 24.51 -5.399 Q20.156 -9.107 18.786 -14.751 Q17.415 -20.395 21.124 -26.684 L34.185 -48.452 Q29.992 -51.516 27.574 -55.972 Q25.155 -60.429 25.155 -65.867 Q25.155 -74.822 31.482 -81.148 Q37.81 -87.475 46.924 -87.475 Q55.876 -87.475 62.204 -81.148 Q68.531 -74.822 68.531 -65.867 Q68.531 -56.913 62.204 -50.587 Q55.876 -44.26 46.924 -44.26 Q44.699 -44.26 42.715 -44.582 Q40.732 -44.905 39.023 -45.872 L25.8 -23.781 Q23.22 -19.75 24.378 -15.701 Q25.534 -11.654 28.409 -9.412 Q31.121 -7.172 35.072 -6.689 Q39.023 -6.205 42.892 -9.43 L108.521 -65.061 Q113.843 -69.899 119.889 -69.576 Q125.936 -69.254 130.29 -65.545 Q134.321 -61.675 136.014 -55.87 Q137.708 -50.065 133.999 -43.776 L120.938 -22.007 Q124.969 -18.782 127.307 -14.327 Q129.645 -9.87 129.645 -4.592 Q129.645 4.36 123.269 10.688 Q116.892 17.015 107.87 17.015 Q98.846 17.015 92.638 10.607 Q86.43 4.199 86.43 -4.592 Q86.43 -13.545 92.638 -19.873 Q98.846 -26.2 107.876 -26.2 Q109.768 -26.2 111.887 -25.877 Q114.004 -25.555 115.778 -24.749 L129 -46.679 Q131.419 -50.871 130.503 -54.759 Q129.589 -58.645 126.713 -61.048 Q123.84 -63.287 119.889 -63.771 Q115.939 -64.255 112.069 -61.03 L46.44 -5.399 Z"/></g><g id="Bold-M" transform="matrix(1 0 0 1 2281.8 1126)"><path d="M37.75 -4.98 Q31.375 0.645 24.125 0.083 Q16.875 -0.48 11.625 -4.855 Q6.375 -9.23 4.438 -16.355 Q2.5 -23.48 7 -30.98 L15.625 -45.23 Q12.625 -48.48 10.938 -52.73 Q9.25 -56.98 9.25 -61.73 Q9.25 -71.855 16.312 -78.917 Q23.375 -85.98 33.5 -85.98 Q43.625 -85.98 50.75 -78.917 Q57.875 -71.855 57.875 -61.73 Q57.875 -51.605 50.75 -44.48 Q43.625 -37.355 33.5 -37.355 Q32.875 -37.355 32.125 -37.417 Q31.375 -37.48 30.625 -37.605 L21.625 -22.23 Q20.75 -20.98 21.062 -19.667 Q21.375 -18.355 22.375 -17.605 Q23.25 -16.855 24.5 -16.73 Q25.75 -16.605 26.75 -17.605 L82.375 -65.48 Q88.875 -71.105 96.188 -70.605 Q103.5 -70.105 108.625 -65.605 Q113.875 -61.105 115.625 -54.042 Q117.375 -46.98 113 -39.48 L104.5 -25.105 Q107.5 -21.855 109.125 -17.667 Q110.75 -13.48 110.75 -8.73 Q110.75 1.395 103.688 8.458 Q96.625 15.52 86.5 15.52 Q76.375 15.52 69.25 8.458 Q62.125 1.395 62.125 -8.73 Q62.125 -18.855 69.25 -25.98 Q76.375 -33.105 86.5 -33.105 Q87.25 -33.105 87.938 -33.042 Q88.625 -32.98 89.375 -32.855 L98.5 -48.105 Q99.25 -49.355 98.938 -50.605 Q98.625 -51.855 97.625 -52.605 Q96.625 -53.48 95.438 -53.542 Q94.25 -53.605 93.25 -52.605 L37.75 -4.98 Z"/></g><g id="Semibold-M" transform="matrix(1 0 0 1 1985.97 1126)"><path d="M37.206 -5.577 Q30.995 -0.116 24.016 -0.679 Q17.038 -1.241 12.005 -5.452 Q6.973 -9.665 5.199 -16.517 Q3.424 -23.371 7.706 -30.545 L16.604 -45.339 Q13.495 -48.534 11.752 -52.757 Q10.011 -56.98 10.011 -61.73 Q10.011 -71.529 16.856 -78.374 Q23.701 -85.219 33.5 -85.219 Q43.299 -85.219 50.18 -78.374 Q57.06 -71.529 57.06 -61.73 Q57.06 -51.931 50.18 -45.05 Q43.299 -38.17 33.5 -38.17 Q32.712 -38.17 31.88 -38.232 Q31.049 -38.295 30.19 -38.475 L20.864 -22.665 Q19.826 -21.089 20.247 -19.505 Q20.669 -17.92 21.831 -17.007 Q22.924 -16.094 24.446 -15.942 Q25.968 -15.79 27.294 -17.007 L82.864 -64.882 Q89.146 -70.29 96.134 -69.79 Q103.12 -69.29 108.081 -65.007 Q113.114 -60.725 114.838 -53.906 Q116.56 -47.089 112.294 -39.86 L103.468 -24.996 Q106.576 -21.801 108.282 -17.64 Q109.989 -13.48 109.989 -8.73 Q109.989 1.069 103.144 7.914 Q96.299 14.759 86.5 14.759 Q76.701 14.759 69.82 7.914 Q62.94 1.069 62.94 -8.73 Q62.94 -18.529 69.82 -25.41 Q76.701 -32.29 86.5 -32.29 Q87.359 -32.29 88.127 -32.227 Q88.896 -32.165 89.755 -31.985 L99.153 -47.725 Q100.065 -49.301 99.725 -50.795 Q99.386 -52.29 98.222 -53.257 Q97.06 -54.295 95.546 -54.385 Q94.032 -54.475 92.706 -53.257 L37.206 -5.577 Z"/></g><g id="Medium-M" transform="matrix(1 0 0 1 1689.91 1126)"><path d="M36.799 -6.026 Q30.709 -0.686 23.935 -1.249 Q17.16 -1.811 12.291 -5.901 Q7.421 -9.991 5.769 -16.64 Q4.116 -23.29 8.236 -30.219 L17.337 -45.42 Q14.146 -48.575 12.364 -52.777 Q10.581 -56.98 10.581 -61.73 Q10.581 -71.284 17.264 -77.966 Q23.946 -84.649 33.5 -84.649 Q43.054 -84.649 49.751 -77.966 Q56.449 -71.284 56.449 -61.73 Q56.449 -52.176 49.751 -45.479 Q43.054 -38.781 33.5 -38.781 Q32.59 -38.781 31.698 -38.844 Q30.804 -38.906 29.864 -39.126 L20.294 -22.991 Q19.134 -21.17 19.636 -19.382 Q20.139 -17.594 21.424 -16.559 Q22.679 -15.524 24.405 -15.351 Q26.13 -15.179 27.701 -16.559 L83.231 -64.434 Q89.35 -69.679 96.093 -69.179 Q102.834 -68.679 107.674 -64.559 Q112.544 -60.439 114.246 -53.805 Q115.949 -47.17 111.764 -40.146 L102.692 -24.915 Q105.884 -21.76 107.651 -17.62 Q109.419 -13.48 109.419 -8.73 Q109.419 0.824 102.736 7.506 Q96.054 14.189 86.5 14.189 Q76.946 14.189 70.249 7.506 Q63.551 0.824 63.551 -8.73 Q63.551 -18.284 70.249 -24.981 Q76.946 -31.679 86.5 -31.679 Q87.44 -31.679 88.27 -31.616 Q89.1 -31.554 90.041 -31.334 L99.641 -47.439 Q100.676 -49.26 100.316 -50.937 Q99.956 -52.616 98.671 -53.746 Q97.386 -54.906 95.627 -55.016 Q93.87 -55.126 92.299 -53.746 L36.799 -6.026 Z"/></g><g id="Regular-M" transform="matrix(1 0 0 1 1394.06 1126)"><path d="M36.5 -6.355 Q30.5 -1.105 23.875 -1.667 Q17.25 -2.23 12.5 -6.23 Q7.75 -10.23 6.188 -16.73 Q4.625 -23.23 8.625 -29.98 L17.875 -45.48 Q14.625 -48.605 12.812 -52.792 Q11 -56.98 11 -61.73 Q11 -71.105 17.562 -77.667 Q24.125 -84.23 33.5 -84.23 Q42.875 -84.23 49.438 -77.667 Q56 -71.105 56 -61.73 Q56 -52.355 49.438 -45.792 Q42.875 -39.23 33.5 -39.23 Q32.5 -39.23 31.562 -39.292 Q30.625 -39.355 29.625 -39.605 L19.875 -23.23 Q18.625 -21.23 19.188 -19.292 Q19.75 -17.355 21.125 -16.23 Q22.5 -15.105 24.375 -14.917 Q26.25 -14.73 28 -16.23 L83.5 -64.105 Q89.5 -69.23 96.062 -68.73 Q102.625 -68.23 107.375 -64.23 Q112.125 -60.23 113.812 -53.73 Q115.5 -47.23 111.375 -40.355 L102.125 -24.855 Q105.375 -21.73 107.188 -17.605 Q109 -13.48 109 -8.73 Q109 0.645 102.438 7.208 Q95.875 13.77 86.5 13.77 Q77.125 13.77 70.562 7.208 Q64 0.645 64 -8.73 Q64 -18.105 70.562 -24.667 Q77.125 -31.23 86.5 -31.23 Q87.5 -31.23 88.375 -31.167 Q89.25 -31.105 90.25 -30.855 L100 -47.23 Q101.125 -49.23 100.75 -51.042 Q100.375 -52.855 99 -54.105 Q97.625 -55.355 95.688 -55.48 Q93.75 -55.605 92 -54.105 L36.5 -6.355 Z"/></g><g id="Light-M" transform="matrix(1 0 0 1 1098.18 1126)"><path d="M36.404 -7.99 Q30.885 -3.125 24.765 -3.687 Q18.644 -4.25 14.328 -7.912 Q10.01 -11.576 8.64 -17.524 Q7.27 -23.47 10.885 -29.595 L20.328 -45.432 Q17.125 -48.316 15.312 -52.311 Q13.5 -56.306 13.5 -60.865 Q13.5 -69.615 19.558 -75.672 Q25.615 -81.73 34.365 -81.73 Q43.115 -81.73 49.172 -75.672 Q55.231 -69.615 55.231 -60.865 Q55.231 -52.115 49.172 -46.057 Q43.115 -39.999 34.365 -39.999 Q33.174 -39.999 32.091 -40.11 Q31.01 -40.22 29.865 -40.615 L19.971 -24.144 Q18.529 -21.807 19.188 -19.557 Q19.846 -17.307 21.461 -15.99 Q23.078 -14.672 25.289 -14.461 Q27.5 -14.249 29.539 -15.99 L83.644 -62.422 Q89.115 -67.162 95.101 -66.71 Q101.086 -66.259 105.451 -62.595 Q109.817 -58.931 111.385 -52.985 Q112.951 -47.037 109.164 -40.74 L99.672 -24.855 Q102.875 -21.97 104.688 -18.061 Q106.5 -14.154 106.5 -9.595 Q106.5 -0.845 100.418 5.213 Q94.336 11.27 85.586 11.27 Q76.885 11.27 70.828 5.188 Q64.769 -0.894 64.769 -9.595 Q64.769 -18.297 70.828 -24.379 Q76.885 -30.461 85.586 -30.461 Q86.779 -30.461 87.846 -30.326 Q88.914 -30.191 90.058 -29.797 L99.904 -46.316 Q101.221 -48.652 100.774 -50.777 Q100.328 -52.902 98.711 -54.345 Q97.096 -55.787 94.823 -55.961 Q92.547 -56.134 90.51 -54.345 L36.404 -7.99 Z"/></g><g id="Thin-M" transform="matrix(1 0 0 1 802.565 1126)"><path d="M36.307 -9.624 Q31.269 -5.144 25.654 -5.706 Q20.039 -6.269 16.154 -9.595 Q12.269 -12.922 11.091 -18.316 Q9.914 -23.711 13.144 -29.211 L22.779 -45.384 Q19.625 -48.027 17.812 -51.831 Q16 -55.634 16 -59.999 Q16 -68.124 21.552 -73.677 Q27.106 -79.23 35.231 -79.23 Q43.356 -79.23 48.909 -73.677 Q54.461 -68.124 54.461 -59.999 Q54.461 -51.874 48.909 -46.321 Q43.356 -40.769 35.231 -40.769 Q33.846 -40.769 32.62 -40.927 Q31.394 -41.086 30.106 -41.624 L20.067 -25.057 Q18.433 -22.384 19.188 -19.821 Q19.942 -17.259 21.797 -15.749 Q23.654 -14.24 26.203 -14.004 Q28.75 -13.769 31.078 -15.749 L83.789 -60.74 Q88.731 -65.095 94.14 -64.691 Q99.547 -64.287 103.529 -60.961 Q107.51 -57.634 108.956 -52.24 Q110.404 -46.845 106.953 -41.124 L97.221 -24.855 Q100.375 -22.211 102.188 -18.519 Q104 -14.826 104 -10.461 Q104 -2.336 98.399 3.218 Q92.797 8.77 84.672 8.77 Q76.644 8.77 71.091 3.169 Q65.539 -2.432 65.539 -10.461 Q65.539 -18.49 71.091 -24.09 Q76.644 -29.691 84.672 -29.691 Q86.058 -29.691 87.317 -29.485 Q88.578 -29.277 89.865 -28.74 L99.808 -45.402 Q101.317 -48.076 100.797 -50.514 Q100.279 -52.951 98.422 -54.586 Q96.567 -56.22 93.956 -56.441 Q91.346 -56.662 89.019 -54.586 L36.307 -9.624 Z"/></g><g id="Ultralight-M" transform="matrix(1 0 0 1 506.415 1126)"><path d="M36.25 -10.605 Q31.5 -6.355 26.188 -6.917 Q20.875 -7.48 17.25 -10.605 Q13.625 -13.73 12.562 -18.792 Q11.5 -23.855 14.5 -28.98 L24.25 -45.355 Q21.125 -47.855 19.312 -51.542 Q17.5 -55.23 17.5 -59.48 Q17.5 -67.23 22.75 -72.48 Q28 -77.73 35.75 -77.73 Q43.5 -77.73 48.75 -72.48 Q54 -67.23 54 -59.48 Q54 -51.73 48.75 -46.48 Q43.5 -41.23 35.75 -41.23 Q34.25 -41.23 32.938 -41.417 Q31.625 -41.605 30.25 -42.23 L20.125 -25.605 Q18.375 -22.73 19.188 -19.98 Q20 -17.23 22 -15.605 Q24 -13.98 26.75 -13.73 Q29.5 -13.48 32 -15.605 L83.875 -59.73 Q88.5 -63.855 93.562 -63.48 Q98.625 -63.105 102.375 -59.98 Q106.125 -56.855 107.5 -51.792 Q108.875 -46.73 105.625 -41.355 L95.75 -24.855 Q98.875 -22.355 100.688 -18.792 Q102.5 -15.23 102.5 -10.98 Q102.5 -3.23 97.188 2.02 Q91.875 7.27 84.125 7.27 Q76.5 7.27 71.25 1.958 Q66 -3.355 66 -10.98 Q66 -18.605 71.25 -23.917 Q76.5 -29.23 84.125 -29.23 Q85.625 -29.23 87 -28.98 Q88.375 -28.73 89.75 -28.105 L99.75 -44.855 Q101.375 -47.73 100.812 -50.355 Q100.25 -52.98 98.25 -54.73 Q96.25 -56.48 93.438 -56.73 Q90.625 -56.98 88.125 -54.73 L36.25 -10.605 Z"/></g><g id="Bold-S" transform="matrix(1 0 0 1 2294.23 696)"><path d="M35.801 -13.434 Q30.377 -7.418 23.571 -7.615 Q16.766 -7.812 11.835 -11.659 Q6.904 -15.505 5.128 -21.916 Q3.353 -28.326 7.594 -35.23 L13.314 -44.402 Q11.539 -46.769 10.602 -49.531 Q9.665 -52.292 9.665 -55.349 Q9.665 -62.746 14.744 -67.826 Q19.824 -72.905 27.221 -72.905 Q34.617 -72.905 39.746 -67.826 Q44.874 -62.746 44.874 -55.349 Q44.874 -47.953 39.746 -42.824 Q34.617 -37.696 27.221 -37.696 Q26.53 -37.696 25.79 -37.844 Q25.051 -37.991 24.163 -38.189 L18.344 -28.721 Q16.865 -26.551 17.555 -24.529 Q18.246 -22.507 19.922 -21.324 Q21.5 -20.14 23.522 -20.19 Q25.544 -20.239 27.023 -22.211 L58.978 -56.927 Q64.501 -62.944 71.257 -62.894 Q78.012 -62.845 82.845 -58.9 Q87.776 -54.955 89.502 -48.594 Q91.228 -42.232 87.086 -35.23 L81.464 -25.959 Q83.24 -23.592 84.127 -20.88 Q85.015 -18.168 85.015 -15.11 Q85.015 -7.714 79.936 -2.634 Q74.856 2.445 67.46 2.445 Q60.063 2.445 54.934 -2.634 Q49.806 -7.714 49.806 -15.11 Q49.806 -22.507 54.934 -27.636 Q60.063 -32.764 67.46 -32.764 Q68.249 -32.764 68.988 -32.616 Q69.728 -32.468 70.615 -32.271 L76.434 -41.641 Q77.815 -43.81 77.125 -45.832 Q76.434 -47.854 74.758 -49.037 Q73.081 -50.32 71.059 -50.172 Q69.038 -50.024 67.657 -48.051 L35.801 -13.434 Z"/></g><g id="Semibold-S" transform="matrix(1 0 0 1 1998.1 696)"><path d="M35.372 -13.905 Q30.077 -8.018 23.486 -8.216 Q16.894 -8.413 12.135 -12.13 Q7.375 -15.848 5.729 -22.044 Q4.082 -28.24 8.151 -34.887 L14.087 -44.488 Q12.226 -46.812 11.245 -49.552 Q10.266 -52.292 10.266 -55.349 Q10.266 -62.489 15.173 -67.397 Q20.081 -72.304 27.221 -72.304 Q34.36 -72.304 39.296 -67.397 Q44.231 -62.489 44.231 -55.349 Q44.231 -48.21 39.296 -43.274 Q34.36 -38.339 27.221 -38.339 Q26.402 -38.339 25.597 -38.487 Q24.793 -38.635 23.82 -38.875 L17.744 -29.064 Q16.136 -26.637 16.912 -24.401 Q17.688 -22.164 19.493 -20.852 Q21.243 -19.54 23.48 -19.568 Q25.715 -19.596 27.452 -21.74 L59.363 -56.456 Q64.715 -62.301 71.214 -62.251 Q77.713 -62.202 82.416 -58.429 Q87.176 -54.655 88.881 -48.486 Q90.585 -42.318 86.529 -35.53 L80.65 -25.873 Q82.511 -23.55 83.462 -20.858 Q84.414 -18.168 84.414 -15.11 Q84.414 -7.971 79.507 -3.063 Q74.599 1.844 67.46 1.844 Q60.32 1.844 55.384 -3.063 Q50.449 -7.971 50.449 -15.11 Q50.449 -22.25 55.384 -27.186 Q60.32 -32.121 67.46 -32.121 Q68.334 -32.121 69.138 -31.973 Q69.942 -31.825 70.915 -31.585 L76.949 -41.341 Q78.458 -43.768 77.746 -45.982 Q77.035 -48.197 75.229 -49.552 Q73.424 -50.963 71.145 -50.836 Q68.866 -50.71 67.228 -48.566 L35.372 -13.905 Z"/></g><g id="Medium-S" transform="matrix(1 0 0 1 1701.85 696)"><path d="M35.05 -14.259 Q29.851 -8.468 23.421 -8.665 Q16.991 -8.863 12.361 -12.484 Q7.729 -16.106 6.179 -22.14 Q4.628 -28.176 8.57 -34.629 L14.666 -44.552 Q12.739 -46.844 11.727 -49.568 Q10.716 -52.292 10.716 -55.349 Q10.716 -62.296 15.495 -67.075 Q20.274 -71.854 27.221 -71.854 Q34.167 -71.854 38.958 -67.075 Q43.749 -62.296 43.749 -55.349 Q43.749 -48.403 38.958 -43.612 Q34.167 -38.821 27.221 -38.821 Q26.305 -38.821 25.453 -38.969 Q24.6 -39.117 23.562 -39.389 L17.294 -29.321 Q15.59 -26.701 16.43 -24.304 Q17.27 -21.907 19.172 -20.498 Q21.05 -19.09 23.447 -19.102 Q25.844 -19.114 27.774 -21.386 L59.653 -56.102 Q64.876 -61.818 71.182 -61.769 Q77.487 -61.72 82.094 -58.075 Q86.726 -54.429 88.414 -48.406 Q90.103 -42.382 86.11 -35.756 L80.038 -25.809 Q81.964 -23.517 82.964 -20.843 Q83.964 -18.168 83.964 -15.11 Q83.964 -8.164 79.185 -3.385 Q74.406 1.394 67.46 1.394 Q60.513 1.394 55.722 -3.385 Q50.931 -8.164 50.931 -15.11 Q50.931 -22.057 55.722 -26.848 Q60.513 -31.639 67.46 -31.639 Q68.398 -31.639 69.251 -31.491 Q70.103 -31.343 71.141 -31.071 L77.335 -41.115 Q78.94 -43.735 78.213 -46.095 Q77.485 -48.455 75.583 -49.938 Q73.682 -51.445 71.209 -51.334 Q68.738 -51.224 66.906 -48.952 L35.05 -14.259 Z"/></g><g id="Regular-S" transform="matrix(1 0 0 1 1405.73 696)"><path d="M34.815 -14.519 Q29.686 -8.798 23.374 -8.996 Q17.062 -9.193 12.525 -12.743 Q7.989 -16.294 6.509 -22.211 Q5.03 -28.129 8.876 -34.441 L15.09 -44.599 Q13.117 -46.868 12.082 -49.58 Q11.046 -52.292 11.046 -55.349 Q11.046 -62.155 15.731 -66.839 Q20.415 -71.524 27.221 -71.524 Q34.026 -71.524 38.71 -66.839 Q43.395 -62.155 43.395 -55.349 Q43.395 -48.544 38.71 -43.86 Q34.026 -39.175 27.221 -39.175 Q26.234 -39.175 25.347 -39.323 Q24.459 -39.471 23.374 -39.767 L16.963 -29.51 Q15.188 -26.748 16.076 -24.233 Q16.963 -21.718 18.936 -20.239 Q20.909 -18.76 23.423 -18.76 Q25.938 -18.76 28.01 -21.127 L59.865 -55.843 Q64.994 -61.464 71.158 -61.415 Q77.322 -61.366 81.859 -57.815 Q86.395 -54.265 88.072 -48.347 Q89.749 -42.43 85.804 -35.92 L79.59 -25.762 Q81.563 -23.494 82.598 -20.831 Q83.634 -18.168 83.634 -15.11 Q83.634 -8.305 78.949 -3.621 Q74.265 1.064 67.46 1.064 Q60.654 1.064 55.97 -3.621 Q51.285 -8.305 51.285 -15.11 Q51.285 -21.916 55.97 -26.6 Q60.654 -31.285 67.46 -31.285 Q68.446 -31.285 69.333 -31.137 Q70.221 -30.989 71.306 -30.693 L77.618 -40.95 Q79.294 -43.712 78.555 -46.177 Q77.815 -48.643 75.843 -50.221 Q73.87 -51.799 71.257 -51.7 Q68.643 -51.602 66.671 -49.235 L34.815 -14.519 Z"/></g><g id="Light-S" transform="matrix(1 0 0 1 1109.75 696)"><path d="M34.739 -15.809 Q29.99 -10.392 24.076 -10.59 Q18.162 -10.787 13.967 -14.071 Q9.772 -17.356 8.444 -22.838 Q7.117 -28.318 10.659 -34.137 L17.025 -44.562 Q15.09 -46.64 14.054 -49.2 Q13.019 -51.761 13.019 -54.667 Q13.019 -60.979 17.305 -65.265 Q21.591 -69.551 27.903 -69.551 Q34.215 -69.551 38.501 -65.265 Q42.788 -60.979 42.788 -54.667 Q42.788 -48.355 38.501 -44.069 Q34.215 -39.782 27.903 -39.782 Q26.766 -39.782 25.764 -39.968 Q24.763 -40.153 23.563 -40.564 L17.039 -30.231 Q15.112 -27.204 16.076 -24.442 Q17.039 -21.681 19.201 -20.05 Q21.364 -18.418 24.144 -18.4 Q26.925 -18.38 29.224 -20.937 L59.979 -54.515 Q64.69 -59.833 70.4 -59.821 Q76.108 -59.81 80.341 -56.525 Q84.575 -53.24 86.157 -47.759 Q87.738 -42.278 84.059 -36.224 L77.655 -25.762 Q79.59 -23.683 80.626 -21.191 Q81.662 -18.699 81.662 -15.793 Q81.662 -9.481 77.356 -5.195 Q73.051 -0.908 66.739 -0.908 Q60.465 -0.908 56.179 -5.214 Q51.892 -9.519 51.892 -15.793 Q51.892 -22.068 56.179 -26.372 Q60.465 -30.678 66.739 -30.678 Q67.877 -30.678 68.916 -30.473 Q69.956 -30.268 71.154 -29.859 L77.542 -40.229 Q79.37 -43.256 78.574 -45.968 Q77.778 -48.68 75.615 -50.41 Q73.453 -52.14 70.574 -52.08 Q67.694 -52.019 65.495 -49.424 L34.739 -15.809 Z"/></g><g id="Thin-S" transform="matrix(1 0 0 1 814.015 696)"><path d="M34.663 -17.098 Q30.293 -11.985 24.778 -12.182 Q19.262 -12.38 15.408 -15.398 Q11.554 -18.418 10.378 -23.463 Q9.203 -28.509 12.442 -33.834 L18.959 -44.523 Q17.062 -46.412 16.027 -48.822 Q14.991 -51.23 14.991 -53.984 Q14.991 -59.802 18.879 -63.691 Q22.768 -67.579 28.586 -67.579 Q34.405 -67.579 38.293 -63.691 Q42.181 -59.802 42.181 -53.984 Q42.181 -48.165 38.293 -44.277 Q34.405 -40.389 28.586 -40.389 Q27.296 -40.389 26.181 -40.613 Q25.066 -40.837 23.754 -41.36 L17.115 -30.952 Q15.036 -27.659 16.076 -24.65 Q17.115 -21.642 19.467 -19.859 Q21.819 -18.077 24.865 -18.039 Q27.911 -18.001 30.438 -20.747 L60.093 -53.188 Q64.387 -58.202 69.641 -58.228 Q74.894 -58.255 78.824 -55.236 Q82.754 -52.216 84.241 -47.172 Q85.728 -42.126 82.314 -36.527 L75.721 -25.762 Q77.618 -23.873 78.653 -21.552 Q79.689 -19.23 79.689 -16.476 Q79.689 -10.658 75.763 -6.769 Q71.836 -2.881 66.018 -2.881 Q60.275 -2.881 56.387 -6.807 Q52.499 -10.734 52.499 -16.476 Q52.499 -22.219 56.387 -26.145 Q60.275 -30.071 66.018 -30.071 Q67.308 -30.071 68.499 -29.81 Q69.69 -29.547 71.002 -29.025 L77.466 -39.508 Q79.446 -42.801 78.592 -45.76 Q77.739 -48.719 75.387 -50.601 Q73.036 -52.481 69.891 -52.459 Q66.746 -52.436 64.318 -49.614 L34.663 -17.098 Z"/></g><g id="Ultralight-S" transform="matrix(1 0 0 1 517.792 696)"><path d="M34.617 -17.872 Q30.475 -12.941 25.199 -13.138 Q19.922 -13.335 16.273 -16.195 Q12.624 -19.055 11.539 -23.839 Q10.454 -28.622 13.512 -33.652 L20.12 -44.501 Q18.246 -46.276 17.21 -48.594 Q16.175 -50.911 16.175 -53.574 Q16.175 -59.097 19.824 -62.746 Q23.473 -66.395 28.996 -66.395 Q34.519 -66.395 38.168 -62.746 Q41.817 -59.097 41.817 -53.574 Q41.817 -48.051 38.168 -44.402 Q34.519 -40.753 28.996 -40.753 Q27.615 -40.753 26.431 -41 Q25.248 -41.246 23.867 -41.838 L17.161 -31.384 Q14.991 -27.932 16.076 -24.776 Q17.161 -21.62 19.626 -19.746 Q22.092 -17.872 25.297 -17.823 Q28.503 -17.773 31.166 -20.633 L60.161 -52.391 Q64.205 -57.223 69.185 -57.273 Q74.166 -57.322 77.914 -54.462 Q81.662 -51.602 83.092 -46.818 Q84.522 -42.035 81.267 -36.709 L74.561 -25.762 Q76.434 -23.987 77.47 -21.768 Q78.505 -19.549 78.505 -16.886 Q78.505 -11.363 74.807 -7.714 Q71.109 -4.064 65.586 -4.064 Q60.161 -4.064 56.512 -7.763 Q52.863 -11.461 52.863 -16.886 Q52.863 -22.31 56.512 -26.009 Q60.161 -29.707 65.586 -29.707 Q66.966 -29.707 68.249 -29.411 Q69.531 -29.115 70.911 -28.523 L77.421 -39.076 Q79.492 -42.528 78.604 -45.635 Q77.716 -48.742 75.251 -50.714 Q72.785 -52.687 69.481 -52.687 Q66.177 -52.687 63.613 -49.728 L34.617 -17.872 Z"/></g></g></svg>