<svg xmlns="http://www.w3.org/2000/svg" version="1.1" width="3300" height="2000"><g id="Notes"><style>
    text {
      font-family: monospace;
      text-anchor: middle;
    }
    text.emphasis {
      font-weight:bold;
    }
    text.lanchor {
      text-anchor: start;
    }
  </style><rect height="2200" id="artboard" fill="white" width="3300" x="0" y="0"/><line id="" style="fill:none;stroke:black;stroke-width:0.5;" x1="263" x2="3036" y1="292" y2="292"/><text class="lanchor emphasis" transform="matrix(1 0 0 1 263 322)">Weight/Scale Variations</text><text transform="matrix(1 0 0 1 559.711 322)">Ultralight</text><text transform="matrix(1 0 0 1 856.422 322)">Thin</text><text transform="matrix(1 0 0 1 1153.13 322)">Light</text><text transform="matrix(1 0 0 1 1449.84 322)">Regular</text><text transform="matrix(1 0 0 1 1746.56 322)">Medium</text><text transform="matrix(1 0 0 1 2043.27 322)">Semibold</text><text transform="matrix(1 0 0 1 2339.98 322)">Bold</text><text transform="matrix(1 0 0 1 2636.69 322)">Heavy</text><text transform="matrix(1 0 0 1 2933.4 322)">Black</text><text id="template-version" style="text-anchor: end;" transform="matrix(1 0 0 1 3036 1933)">Template v.1.0</text><text class="lanchor" transform="matrix(1 0 0 1 263 726)">Small</text><text class="lanchor" transform="matrix(1 0 0 1 263 1156)">Medium</text><text class="lanchor" transform="matrix(1 0 0 1 263 1586)">Large</text></g><g id="Guides"><g id="H-reference" style="fill:#27AAE1;stroke:none;" transform="matrix(1 0 0 1 339 696)"><path d="M 54.9316 0 L 57.666 0 L 30.5664 -70.459 L 28.0762 -70.459 L 0.976562 0 L 3.66211 0 L 12.9395 -24.4629 L 45.7031 -24.4629 Z M 29.1992 -67.0898 L 29.4434 -67.0898 L 44.8242 -26.709 L 13.8184 -26.709 Z"/></g><line id="Baseline-S" style="fill:none;stroke:#27AAE1;opacity:1;stroke-width:0.577;" x1="263" x2="3036" y1="696" y2="696"/><line id="Capline-S" style="fill:none;stroke:#27AAE1;opacity:1;stroke-width:0.577;" x1="263" x2="3036" y1="625.541" y2="625.541"/><g id="H-reference" style="fill:#27AAE1;stroke:none;" transform="matrix(1 0 0 1 339 1126)"><path d="M 54.9316 0 L 57.666 0 L 30.5664 -70.459 L 28.0762 -70.459 L 0.976562 0 L 3.66211 0 L 12.9395 -24.4629 L 45.7031 -24.4629 Z M 29.1992 -67.0898 L 29.4434 -67.0898 L 44.8242 -26.709 L 13.8184 -26.709 Z"/></g><line id="Baseline-M" style="fill:none;stroke:#27AAE1;opacity:1;stroke-width:0.577;" x1="263" x2="3036" y1="1126" y2="1126"/><line id="Capline-M" style="fill:none;stroke:#27AAE1;opacity:1;stroke-width:0.577;" x1="263" x2="3036" y1="1055.54" y2="1055.54"/><g id="H-reference" style="fill:#27AAE1;stroke:none;" transform="matrix(1 0 0 1 339 1556)"><path d="M 54.9316 0 L 57.666 0 L 30.5664 -70.459 L 28.0762 -70.459 L 0.976562 0 L 3.66211 0 L 12.9395 -24.4629 L 45.7031 -24.4629 Z M 29.1992 -67.0898 L 29.4434 -67.0898 L 44.8242 -26.709 L 13.8184 -26.709 Z"/></g><line id="Baseline-L" style="fill:none;stroke:#27AAE1;opacity:1;stroke-width:0.577;" x1="263" x2="3036" y1="1556" y2="1556"/><line id="Capline-L" style="fill:none;stroke:#27AAE1;opacity:1;stroke-width:0.577;" x1="263" x2="3036" y1="1485.54" y2="1485.54"/><rect height="119.336" id="left-margin" style="fill:darkred;stroke:none;opacity:0.4;" width="12.4512" x="1394.06" y="1030.79"/><rect height="119.336" id="right-margin" style="fill:darkgreen;stroke:none;opacity:0.4;" width="12.4512" x="1502.5112" y="1030.79"/><rect x="1406.5112" y="1045" width="96" height="96" fill="none" stroke="blue" stroke-dasharray="5"/><rect x="1394.06" y="1030.79" width="120.9024" height="119.336" fill="none" stroke="blue"/></g><g id="Symbols"><g id="Bold-L" transform="matrix(1 0 0 1 2266 1556)"><path d="M46.601 0.729 Q39.345 6.856 31.283 6.373 Q23.22 5.889 17.576 0.729 Q11.771 -4.27 9.594 -11.849 Q7.418 -19.427 12.578 -28.135 L25.155 -48.936 Q20.801 -52.819 18.463 -58.153 Q16.125 -63.486 16.125 -69.207 Q16.125 -80.683 24.217 -88.836 Q32.308 -96.989 43.699 -96.989 Q54.909 -96.989 63.171 -88.807 Q71.434 -80.627 71.434 -69.334 Q71.434 -58.042 63.171 -49.781 Q54.909 -41.519 43.699 -41.519 Q42.264 -41.519 40.669 -41.68 Q39.072 -41.841 38.055 -42.486 L25.316 -20.556 Q23.381 -17.434 24.047 -14.53 Q24.715 -11.626 26.78 -10.117 Q28.846 -8.608 31.668 -8.213 Q34.49 -7.817 37.087 -10.236 L108.36 -71.35 Q115.616 -77.477 123.853 -77.123 Q132.09 -76.768 137.799 -71.672 Q143.372 -66.351 145.298 -58.577 Q147.221 -50.804 142.384 -42.647 L130.29 -21.685 Q134.483 -17.976 136.821 -12.671 Q139.159 -7.366 139.159 -1.443 Q139.159 9.978 130.929 18.092 Q122.697 26.206 111.337 26.206 Q99.975 26.206 91.832 18.115 Q83.689 10.023 83.689 -1.367 Q83.689 -12.578 91.832 -20.84 Q99.975 -29.102 111.34 -29.102 Q112.385 -29.102 114.013 -29.022 Q115.642 -28.941 116.906 -28.619 L129.806 -50.065 Q131.58 -52.967 130.825 -55.968 Q130.072 -58.968 127.842 -60.403 Q125.614 -61.836 122.953 -62.239 Q120.293 -62.642 117.874 -60.385 L46.601 0.729 Z M61.188 -38.616 Q66.401 -38.616 70.37 -42.443 Q74.336 -46.269 74.336 -51.515 Q74.336 -56.762 70.395 -60.588 Q66.456 -64.416 61.162 -64.416 Q55.868 -64.416 52.122 -60.595 Q48.375 -56.775 48.375 -51.437 Q48.375 -46.271 52.09 -42.444 Q55.805 -38.616 61.188 -38.616 Z M93.846 -6.205 Q99.093 -6.205 102.919 -10.027 Q106.748 -13.847 106.748 -19.184 Q106.748 -24.35 102.926 -28.258 Q99.106 -32.166 93.768 -32.166 Q88.602 -32.166 84.776 -28.259 Q80.948 -24.352 80.948 -19.107 Q80.948 -13.86 84.774 -10.033 Q88.6 -6.205 93.846 -6.205 Z"/></g><g id="Semibold-L" transform="matrix(1 0 0 1 1970.27 1556)"><path d="M46.04 0.379 Q38.924 6.435 31.037 5.916 Q23.151 5.399 17.646 0.379 Q11.981 -4.48 9.98 -11.918 Q7.979 -19.358 12.927 -27.714 L25.785 -49.077 Q21.362 -52.89 18.919 -58.207 Q16.475 -63.525 16.475 -69.368 Q16.475 -80.588 24.431 -88.578 Q32.387 -96.568 43.558 -96.568 Q54.63 -96.568 62.681 -88.562 Q70.732 -80.556 70.732 -69.439 Q70.732 -58.323 62.681 -50.271 Q54.63 -42.22 43.558 -42.22 Q42.014 -42.22 40.379 -42.381 Q38.742 -42.543 37.558 -43.188 L24.475 -20.837 Q22.399 -17.505 23.175 -14.361 Q23.949 -11.218 26.19 -9.53 Q28.433 -7.843 31.495 -7.445 Q34.559 -7.047 37.368 -9.606 L108.85 -71 Q115.966 -77.057 123.958 -76.633 Q131.949 -76.207 137.553 -71.323 Q143.022 -66.211 144.911 -58.592 Q146.8 -50.973 142.034 -42.997 L129.589 -21.545 Q133.852 -17.836 136.295 -12.553 Q138.738 -7.271 138.738 -1.271 Q138.738 9.92 130.682 17.887 Q122.627 25.856 111.441 25.856 Q100.256 25.856 92.322 17.9 Q84.39 9.944 84.39 -1.227 Q84.39 -12.299 92.322 -20.35 Q100.256 -28.401 111.446 -28.401 Q112.693 -28.401 114.338 -28.32 Q115.981 -28.24 117.327 -27.848 L130.508 -49.784 Q132.422 -52.967 131.667 -56.143 Q130.912 -59.318 128.544 -60.998 Q126.175 -62.678 123.198 -63.046 Q120.223 -63.413 117.524 -61.015 L46.04 0.379 Z M83.097 -15.903 Q88.694 -15.903 92.836 -19.939 Q96.981 -23.976 96.981 -29.572 Q96.981 -35.169 92.864 -39.206 Q88.749 -43.244 83.105 -43.244 Q77.461 -43.244 73.504 -39.211 Q69.547 -35.177 69.547 -29.53 Q69.547 -23.978 73.474 -19.94 Q77.402 -15.903 83.097 -15.903 Z M71.903 -27.377 Q77.5 -27.377 81.538 -31.41 Q85.575 -35.444 85.575 -41.091 Q85.575 -46.643 81.543 -50.726 Q77.508 -54.811 71.861 -54.811 Q66.309 -54.811 62.272 -50.728 Q58.234 -46.645 58.234 -41.05 Q58.234 -35.453 62.27 -31.415 Q66.308 -27.377 71.903 -27.377 Z"/></g><g id="Medium-L" transform="matrix(1 0 0 1 1674.31 1556)"><path d="M45.619 0.116 Q38.608 6.119 30.854 5.574 Q23.097 5.029 17.699 0.116 Q12.139 -4.638 10.268 -11.971 Q8.4 -19.305 13.19 -27.398 L26.26 -49.181 Q21.783 -52.942 19.261 -58.247 Q16.738 -63.552 16.738 -69.488 Q16.738 -80.517 24.592 -88.384 Q32.445 -96.252 43.454 -96.252 Q54.419 -96.252 62.313 -88.378 Q70.207 -80.503 70.207 -69.518 Q70.207 -58.534 62.313 -50.639 Q54.419 -42.746 43.454 -42.746 Q41.827 -42.746 40.161 -42.907 Q38.495 -43.068 37.184 -43.713 L23.844 -21.046 Q21.664 -17.557 22.52 -14.234 Q23.375 -10.91 25.75 -9.091 Q28.124 -7.271 31.368 -6.869 Q34.612 -6.468 37.578 -9.132 L109.219 -70.737 Q116.229 -76.741 124.037 -76.263 Q131.844 -75.786 137.369 -71.06 Q142.759 -66.106 144.622 -58.603 Q146.484 -51.1 141.771 -43.26 L129.063 -21.44 Q133.378 -17.731 135.9 -12.465 Q138.422 -7.198 138.422 -1.14 Q138.422 9.876 130.498 17.734 Q122.574 25.594 111.521 25.594 Q100.465 25.594 92.691 17.739 Q84.916 9.886 84.916 -1.122 Q84.916 -12.087 92.691 -19.982 Q100.465 -27.875 111.527 -27.875 Q112.923 -27.875 114.579 -27.795 Q116.235 -27.714 117.643 -27.269 L131.033 -49.575 Q133.052 -52.967 132.298 -56.275 Q131.545 -59.58 129.069 -61.444 Q126.596 -63.308 123.382 -63.65 Q120.17 -63.992 117.261 -61.49 L45.619 0.116 Z M99.528 1.135 Q105.417 1.135 109.69 -3.059 Q113.965 -7.253 113.965 -13.113 Q113.965 -18.973 109.718 -23.168 Q105.47 -27.364 99.564 -27.364 Q93.657 -27.364 89.542 -23.172 Q85.427 -18.978 85.427 -13.097 Q85.427 -7.256 89.515 -3.061 Q93.601 1.135 99.528 1.135 Z M55.444 -43.257 Q61.304 -43.257 65.5 -47.45 Q69.695 -51.644 69.695 -57.524 Q69.695 -63.365 65.503 -67.58 Q61.309 -71.795 55.428 -71.795 Q49.588 -71.795 45.392 -67.582 Q41.196 -63.368 41.196 -57.508 Q41.196 -51.648 45.39 -47.453 Q49.584 -43.257 55.444 -43.257 Z"/></g><g id="Regular-L" transform="matrix(1 0 0 1 1378.56 1556)"><path d="M45.311 -0.077 Q38.377 5.889 30.718 5.324 Q23.059 4.76 17.738 -0.077 Q12.255 -4.754 10.481 -12.01 Q8.707 -19.266 13.384 -27.167 L26.606 -49.259 Q22.091 -52.98 19.511 -58.276 Q16.931 -63.573 16.931 -69.576 Q16.931 -80.465 24.71 -88.243 Q32.489 -96.021 43.376 -96.021 Q54.264 -96.021 62.043 -88.243 Q69.821 -80.465 69.821 -69.576 Q69.821 -58.687 62.043 -50.91 Q54.264 -43.131 43.376 -43.131 Q41.688 -43.131 40.001 -43.292 Q38.313 -43.454 36.912 -44.099 L23.381 -21.201 Q21.124 -17.596 22.04 -14.142 Q22.954 -10.686 25.426 -8.767 Q27.896 -6.85 31.273 -6.447 Q34.651 -6.044 37.733 -8.785 L109.489 -70.544 Q116.422 -76.51 124.095 -75.994 Q131.767 -75.478 137.235 -70.866 Q142.566 -66.029 144.411 -58.611 Q146.254 -51.194 141.578 -43.454 L128.678 -21.362 Q133.031 -17.654 135.611 -12.4 Q138.191 -7.147 138.191 -1.045 Q138.191 9.843 130.364 17.621 Q122.535 25.4 111.579 25.4 Q100.62 25.4 92.961 17.621 Q85.301 9.843 85.301 -1.045 Q85.301 -11.933 92.961 -19.711 Q100.62 -27.49 111.585 -27.49 Q113.093 -27.49 114.757 -27.409 Q116.422 -27.329 117.874 -26.845 L131.419 -49.42 Q133.515 -52.967 132.76 -56.371 Q132.007 -59.774 129.455 -61.773 Q126.904 -63.771 123.517 -64.094 Q120.131 -64.416 117.068 -61.836 L45.311 -0.077 Z M111.579 13.629 Q117.679 13.629 122.05 9.319 Q126.42 5.008 126.42 -1.043 Q126.42 -7.095 122.076 -11.407 Q117.733 -15.719 111.633 -15.719 Q105.533 -15.719 101.304 -11.409 Q97.073 -7.098 97.073 -1.047 Q97.073 5.005 101.276 9.317 Q105.48 13.629 111.579 13.629 Z M43.375 -54.902 Q49.426 -54.902 53.738 -59.213 Q58.05 -63.523 58.05 -69.575 Q58.05 -75.628 53.74 -79.938 Q49.43 -84.25 43.378 -84.25 Q37.326 -84.25 33.014 -79.94 Q28.703 -75.63 28.703 -69.578 Q28.703 -63.525 33.013 -59.214 Q37.323 -54.902 43.375 -54.902 Z"/></g><g id="Light-L" transform="matrix(1 0 0 1 1082.77 1556)"><path d="M45.745 -2.124 Q39.295 3.407 32.231 2.875 Q25.168 2.341 20.311 -2.124 Q15.295 -6.429 13.676 -13.065 Q12.057 -19.7 16.36 -26.982 L29.522 -48.949 Q25.131 -52.422 22.612 -57.421 Q20.095 -62.418 20.095 -68.172 Q20.095 -78.293 27.313 -85.514 Q34.53 -92.733 44.74 -92.733 Q54.885 -92.733 62.105 -85.514 Q69.325 -78.293 69.325 -68.149 Q69.325 -58.005 62.105 -50.786 Q54.885 -43.565 44.74 -43.565 Q42.867 -43.565 41.056 -43.789 Q39.243 -44.012 37.718 -44.781 L24.312 -22.193 Q21.93 -18.402 22.938 -14.73 Q23.947 -11.059 26.543 -9.019 Q29.141 -6.979 32.732 -6.542 Q36.325 -6.105 39.717 -9.033 L109.116 -68.435 Q115.431 -73.967 122.471 -73.508 Q129.513 -73.046 134.582 -68.823 Q139.433 -64.36 141.2 -57.56 Q142.966 -50.76 138.662 -43.578 L125.701 -21.611 Q129.93 -18.088 132.417 -13.153 Q134.903 -8.217 134.903 -2.409 Q134.903 7.735 127.628 14.954 Q120.352 22.175 110.168 22.175 Q99.933 22.175 92.835 14.922 Q85.735 7.671 85.735 -2.44 Q85.735 -12.549 92.848 -19.771 Q99.96 -26.993 110.158 -26.993 Q111.799 -26.993 113.646 -26.821 Q115.492 -26.647 117.068 -26.039 L130.488 -48.365 Q132.709 -52.161 131.891 -55.747 Q131.072 -59.334 128.399 -61.459 Q125.725 -63.586 122.123 -63.97 Q118.519 -64.355 115.145 -61.527 L45.745 -2.124 Z M110.145 12.76 Q116.453 12.76 120.971 8.295 Q125.49 3.83 125.49 -2.44 Q125.49 -8.709 120.991 -13.144 Q116.493 -17.58 110.176 -17.58 Q103.86 -17.58 99.504 -13.142 Q95.15 -8.704 95.15 -2.411 Q95.15 3.828 99.469 8.295 Q103.787 12.76 110.145 12.76 Z M44.739 -52.98 Q50.978 -52.98 55.444 -57.445 Q59.911 -61.91 59.911 -68.18 Q59.911 -74.449 55.446 -78.884 Q50.981 -83.32 44.711 -83.32 Q38.442 -83.32 33.975 -78.882 Q29.509 -74.444 29.509 -68.151 Q29.509 -61.912 33.966 -57.447 Q38.421 -52.98 44.739 -52.98 Z"/></g><g id="Thin-L" transform="matrix(1 0 0 1 787.282 1556)"><path d="M46.179 -4.17 Q40.213 0.927 33.745 0.426 Q27.275 -0.077 22.885 -4.17 Q18.333 -8.103 16.87 -14.119 Q15.406 -20.134 19.337 -26.795 L32.435 -48.638 Q28.169 -51.865 25.713 -56.565 Q23.257 -61.265 23.257 -66.767 Q23.257 -76.123 29.915 -82.786 Q36.573 -89.447 46.105 -89.447 Q55.505 -89.447 62.167 -82.786 Q68.83 -76.123 68.83 -66.724 Q68.83 -57.323 62.167 -50.662 Q55.505 -43.999 46.105 -43.999 Q44.045 -43.999 42.109 -44.284 Q40.174 -44.57 38.524 -45.463 L25.242 -23.186 Q22.736 -19.208 23.838 -15.319 Q24.939 -11.429 27.662 -9.269 Q30.384 -7.108 34.193 -6.637 Q38 -6.168 41.702 -9.282 L108.744 -66.327 Q114.438 -71.424 120.849 -71.019 Q127.259 -70.616 131.93 -66.779 Q136.3 -62.691 137.99 -56.509 Q139.68 -50.326 135.748 -43.702 L122.724 -21.859 Q126.83 -18.521 129.223 -13.905 Q131.617 -9.288 131.617 -3.773 Q131.617 5.626 124.893 12.289 Q118.167 18.95 108.758 18.95 Q99.248 18.95 92.709 12.224 Q86.169 5.497 86.169 -3.833 Q86.169 -13.165 92.736 -19.831 Q99.303 -26.498 108.732 -26.498 Q110.506 -26.498 112.535 -26.231 Q114.562 -25.965 116.261 -25.232 L129.558 -47.311 Q131.903 -51.355 131.02 -55.123 Q130.138 -58.892 127.342 -61.146 Q124.546 -63.399 120.726 -63.845 Q116.906 -64.292 113.222 -61.215 L46.179 -4.17 Z M108.712 11.892 Q115.226 11.892 119.893 7.272 Q124.559 2.652 124.559 -3.835 Q124.559 -10.32 119.907 -14.88 Q115.253 -19.44 108.72 -19.44 Q102.186 -19.44 97.706 -14.874 Q93.227 -10.309 93.227 -3.775 Q93.227 2.649 97.661 7.271 Q102.095 11.892 108.712 11.892 Z M46.103 -51.057 Q52.529 -51.057 57.15 -55.678 Q61.772 -60.298 61.772 -66.783 Q61.772 -73.27 57.152 -77.831 Q52.53 -82.389 46.045 -82.389 Q39.558 -82.389 34.936 -77.824 Q30.315 -73.258 30.315 -66.725 Q30.315 -60.301 34.917 -55.678 Q39.519 -51.057 46.103 -51.057 Z"/></g><g id="Ultralight-L" transform="matrix(1 0 0 1 491.205 1556)"><path d="M46.44 -5.399 Q40.762 -0.561 34.651 -1.045 Q28.541 -1.529 24.429 -5.399 Q20.156 -9.107 18.786 -14.751 Q17.415 -20.395 21.124 -26.684 L34.185 -48.452 Q29.992 -51.529 27.574 -56.052 Q25.155 -60.574 25.155 -65.924 Q25.155 -74.822 31.478 -81.148 Q37.799 -87.475 46.924 -87.475 Q55.876 -87.475 62.204 -81.148 Q68.531 -74.822 68.531 -65.867 Q68.531 -56.913 62.204 -50.587 Q55.876 -44.26 46.924 -44.26 Q44.752 -44.26 42.743 -44.582 Q40.732 -44.905 39.008 -45.872 L25.8 -23.781 Q23.22 -19.692 24.378 -15.674 Q25.534 -11.654 28.333 -9.419 Q31.131 -7.185 35.069 -6.695 Q39.005 -6.205 42.892 -9.43 L108.521 -65.061 Q113.843 -69.899 119.873 -69.528 Q125.906 -69.157 130.338 -65.553 Q134.42 -61.691 136.063 -55.878 Q137.708 -50.065 133.999 -43.776 L120.938 -22.007 Q124.969 -18.782 127.307 -14.356 Q129.645 -9.93 129.645 -4.592 Q129.645 4.36 123.251 10.688 Q116.858 17.015 107.913 17.015 Q98.837 17.015 92.633 10.604 Q86.43 4.194 86.43 -4.67 Q86.43 -13.534 92.669 -19.866 Q98.908 -26.2 107.876 -26.2 Q109.731 -26.2 111.867 -25.877 Q114.004 -25.555 115.778 -24.749 L129 -46.679 Q131.419 -50.871 130.498 -54.749 Q129.579 -58.629 126.709 -60.957 Q123.84 -63.287 119.889 -63.771 Q115.939 -64.255 112.069 -61.03 L46.44 -5.399 Z M107.852 11.371 Q114.491 11.371 119.246 6.658 Q124.001 1.945 124.001 -4.672 Q124.001 -11.288 119.256 -15.922 Q114.51 -20.556 107.846 -20.556 Q101.18 -20.556 96.627 -15.914 Q92.074 -11.271 92.074 -4.594 Q92.074 1.941 96.577 6.656 Q101.08 11.371 107.852 11.371 Z M46.922 -49.904 Q53.458 -49.904 58.173 -54.617 Q62.888 -59.33 62.888 -65.947 Q62.888 -72.564 58.174 -77.197 Q53.461 -81.831 46.845 -81.831 Q40.229 -81.831 35.514 -77.189 Q30.799 -72.546 30.799 -65.869 Q30.799 -59.332 35.488 -54.619 Q40.179 -49.904 46.922 -49.904 Z"/></g><g id="Bold-M" transform="matrix(1 0 0 1 2281.8 1126)"><path d="M37.75 -4.98 Q31.375 0.645 24.125 0.083 Q16.875 -0.48 11.625 -4.855 Q6.375 -9.23 4.438 -16.355 Q2.5 -23.48 7 -30.98 L15.625 -45.23 Q12.625 -48.48 10.938 -52.759 Q9.25 -57.039 9.25 -61.73 Q9.25 -71.855 16.312 -78.917 Q23.375 -85.98 33.5 -85.98 Q43.625 -85.98 50.75 -78.917 Q57.875 -71.855 57.875 -61.73 Q57.875 -51.605 50.75 -44.48 Q43.625 -37.355 33.5 -37.355 Q32.862 -37.355 32.101 -37.417 Q31.339 -37.48 30.625 -37.605 L21.625 -22.23 Q20.75 -20.98 21.058 -19.657 Q21.364 -18.334 22.3 -17.589 Q23.236 -16.842 24.486 -16.724 Q25.736 -16.605 26.75 -17.605 L82.375 -65.48 Q88.875 -71.105 96.188 -70.605 Q103.5 -70.105 108.696 -65.605 Q113.891 -61.105 115.634 -54.042 Q117.375 -46.98 113 -39.48 L104.5 -25.105 Q107.5 -21.855 109.125 -17.704 Q110.75 -13.551 110.75 -8.73 Q110.75 1.395 103.688 8.458 Q96.625 15.52 86.5 15.52 Q76.375 15.52 69.25 8.458 Q62.125 1.395 62.125 -8.73 Q62.125 -18.855 69.25 -25.98 Q76.375 -33.105 86.5 -33.105 Q87.154 -33.105 87.897 -33.042 Q88.64 -32.98 89.375 -32.855 L98.5 -48.105 Q99.25 -49.355 98.938 -50.605 Q98.625 -51.855 97.625 -52.667 Q96.625 -53.48 95.438 -53.542 Q94.25 -53.605 93.25 -52.605 L37.75 -4.98 Z M34.688 -53.23 Q37.691 -53.23 39.845 -55.385 Q42 -57.539 42 -60.542 Q42 -63.546 39.845 -65.7 Q37.691 -67.855 34.688 -67.855 Q31.684 -67.855 29.53 -65.7 Q27.375 -63.546 27.375 -60.542 Q27.375 -57.539 29.53 -55.385 Q31.684 -53.23 34.688 -53.23 Z M85.312 -2.605 Q88.316 -2.605 90.47 -4.76 Q92.625 -6.914 92.625 -9.917 Q92.625 -12.921 90.47 -15.075 Q88.316 -17.23 85.312 -17.23 Q82.309 -17.23 80.155 -15.075 Q78 -12.921 78 -9.917 Q78 -6.914 80.155 -4.76 Q82.309 -2.605 85.312 -2.605 Z"/></g><g id="Semibold-M" transform="matrix(1 0 0 1 1985.97 1126)"><path d="M37.206 -5.577 Q30.995 -0.116 24.016 -0.679 Q17.038 -1.241 12.005 -5.452 Q6.973 -9.665 5.199 -16.517 Q3.424 -23.371 7.706 -30.545 L16.604 -45.339 Q13.495 -48.534 11.752 -52.774 Q10.011 -57.014 10.011 -61.73 Q10.011 -71.529 16.856 -78.374 Q23.701 -85.219 33.5 -85.219 Q43.299 -85.219 50.18 -78.374 Q57.06 -71.529 57.06 -61.73 Q57.06 -51.931 50.18 -45.05 Q43.299 -38.17 33.5 -38.17 Q32.724 -38.17 31.876 -38.232 Q31.029 -38.295 30.185 -38.475 L20.864 -22.665 Q19.826 -21.089 20.244 -19.499 Q20.663 -17.909 21.789 -16.997 Q22.916 -16.087 24.435 -15.939 Q25.954 -15.79 27.294 -17.007 L82.864 -64.882 Q89.146 -70.29 96.134 -69.79 Q103.12 -69.29 108.125 -65.007 Q113.13 -60.725 114.845 -53.906 Q116.56 -47.089 112.294 -39.86 L103.468 -24.996 Q106.576 -21.801 108.282 -17.666 Q109.989 -13.531 109.989 -8.73 Q109.989 1.069 103.144 7.914 Q96.299 14.759 86.5 14.759 Q76.701 14.759 69.82 7.914 Q62.94 1.069 62.94 -8.73 Q62.94 -18.529 69.82 -25.41 Q76.701 -32.29 86.5 -32.29 Q87.284 -32.29 88.094 -32.227 Q88.905 -32.165 89.755 -31.985 L99.153 -47.725 Q100.065 -49.301 99.725 -50.795 Q99.386 -52.29 98.222 -53.292 Q97.06 -54.295 95.546 -54.385 Q94.032 -54.475 92.706 -53.257 L37.206 -5.577 Z M57.214 -29.862 Q60.57 -29.862 62.969 -32.261 Q65.368 -34.66 65.368 -38.016 Q65.368 -41.374 62.969 -43.772 Q60.57 -46.171 57.214 -46.171 Q53.856 -46.171 51.458 -43.772 Q49.059 -41.374 49.059 -38.016 Q49.059 -34.66 51.458 -32.261 Q53.856 -29.862 57.214 -29.862 Z M62.786 -24.289 Q66.144 -24.289 68.543 -26.687 Q70.941 -29.086 70.941 -32.444 Q70.941 -35.8 68.543 -38.199 Q66.144 -40.597 62.786 -40.597 Q59.43 -40.597 57.031 -38.199 Q54.633 -35.8 54.633 -32.444 Q54.633 -29.086 57.031 -26.687 Q59.43 -24.289 62.786 -24.289 Z"/></g><g id="Medium-M" transform="matrix(1 0 0 1 1689.91 1126)"><path d="M36.799 -6.026 Q30.709 -0.686 23.935 -1.249 Q17.16 -1.811 12.291 -5.901 Q7.421 -9.991 5.769 -16.64 Q4.116 -23.29 8.236 -30.219 L17.337 -45.42 Q14.146 -48.575 12.364 -52.785 Q10.581 -56.994 10.581 -61.73 Q10.581 -71.284 17.264 -77.966 Q23.946 -84.649 33.5 -84.649 Q43.054 -84.649 49.751 -77.966 Q56.449 -71.284 56.449 -61.73 Q56.449 -52.176 49.751 -45.479 Q43.054 -38.781 33.5 -38.781 Q32.619 -38.781 31.707 -38.844 Q30.796 -38.906 29.855 -39.126 L20.294 -22.991 Q19.134 -21.17 19.635 -19.38 Q20.136 -17.589 21.406 -16.555 Q22.676 -15.52 24.396 -15.35 Q26.116 -15.179 27.701 -16.559 L83.231 -64.434 Q89.35 -69.679 96.093 -69.179 Q102.834 -68.679 107.698 -64.559 Q112.56 -60.439 114.254 -53.805 Q115.949 -47.17 111.764 -40.146 L102.692 -24.915 Q105.884 -21.76 107.651 -17.639 Q109.419 -13.516 109.419 -8.73 Q109.419 0.824 102.736 7.506 Q96.054 14.189 86.5 14.189 Q76.946 14.189 70.249 7.506 Q63.551 0.824 63.551 -8.73 Q63.551 -18.284 70.249 -24.981 Q76.946 -31.679 86.5 -31.679 Q87.381 -31.679 88.243 -31.616 Q89.104 -31.554 90.041 -31.334 L99.641 -47.439 Q100.676 -49.26 100.316 -50.937 Q99.956 -52.616 98.671 -53.761 Q97.386 -54.906 95.627 -55.016 Q93.87 -55.126 92.299 -53.746 L36.799 -6.026 Z M74.11 -12.334 Q77.731 -12.334 80.314 -14.916 Q82.896 -17.499 82.896 -21.12 Q82.896 -24.741 80.314 -27.324 Q77.731 -29.907 74.11 -29.907 Q70.489 -29.907 67.906 -27.324 Q65.323 -24.741 65.323 -21.12 Q65.323 -17.499 67.906 -14.916 Q70.489 -12.334 74.11 -12.334 Z M45.89 -40.552 Q49.511 -40.552 52.094 -43.136 Q54.678 -45.719 54.678 -49.34 Q54.678 -52.961 52.094 -55.544 Q49.511 -58.126 45.89 -58.126 Q42.269 -58.126 39.686 -55.544 Q37.104 -52.961 37.104 -49.34 Q37.104 -45.719 39.686 -43.136 Q42.269 -40.552 45.89 -40.552 Z"/></g><g id="Regular-M" transform="matrix(1 0 0 1 1394.06 1126)"><path d="M36.5 -6.355 Q30.5 -1.105 23.875 -1.667 Q17.25 -2.23 12.5 -6.23 Q7.75 -10.23 6.188 -16.73 Q4.625 -23.23 8.625 -29.98 L17.875 -45.48 Q14.625 -48.605 12.812 -52.792 Q11 -56.98 11 -61.73 Q11 -71.105 17.562 -77.667 Q24.125 -84.23 33.5 -84.23 Q42.875 -84.23 49.438 -77.667 Q56 -71.105 56 -61.73 Q56 -52.355 49.438 -45.792 Q42.875 -39.23 33.5 -39.23 Q32.541 -39.23 31.584 -39.292 Q30.625 -39.355 29.614 -39.605 L19.875 -23.23 Q18.625 -21.23 19.188 -19.292 Q19.75 -17.355 21.125 -16.23 Q22.5 -15.105 24.367 -14.917 Q26.236 -14.73 28 -16.23 L83.5 -64.105 Q89.5 -69.23 96.062 -68.73 Q102.625 -68.23 107.384 -64.23 Q112.141 -60.23 113.821 -53.73 Q115.5 -47.23 111.375 -40.355 L102.125 -24.855 Q105.375 -21.73 107.188 -17.617 Q109 -13.505 109 -8.73 Q109 0.645 102.438 7.208 Q95.875 13.77 86.5 13.77 Q77.125 13.77 70.562 7.208 Q64 0.645 64 -8.73 Q64 -18.105 70.562 -24.667 Q77.125 -31.23 86.5 -31.23 Q87.453 -31.23 88.351 -31.167 Q89.25 -31.105 90.25 -30.855 L100 -47.23 Q101.125 -49.23 100.75 -51.042 Q100.375 -52.855 99 -54.105 Q97.625 -55.355 95.688 -55.48 Q93.75 -55.605 92 -54.105 L36.5 -6.355 Z M86.5 0.52 Q90.316 0.52 93.032 -2.197 Q95.75 -4.915 95.75 -8.73 Q95.75 -12.545 93.032 -15.262 Q90.316 -17.98 86.5 -17.98 Q82.684 -17.98 79.968 -15.262 Q77.25 -12.545 77.25 -8.73 Q77.25 -4.915 79.968 -2.197 Q82.684 0.52 86.5 0.52 Z M33.5 -52.48 Q37.315 -52.48 40.032 -55.197 Q42.75 -57.914 42.75 -61.73 Q42.75 -65.546 40.032 -68.262 Q37.315 -70.98 33.5 -70.98 Q29.685 -70.98 26.968 -68.262 Q24.25 -65.546 24.25 -61.73 Q24.25 -57.914 26.968 -55.197 Q29.685 -52.48 33.5 -52.48 Z"/></g><g id="Light-M" transform="matrix(1 0 0 1 1098.18 1126)"><path d="M36.404 -7.99 Q30.875 -3.125 24.76 -3.687 Q18.644 -4.25 14.328 -7.912 Q10.01 -11.576 8.64 -17.524 Q7.27 -23.47 10.885 -29.595 L20.328 -45.432 Q17.125 -48.316 15.312 -52.321 Q13.5 -56.326 13.5 -60.865 Q13.5 -69.615 19.558 -75.672 Q25.615 -81.73 34.365 -81.73 Q43.115 -81.73 49.172 -75.672 Q55.231 -69.615 55.231 -60.865 Q55.231 -52.115 49.172 -46.057 Q43.115 -39.999 34.365 -39.999 Q33.215 -39.999 32.112 -40.11 Q31.01 -40.22 29.854 -40.615 L19.971 -24.144 Q18.529 -21.807 19.188 -19.557 Q19.846 -17.307 21.462 -15.991 Q23.08 -14.676 25.282 -14.462 Q27.486 -14.249 29.539 -15.99 L83.644 -62.422 Q89.115 -67.162 95.101 -66.71 Q101.086 -66.259 105.471 -62.597 Q109.856 -58.936 111.404 -52.987 Q112.951 -47.037 109.164 -40.74 L99.672 -24.855 Q102.875 -21.97 104.688 -18.075 Q106.5 -14.179 106.5 -9.595 Q106.5 -0.845 100.407 5.213 Q94.315 11.27 85.6 11.27 Q76.885 11.27 70.828 5.188 Q64.769 -0.895 64.769 -9.596 Q64.769 -18.297 70.838 -24.379 Q76.906 -30.461 85.586 -30.461 Q86.737 -30.461 87.826 -30.326 Q88.914 -30.191 90.058 -29.797 L99.904 -46.316 Q101.221 -48.652 100.772 -50.775 Q100.324 -52.897 98.71 -54.342 Q97.096 -55.787 94.823 -55.961 Q92.547 -56.134 90.51 -54.345 L36.404 -7.99 Z M85.581 0.52 Q89.776 0.52 92.763 -2.437 Q95.75 -5.395 95.75 -9.595 Q95.75 -13.796 92.763 -16.754 Q89.776 -19.711 85.581 -19.711 Q81.386 -19.711 78.453 -16.754 Q75.519 -13.796 75.519 -9.595 Q75.519 -5.395 78.453 -2.437 Q81.386 0.52 85.581 0.52 Z M34.365 -50.749 Q38.566 -50.749 41.524 -53.706 Q44.481 -56.664 44.481 -60.865 Q44.481 -65.065 41.524 -68.022 Q38.566 -70.98 34.365 -70.98 Q30.165 -70.98 27.207 -68.022 Q24.25 -65.065 24.25 -60.865 Q24.25 -56.664 27.207 -53.706 Q30.165 -50.749 34.365 -50.749 Z"/></g><g id="Thin-M" transform="matrix(1 0 0 1 802.565 1126)"><path d="M36.307 -9.624 Q31.249 -5.144 25.644 -5.706 Q20.039 -6.269 16.154 -9.595 Q12.269 -12.922 11.091 -18.316 Q9.914 -23.711 13.144 -29.211 L22.779 -45.384 Q19.625 -48.027 17.812 -51.85 Q16 -55.672 16 -59.999 Q16 -68.124 21.552 -73.677 Q27.106 -79.23 35.231 -79.23 Q43.356 -79.23 48.909 -73.677 Q54.461 -68.124 54.461 -59.999 Q54.461 -51.874 48.909 -46.321 Q43.356 -40.769 35.231 -40.769 Q33.888 -40.769 32.641 -40.927 Q31.394 -41.086 30.094 -41.624 L20.067 -25.057 Q18.433 -22.384 19.188 -19.821 Q19.942 -17.259 21.801 -15.752 Q23.66 -14.247 26.198 -14.007 Q28.736 -13.769 31.078 -15.749 L83.789 -60.74 Q88.731 -65.095 94.14 -64.691 Q99.547 -64.287 103.56 -60.965 Q107.573 -57.642 108.987 -52.244 Q110.404 -46.845 106.953 -41.124 L97.221 -24.855 Q100.375 -22.211 102.188 -18.531 Q104 -14.851 104 -10.461 Q104 -2.336 98.377 3.218 Q92.755 8.77 84.7 8.77 Q76.644 8.77 71.091 3.168 Q65.539 -2.435 65.539 -10.462 Q65.539 -18.49 71.112 -24.09 Q76.686 -29.691 84.672 -29.691 Q86.025 -29.691 87.301 -29.485 Q88.578 -29.277 89.865 -28.74 L99.808 -45.402 Q101.317 -48.076 100.795 -50.509 Q100.274 -52.941 98.42 -54.581 Q96.567 -56.22 93.956 -56.441 Q91.346 -56.662 89.019 -54.586 L36.307 -9.624 Z M84.662 0.52 Q89.236 0.52 92.493 -2.677 Q95.75 -5.876 95.75 -10.461 Q95.75 -15.045 92.493 -18.244 Q89.236 -21.441 84.662 -21.441 Q80.089 -21.441 76.939 -18.244 Q73.789 -15.045 73.789 -10.461 Q73.789 -5.876 76.939 -2.677 Q80.089 0.52 84.662 0.52 Z M35.231 -49.019 Q39.815 -49.019 43.014 -52.216 Q46.211 -55.415 46.211 -59.999 Q46.211 -64.584 43.014 -67.782 Q39.815 -70.98 35.231 -70.98 Q30.646 -70.98 27.448 -67.782 Q24.25 -64.584 24.25 -59.999 Q24.25 -55.415 27.448 -52.216 Q30.646 -49.019 35.231 -49.019 Z"/></g><g id="Ultralight-M" transform="matrix(1 0 0 1 506.415 1126)"><path d="M36.25 -10.605 Q31.474 -6.355 26.174 -6.917 Q20.875 -7.48 17.25 -10.605 Q13.625 -13.73 12.562 -18.792 Q11.5 -23.855 14.5 -28.98 L24.25 -45.355 Q21.125 -47.855 19.312 -51.567 Q17.5 -55.281 17.5 -59.48 Q17.5 -67.23 22.75 -72.48 Q28 -77.73 35.75 -77.73 Q43.5 -77.73 48.75 -72.48 Q54 -67.23 54 -59.48 Q54 -51.73 48.75 -46.48 Q43.5 -41.23 35.75 -41.23 Q34.291 -41.23 32.959 -41.417 Q31.625 -41.605 30.239 -42.23 L20.125 -25.605 Q18.375 -22.73 19.188 -19.98 Q20 -17.23 22.004 -15.61 Q24.008 -13.99 26.747 -13.735 Q29.486 -13.48 32 -15.605 L83.875 -59.73 Q88.5 -63.855 93.562 -63.48 Q98.625 -63.105 102.412 -59.986 Q106.201 -56.867 107.537 -51.799 Q108.875 -46.73 105.625 -41.355 L95.75 -24.855 Q98.875 -22.355 100.688 -18.805 Q102.5 -15.255 102.5 -10.98 Q102.5 -3.23 97.159 2.02 Q91.819 7.27 84.159 7.27 Q76.5 7.27 71.25 1.955 Q66 -3.36 66 -10.982 Q66 -18.605 71.278 -23.917 Q76.555 -29.23 84.125 -29.23 Q85.596 -29.23 86.985 -28.98 Q88.375 -28.73 89.75 -28.105 L99.75 -44.855 Q101.375 -47.73 100.809 -50.349 Q100.243 -52.966 98.246 -54.724 Q96.25 -56.48 93.438 -56.73 Q90.625 -56.98 88.125 -54.73 L36.25 -10.605 Z M84.11 0.52 Q88.911 0.52 92.331 -2.822 Q95.75 -6.165 95.75 -10.98 Q95.75 -15.795 92.331 -19.137 Q88.911 -22.48 84.11 -22.48 Q79.309 -22.48 76.03 -19.137 Q72.75 -15.795 72.75 -10.98 Q72.75 -6.165 76.03 -2.822 Q79.309 0.52 84.11 0.52 Z M35.75 -47.98 Q40.565 -47.98 43.907 -51.322 Q47.25 -54.664 47.25 -59.48 Q47.25 -64.296 43.907 -67.637 Q40.565 -70.98 35.75 -70.98 Q30.935 -70.98 27.593 -67.637 Q24.25 -64.296 24.25 -59.48 Q24.25 -54.664 27.593 -51.322 Q30.935 -47.98 35.75 -47.98 Z"/></g><g id="Bold-S" transform="matrix(1 0 0 1 2294.23 696)"><path d="M35.801 -13.434 Q30.377 -7.418 23.571 -7.615 Q16.766 -7.812 11.835 -11.659 Q6.904 -15.505 5.128 -21.916 Q3.353 -28.326 7.594 -35.23 L13.314 -44.402 Q11.539 -46.769 10.602 -49.552 Q9.665 -52.337 9.665 -55.349 Q9.665 -62.746 14.744 -67.826 Q19.824 -72.905 27.221 -72.905 Q34.617 -72.905 39.746 -67.826 Q44.874 -62.746 44.874 -55.349 Q44.874 -47.953 39.746 -42.824 Q34.617 -37.696 27.221 -37.696 Q26.554 -37.696 25.788 -37.844 Q25.022 -37.991 24.163 -38.189 L18.344 -28.721 Q16.865 -26.551 17.551 -24.521 Q18.237 -22.491 19.863 -21.311 Q21.489 -20.131 23.511 -20.185 Q25.533 -20.239 27.023 -22.211 L58.978 -56.927 Q64.501 -62.944 71.257 -62.894 Q78.012 -62.845 82.901 -58.9 Q87.789 -54.955 89.509 -48.594 Q91.228 -42.232 87.086 -35.23 L81.464 -25.959 Q83.24 -23.592 84.127 -20.91 Q85.015 -18.226 85.015 -15.11 Q85.015 -7.714 79.936 -2.634 Q74.856 2.445 67.46 2.445 Q60.063 2.445 54.934 -2.634 Q49.806 -7.714 49.806 -15.11 Q49.806 -22.507 54.934 -27.636 Q60.063 -32.764 67.46 -32.764 Q68.18 -32.764 68.96 -32.616 Q69.74 -32.468 70.615 -32.271 L76.434 -41.641 Q77.815 -43.81 77.125 -45.832 Q76.434 -47.854 74.758 -49.087 Q73.081 -50.32 71.059 -50.172 Q69.038 -50.024 67.657 -48.051 L35.801 -13.434 Z M26.6 -51.01 Q28.654 -51.01 30.106 -52.484 Q31.56 -53.959 31.56 -56.011 Q31.56 -58.065 30.086 -59.517 Q28.611 -60.971 26.559 -60.971 Q24.505 -60.971 23.053 -59.497 Q21.599 -58.022 21.599 -55.97 Q21.599 -53.916 23.073 -52.464 Q24.548 -51.01 26.6 -51.01 Z M68.121 -9.489 Q70.175 -9.489 71.627 -10.963 Q73.081 -12.438 73.081 -14.49 Q73.081 -16.544 71.607 -17.996 Q70.132 -19.45 68.08 -19.45 Q66.026 -19.45 64.574 -17.976 Q63.12 -16.501 63.12 -14.449 Q63.12 -12.395 64.594 -10.943 Q66.069 -9.489 68.121 -9.489 Z"/></g><g id="Semibold-S" transform="matrix(1 0 0 1 1998.1 696)"><path d="M35.372 -13.905 Q30.077 -8.018 23.486 -8.216 Q16.894 -8.413 12.135 -12.13 Q7.375 -15.848 5.729 -22.044 Q4.082 -28.24 8.151 -34.887 L14.087 -44.488 Q12.226 -46.812 11.245 -49.564 Q10.266 -52.316 10.266 -55.349 Q10.266 -62.489 15.173 -67.397 Q20.081 -72.304 27.221 -72.304 Q34.36 -72.304 39.296 -67.397 Q44.231 -62.489 44.231 -55.349 Q44.231 -48.21 39.296 -43.274 Q34.36 -38.339 27.221 -38.339 Q26.443 -38.339 25.611 -38.487 Q24.778 -38.635 23.816 -38.875 L17.744 -29.064 Q16.136 -26.637 16.909 -24.396 Q17.683 -22.155 19.46 -20.845 Q21.237 -19.535 23.471 -19.565 Q25.705 -19.596 27.452 -21.74 L59.363 -56.456 Q64.715 -62.301 71.214 -62.251 Q77.713 -62.202 82.451 -58.429 Q87.188 -54.655 88.887 -48.486 Q90.585 -42.318 86.529 -35.53 L80.65 -25.873 Q82.511 -23.55 83.462 -20.88 Q84.414 -18.21 84.414 -15.11 Q84.414 -7.971 79.507 -3.063 Q74.599 1.844 67.46 1.844 Q60.32 1.844 55.384 -3.063 Q50.449 -7.971 50.449 -15.11 Q50.449 -22.25 55.384 -27.186 Q60.32 -32.121 67.46 -32.121 Q68.283 -32.121 69.115 -31.973 Q69.949 -31.825 70.915 -31.585 L76.949 -41.341 Q78.458 -43.768 77.746 -45.982 Q77.035 -48.197 75.229 -49.58 Q73.424 -50.963 71.145 -50.836 Q68.866 -50.71 67.228 -48.566 L35.372 -13.905 Z M44.373 -32.573 Q46.705 -32.573 48.351 -34.24 Q49.997 -35.908 49.997 -38.239 Q49.997 -40.571 48.33 -42.217 Q46.662 -43.863 44.331 -43.863 Q41.999 -43.863 40.353 -42.196 Q38.707 -40.528 38.707 -38.197 Q38.707 -35.865 40.374 -34.219 Q42.042 -32.573 44.373 -32.573 Z M50.349 -26.597 Q52.681 -26.597 54.327 -28.264 Q55.973 -29.932 55.973 -32.263 Q55.973 -34.595 54.306 -36.241 Q52.638 -37.887 50.307 -37.887 Q47.975 -37.887 46.329 -36.22 Q44.683 -34.552 44.683 -32.221 Q44.683 -29.889 46.35 -28.243 Q48.018 -26.597 50.349 -26.597 Z"/></g><g id="Medium-S" transform="matrix(1 0 0 1 1701.85 696)"><path d="M35.05 -14.259 Q29.851 -8.468 23.421 -8.665 Q16.991 -8.863 12.361 -12.484 Q7.729 -16.106 6.179 -22.14 Q4.628 -28.176 8.57 -34.629 L14.666 -44.552 Q12.739 -46.844 11.727 -49.573 Q10.716 -52.301 10.716 -55.349 Q10.716 -62.296 15.495 -67.075 Q20.274 -71.854 27.221 -71.854 Q34.167 -71.854 38.958 -67.075 Q43.749 -62.296 43.749 -55.349 Q43.749 -48.403 38.958 -43.612 Q34.167 -38.821 27.221 -38.821 Q26.36 -38.821 25.477 -38.969 Q24.594 -39.117 23.556 -39.389 L17.294 -29.321 Q15.59 -26.701 16.429 -24.302 Q17.268 -21.903 19.158 -20.495 Q21.048 -19.087 23.44 -19.101 Q25.833 -19.114 27.774 -21.386 L59.653 -56.102 Q64.876 -61.818 71.182 -61.769 Q77.487 -61.72 82.113 -58.075 Q86.739 -54.429 88.42 -48.406 Q90.103 -42.382 86.11 -35.756 L80.038 -25.809 Q81.964 -23.517 82.964 -20.858 Q83.964 -18.198 83.964 -15.11 Q83.964 -8.164 79.185 -3.385 Q74.406 1.394 67.46 1.394 Q60.513 1.394 55.722 -3.385 Q50.931 -8.164 50.931 -15.11 Q50.931 -22.057 55.722 -26.848 Q60.513 -31.639 67.46 -31.639 Q68.359 -31.639 69.233 -31.491 Q70.106 -31.343 71.141 -31.071 L77.335 -41.115 Q78.94 -43.735 78.213 -46.095 Q77.485 -48.455 75.583 -49.95 Q73.682 -51.445 71.209 -51.334 Q68.738 -51.224 66.906 -48.952 L35.05 -14.259 Z M57.705 -18.743 Q60.245 -18.743 62.036 -20.555 Q63.827 -22.367 63.827 -24.907 Q63.827 -27.448 62.015 -29.239 Q60.203 -31.031 57.663 -31.031 Q55.122 -31.031 53.331 -29.218 Q51.539 -27.406 51.539 -24.865 Q51.539 -22.325 53.352 -20.534 Q55.164 -18.743 57.705 -18.743 Z M37.017 -39.429 Q39.558 -39.429 41.349 -41.242 Q43.141 -43.054 43.141 -45.595 Q43.141 -48.135 41.328 -49.926 Q39.516 -51.717 36.975 -51.717 Q34.435 -51.717 32.644 -49.905 Q30.853 -48.093 30.853 -45.553 Q30.853 -43.012 32.665 -41.221 Q34.477 -39.429 37.017 -39.429 Z"/></g><g id="Regular-S" transform="matrix(1 0 0 1 1405.73 696)"><path d="M34.815 -14.519 Q29.686 -8.798 23.374 -8.996 Q17.062 -9.193 12.525 -12.743 Q7.989 -16.294 6.509 -22.211 Q5.03 -28.129 8.876 -34.441 L15.09 -44.599 Q13.117 -46.868 12.082 -49.579 Q11.046 -52.29 11.046 -55.349 Q11.046 -62.155 15.731 -66.839 Q20.415 -71.524 27.221 -71.524 Q34.026 -71.524 38.71 -66.839 Q43.395 -62.155 43.395 -55.349 Q43.395 -48.544 38.71 -43.86 Q34.026 -39.175 27.221 -39.175 Q26.3 -39.175 25.379 -39.323 Q24.459 -39.471 23.365 -39.767 L16.963 -29.51 Q15.188 -26.748 16.076 -24.233 Q16.963 -21.718 18.936 -20.239 Q20.909 -18.76 23.418 -18.76 Q25.928 -18.76 28.01 -21.127 L59.865 -55.843 Q64.994 -61.464 71.158 -61.415 Q77.322 -61.366 81.866 -57.815 Q86.408 -54.265 88.079 -48.347 Q89.749 -42.43 85.804 -35.92 L79.59 -25.762 Q81.563 -23.494 82.598 -20.842 Q83.634 -18.19 83.634 -15.11 Q83.634 -8.305 78.949 -3.621 Q74.265 1.064 67.46 1.064 Q60.654 1.064 55.97 -3.621 Q51.285 -8.305 51.285 -15.11 Q51.285 -21.916 55.97 -26.6 Q60.654 -31.285 67.46 -31.285 Q68.415 -31.285 69.319 -31.137 Q70.221 -30.989 71.306 -30.693 L77.618 -40.95 Q79.294 -43.712 78.555 -46.177 Q77.815 -48.643 75.843 -50.221 Q73.87 -51.799 71.257 -51.7 Q68.643 -51.602 66.671 -49.235 L34.815 -14.519 Z M67.48 -8.601 Q70.175 -8.601 72.071 -10.52 Q73.969 -12.438 73.969 -15.131 Q73.969 -17.825 72.05 -19.722 Q70.132 -21.62 67.439 -21.62 Q64.744 -21.62 62.848 -19.701 Q60.95 -17.783 60.95 -15.09 Q60.95 -12.396 62.869 -10.499 Q64.787 -8.601 67.48 -8.601 Z M27.241 -48.84 Q29.935 -48.84 31.832 -50.759 Q33.73 -52.677 33.73 -55.37 Q33.73 -58.065 31.811 -59.961 Q29.893 -61.859 27.2 -61.859 Q24.506 -61.859 22.609 -59.94 Q20.711 -58.022 20.711 -55.329 Q20.711 -52.634 22.63 -50.738 Q24.548 -48.84 27.241 -48.84 Z"/></g><g id="Light-S" transform="matrix(1 0 0 1 1109.75 696)"><path d="M34.739 -15.809 Q29.982 -10.392 24.072 -10.59 Q18.162 -10.787 13.967 -14.071 Q9.772 -17.356 8.444 -22.838 Q7.117 -28.318 10.659 -34.137 L17.025 -44.562 Q15.09 -46.64 14.054 -49.207 Q13.019 -51.774 13.019 -54.667 Q13.019 -60.979 17.305 -65.265 Q21.591 -69.551 27.903 -69.551 Q34.215 -69.551 38.501 -65.265 Q42.788 -60.979 42.788 -54.667 Q42.788 -48.355 38.501 -44.069 Q34.215 -39.782 27.903 -39.782 Q26.831 -39.782 25.796 -39.968 Q24.763 -40.153 23.555 -40.564 L17.039 -30.231 Q15.112 -27.204 16.076 -24.442 Q17.039 -21.681 19.202 -20.051 Q21.366 -18.421 24.139 -18.401 Q26.914 -18.38 29.224 -20.937 L59.979 -54.515 Q64.69 -59.833 70.4 -59.821 Q76.108 -59.81 80.357 -56.527 Q84.605 -53.244 86.172 -47.761 Q87.738 -42.278 84.059 -36.224 L77.655 -25.762 Q79.59 -23.683 80.626 -21.203 Q81.662 -18.721 81.662 -15.793 Q81.662 -9.481 77.348 -5.195 Q73.034 -0.908 66.749 -0.908 Q60.465 -0.908 56.179 -5.214 Q51.892 -9.52 51.892 -15.794 Q51.892 -22.068 56.187 -26.372 Q60.482 -30.678 66.739 -30.678 Q67.852 -30.678 68.903 -30.473 Q69.956 -30.268 71.154 -29.859 L77.542 -40.229 Q79.37 -43.256 78.573 -45.966 Q77.775 -48.677 75.614 -50.408 Q73.453 -52.14 70.574 -52.08 Q67.694 -52.019 65.495 -49.424 L34.739 -15.809 Z M66.755 -8.601 Q69.749 -8.601 71.858 -10.709 Q73.969 -12.817 73.969 -15.815 Q73.969 -18.812 71.837 -20.899 Q69.706 -22.986 66.714 -22.986 Q63.721 -22.986 61.652 -20.877 Q59.584 -18.769 59.584 -15.772 Q59.584 -12.775 61.673 -10.688 Q63.762 -8.601 66.755 -8.601 Z M27.925 -47.474 Q30.922 -47.474 33.009 -49.583 Q35.096 -51.691 35.096 -54.688 Q35.096 -57.685 32.987 -59.772 Q30.879 -61.859 27.882 -61.859 Q24.885 -61.859 22.798 -59.751 Q20.711 -57.643 20.711 -54.645 Q20.711 -51.648 22.819 -49.561 Q24.927 -47.474 27.925 -47.474 Z"/></g><g id="Thin-S" transform="matrix(1 0 0 1 814.015 696)"><path d="M34.663 -17.098 Q30.277 -11.985 24.77 -12.182 Q19.262 -12.38 15.408 -15.398 Q11.554 -18.418 10.378 -23.463 Q9.203 -28.509 12.442 -33.834 L18.959 -44.523 Q17.062 -46.412 16.027 -48.835 Q14.991 -51.259 14.991 -53.984 Q14.991 -59.802 18.879 -63.691 Q22.768 -67.579 28.586 -67.579 Q34.405 -67.579 38.293 -63.691 Q42.181 -59.802 42.181 -53.984 Q42.181 -48.165 38.293 -44.277 Q34.405 -40.389 28.586 -40.389 Q27.363 -40.389 26.214 -40.613 Q25.066 -40.837 23.744 -41.36 L17.115 -30.952 Q15.036 -27.659 16.076 -24.65 Q17.115 -21.642 19.47 -19.862 Q21.824 -18.083 24.861 -18.042 Q27.9 -18.001 30.438 -20.747 L60.093 -53.188 Q64.387 -58.202 69.641 -58.228 Q74.894 -58.255 78.849 -55.239 Q82.804 -52.223 84.265 -47.174 Q85.728 -42.126 82.314 -36.527 L75.721 -25.762 Q77.618 -23.873 78.653 -21.563 Q79.689 -19.252 79.689 -16.476 Q79.689 -10.658 75.746 -6.769 Q71.803 -2.881 66.039 -2.881 Q60.275 -2.881 56.387 -6.808 Q52.499 -10.735 52.499 -16.477 Q52.499 -22.219 56.404 -26.145 Q60.308 -30.071 66.018 -30.071 Q67.289 -30.071 68.489 -29.81 Q69.69 -29.547 71.002 -29.025 L77.466 -39.508 Q79.446 -42.801 78.59 -45.756 Q77.735 -48.711 75.385 -50.597 Q73.036 -52.481 69.891 -52.459 Q66.746 -52.436 64.318 -49.614 L34.663 -17.098 Z M66.03 -8.601 Q69.323 -8.601 71.645 -10.899 Q73.969 -13.196 73.969 -16.497 Q73.969 -19.797 71.624 -22.074 Q69.28 -24.351 65.988 -24.351 Q62.697 -24.351 60.458 -22.054 Q58.219 -19.756 58.219 -16.455 Q58.219 -13.155 60.479 -10.878 Q62.738 -8.601 66.03 -8.601 Z M28.607 -46.109 Q31.907 -46.109 34.184 -48.406 Q36.461 -50.704 36.461 -54.005 Q36.461 -57.305 34.164 -59.582 Q31.866 -61.859 28.565 -61.859 Q25.265 -61.859 22.988 -59.561 Q20.711 -57.264 20.711 -53.963 Q20.711 -50.663 23.009 -48.386 Q25.306 -46.109 28.607 -46.109 Z"/></g><g id="Ultralight-S" transform="matrix(1 0 0 1 517.792 696)"><path d="M34.617 -17.872 Q30.454 -12.941 25.188 -13.138 Q19.922 -13.335 16.273 -16.195 Q12.624 -19.055 11.539 -23.839 Q10.454 -28.622 13.512 -33.652 L20.12 -44.501 Q18.246 -46.276 17.21 -48.612 Q16.175 -50.95 16.175 -53.574 Q16.175 -59.097 19.824 -62.746 Q23.473 -66.395 28.996 -66.395 Q34.519 -66.395 38.168 -62.746 Q41.817 -59.097 41.817 -53.574 Q41.817 -48.051 38.168 -44.402 Q34.519 -40.753 28.996 -40.753 Q27.681 -40.753 26.464 -41 Q25.248 -41.246 23.858 -41.838 L17.161 -31.384 Q14.991 -27.932 16.076 -24.776 Q17.161 -21.62 19.629 -19.75 Q22.098 -17.88 25.295 -17.827 Q28.492 -17.773 31.166 -20.633 L60.161 -52.391 Q64.205 -57.223 69.185 -57.273 Q74.166 -57.322 77.943 -54.467 Q81.722 -51.612 83.121 -46.823 Q84.522 -42.035 81.267 -36.709 L74.561 -25.762 Q76.434 -23.987 77.47 -21.779 Q78.505 -19.57 78.505 -16.886 Q78.505 -11.363 74.784 -7.714 Q71.064 -4.064 65.612 -4.064 Q60.161 -4.064 56.512 -7.765 Q52.863 -11.465 52.863 -16.888 Q52.863 -22.31 56.534 -26.009 Q60.205 -29.707 65.586 -29.707 Q66.952 -29.707 68.241 -29.411 Q69.531 -29.115 70.911 -28.523 L77.421 -39.076 Q79.492 -42.528 78.601 -45.63 Q77.711 -48.731 75.248 -50.709 Q72.785 -52.687 69.481 -52.687 Q66.177 -52.687 63.613 -49.728 L34.617 -17.872 Z M65.595 -8.601 Q69.066 -8.601 71.518 -11.013 Q73.969 -13.424 73.969 -16.906 Q73.969 -20.389 71.497 -22.78 Q69.025 -25.17 65.553 -25.17 Q62.081 -25.17 59.741 -22.759 Q57.4 -20.347 57.4 -16.865 Q57.4 -13.383 59.762 -10.992 Q62.124 -8.601 65.595 -8.601 Z M29.016 -45.29 Q32.499 -45.29 34.89 -47.701 Q37.28 -50.113 37.28 -53.595 Q37.28 -57.078 34.869 -59.468 Q32.457 -61.859 28.975 -61.859 Q25.493 -61.859 23.102 -59.447 Q20.711 -57.036 20.711 -53.554 Q20.711 -50.07 23.123 -47.68 Q25.534 -45.29 29.016 -45.29 Z"/></g></g></svg>