<svg xmlns="http://www.w3.org/2000/svg" version="1.1" width="3300" height="2000"><g id="Notes"><style>
    text {
      font-family: monospace;
      text-anchor: middle;
    }
    text.emphasis {
      font-weight:bold;
    }
    text.lanchor {
      text-anchor: start;
    }
  </style><rect height="2200" id="artboard" fill="white" width="3300" x="0" y="0"/><line id="" style="fill:none;stroke:black;stroke-width:0.5;" x1="263" x2="3036" y1="292" y2="292"/><text class="lanchor emphasis" transform="matrix(1 0 0 1 263 322)">Weight/Scale Variations</text><text transform="matrix(1 0 0 1 559.711 322)">Ultralight</text><text transform="matrix(1 0 0 1 856.422 322)">Thin</text><text transform="matrix(1 0 0 1 1153.13 322)">Light</text><text transform="matrix(1 0 0 1 1449.84 322)">Regular</text><text transform="matrix(1 0 0 1 1746.56 322)">Medium</text><text transform="matrix(1 0 0 1 2043.27 322)">Semibold</text><text transform="matrix(1 0 0 1 2339.98 322)">Bold</text><text transform="matrix(1 0 0 1 2636.69 322)">Heavy</text><text transform="matrix(1 0 0 1 2933.4 322)">Black</text><text id="template-version" style="text-anchor: end;" transform="matrix(1 0 0 1 3036 1933)">Template v.1.0</text><text class="lanchor" transform="matrix(1 0 0 1 263 726)">Small</text><text class="lanchor" transform="matrix(1 0 0 1 263 1156)">Medium</text><text class="lanchor" transform="matrix(1 0 0 1 263 1586)">Large</text></g><g id="Guides"><g id="H-reference" style="fill:#27AAE1;stroke:none;" transform="matrix(1 0 0 1 339 696)"><path d="M 54.9316 0 L 57.666 0 L 30.5664 -70.459 L 28.0762 -70.459 L 0.976562 0 L 3.66211 0 L 12.9395 -24.4629 L 45.7031 -24.4629 Z M 29.1992 -67.0898 L 29.4434 -67.0898 L 44.8242 -26.709 L 13.8184 -26.709 Z"/></g><line id="Baseline-S" style="fill:none;stroke:#27AAE1;opacity:1;stroke-width:0.577;" x1="263" x2="3036" y1="696" y2="696"/><line id="Capline-S" style="fill:none;stroke:#27AAE1;opacity:1;stroke-width:0.577;" x1="263" x2="3036" y1="625.541" y2="625.541"/><g id="H-reference" style="fill:#27AAE1;stroke:none;" transform="matrix(1 0 0 1 339 1126)"><path d="M 54.9316 0 L 57.666 0 L 30.5664 -70.459 L 28.0762 -70.459 L 0.976562 0 L 3.66211 0 L 12.9395 -24.4629 L 45.7031 -24.4629 Z M 29.1992 -67.0898 L 29.4434 -67.0898 L 44.8242 -26.709 L 13.8184 -26.709 Z"/></g><line id="Baseline-M" style="fill:none;stroke:#27AAE1;opacity:1;stroke-width:0.577;" x1="263" x2="3036" y1="1126" y2="1126"/><line id="Capline-M" style="fill:none;stroke:#27AAE1;opacity:1;stroke-width:0.577;" x1="263" x2="3036" y1="1055.54" y2="1055.54"/><g id="H-reference" style="fill:#27AAE1;stroke:none;" transform="matrix(1 0 0 1 339 1556)"><path d="M 54.9316 0 L 57.666 0 L 30.5664 -70.459 L 28.0762 -70.459 L 0.976562 0 L 3.66211 0 L 12.9395 -24.4629 L 45.7031 -24.4629 Z M 29.1992 -67.0898 L 29.4434 -67.0898 L 44.8242 -26.709 L 13.8184 -26.709 Z"/></g><line id="Baseline-L" style="fill:none;stroke:#27AAE1;opacity:1;stroke-width:0.577;" x1="263" x2="3036" y1="1556" y2="1556"/><line id="Capline-L" style="fill:none;stroke:#27AAE1;opacity:1;stroke-width:0.577;" x1="263" x2="3036" y1="1485.54" y2="1485.54"/><rect height="119.336" id="left-margin" style="fill:darkred;stroke:none;opacity:0.4;" width="12.4512" x="1394.06" y="1030.79"/><rect height="119.336" id="right-margin" style="fill:darkgreen;stroke:none;opacity:0.4;" width="12.4512" x="1502.5112" y="1030.79"/><rect x="1406.5112" y="1045" width="96" height="96" fill="none" stroke="blue" stroke-dasharray="5"/><rect x="1394.06" y="1030.79" width="120.9024" height="119.336" fill="none" stroke="blue"/></g><g id="Symbols"><g id="Bold-L" transform="matrix(1 0 0 1 2266 1556)"><path d="M46.601 1.213 Q39.184 7.501 31.041 6.856 Q22.898 6.211 16.931 1.213 Q11.126 -3.786 9.03 -11.687 Q6.934 -19.589 12.094 -28.135 L24.51 -48.936 Q20.317 -52.806 17.899 -58.148 Q15.48 -63.492 15.48 -69.415 Q15.48 -81.11 23.662 -89.371 Q31.844 -97.634 43.538 -97.634 Q55.07 -97.634 63.333 -89.371 Q71.595 -81.11 71.595 -69.415 Q71.595 -57.881 63.333 -49.62 Q55.07 -41.357 43.538 -41.357 Q42.118 -41.357 40.619 -41.519 Q39.119 -41.68 37.894 -42.164 L24.994 -20.395 Q23.22 -17.331 23.894 -14.572 Q24.566 -11.815 26.635 -10.219 Q28.703 -8.462 31.444 -8.221 Q34.185 -7.979 36.765 -10.236 L108.36 -71.672 Q115.939 -78.122 124.163 -77.639 Q132.386 -77.155 138.191 -71.995 Q143.996 -66.835 145.931 -58.853 Q147.866 -50.871 142.868 -42.486 L130.774 -21.524 Q134.966 -17.815 137.385 -12.473 Q139.804 -7.129 139.804 -1.206 Q139.804 10.488 131.493 18.669 Q123.18 26.851 111.417 26.851 Q99.814 26.851 91.671 18.669 Q83.528 10.488 83.528 -1.206 Q83.528 -12.739 91.671 -21.001 Q99.814 -29.264 111.424 -29.264 Q112.831 -29.264 114.225 -29.183 Q115.616 -29.102 117.068 -28.78 L129.968 -50.226 Q131.741 -53.129 130.906 -55.968 Q130.072 -58.806 128.003 -60.403 Q125.936 -61.997 123.195 -62.239 Q120.454 -62.481 118.196 -60.385 L46.601 1.213 Z"/></g><g id="Semibold-L" transform="matrix(1 0 0 1 1970.27 1556)"><path d="M46.18 -0.05 Q39.184 5.889 31.531 5.279 Q23.88 4.67 18.263 -0.05 Q12.739 -4.768 10.818 -12.213 Q8.896 -19.658 13.706 -27.645 L26.472 -49.006 Q22.211 -52.666 19.721 -57.903 Q17.233 -63.141 17.233 -69.065 Q17.233 -80.128 25.029 -87.97 Q32.824 -95.812 43.887 -95.812 Q54.86 -95.812 62.702 -87.97 Q70.544 -80.128 70.544 -69.065 Q70.544 -58.092 62.702 -50.25 Q54.86 -42.409 43.887 -42.409 Q42.328 -42.409 40.724 -42.606 Q39.119 -42.802 37.753 -43.286 L24.573 -21.096 Q22.59 -17.752 23.333 -14.643 Q24.076 -11.534 26.424 -9.659 Q28.772 -7.692 31.9 -7.45 Q35.027 -7.208 37.887 -9.675 L108.71 -70.481 Q115.798 -76.51 123.532 -76.026 Q131.264 -75.542 136.788 -70.732 Q142.314 -65.924 144.143 -58.397 Q145.973 -50.871 141.255 -42.976 L128.74 -21.524 Q133.004 -17.955 135.492 -12.718 Q137.982 -7.48 137.982 -1.556 Q137.982 9.507 130.09 17.302 Q122.198 25.098 111.066 25.098 Q100.023 25.098 92.301 17.302 Q84.579 9.507 84.579 -1.556 Q84.579 -12.529 92.301 -20.371 Q100.023 -28.212 111.074 -28.212 Q112.622 -28.212 114.118 -28.096 Q115.616 -27.98 117.137 -27.588 L130.317 -49.525 Q132.302 -52.779 131.467 -55.933 Q130.633 -59.087 128.284 -60.962 Q125.936 -62.839 122.81 -63.081 Q119.683 -63.323 117.005 -60.946 L46.18 -0.05 Z"/></g><g id="Medium-L" transform="matrix(1 0 0 1 1674.31 1556)"><path d="M45.864 -0.997 Q39.184 4.679 31.9 4.096 Q24.615 3.512 19.263 -0.997 Q13.948 -5.504 12.158 -12.608 Q10.368 -19.711 14.916 -27.276 L27.945 -49.059 Q23.63 -52.561 21.088 -57.72 Q18.547 -62.878 18.547 -68.802 Q18.547 -79.392 26.053 -86.919 Q33.561 -94.444 44.15 -94.444 Q54.702 -94.444 62.228 -86.919 Q69.755 -79.392 69.755 -68.802 Q69.755 -58.25 62.228 -50.725 Q54.702 -43.197 44.15 -43.197 Q42.486 -43.197 40.803 -43.42 Q39.119 -43.642 37.649 -44.126 L24.257 -21.622 Q22.115 -18.068 22.912 -14.696 Q23.709 -11.325 26.266 -9.238 Q28.825 -7.113 32.242 -6.871 Q35.657 -6.629 38.727 -9.254 L108.973 -69.588 Q115.694 -75.301 123.058 -74.817 Q130.424 -74.333 135.737 -69.786 Q141.052 -65.24 142.803 -58.055 Q144.554 -50.871 140.046 -43.346 L127.215 -21.524 Q131.532 -18.06 134.073 -12.902 Q136.614 -7.743 136.614 -1.819 Q136.614 8.77 129.039 16.278 Q121.463 23.784 110.803 23.784 Q100.181 23.784 92.775 16.278 Q85.367 8.77 85.367 -1.819 Q85.367 -12.371 92.775 -19.897 Q100.181 -27.424 110.811 -27.424 Q112.464 -27.424 114.039 -27.282 Q115.616 -27.14 117.19 -26.695 L130.58 -48.999 Q132.723 -52.516 131.888 -55.905 Q131.053 -59.297 128.495 -61.383 Q125.936 -63.47 122.521 -63.712 Q119.104 -63.953 116.111 -61.367 L45.864 -0.997 Z"/></g><g id="Regular-L" transform="matrix(1 0 0 1 1378.56 1556)"><path d="M45.634 -1.69 Q39.184 3.793 32.169 3.228 Q25.155 2.664 19.995 -1.69 Q14.835 -6.044 13.142 -12.897 Q11.449 -19.75 15.803 -27.006 L29.025 -49.097 Q24.671 -52.484 22.091 -57.584 Q19.511 -62.686 19.511 -68.609 Q19.511 -78.853 26.806 -86.146 Q34.101 -93.441 44.344 -93.441 Q54.586 -93.441 61.881 -86.146 Q69.176 -78.853 69.176 -68.609 Q69.176 -58.365 61.881 -51.071 Q54.586 -43.776 44.344 -43.776 Q42.602 -43.776 40.861 -44.018 Q39.119 -44.26 37.571 -44.744 L24.026 -22.007 Q21.769 -18.299 22.604 -14.734 Q23.438 -11.17 26.152 -8.929 Q28.864 -6.689 32.492 -6.447 Q36.12 -6.205 39.345 -8.946 L109.166 -68.931 Q115.616 -74.414 122.711 -73.93 Q129.806 -73.446 134.966 -69.092 Q140.126 -64.739 141.819 -57.805 Q143.513 -50.871 139.159 -43.615 L126.097 -21.524 Q130.451 -18.137 133.031 -13.037 Q135.611 -7.935 135.611 -2.012 Q135.611 8.23 128.268 15.525 Q120.923 22.82 110.611 22.82 Q100.297 22.82 93.122 15.525 Q85.946 8.23 85.946 -2.012 Q85.946 -12.255 93.122 -19.55 Q100.297 -26.845 110.618 -26.845 Q112.348 -26.845 113.983 -26.684 Q115.616 -26.522 117.229 -26.039 L130.774 -48.614 Q133.031 -52.322 132.196 -55.888 Q131.362 -59.451 128.648 -61.693 Q125.936 -63.932 122.308 -64.174 Q118.68 -64.416 115.455 -61.675 L45.634 -1.69 Z"/></g><g id="Light-L" transform="matrix(1 0 0 1 1082.77 1556)"><path d="M46.068 -3.736 Q40.114 1.311 33.688 0.779 Q27.264 0.245 22.601 -3.736 Q17.875 -7.719 16.336 -13.951 Q14.798 -20.184 18.779 -26.821 L31.94 -48.788 Q27.711 -51.926 25.192 -56.717 Q22.675 -61.507 22.675 -67.182 Q22.675 -76.681 29.41 -83.418 Q36.147 -90.153 45.708 -90.153 Q55.207 -90.153 61.944 -83.418 Q68.68 -76.681 68.68 -67.182 Q68.68 -57.682 61.944 -50.947 Q55.207 -44.21 45.708 -44.21 Q43.781 -44.21 41.915 -44.515 Q40.05 -44.818 38.377 -45.426 L24.957 -22.999 Q22.575 -19.105 23.502 -15.324 Q24.431 -11.542 27.267 -9.177 Q30.104 -6.813 33.95 -6.54 Q37.795 -6.266 41.33 -9.195 L108.794 -66.822 Q114.625 -71.871 121.099 -71.448 Q127.573 -71.027 132.299 -67.046 Q136.963 -63.063 138.594 -56.75 Q140.225 -50.437 136.243 -43.739 L123.121 -21.772 Q127.35 -18.571 129.837 -13.781 Q132.323 -8.99 132.323 -3.377 Q132.323 6.123 125.538 12.858 Q118.753 19.595 109.184 19.595 Q99.615 19.595 92.998 12.827 Q86.38 6.06 86.38 -3.377 Q86.38 -12.876 92.998 -19.613 Q99.615 -26.348 109.19 -26.348 Q111.045 -26.348 112.865 -26.095 Q114.686 -25.84 116.422 -25.232 L129.843 -47.559 Q132.225 -51.516 131.328 -55.267 Q130.432 -59.018 127.594 -61.382 Q124.758 -63.747 120.913 -64.05 Q117.068 -64.355 113.533 -61.365 L46.068 -3.736 Z"/></g><g id="Thin-L" transform="matrix(1 0 0 1 787.282 1556)"><path d="M46.501 -5.783 Q41.045 -1.169 35.209 -1.671 Q29.372 -2.174 25.205 -5.783 Q20.913 -9.393 19.531 -15.006 Q18.147 -20.618 21.756 -26.634 L34.854 -48.477 Q30.749 -51.368 28.293 -55.847 Q25.837 -60.329 25.837 -65.756 Q25.837 -74.51 32.015 -80.69 Q38.194 -86.867 47.072 -86.867 Q55.828 -86.867 62.005 -80.69 Q68.185 -74.51 68.185 -65.756 Q68.185 -57 62.005 -50.823 Q55.828 -44.644 47.072 -44.644 Q44.96 -44.644 42.97 -45.01 Q40.98 -45.376 39.184 -46.108 L25.887 -23.992 Q23.381 -19.911 24.402 -15.912 Q25.423 -11.913 28.383 -9.425 Q31.344 -6.937 35.407 -6.632 Q39.469 -6.329 43.315 -9.443 L108.421 -64.715 Q113.631 -69.328 119.486 -68.968 Q125.341 -68.609 129.632 -65 Q133.8 -61.39 135.369 -55.696 Q136.938 -50.004 133.33 -43.863 L120.144 -22.02 Q124.25 -19.005 126.643 -14.525 Q129.037 -10.044 129.037 -4.741 Q129.037 4.013 122.81 10.193 Q116.582 16.37 107.757 16.37 Q98.933 16.37 92.874 10.13 Q86.814 3.889 86.814 -4.741 Q86.814 -13.497 92.874 -19.674 Q98.933 -25.853 107.765 -25.853 Q109.744 -25.853 111.749 -25.505 Q113.755 -25.158 115.616 -24.426 L128.913 -46.505 Q131.419 -50.71 130.459 -54.646 Q129.501 -58.584 126.541 -61.072 Q123.579 -63.56 119.517 -63.926 Q115.455 -64.292 111.609 -61.054 L46.501 -5.783 Z"/></g><g id="Ultralight-L" transform="matrix(1 0 0 1 491.205 1556)"><path d="M46.763 -7.011 Q41.602 -2.657 36.12 -3.141 Q30.637 -3.625 26.768 -7.011 Q22.736 -10.397 21.446 -15.638 Q20.156 -20.879 23.543 -26.522 L36.604 -48.291 Q32.572 -51.032 30.154 -55.327 Q27.735 -59.622 27.735 -64.9 Q27.735 -73.209 33.579 -79.051 Q39.422 -84.895 47.891 -84.895 Q56.199 -84.895 62.043 -79.051 Q67.886 -73.209 67.886 -64.9 Q67.886 -56.591 62.043 -50.749 Q56.199 -44.905 47.891 -44.905 Q45.666 -44.905 43.602 -45.308 Q41.538 -45.711 39.668 -46.517 L26.445 -24.587 Q23.865 -20.395 24.942 -16.265 Q26.018 -12.137 29.054 -9.574 Q32.089 -7.011 36.281 -6.689 Q40.474 -6.366 44.505 -9.591 L108.199 -63.449 Q113.036 -67.802 118.519 -67.48 Q124.001 -67.157 128.032 -63.771 Q131.903 -60.385 133.434 -55.064 Q134.966 -49.742 131.58 -43.937 L118.358 -22.169 Q122.389 -19.266 124.727 -14.972 Q127.065 -10.676 127.065 -5.56 Q127.065 2.748 121.173 8.591 Q115.279 14.435 106.902 14.435 Q98.524 14.435 92.799 8.511 Q87.075 2.586 87.075 -5.56 Q87.075 -13.868 92.799 -19.711 Q98.524 -25.555 106.909 -25.555 Q108.961 -25.555 111.08 -25.152 Q113.198 -24.749 115.133 -23.942 L128.355 -45.872 Q130.935 -50.226 129.938 -54.275 Q128.944 -58.323 125.907 -60.886 Q122.873 -63.449 118.68 -63.852 Q114.487 -64.255 110.456 -60.869 L46.763 -7.011 Z"/></g><g id="Bold-M" transform="matrix(1 0 0 1 2281.8 1126)"><path d="M38 -5.98 Q31.875 -0.73 25 -1.23 Q18.125 -1.73 13 -5.855 Q8 -9.98 6.062 -16.855 Q4.125 -23.73 8.5 -30.855 L17.125 -45.105 Q14.25 -48.23 12.5 -52.355 Q10.75 -56.48 10.75 -61.105 Q10.75 -70.855 17.562 -77.667 Q24.375 -84.48 34.125 -84.48 Q43.875 -84.48 50.688 -77.667 Q57.5 -70.855 57.5 -61.105 Q57.5 -51.355 50.688 -44.542 Q43.875 -37.73 34.125 -37.73 Q33.375 -37.73 32.562 -37.792 Q31.75 -37.855 31 -37.98 L22 -22.73 Q21.125 -21.355 21.438 -19.98 Q21.75 -18.605 22.75 -17.73 Q23.75 -16.855 25.125 -16.73 Q26.5 -16.605 27.75 -17.73 L82.125 -64.48 Q88.5 -69.98 95.438 -69.417 Q102.375 -68.855 107.375 -64.605 Q112.375 -60.355 114.062 -53.542 Q115.75 -46.73 111.5 -39.605 L103 -25.23 Q105.875 -22.105 107.562 -18.042 Q109.25 -13.98 109.25 -9.355 Q109.25 0.395 102.438 7.208 Q95.625 14.02 85.875 14.02 Q76.125 14.02 69.312 7.208 Q62.5 0.395 62.5 -9.355 Q62.5 -19.105 69.312 -25.917 Q76.125 -32.73 85.875 -32.73 Q86.75 -32.73 87.5 -32.667 Q88.25 -32.605 89 -32.48 L98.125 -47.605 Q99 -48.98 98.562 -50.355 Q98.125 -51.73 97.125 -52.605 Q96.125 -53.48 94.75 -53.542 Q93.375 -53.605 92.25 -52.605 L38 -5.98 Z"/></g><g id="Semibold-M" transform="matrix(1 0 0 1 1985.97 1126)"><path d="M37.565 -7.284 Q31.821 -2.415 25.462 -2.86 Q19.104 -3.306 14.359 -7.159 Q9.685 -11.012 7.91 -17.371 Q6.136 -23.73 10.185 -30.366 L19.136 -45.159 Q16.152 -48.121 14.375 -52.137 Q12.598 -56.154 12.598 -60.725 Q12.598 -69.822 19.003 -76.227 Q25.407 -82.632 34.505 -82.632 Q43.604 -82.632 50.009 -76.227 Q56.413 -69.822 56.413 -60.725 Q56.413 -51.626 50.009 -45.221 Q43.604 -38.817 34.505 -38.817 Q33.593 -38.817 32.644 -38.906 Q31.696 -38.996 30.837 -39.175 L21.565 -23.491 Q20.473 -21.735 20.867 -20.007 Q21.261 -18.279 22.532 -17.186 Q23.804 -16.094 25.56 -15.942 Q27.315 -15.79 28.945 -17.186 L82.505 -63.23 Q88.391 -68.241 94.812 -67.732 Q101.234 -67.225 105.907 -63.301 Q110.581 -59.376 112.188 -53.054 Q113.794 -46.73 109.815 -40.094 L100.935 -25.23 Q103.919 -22.267 105.66 -18.287 Q107.403 -14.306 107.403 -9.735 Q107.403 -0.637 100.998 5.768 Q94.593 12.173 85.495 12.173 Q76.396 12.173 69.991 5.768 Q63.587 -0.637 63.587 -9.735 Q63.587 -18.834 69.991 -25.239 Q76.396 -31.642 85.495 -31.642 Q86.479 -31.642 87.364 -31.554 Q88.25 -31.464 89.109 -31.285 L98.505 -46.899 Q99.597 -48.654 99.132 -50.382 Q98.669 -52.11 97.396 -53.202 Q96.125 -54.295 94.37 -54.412 Q92.614 -54.529 91.055 -53.202 L37.565 -7.284 Z"/></g><g id="Medium-M" transform="matrix(1 0 0 1 1689.91 1126)"><path d="M37.239 -8.262 Q31.78 -3.679 25.809 -4.084 Q19.837 -4.489 15.377 -8.137 Q10.949 -11.787 9.296 -17.759 Q7.644 -23.73 11.449 -29.999 L20.644 -45.2 Q17.579 -48.04 15.781 -51.975 Q13.984 -55.909 13.984 -60.439 Q13.984 -69.047 20.082 -75.147 Q26.183 -81.246 34.791 -81.246 Q43.4 -81.246 49.499 -75.147 Q55.597 -69.047 55.597 -60.439 Q55.597 -51.83 49.499 -45.731 Q43.4 -39.632 34.791 -39.632 Q33.755 -39.632 32.705 -39.742 Q31.655 -39.852 30.715 -40.072 L21.239 -24.061 Q19.984 -22.021 20.439 -20.027 Q20.894 -18.034 22.37 -16.779 Q23.845 -15.524 25.886 -15.351 Q27.926 -15.179 29.843 -16.779 L82.791 -62.292 Q88.31 -66.936 94.344 -66.469 Q100.377 -66.001 104.808 -62.322 Q109.236 -58.642 110.781 -52.686 Q112.326 -46.73 108.551 -40.461 L99.386 -25.23 Q102.451 -22.39 104.234 -18.47 Q106.016 -14.551 106.016 -10.021 Q106.016 -1.412 99.918 4.688 Q93.817 10.786 85.209 10.786 Q76.6 10.786 70.501 4.688 Q64.403 -1.412 64.403 -10.021 Q64.403 -18.63 70.501 -24.729 Q76.6 -30.827 85.209 -30.827 Q86.275 -30.827 87.263 -30.717 Q88.25 -30.607 89.19 -30.387 L98.791 -46.369 Q100.046 -48.409 99.561 -50.402 Q99.076 -52.396 97.6 -53.651 Q96.125 -54.906 94.084 -55.064 Q92.044 -55.221 90.157 -53.651 L37.239 -8.262 Z"/></g><g id="Regular-M" transform="matrix(1 0 0 1 1394.06 1126)"><path d="M37 -8.98 Q31.75 -4.605 26.062 -4.98 Q20.375 -5.355 16.125 -8.855 Q11.875 -12.355 10.312 -18.042 Q8.75 -23.73 12.375 -29.73 L21.75 -45.23 Q18.625 -47.98 16.812 -51.855 Q15 -55.73 15 -60.23 Q15 -68.48 20.875 -74.355 Q26.75 -80.23 35 -80.23 Q43.25 -80.23 49.125 -74.355 Q55 -68.48 55 -60.23 Q55 -51.98 49.125 -46.105 Q43.25 -40.23 35 -40.23 Q33.875 -40.23 32.75 -40.355 Q31.625 -40.48 30.625 -40.73 L21 -24.48 Q19.625 -22.23 20.125 -20.042 Q20.625 -17.855 22.25 -16.48 Q23.875 -15.105 26.125 -14.917 Q28.375 -14.73 30.5 -16.48 L83 -61.605 Q88.25 -65.98 94 -65.542 Q99.75 -65.105 104 -61.605 Q108.25 -58.105 109.75 -52.417 Q111.25 -46.73 107.625 -40.73 L98.25 -25.23 Q101.375 -22.48 103.188 -18.605 Q105 -14.73 105 -10.23 Q105 -1.98 99.125 3.895 Q93.25 9.77 85 9.77 Q76.75 9.77 70.875 3.895 Q65 -1.98 65 -10.23 Q65 -18.48 70.875 -24.355 Q76.75 -30.23 85 -30.23 Q86.125 -30.23 87.188 -30.105 Q88.25 -29.98 89.25 -29.73 L99 -45.98 Q100.375 -48.23 99.875 -50.417 Q99.375 -52.605 97.75 -53.98 Q96.125 -55.355 93.875 -55.542 Q91.625 -55.73 89.5 -53.98 L37 -8.98 Z"/></g><g id="Light-M" transform="matrix(1 0 0 1 1098.18 1126)"><path d="M36.904 -10.615 Q32.135 -6.625 26.953 -7 Q21.769 -7.375 17.953 -10.537 Q14.135 -13.701 12.765 -18.836 Q11.395 -23.97 14.635 -29.345 L24.203 -45.182 Q21.125 -47.691 19.312 -51.374 Q17.5 -55.056 17.5 -59.365 Q17.5 -66.99 22.87 -72.36 Q28.24 -77.73 35.865 -77.73 Q43.49 -77.73 48.86 -72.36 Q54.231 -66.99 54.231 -59.365 Q54.231 -51.74 48.86 -46.37 Q43.49 -40.999 35.865 -40.999 Q34.549 -40.999 33.279 -41.172 Q32.01 -41.345 30.865 -41.74 L21.096 -25.394 Q19.529 -22.807 20.125 -20.307 Q20.721 -17.807 22.586 -16.24 Q24.453 -14.672 27.039 -14.461 Q29.625 -14.249 32.039 -16.24 L83.144 -59.922 Q87.865 -63.912 93.039 -63.522 Q98.211 -63.134 102.076 -59.97 Q105.942 -56.806 107.323 -51.672 Q108.701 -46.537 105.414 -41.115 L95.797 -25.23 Q98.875 -22.72 100.688 -19.061 Q102.5 -15.404 102.5 -11.095 Q102.5 -3.47 97.105 1.9 Q91.711 7.27 84.086 7.27 Q76.51 7.27 71.14 1.875 Q65.769 -3.519 65.769 -11.095 Q65.769 -18.672 71.14 -24.066 Q76.51 -29.461 84.086 -29.461 Q85.404 -29.461 86.659 -29.264 Q87.914 -29.066 89.058 -28.672 L98.904 -45.066 Q100.471 -47.652 99.899 -50.152 Q99.328 -52.652 97.461 -54.22 Q95.596 -55.787 93.01 -56.024 Q90.422 -56.259 88.01 -54.22 L36.904 -10.615 Z"/></g><g id="Thin-M" transform="matrix(1 0 0 1 802.565 1126)"><path d="M36.807 -12.249 Q32.519 -8.644 27.841 -9.019 Q23.164 -9.394 19.779 -12.22 Q16.394 -15.047 15.216 -19.629 Q14.039 -24.211 16.894 -28.961 L26.654 -45.134 Q23.625 -47.402 21.812 -50.894 Q20 -54.384 20 -58.499 Q20 -65.499 24.865 -70.365 Q29.731 -75.23 36.731 -75.23 Q43.731 -75.23 48.596 -70.365 Q53.461 -65.499 53.461 -58.499 Q53.461 -51.499 48.596 -46.634 Q43.731 -41.769 36.731 -41.769 Q35.221 -41.769 33.807 -41.99 Q32.394 -42.211 31.106 -42.749 L21.192 -26.307 Q19.433 -23.384 20.125 -20.571 Q20.817 -17.759 22.922 -15.999 Q25.029 -14.24 27.953 -14.004 Q30.875 -13.769 33.578 -15.999 L83.289 -58.24 Q87.481 -61.845 92.078 -61.504 Q96.672 -61.162 100.154 -58.336 Q103.635 -55.509 104.894 -50.927 Q106.154 -46.345 103.203 -41.499 L93.346 -25.23 Q96.375 -22.961 98.188 -19.519 Q100 -16.076 100 -11.961 Q100 -4.961 95.086 -0.095 Q90.172 4.77 83.172 4.77 Q76.269 4.77 71.404 -0.144 Q66.539 -5.057 66.539 -11.961 Q66.539 -18.865 71.404 -23.777 Q76.269 -28.691 83.172 -28.691 Q84.683 -28.691 86.13 -28.422 Q87.578 -28.152 88.865 -27.615 L98.808 -44.152 Q100.567 -47.076 99.922 -49.889 Q99.279 -52.701 97.172 -54.461 Q95.067 -56.22 92.144 -56.504 Q89.221 -56.787 86.519 -54.461 L36.807 -12.249 Z"/></g><g id="Ultralight-M" transform="matrix(1 0 0 1 506.415 1126)"><path d="M36.75 -13.23 Q32.75 -9.855 28.375 -10.23 Q24 -10.605 20.875 -13.23 Q17.75 -15.855 16.688 -20.105 Q15.625 -24.355 18.25 -28.73 L28.125 -45.105 Q25.125 -47.23 23.312 -50.605 Q21.5 -53.98 21.5 -57.98 Q21.5 -64.605 26.062 -69.167 Q30.625 -73.73 37.25 -73.73 Q43.875 -73.73 48.438 -69.167 Q53 -64.605 53 -57.98 Q53 -51.355 48.438 -46.792 Q43.875 -42.23 37.25 -42.23 Q35.625 -42.23 34.125 -42.48 Q32.625 -42.73 31.25 -43.355 L21.25 -26.855 Q19.375 -23.73 20.125 -20.73 Q20.875 -17.73 23.125 -15.855 Q25.375 -13.98 28.5 -13.73 Q31.625 -13.48 34.5 -15.855 L83.375 -57.23 Q87.25 -60.605 91.5 -60.292 Q95.75 -59.98 99 -57.355 Q102.25 -54.73 103.438 -50.48 Q104.625 -46.23 101.875 -41.73 L91.875 -25.23 Q94.875 -23.105 96.688 -19.792 Q98.5 -16.48 98.5 -12.48 Q98.5 -5.855 93.875 -1.292 Q89.25 3.27 82.625 3.27 Q76.125 3.27 71.562 -1.355 Q67 -5.98 67 -12.48 Q67 -18.98 71.562 -23.605 Q76.125 -28.23 82.625 -28.23 Q84.25 -28.23 85.812 -27.917 Q87.375 -27.605 88.75 -26.98 L98.75 -43.605 Q100.625 -46.73 99.938 -49.73 Q99.25 -52.73 97 -54.605 Q94.75 -56.48 91.625 -56.792 Q88.5 -57.105 85.625 -54.605 L36.75 -13.23 Z"/></g><g id="Bold-S" transform="matrix(1 0 0 1 2294.23 696)"><path d="M35.998 -14.223 Q30.771 -8.503 24.262 -8.651 Q17.753 -8.798 12.92 -12.448 Q8.186 -16.097 6.411 -22.31 Q4.635 -28.523 8.778 -35.131 L14.498 -44.303 Q12.821 -46.572 11.835 -49.235 Q10.849 -51.898 10.849 -54.856 Q10.849 -61.957 15.731 -66.839 Q20.613 -71.721 27.714 -71.721 Q34.815 -71.721 39.697 -66.839 Q44.579 -61.957 44.579 -54.856 Q44.579 -47.755 39.697 -42.873 Q34.815 -37.991 27.714 -37.991 Q26.925 -37.991 26.136 -38.139 Q25.347 -38.287 24.459 -38.485 L18.64 -29.115 Q17.161 -26.847 17.851 -24.776 Q18.541 -22.705 20.218 -21.422 Q21.895 -20.14 24.015 -20.19 Q26.136 -20.239 27.812 -22.31 L58.781 -56.138 Q64.205 -62.056 70.665 -61.957 Q77.125 -61.859 81.859 -58.111 Q86.593 -54.363 88.269 -48.199 Q89.946 -42.035 85.902 -35.329 L80.281 -26.058 Q81.957 -23.789 82.894 -21.176 Q83.831 -18.562 83.831 -15.604 Q83.831 -8.503 78.949 -3.621 Q74.067 1.261 66.966 1.261 Q59.865 1.261 54.983 -3.621 Q50.102 -8.503 50.102 -15.604 Q50.102 -22.705 54.983 -27.587 Q59.865 -32.468 66.966 -32.468 Q67.854 -32.468 68.643 -32.321 Q69.432 -32.173 70.32 -31.975 L76.139 -41.246 Q77.618 -43.514 76.829 -45.635 Q76.04 -47.755 74.363 -49.037 Q72.687 -50.32 70.517 -50.172 Q68.347 -50.024 66.868 -48.051 L35.998 -14.223 Z"/></g><g id="Semibold-S" transform="matrix(1 0 0 1 1998.1 696)"><path d="M35.655 -15.252 Q30.729 -9.832 24.627 -9.937 Q18.525 -10.042 13.992 -13.476 Q9.515 -16.911 7.868 -22.717 Q6.222 -28.523 10.107 -34.746 L16.085 -44.346 Q14.322 -46.486 13.314 -49.063 Q12.306 -51.64 12.306 -54.557 Q12.306 -61.143 16.867 -65.703 Q21.427 -70.264 28.013 -70.264 Q34.601 -70.264 39.161 -65.703 Q43.72 -61.143 43.72 -54.557 Q43.72 -47.969 39.161 -43.409 Q34.601 -38.85 28.013 -38.85 Q27.096 -38.85 26.2 -39.018 Q25.304 -39.188 24.331 -39.427 L18.297 -29.716 Q16.646 -27.147 17.401 -24.797 Q18.156 -22.447 20.047 -20.993 Q21.937 -19.54 24.358 -19.568 Q26.779 -19.596 28.755 -21.881 L59.08 -55.152 Q64.119 -60.684 70.172 -60.628 Q76.224 -60.573 80.701 -57.082 Q85.177 -53.591 86.79 -47.814 Q88.403 -42.035 84.573 -35.714 L78.651 -26.058 Q80.414 -23.918 81.393 -21.369 Q82.374 -18.82 82.374 -15.903 Q82.374 -9.317 77.813 -4.757 Q73.253 -0.196 66.667 -0.196 Q60.079 -0.196 55.519 -4.757 Q50.96 -9.317 50.96 -15.903 Q50.96 -22.491 55.519 -27.051 Q60.079 -31.61 66.667 -31.61 Q67.64 -31.61 68.535 -31.442 Q69.432 -31.272 70.405 -31.033 L76.438 -40.689 Q78.089 -43.257 77.279 -45.657 Q76.469 -48.055 74.577 -49.509 Q72.687 -50.963 70.217 -50.858 Q67.746 -50.753 65.925 -48.523 L35.655 -15.252 Z"/></g><g id="Medium-S" transform="matrix(1 0 0 1 1701.85 696)"><path d="M35.397 -16.024 Q30.696 -10.829 24.9 -10.902 Q19.104 -10.975 14.796 -14.249 Q10.512 -17.523 8.962 -23.023 Q7.412 -28.523 11.104 -34.456 L17.274 -44.378 Q15.448 -46.422 14.424 -48.935 Q13.4 -51.447 13.4 -54.331 Q13.4 -60.531 17.719 -64.851 Q22.039 -69.17 28.239 -69.17 Q34.44 -69.17 38.759 -64.851 Q43.077 -60.531 43.077 -54.331 Q43.077 -48.13 38.759 -43.811 Q34.44 -39.493 28.239 -39.493 Q27.224 -39.493 26.248 -39.678 Q25.272 -39.863 24.234 -40.136 L18.039 -30.166 Q16.26 -27.373 17.063 -24.813 Q17.866 -22.254 19.918 -20.672 Q21.97 -19.09 24.616 -19.102 Q27.261 -19.114 29.463 -21.56 L59.306 -54.413 Q64.055 -59.654 69.802 -59.631 Q75.549 -59.607 79.833 -56.31 Q84.116 -53.012 85.68 -47.524 Q87.245 -42.035 83.576 -36.004 L77.43 -26.058 Q79.256 -24.014 80.268 -21.513 Q81.28 -19.013 81.28 -16.129 Q81.28 -9.929 76.961 -5.609 Q72.641 -1.29 66.441 -1.29 Q60.24 -1.29 55.921 -5.609 Q51.603 -9.929 51.603 -16.129 Q51.603 -22.33 55.921 -26.649 Q60.24 -30.967 66.441 -30.967 Q67.479 -30.967 68.456 -30.782 Q69.432 -30.597 70.47 -30.324 L76.664 -40.271 Q78.443 -43.064 77.617 -45.672 Q76.79 -48.281 74.738 -49.863 Q72.687 -51.445 69.991 -51.372 Q67.297 -51.299 65.217 -48.877 L35.397 -16.024 Z"/></g><g id="Regular-S" transform="matrix(1 0 0 1 1405.73 696)"><path d="M35.209 -16.59 Q30.672 -11.56 25.1 -11.609 Q19.528 -11.659 15.386 -14.815 Q11.243 -17.971 9.764 -23.247 Q8.284 -28.523 11.835 -34.244 L18.147 -44.402 Q16.273 -46.375 15.238 -48.84 Q14.202 -51.306 14.202 -54.166 Q14.202 -60.083 18.344 -64.226 Q22.486 -68.368 28.404 -68.368 Q34.322 -68.368 38.464 -64.226 Q42.606 -60.083 42.606 -54.166 Q42.606 -48.248 38.464 -44.106 Q34.322 -39.964 28.404 -39.964 Q27.319 -39.964 26.284 -40.161 Q25.248 -40.358 24.163 -40.654 L17.851 -30.496 Q15.977 -27.537 16.816 -24.825 Q17.654 -22.113 19.824 -20.436 Q21.993 -18.76 24.804 -18.76 Q27.615 -18.76 29.982 -21.324 L59.471 -53.87 Q64.008 -58.9 69.531 -58.9 Q75.054 -58.9 79.196 -55.744 Q83.338 -52.588 84.867 -47.312 Q86.395 -42.035 82.845 -36.216 L76.533 -26.058 Q78.407 -24.085 79.442 -21.62 Q80.478 -19.154 80.478 -16.294 Q80.478 -10.376 76.336 -6.234 Q72.194 -2.092 66.276 -2.092 Q60.358 -2.092 56.216 -6.234 Q52.074 -10.376 52.074 -16.294 Q52.074 -22.211 56.216 -26.354 Q60.358 -30.496 66.276 -30.496 Q67.361 -30.496 68.396 -30.299 Q69.432 -30.101 70.517 -29.806 L76.829 -39.964 Q78.703 -42.923 77.864 -45.684 Q77.026 -48.446 74.856 -50.122 Q72.687 -51.799 69.827 -51.75 Q66.966 -51.7 64.698 -49.136 L35.209 -16.59 Z"/></g><g id="Light-S" transform="matrix(1 0 0 1 1109.75 696)"><path d="M35.133 -17.88 Q30.976 -13.154 25.802 -13.203 Q20.627 -13.252 16.827 -16.142 Q13.026 -19.033 11.699 -23.873 Q10.371 -28.713 13.618 -33.94 L20.082 -44.365 Q18.246 -46.147 17.21 -48.461 Q16.175 -50.774 16.175 -53.484 Q16.175 -58.908 19.918 -62.652 Q23.662 -66.395 29.086 -66.395 Q34.511 -66.395 38.255 -62.652 Q41.999 -58.908 41.999 -53.484 Q41.999 -48.059 38.255 -44.315 Q34.511 -40.571 29.086 -40.571 Q27.851 -40.571 26.701 -40.806 Q25.552 -41.041 24.352 -41.451 L17.927 -31.217 Q15.901 -27.993 16.816 -25.034 Q17.73 -22.075 20.089 -20.247 Q22.449 -18.418 25.525 -18.4 Q28.601 -18.38 31.196 -21.135 L59.584 -52.543 Q63.704 -57.269 68.772 -57.306 Q73.84 -57.345 77.678 -54.454 Q81.518 -51.563 82.952 -46.724 Q84.385 -41.883 81.1 -36.52 L74.598 -26.058 Q76.434 -24.275 77.47 -21.98 Q78.505 -19.686 78.505 -16.976 Q78.505 -11.552 74.742 -7.808 Q70.979 -4.064 65.555 -4.064 Q60.169 -4.064 56.425 -7.828 Q52.681 -11.591 52.681 -16.976 Q52.681 -22.363 56.425 -26.126 Q60.169 -29.889 65.555 -29.889 Q66.792 -29.889 67.979 -29.635 Q69.167 -29.381 70.365 -28.971 L76.753 -39.243 Q78.779 -42.467 77.883 -45.475 Q76.989 -48.483 74.629 -50.312 Q72.269 -52.14 69.144 -52.129 Q66.018 -52.118 63.522 -49.325 L35.133 -17.88 Z"/></g><g id="Thin-S" transform="matrix(1 0 0 1 814.015 696)"><path d="M35.057 -19.169 Q31.279 -14.747 26.503 -14.796 Q21.728 -14.845 18.268 -17.47 Q14.809 -20.095 13.633 -24.499 Q12.457 -28.903 15.4 -33.637 L22.016 -44.326 Q20.218 -45.919 19.183 -48.082 Q18.147 -50.244 18.147 -52.8 Q18.147 -57.731 21.492 -61.078 Q24.839 -64.423 29.77 -64.423 Q34.701 -64.423 38.047 -61.078 Q41.392 -57.731 41.392 -52.8 Q41.392 -47.869 38.047 -44.523 Q34.701 -41.178 29.77 -41.178 Q28.381 -41.178 27.118 -41.451 Q25.855 -41.724 24.543 -42.247 L18.003 -31.938 Q15.825 -28.448 16.816 -25.242 Q17.806 -22.037 20.354 -20.057 Q22.904 -18.077 26.246 -18.039 Q29.588 -18.001 32.41 -20.944 L59.699 -51.215 Q63.401 -55.637 68.014 -55.713 Q72.625 -55.789 76.161 -53.165 Q79.697 -50.54 81.035 -46.136 Q82.375 -41.731 79.356 -36.823 L72.664 -26.058 Q74.462 -24.465 75.497 -22.341 Q76.533 -20.216 76.533 -17.66 Q76.533 -12.729 73.149 -9.382 Q69.765 -6.037 64.834 -6.037 Q59.979 -6.037 56.633 -9.421 Q53.288 -12.805 53.288 -17.66 Q53.288 -22.515 56.633 -25.898 Q59.979 -29.282 64.834 -29.282 Q66.223 -29.282 67.562 -28.971 Q68.901 -28.66 70.213 -28.137 L76.677 -38.522 Q78.855 -42.012 77.902 -45.267 Q76.95 -48.522 74.401 -50.502 Q71.852 -52.481 68.461 -52.508 Q65.07 -52.535 62.346 -49.516 L35.057 -19.169 Z"/></g><g id="Ultralight-S" transform="matrix(1 0 0 1 517.792 696)"><path d="M35.012 -19.943 Q31.461 -15.702 26.925 -15.752 Q22.388 -15.801 19.133 -18.266 Q15.879 -20.732 14.794 -24.874 Q13.709 -29.017 16.47 -33.455 L23.177 -44.303 Q21.402 -45.783 20.366 -47.854 Q19.331 -49.925 19.331 -52.391 Q19.331 -57.026 22.437 -60.133 Q25.544 -63.239 30.179 -63.239 Q34.815 -63.239 37.921 -60.133 Q41.028 -57.026 41.028 -52.391 Q41.028 -47.755 37.921 -44.649 Q34.815 -41.542 30.179 -41.542 Q28.7 -41.542 27.368 -41.838 Q26.037 -42.134 24.656 -42.725 L18.048 -32.37 Q15.78 -28.721 16.816 -25.367 Q17.851 -22.014 20.514 -19.943 Q23.177 -17.872 26.678 -17.823 Q30.179 -17.773 33.138 -20.831 L59.767 -50.418 Q63.219 -54.659 67.558 -54.758 Q71.898 -54.856 75.251 -52.391 Q78.604 -49.925 79.886 -45.783 Q81.168 -41.641 78.308 -37.005 L71.503 -26.058 Q73.278 -24.578 74.314 -22.557 Q75.35 -20.535 75.35 -18.069 Q75.35 -13.434 72.194 -10.327 Q69.038 -7.22 64.402 -7.22 Q59.865 -7.22 56.759 -10.376 Q53.652 -13.532 53.652 -18.069 Q53.652 -22.606 56.759 -25.762 Q59.865 -28.918 64.402 -28.918 Q65.882 -28.918 67.312 -28.573 Q68.742 -28.228 70.122 -27.636 L76.632 -38.09 Q78.9 -41.739 77.914 -45.142 Q76.928 -48.544 74.265 -50.615 Q71.602 -52.687 68.051 -52.736 Q64.501 -52.785 61.641 -49.629 L35.012 -19.943 Z"/></g></g></svg>